<svg width="174" height="24" viewBox="0 0 174 24" fill="none" xmlns="http://www.w3.org/2000/svg">
<path d="M10.08 6.88V18H8.256V13.136H3.024V18H1.2V6.88H3.024V11.648H8.256V6.88H10.08ZM16.3053 18.144C15.4733 18.144 14.7213 17.9573 14.0493 17.584C13.3773 17.2 12.8493 16.6667 12.4653 15.984C12.0813 15.2907 11.8893 14.4907 11.8893 13.584C11.8893 12.688 12.0866 11.8933 12.4813 11.2C12.8759 10.5067 13.4146 9.97333 14.0973 9.6C14.7799 9.22667 15.5426 9.04 16.3853 9.04C17.2279 9.04 17.9906 9.22667 18.6733 9.6C19.3559 9.97333 19.8946 10.5067 20.2893 11.2C20.6839 11.8933 20.8813 12.688 20.8813 13.584C20.8813 14.48 20.6786 15.2747 20.2733 15.968C19.8679 16.6613 19.3133 17.2 18.6093 17.584C17.9159 17.9573 17.1479 18.144 16.3053 18.144ZM16.3053 16.56C16.7746 16.56 17.2119 16.448 17.6173 16.224C18.0333 16 18.3693 15.664 18.6253 15.216C18.8813 14.768 19.0093 14.224 19.0093 13.584C19.0093 12.944 18.8866 12.4053 18.6413 11.968C18.3959 11.52 18.0706 11.184 17.6653 10.96C17.2599 10.736 16.8226 10.624 16.3533 10.624C15.8839 10.624 15.4466 10.736 15.0413 10.96C14.6466 11.184 14.3319 11.52 14.0973 11.968C13.8626 12.4053 13.7453 12.944 13.7453 13.584C13.7453 14.5333 13.9853 15.2693 14.4653 15.792C14.9559 16.304 15.5693 16.56 16.3053 16.56ZM33.3564 9.04C34.0497 9.04 34.6684 9.184 35.2124 9.472C35.767 9.76 36.199 10.1867 36.5084 10.752C36.8284 11.3173 36.9884 12 36.9884 12.8V18H35.1804V13.072C35.1804 12.2827 34.983 11.68 34.5884 11.264C34.1937 10.8373 33.655 10.624 32.9724 10.624C32.2897 10.624 31.7457 10.8373 31.3404 11.264C30.9457 11.68 30.7484 12.2827 30.7484 13.072V18H28.9404V13.072C28.9404 12.2827 28.743 11.68 28.3484 11.264C27.9537 10.8373 27.415 10.624 26.7324 10.624C26.0497 10.624 25.5057 10.8373 25.1004 11.264C24.7057 11.68 24.5084 12.2827 24.5084 13.072V18H22.6844V9.184H24.5084V10.192C24.807 9.82933 25.1857 9.54667 25.6444 9.344C26.103 9.14133 26.5937 9.04 27.1164 9.04C27.8204 9.04 28.4497 9.18933 29.0044 9.488C29.559 9.78667 29.9857 10.2187 30.2844 10.784C30.551 10.2507 30.967 9.82933 31.5324 9.52C32.0977 9.2 32.7057 9.04 33.3564 9.04ZM47.3894 13.376C47.3894 13.7067 47.368 14.0053 47.3254 14.272H40.5894C40.6427 14.976 40.904 15.5413 41.3734 15.968C41.8427 16.3947 42.4187 16.608 43.1014 16.608C44.0827 16.608 44.776 16.1973 45.1814 15.376H47.1494C46.8827 16.1867 46.3974 16.8533 45.6934 17.376C45 17.888 44.136 18.144 43.1014 18.144C42.2587 18.144 41.5014 17.9573 40.8294 17.584C40.168 17.2 39.6454 16.6667 39.2614 15.984C38.888 15.2907 38.7014 14.4907 38.7014 13.584C38.7014 12.6773 38.8827 11.8827 39.2454 11.2C39.6187 10.5067 40.136 9.97333 40.7974 9.6C41.4694 9.22667 42.2374 9.04 43.1014 9.04C43.9334 9.04 44.6747 9.22133 45.3254 9.584C45.976 9.94667 46.4827 10.4587 46.8454 11.12C47.208 11.7707 47.3894 12.5227 47.3894 13.376ZM45.4854 12.8C45.4747 12.128 45.2347 11.5893 44.7654 11.184C44.296 10.7787 43.7147 10.576 43.0214 10.576C42.392 10.576 41.8534 10.7787 41.4054 11.184C40.9574 11.5787 40.6907 12.1173 40.6054 12.8H45.4854Z" fill="black"/>
<path d="M92.208 6.96V18H91.088V9.184L87.152 18H86.336L82.4 9.216V18H81.28V6.96H82.464L86.736 16.528L91.008 6.96H92.208ZM101.949 9.264L96.7648 22.112H95.5968L97.2928 17.952L93.7088 9.264H94.9408L97.9168 16.72L100.797 9.264H101.949ZM107.346 13.616C107.346 12.72 107.522 11.936 107.874 11.264C108.237 10.5813 108.733 10.0587 109.362 9.696C110.002 9.32267 110.722 9.136 111.522 9.136C112.354 9.136 113.069 9.328 113.666 9.712C114.274 10.096 114.711 10.5867 114.978 11.184V9.264H116.098V18H114.978V16.064C114.701 16.6613 114.258 17.1573 113.65 17.552C113.053 17.936 112.338 18.128 111.506 18.128C110.717 18.128 110.002 17.9413 109.362 17.568C108.733 17.1947 108.237 16.6667 107.874 15.984C107.522 15.3013 107.346 14.512 107.346 13.616ZM114.978 13.632C114.978 12.928 114.834 12.3093 114.546 11.776C114.258 11.2427 113.863 10.832 113.362 10.544C112.871 10.256 112.327 10.112 111.73 10.112C111.111 10.112 110.557 10.2507 110.066 10.528C109.575 10.8053 109.186 11.2107 108.898 11.744C108.621 12.2667 108.482 12.8907 108.482 13.616C108.482 14.3307 108.621 14.96 108.898 15.504C109.186 16.0373 109.575 16.448 110.066 16.736C110.557 17.0133 111.111 17.152 111.73 17.152C112.327 17.152 112.871 17.008 113.362 16.72C113.863 16.432 114.258 16.0213 114.546 15.488C114.834 14.9547 114.978 14.336 114.978 13.632ZM118.143 13.632C118.143 12.7253 118.324 11.936 118.687 11.264C119.05 10.5813 119.551 10.0587 120.191 9.696C120.831 9.32267 121.562 9.136 122.383 9.136C123.46 9.136 124.346 9.40267 125.039 9.936C125.743 10.4693 126.196 11.1947 126.399 12.112H125.199C125.05 11.4827 124.724 10.992 124.223 10.64C123.732 10.2773 123.119 10.096 122.383 10.096C121.796 10.096 121.268 10.2293 120.799 10.496C120.33 10.7627 119.956 11.1627 119.679 11.696C119.412 12.2187 119.279 12.864 119.279 13.632C119.279 14.4 119.412 15.0507 119.679 15.584C119.956 16.1173 120.33 16.5173 120.799 16.784C121.268 17.0507 121.796 17.184 122.383 17.184C123.119 17.184 123.732 17.008 124.223 16.656C124.724 16.2933 125.05 15.792 125.199 15.152H126.399C126.196 16.048 125.743 16.768 125.039 17.312C124.335 17.856 123.45 18.128 122.383 18.128C121.562 18.128 120.831 17.9467 120.191 17.584C119.551 17.2107 119.05 16.688 118.687 16.016C118.324 15.3333 118.143 14.5387 118.143 13.632ZM127.956 13.632C127.956 12.7253 128.137 11.936 128.5 11.264C128.862 10.5813 129.364 10.0587 130.004 9.696C130.644 9.32267 131.374 9.136 132.196 9.136C133.273 9.136 134.158 9.40267 134.852 9.936C135.556 10.4693 136.009 11.1947 136.212 12.112H135.012C134.862 11.4827 134.537 10.992 134.036 10.64C133.545 10.2773 132.932 10.096 132.196 10.096C131.609 10.096 131.081 10.2293 130.612 10.496C130.142 10.7627 129.769 11.1627 129.492 11.696C129.225 12.2187 129.092 12.864 129.092 13.632C129.092 14.4 129.225 15.0507 129.492 15.584C129.769 16.1173 130.142 16.5173 130.612 16.784C131.081 17.0507 131.609 17.184 132.196 17.184C132.932 17.184 133.545 17.008 134.036 16.656C134.537 16.2933 134.862 15.792 135.012 15.152H136.212C136.009 16.048 135.556 16.768 134.852 17.312C134.148 17.856 133.262 18.128 132.196 18.128C131.374 18.128 130.644 17.9467 130.004 17.584C129.364 17.2107 128.862 16.688 128.5 16.016C128.137 15.3333 127.956 14.5387 127.956 13.632ZM142.104 18.128C141.283 18.128 140.541 17.9467 139.88 17.584C139.229 17.2107 138.712 16.688 138.328 16.016C137.955 15.3333 137.768 14.5387 137.768 13.632C137.768 12.7253 137.96 11.936 138.344 11.264C138.728 10.5813 139.251 10.0587 139.912 9.696C140.573 9.32267 141.315 9.136 142.136 9.136C142.957 9.136 143.699 9.32267 144.36 9.696C145.032 10.0587 145.555 10.5813 145.928 11.264C146.312 11.936 146.504 12.7253 146.504 13.632C146.504 14.528 146.312 15.3173 145.928 16C145.544 16.6827 145.016 17.2107 144.344 17.584C143.672 17.9467 142.925 18.128 142.104 18.128ZM142.104 17.152C142.68 17.152 143.213 17.024 143.704 16.768C144.195 16.5013 144.589 16.1067 144.888 15.584C145.197 15.0507 145.352 14.4 145.352 13.632C145.352 12.864 145.203 12.2187 144.904 11.696C144.605 11.1627 144.211 10.768 143.72 10.512C143.229 10.2453 142.696 10.112 142.12 10.112C141.544 10.112 141.011 10.2453 140.52 10.512C140.029 10.768 139.635 11.1627 139.336 11.696C139.048 12.2187 138.904 12.864 138.904 13.632C138.904 14.4 139.048 15.0507 139.336 15.584C139.635 16.1067 140.024 16.5013 140.504 16.768C140.995 17.024 141.528 17.152 142.104 17.152ZM156.114 9.264V18H154.994V16.464C154.738 17.008 154.343 17.424 153.81 17.712C153.276 18 152.679 18.144 152.018 18.144C150.972 18.144 150.119 17.824 149.458 17.184C148.796 16.5333 148.466 15.5947 148.466 14.368V9.264H149.57V14.24C149.57 15.1893 149.804 15.9147 150.274 16.416C150.754 16.9173 151.404 17.168 152.226 17.168C153.068 17.168 153.74 16.9013 154.242 16.368C154.743 15.8347 154.994 15.0507 154.994 14.016V9.264H156.114ZM162.767 9.104C163.812 9.104 164.665 9.42933 165.327 10.08C165.988 10.72 166.319 11.6533 166.319 12.88V18H165.215V13.008C165.215 12.0587 164.975 11.3333 164.495 10.832C164.025 10.3307 163.38 10.08 162.559 10.08C161.716 10.08 161.044 10.3467 160.543 10.88C160.041 11.4133 159.791 12.1973 159.791 13.232V18H158.671V9.264H159.791V10.752C160.068 10.2187 160.468 9.81333 160.991 9.536C161.513 9.248 162.105 9.104 162.767 9.104ZM170.252 10.208V15.632C170.252 16.1653 170.353 16.5333 170.556 16.736C170.758 16.9387 171.116 17.04 171.628 17.04H172.652V18H171.452C170.662 18 170.076 17.8187 169.692 17.456C169.308 17.0827 169.116 16.4747 169.116 15.632V10.208H167.9V9.264H169.116V7.072H170.252V9.264H172.652V10.208H170.252Z" fill="black"/>
<path d="M60 17L65 12L60 7L61 5L68 12L61 19L60 17Z" fill="black"/>
</svg>
