<svg width="115" height="24" viewBox="0 0 115 24" fill="none" xmlns="http://www.w3.org/2000/svg">
<path d="M10.08 6.88V18H8.256V13.136H3.024V18H1.2V6.88H3.024V11.648H8.256V6.88H10.08ZM16.3053 18.144C15.4733 18.144 14.7213 17.9573 14.0493 17.584C13.3773 17.2 12.8493 16.6667 12.4653 15.984C12.0813 15.2907 11.8893 14.4907 11.8893 13.584C11.8893 12.688 12.0866 11.8933 12.4813 11.2C12.8759 10.5067 13.4146 9.97333 14.0973 9.6C14.7799 9.22667 15.5426 9.04 16.3853 9.04C17.2279 9.04 17.9906 9.22667 18.6733 9.6C19.3559 9.97333 19.8946 10.5067 20.2893 11.2C20.6839 11.8933 20.8813 12.688 20.8813 13.584C20.8813 14.48 20.6786 15.2747 20.2733 15.968C19.8679 16.6613 19.3133 17.2 18.6093 17.584C17.9159 17.9573 17.1479 18.144 16.3053 18.144ZM16.3053 16.56C16.7746 16.56 17.2119 16.448 17.6173 16.224C18.0333 16 18.3693 15.664 18.6253 15.216C18.8813 14.768 19.0093 14.224 19.0093 13.584C19.0093 12.944 18.8866 12.4053 18.6413 11.968C18.3959 11.52 18.0706 11.184 17.6653 10.96C17.2599 10.736 16.8226 10.624 16.3533 10.624C15.8839 10.624 15.4466 10.736 15.0413 10.96C14.6466 11.184 14.3319 11.52 14.0973 11.968C13.8626 12.4053 13.7453 12.944 13.7453 13.584C13.7453 14.5333 13.9853 15.2693 14.4653 15.792C14.9559 16.304 15.5693 16.56 16.3053 16.56ZM33.3564 9.04C34.0497 9.04 34.6684 9.184 35.2124 9.472C35.767 9.76 36.199 10.1867 36.5084 10.752C36.8284 11.3173 36.9884 12 36.9884 12.8V18H35.1804V13.072C35.1804 12.2827 34.983 11.68 34.5884 11.264C34.1937 10.8373 33.655 10.624 32.9724 10.624C32.2897 10.624 31.7457 10.8373 31.3404 11.264C30.9457 11.68 30.7484 12.2827 30.7484 13.072V18H28.9404V13.072C28.9404 12.2827 28.743 11.68 28.3484 11.264C27.9537 10.8373 27.415 10.624 26.7324 10.624C26.0497 10.624 25.5057 10.8373 25.1004 11.264C24.7057 11.68 24.5084 12.2827 24.5084 13.072V18H22.6844V9.184H24.5084V10.192C24.807 9.82933 25.1857 9.54667 25.6444 9.344C26.103 9.14133 26.5937 9.04 27.1164 9.04C27.8204 9.04 28.4497 9.18933 29.0044 9.488C29.559 9.78667 29.9857 10.2187 30.2844 10.784C30.551 10.2507 30.967 9.82933 31.5324 9.52C32.0977 9.2 32.7057 9.04 33.3564 9.04ZM47.3894 13.376C47.3894 13.7067 47.368 14.0053 47.3254 14.272H40.5894C40.6427 14.976 40.904 15.5413 41.3734 15.968C41.8427 16.3947 42.4187 16.608 43.1014 16.608C44.0827 16.608 44.776 16.1973 45.1814 15.376H47.1494C46.8827 16.1867 46.3974 16.8533 45.6934 17.376C45 17.888 44.136 18.144 43.1014 18.144C42.2587 18.144 41.5014 17.9573 40.8294 17.584C40.168 17.2 39.6454 16.6667 39.2614 15.984C38.888 15.2907 38.7014 14.4907 38.7014 13.584C38.7014 12.6773 38.8827 11.8827 39.2454 11.2C39.6187 10.5067 40.136 9.97333 40.7974 9.6C41.4694 9.22667 42.2374 9.04 43.1014 9.04C43.9334 9.04 44.6747 9.22133 45.3254 9.584C45.976 9.94667 46.4827 10.4587 46.8454 11.12C47.208 11.7707 47.3894 12.5227 47.3894 13.376ZM45.4854 12.8C45.4747 12.128 45.2347 11.5893 44.7654 11.184C44.296 10.7787 43.7147 10.576 43.0214 10.576C42.392 10.576 41.8534 10.7787 41.4054 11.184C40.9574 11.5787 40.6907 12.1173 40.6054 12.8H45.4854Z" fill="black"/>
<path d="M86.512 12.224C87.1413 12.3413 87.6747 12.6613 88.112 13.184C88.5493 13.7067 88.768 14.3147 88.768 15.008C88.768 15.5733 88.624 16.0853 88.336 16.544C88.0587 16.992 87.648 17.3493 87.104 17.616C86.56 17.872 85.9093 18 85.152 18H81.28V6.816H85.04C86.1707 6.816 87.0293 7.07733 87.616 7.6C88.2133 8.12267 88.512 8.8 88.512 9.632C88.512 10.3253 88.3253 10.8907 87.952 11.328C87.5787 11.7547 87.0987 12.0533 86.512 12.224ZM82.4 11.76H85.008C85.7653 11.76 86.3467 11.584 86.752 11.232C87.168 10.8693 87.376 10.3733 87.376 9.744C87.376 9.12533 87.168 8.64 86.752 8.288C86.3467 7.936 85.7493 7.76 84.96 7.76H82.4V11.76ZM85.072 17.056C85.8827 17.056 86.512 16.864 86.96 16.48C87.4187 16.096 87.648 15.568 87.648 14.896C87.648 14.224 87.408 13.6907 86.928 13.296C86.4587 12.8907 85.824 12.688 85.024 12.688H82.4V17.056H85.072ZM91.9469 6.16V18H90.8269V6.16H91.9469ZM98.3071 18.128C97.4858 18.128 96.7445 17.9467 96.0831 17.584C95.4325 17.2107 94.9151 16.688 94.5311 16.016C94.1578 15.3333 93.9711 14.5387 93.9711 13.632C93.9711 12.7253 94.1631 11.936 94.5471 11.264C94.9311 10.5813 95.4538 10.0587 96.1151 9.696C96.7765 9.32267 97.5178 9.136 98.3391 9.136C99.1605 9.136 99.9018 9.32267 100.563 9.696C101.235 10.0587 101.758 10.5813 102.131 11.264C102.515 11.936 102.707 12.7253 102.707 13.632C102.707 14.528 102.515 15.3173 102.131 16C101.747 16.6827 101.219 17.2107 100.547 17.584C99.8751 17.9467 99.1285 18.128 98.3071 18.128ZM98.3071 17.152C98.8831 17.152 99.4165 17.024 99.9071 16.768C100.398 16.5013 100.792 16.1067 101.091 15.584C101.4 15.0507 101.555 14.4 101.555 13.632C101.555 12.864 101.406 12.2187 101.107 11.696C100.808 11.1627 100.414 10.768 99.9231 10.512C99.4325 10.2453 98.8991 10.112 98.3231 10.112C97.7471 10.112 97.2138 10.2453 96.7231 10.512C96.2325 10.768 95.8378 11.1627 95.5391 11.696C95.2511 12.2187 95.1071 12.864 95.1071 13.632C95.1071 14.4 95.2511 15.0507 95.5391 15.584C95.8378 16.1067 96.2271 16.5013 96.7071 16.768C97.1978 17.024 97.7311 17.152 98.3071 17.152ZM108.413 9.136C109.234 9.136 109.949 9.328 110.557 9.712C111.165 10.096 111.602 10.5813 111.869 11.168V9.264H112.989V18.224C112.989 19.024 112.813 19.7333 112.461 20.352C112.119 20.9707 111.639 21.4453 111.021 21.776C110.402 22.1173 109.698 22.288 108.909 22.288C107.789 22.288 106.855 22.0213 106.109 21.488C105.373 20.9547 104.914 20.2293 104.733 19.312H105.837C106.029 19.92 106.391 20.4053 106.925 20.768C107.469 21.1307 108.13 21.312 108.909 21.312C109.474 21.312 109.981 21.1893 110.429 20.944C110.877 20.7093 111.229 20.3573 111.485 19.888C111.741 19.4187 111.869 18.864 111.869 18.224V16.064C111.591 16.6613 111.149 17.1573 110.541 17.552C109.943 17.936 109.234 18.128 108.413 18.128C107.613 18.128 106.893 17.9413 106.253 17.568C105.623 17.1947 105.127 16.6667 104.765 15.984C104.413 15.3013 104.237 14.512 104.237 13.616C104.237 12.72 104.413 11.936 104.765 11.264C105.127 10.5813 105.623 10.0587 106.253 9.696C106.893 9.32267 107.613 9.136 108.413 9.136ZM111.869 13.632C111.869 12.928 111.725 12.3093 111.437 11.776C111.149 11.2427 110.754 10.832 110.253 10.544C109.762 10.256 109.218 10.112 108.621 10.112C108.002 10.112 107.447 10.2507 106.957 10.528C106.466 10.8053 106.077 11.2107 105.789 11.744C105.511 12.2667 105.373 12.8907 105.373 13.616C105.373 14.3307 105.511 14.96 105.789 15.504C106.077 16.0373 106.466 16.448 106.957 16.736C107.447 17.0133 108.002 17.152 108.621 17.152C109.218 17.152 109.762 17.008 110.253 16.72C110.754 16.432 111.149 16.0213 111.437 15.488C111.725 14.9547 111.869 14.336 111.869 13.632Z" fill="black"/>
<path d="M60 17L65 12L60 7L61 5L68 12L61 19L60 17Z" fill="black"/>
</svg>
