<svg width="157" height="24" viewBox="0 0 157 24" fill="none" xmlns="http://www.w3.org/2000/svg">
<path d="M10.08 6.88V18H8.256V13.136H3.024V18H1.2V6.88H3.024V11.648H8.256V6.88H10.08ZM16.3053 18.144C15.4733 18.144 14.7213 17.9573 14.0493 17.584C13.3773 17.2 12.8493 16.6667 12.4653 15.984C12.0813 15.2907 11.8893 14.4907 11.8893 13.584C11.8893 12.688 12.0866 11.8933 12.4813 11.2C12.8759 10.5067 13.4146 9.97333 14.0973 9.6C14.7799 9.22667 15.5426 9.04 16.3853 9.04C17.2279 9.04 17.9906 9.22667 18.6733 9.6C19.3559 9.97333 19.8946 10.5067 20.2893 11.2C20.6839 11.8933 20.8813 12.688 20.8813 13.584C20.8813 14.48 20.6786 15.2747 20.2733 15.968C19.8679 16.6613 19.3133 17.2 18.6093 17.584C17.9159 17.9573 17.1479 18.144 16.3053 18.144ZM16.3053 16.56C16.7746 16.56 17.2119 16.448 17.6173 16.224C18.0333 16 18.3693 15.664 18.6253 15.216C18.8813 14.768 19.0093 14.224 19.0093 13.584C19.0093 12.944 18.8866 12.4053 18.6413 11.968C18.3959 11.52 18.0706 11.184 17.6653 10.96C17.2599 10.736 16.8226 10.624 16.3533 10.624C15.8839 10.624 15.4466 10.736 15.0413 10.96C14.6466 11.184 14.3319 11.52 14.0973 11.968C13.8626 12.4053 13.7453 12.944 13.7453 13.584C13.7453 14.5333 13.9853 15.2693 14.4653 15.792C14.9559 16.304 15.5693 16.56 16.3053 16.56ZM33.3564 9.04C34.0497 9.04 34.6684 9.184 35.2124 9.472C35.767 9.76 36.199 10.1867 36.5084 10.752C36.8284 11.3173 36.9884 12 36.9884 12.8V18H35.1804V13.072C35.1804 12.2827 34.983 11.68 34.5884 11.264C34.1937 10.8373 33.655 10.624 32.9724 10.624C32.2897 10.624 31.7457 10.8373 31.3404 11.264C30.9457 11.68 30.7484 12.2827 30.7484 13.072V18H28.9404V13.072C28.9404 12.2827 28.743 11.68 28.3484 11.264C27.9537 10.8373 27.415 10.624 26.7324 10.624C26.0497 10.624 25.5057 10.8373 25.1004 11.264C24.7057 11.68 24.5084 12.2827 24.5084 13.072V18H22.6844V9.184H24.5084V10.192C24.807 9.82933 25.1857 9.54667 25.6444 9.344C26.103 9.14133 26.5937 9.04 27.1164 9.04C27.8204 9.04 28.4497 9.18933 29.0044 9.488C29.559 9.78667 29.9857 10.2187 30.2844 10.784C30.551 10.2507 30.967 9.82933 31.5324 9.52C32.0977 9.2 32.7057 9.04 33.3564 9.04ZM47.3894 13.376C47.3894 13.7067 47.368 14.0053 47.3254 14.272H40.5894C40.6427 14.976 40.904 15.5413 41.3734 15.968C41.8427 16.3947 42.4187 16.608 43.1014 16.608C44.0827 16.608 44.776 16.1973 45.1814 15.376H47.1494C46.8827 16.1867 46.3974 16.8533 45.6934 17.376C45 17.888 44.136 18.144 43.1014 18.144C42.2587 18.144 41.5014 17.9573 40.8294 17.584C40.168 17.2 39.6454 16.6667 39.2614 15.984C38.888 15.2907 38.7014 14.4907 38.7014 13.584C38.7014 12.6773 38.8827 11.8827 39.2454 11.2C39.6187 10.5067 40.136 9.97333 40.7974 9.6C41.4694 9.22667 42.2374 9.04 43.1014 9.04C43.9334 9.04 44.6747 9.22133 45.3254 9.584C45.976 9.94667 46.4827 10.4587 46.8454 11.12C47.208 11.7707 47.3894 12.5227 47.3894 13.376ZM45.4854 12.8C45.4747 12.128 45.2347 11.5893 44.7654 11.184C44.296 10.7787 43.7147 10.576 43.0214 10.576C42.392 10.576 41.8534 10.7787 41.4054 11.184C40.9574 11.5787 40.6907 12.1173 40.6054 12.8H45.4854Z" fill="black"/>
<path d="M80.768 12.4C80.768 11.3013 81.008 10.32 81.488 9.456C81.968 8.58133 82.624 7.904 83.456 7.424C84.288 6.93333 85.216 6.688 86.24 6.688C87.488 6.688 88.5547 6.98667 89.44 7.584C90.336 8.17067 90.9867 9.00267 91.392 10.08H90.08C89.76 9.32267 89.2693 8.73067 88.608 8.304C87.9573 7.87733 87.168 7.664 86.24 7.664C85.4187 7.664 84.6773 7.856 84.016 8.24C83.3653 8.624 82.8533 9.17867 82.48 9.904C82.1067 10.6187 81.92 11.4507 81.92 12.4C81.92 13.3493 82.1067 14.1813 82.48 14.896C82.8533 15.6107 83.3653 16.16 84.016 16.544C84.6773 16.928 85.4187 17.12 86.24 17.12C87.168 17.12 87.9573 16.912 88.608 16.496C89.2693 16.0693 89.76 15.4827 90.08 14.736H91.392C90.9867 15.8027 90.336 16.6293 89.44 17.216C88.544 17.8027 87.4773 18.096 86.24 18.096C85.216 18.096 84.288 17.856 83.456 17.376C82.624 16.8853 81.968 16.208 81.488 15.344C81.008 14.48 80.768 13.4987 80.768 12.4ZM97.7838 9.104C98.4451 9.104 99.0371 9.24267 99.5598 9.52C100.093 9.79733 100.509 10.224 100.808 10.8C101.117 11.3653 101.272 12.0587 101.272 12.88V18H100.168V13.008C100.168 12.0587 99.9278 11.3333 99.4478 10.832C98.9784 10.3307 98.3331 10.08 97.5118 10.08C96.6691 10.08 95.9971 10.3467 95.4958 10.88C94.9944 11.4133 94.7438 12.1973 94.7438 13.232V18H93.6238V6.16H94.7438V10.752C95.0211 10.2293 95.4264 9.824 95.9598 9.536C96.5038 9.248 97.1118 9.104 97.7838 9.104ZM111.653 13.184C111.653 13.568 111.642 13.8613 111.621 14.064H104.373C104.405 14.7253 104.565 15.2907 104.853 15.76C105.141 16.2293 105.519 16.5867 105.989 16.832C106.458 17.0667 106.97 17.184 107.525 17.184C108.25 17.184 108.858 17.008 109.349 16.656C109.85 16.304 110.181 15.8293 110.341 15.232H111.525C111.311 16.0853 110.853 16.784 110.149 17.328C109.455 17.8613 108.581 18.128 107.525 18.128C106.703 18.128 105.967 17.9467 105.317 17.584C104.666 17.2107 104.154 16.688 103.781 16.016C103.418 15.3333 103.237 14.5387 103.237 13.632C103.237 12.7253 103.418 11.9307 103.781 11.248C104.143 10.5653 104.65 10.0427 105.301 9.68C105.951 9.31733 106.693 9.136 107.525 9.136C108.357 9.136 109.082 9.31733 109.701 9.68C110.33 10.0427 110.81 10.5333 111.141 11.152C111.482 11.76 111.653 12.4373 111.653 13.184ZM110.517 13.152C110.527 12.5013 110.394 11.9467 110.117 11.488C109.85 11.0293 109.482 10.6827 109.013 10.448C108.543 10.2133 108.031 10.096 107.477 10.096C106.645 10.096 105.935 10.3627 105.349 10.896C104.762 11.4293 104.437 12.1813 104.373 13.152H110.517ZM113.19 13.632C113.19 12.7253 113.371 11.936 113.734 11.264C114.097 10.5813 114.598 10.0587 115.238 9.696C115.878 9.32267 116.609 9.136 117.43 9.136C118.507 9.136 119.393 9.40267 120.086 9.936C120.79 10.4693 121.243 11.1947 121.446 12.112H120.246C120.097 11.4827 119.771 10.992 119.27 10.64C118.779 10.2773 118.166 10.096 117.43 10.096C116.843 10.096 116.315 10.2293 115.846 10.496C115.377 10.7627 115.003 11.1627 114.726 11.696C114.459 12.2187 114.326 12.864 114.326 13.632C114.326 14.4 114.459 15.0507 114.726 15.584C115.003 16.1173 115.377 16.5173 115.846 16.784C116.315 17.0507 116.843 17.184 117.43 17.184C118.166 17.184 118.779 17.008 119.27 16.656C119.771 16.2933 120.097 15.792 120.246 15.152H121.446C121.243 16.048 120.79 16.768 120.086 17.312C119.382 17.856 118.497 18.128 117.43 18.128C116.609 18.128 115.878 17.9467 115.238 17.584C114.598 17.2107 114.097 16.688 113.734 16.016C113.371 15.3333 113.19 14.5387 113.19 13.632ZM128.234 18L124.634 14.08V18H123.514V6.16H124.634V13.168L128.154 9.264H129.722L125.578 13.616L129.754 18H128.234ZM135.026 18.128C134.205 18.128 133.463 17.9467 132.802 17.584C132.151 17.2107 131.634 16.688 131.25 16.016C130.877 15.3333 130.69 14.5387 130.69 13.632C130.69 12.7253 130.882 11.936 131.266 11.264C131.65 10.5813 132.173 10.0587 132.834 9.696C133.495 9.32267 134.237 9.136 135.058 9.136C135.879 9.136 136.621 9.32267 137.282 9.696C137.954 10.0587 138.477 10.5813 138.85 11.264C139.234 11.936 139.426 12.7253 139.426 13.632C139.426 14.528 139.234 15.3173 138.85 16C138.466 16.6827 137.938 17.2107 137.266 17.584C136.594 17.9467 135.847 18.128 135.026 18.128ZM135.026 17.152C135.602 17.152 136.135 17.024 136.626 16.768C137.117 16.5013 137.511 16.1067 137.81 15.584C138.119 15.0507 138.274 14.4 138.274 13.632C138.274 12.864 138.125 12.2187 137.826 11.696C137.527 11.1627 137.133 10.768 136.642 10.512C136.151 10.2453 135.618 10.112 135.042 10.112C134.466 10.112 133.933 10.2453 133.442 10.512C132.951 10.768 132.557 11.1627 132.258 11.696C131.97 12.2187 131.826 12.864 131.826 13.632C131.826 14.4 131.97 15.0507 132.258 15.584C132.557 16.1067 132.946 16.5013 133.426 16.768C133.917 17.024 134.45 17.152 135.026 17.152ZM149.036 9.264V18H147.916V16.464C147.66 17.008 147.265 17.424 146.732 17.712C146.198 18 145.601 18.144 144.94 18.144C143.894 18.144 143.041 17.824 142.38 17.184C141.718 16.5333 141.388 15.5947 141.388 14.368V9.264H142.492V14.24C142.492 15.1893 142.726 15.9147 143.196 16.416C143.676 16.9173 144.326 17.168 145.148 17.168C145.99 17.168 146.662 16.9013 147.164 16.368C147.665 15.8347 147.916 15.0507 147.916 14.016V9.264H149.036ZM153.049 10.208V15.632C153.049 16.1653 153.15 16.5333 153.353 16.736C153.555 16.9387 153.913 17.04 154.424 17.04H155.449V18H154.249C153.459 18 152.873 17.8187 152.489 17.456C152.105 17.0827 151.913 16.4747 151.913 15.632V10.208H150.697V9.264H151.913V7.072H153.049V9.264H155.449V10.208H153.049Z" fill="black"/>
<path d="M60 17L65 12L60 7L61 5L68 12L61 19L60 17Z" fill="black"/>
</svg>
