<svg width="172" height="71" viewBox="0 0 172 71" fill="none" xmlns="http://www.w3.org/2000/svg">
<path d="M8.688 10.112C8.688 11.04 8.368 11.8133 7.728 12.432C7.09867 13.04 6.13333 13.344 4.832 13.344H2.688V18H1.232V6.848H4.832C6.09067 6.848 7.04533 7.152 7.696 7.76C8.35733 8.368 8.688 9.152 8.688 10.112ZM4.832 12.144C5.64267 12.144 6.24 11.968 6.624 11.616C7.008 11.264 7.2 10.7627 7.2 10.112C7.2 8.736 6.41067 8.048 4.832 8.048H2.688V12.144H4.832ZM11.9536 6.16V18H10.4976V6.16H11.9536ZM13.8911 13.584C13.8911 12.688 14.0725 11.904 14.4351 11.232C14.7978 10.5493 15.2938 10.0213 15.9231 9.648C16.5631 9.27467 17.2725 9.088 18.0511 9.088C18.8191 9.088 19.4858 9.25333 20.0511 9.584C20.6165 9.91467 21.0378 10.3307 21.3151 10.832V9.232H22.7871V18H21.3151V16.368C21.0271 16.88 20.5951 17.3067 20.0191 17.648C19.4538 17.9787 18.7925 18.144 18.0351 18.144C17.2565 18.144 16.5525 17.952 15.9231 17.568C15.2938 17.184 14.7978 16.6453 14.4351 15.952C14.0725 15.2587 13.8911 14.4693 13.8911 13.584ZM21.3151 13.6C21.3151 12.9387 21.1818 12.3627 20.9151 11.872C20.6485 11.3813 20.2858 11.008 19.8271 10.752C19.3791 10.4853 18.8831 10.352 18.3391 10.352C17.7951 10.352 17.2991 10.48 16.8511 10.736C16.4031 10.992 16.0458 11.3653 15.7791 11.856C15.5125 12.3467 15.3791 12.9227 15.3791 13.584C15.3791 14.256 15.5125 14.8427 15.7791 15.344C16.0458 15.8347 16.4031 16.2133 16.8511 16.48C17.2991 16.736 17.7951 16.864 18.3391 16.864C18.8831 16.864 19.3791 16.736 19.8271 16.48C20.2858 16.2133 20.6485 15.8347 20.9151 15.344C21.1818 14.8427 21.3151 14.2613 21.3151 13.6ZM25.9996 7.808C25.7223 7.808 25.4876 7.712 25.2956 7.52C25.1036 7.328 25.0076 7.09333 25.0076 6.816C25.0076 6.53867 25.1036 6.304 25.2956 6.112C25.4876 5.92 25.7223 5.824 25.9996 5.824C26.2663 5.824 26.4903 5.92 26.6716 6.112C26.8636 6.304 26.9596 6.53867 26.9596 6.816C26.9596 7.09333 26.8636 7.328 26.6716 7.52C26.4903 7.712 26.2663 7.808 25.9996 7.808ZM26.7036 9.232V18H25.2476V9.232H26.7036ZM33.4571 9.072C34.5238 9.072 35.3878 9.39733 36.0491 10.048C36.7105 10.688 37.0411 11.616 37.0411 12.832V18H35.6011V13.04C35.6011 12.1653 35.3825 11.4987 34.9451 11.04C34.5078 10.5707 33.9105 10.336 33.1531 10.336C32.3851 10.336 31.7718 10.576 31.3131 11.056C30.8651 11.536 30.6411 12.2347 30.6411 13.152V18H29.1851V9.232H30.6411V10.48C30.9291 10.032 31.3185 9.68533 31.8091 9.44C32.3105 9.19467 32.8598 9.072 33.4571 9.072ZM43.1411 13.6C43.1411 12.6933 43.3225 11.904 43.6851 11.232C44.0478 10.5493 44.5491 10.0213 45.1891 9.648C45.8398 9.27467 46.5811 9.088 47.4131 9.088C48.4905 9.088 49.3758 9.34933 50.0691 9.872C50.7731 10.3947 51.2371 11.12 51.4611 12.048H49.8931C49.7438 11.5147 49.4505 11.0933 49.0131 10.784C48.5865 10.4747 48.0531 10.32 47.4131 10.32C46.5811 10.32 45.9091 10.608 45.3971 11.184C44.8851 11.7493 44.6291 12.5547 44.6291 13.6C44.6291 14.656 44.8851 15.472 45.3971 16.048C45.9091 16.624 46.5811 16.912 47.4131 16.912C48.0531 16.912 48.5865 16.7627 49.0131 16.464C49.4398 16.1653 49.7331 15.7387 49.8931 15.184H51.4611C51.2265 16.08 50.7571 16.8 50.0531 17.344C49.3491 17.8773 48.4691 18.144 47.4131 18.144C46.5811 18.144 45.8398 17.9573 45.1891 17.584C44.5491 17.2107 44.0478 16.6827 43.6851 16C43.3225 15.3173 43.1411 14.5173 43.1411 13.6ZM57.2279 18.144C56.4065 18.144 55.6599 17.9573 54.9879 17.584C54.3265 17.2107 53.8039 16.6827 53.4199 16C53.0465 15.3067 52.8599 14.5067 52.8599 13.6C52.8599 12.704 53.0519 11.9147 53.4359 11.232C53.8305 10.5387 54.3639 10.0107 55.0359 9.648C55.7079 9.27467 56.4599 9.088 57.2919 9.088C58.1239 9.088 58.8759 9.27467 59.5479 9.648C60.2199 10.0107 60.7479 10.5333 61.1319 11.216C61.5265 11.8987 61.7239 12.6933 61.7239 13.6C61.7239 14.5067 61.5212 15.3067 61.1159 16C60.7212 16.6827 60.1825 17.2107 59.4999 17.584C58.8172 17.9573 58.0599 18.144 57.2279 18.144ZM57.2279 16.864C57.7505 16.864 58.2412 16.7413 58.6999 16.496C59.1585 16.2507 59.5265 15.8827 59.8039 15.392C60.0919 14.9013 60.2359 14.304 60.2359 13.6C60.2359 12.896 60.0972 12.2987 59.8199 11.808C59.5425 11.3173 59.1799 10.9547 58.7319 10.72C58.2839 10.4747 57.7985 10.352 57.2759 10.352C56.7425 10.352 56.2519 10.4747 55.8039 10.72C55.3665 10.9547 55.0145 11.3173 54.7479 11.808C54.4812 12.2987 54.3479 12.896 54.3479 13.6C54.3479 14.3147 54.4759 14.9173 54.7319 15.408C54.9985 15.8987 55.3505 16.2667 55.7879 16.512C56.2252 16.7467 56.7052 16.864 57.2279 16.864ZM67.9103 9.072C68.9769 9.072 69.8409 9.39733 70.5023 10.048C71.1636 10.688 71.4943 11.616 71.4943 12.832V18H70.0543V13.04C70.0543 12.1653 69.8356 11.4987 69.3983 11.04C68.9609 10.5707 68.3636 10.336 67.6063 10.336C66.8383 10.336 66.2249 10.576 65.7663 11.056C65.3183 11.536 65.0943 12.2347 65.0943 13.152V18H63.6383V9.232H65.0943V10.48C65.3823 10.032 65.7716 9.68533 66.2623 9.44C66.7636 9.19467 67.3129 9.072 67.9103 9.072ZM76.9766 18.144C76.3046 18.144 75.702 18.032 75.1686 17.808C74.6353 17.5733 74.214 17.2533 73.9046 16.848C73.5953 16.432 73.4246 15.9573 73.3926 15.424H74.8966C74.9393 15.8613 75.142 16.2187 75.5046 16.496C75.878 16.7733 76.3633 16.912 76.9606 16.912C77.5153 16.912 77.9526 16.7893 78.2726 16.544C78.5926 16.2987 78.7526 15.9893 78.7526 15.616C78.7526 15.232 78.582 14.9493 78.2406 14.768C77.8993 14.576 77.3713 14.3893 76.6566 14.208C76.006 14.0373 75.4726 13.8667 75.0566 13.696C74.6513 13.5147 74.2993 13.2533 74.0006 12.912C73.7126 12.56 73.5686 12.1013 73.5686 11.536C73.5686 11.088 73.702 10.6773 73.9686 10.304C74.2353 9.93067 74.614 9.63733 75.1046 9.424C75.5953 9.2 76.1553 9.088 76.7846 9.088C77.7553 9.088 78.5393 9.33333 79.1366 9.824C79.734 10.3147 80.054 10.9867 80.0966 11.84H78.6406C78.6086 11.3813 78.422 11.0133 78.0806 10.736C77.75 10.4587 77.302 10.32 76.7366 10.32C76.214 10.32 75.798 10.432 75.4886 10.656C75.1793 10.88 75.0246 11.1733 75.0246 11.536C75.0246 11.824 75.1153 12.064 75.2966 12.256C75.4886 12.4373 75.7233 12.5867 76.0006 12.704C76.2886 12.8107 76.6833 12.9333 77.1846 13.072C77.814 13.2427 78.326 13.4133 78.7206 13.584C79.1153 13.744 79.4513 13.9893 79.7286 14.32C80.0166 14.6507 80.166 15.0827 80.1766 15.616C80.1766 16.096 80.0433 16.528 79.7766 16.912C79.51 17.296 79.1313 17.6 78.6406 17.824C78.1606 18.0373 77.606 18.144 76.9766 18.144ZM86.056 18.144C85.2347 18.144 84.488 17.9573 83.816 17.584C83.1547 17.2107 82.632 16.6827 82.248 16C81.8747 15.3067 81.688 14.5067 81.688 13.6C81.688 12.704 81.88 11.9147 82.264 11.232C82.6587 10.5387 83.192 10.0107 83.864 9.648C84.536 9.27467 85.288 9.088 86.12 9.088C86.952 9.088 87.704 9.27467 88.376 9.648C89.048 10.0107 89.576 10.5333 89.96 11.216C90.3547 11.8987 90.552 12.6933 90.552 13.6C90.552 14.5067 90.3493 15.3067 89.944 16C89.5493 16.6827 89.0107 17.2107 88.328 17.584C87.6453 17.9573 86.888 18.144 86.056 18.144ZM86.056 16.864C86.5787 16.864 87.0693 16.7413 87.528 16.496C87.9867 16.2507 88.3547 15.8827 88.632 15.392C88.92 14.9013 89.064 14.304 89.064 13.6C89.064 12.896 88.9253 12.2987 88.648 11.808C88.3707 11.3173 88.008 10.9547 87.56 10.72C87.112 10.4747 86.6267 10.352 86.104 10.352C85.5707 10.352 85.08 10.4747 84.632 10.72C84.1947 10.9547 83.8427 11.3173 83.576 11.808C83.3093 12.2987 83.176 12.896 83.176 13.6C83.176 14.3147 83.304 14.9173 83.56 15.408C83.8267 15.8987 84.1787 16.2667 84.616 16.512C85.0533 16.7467 85.5333 16.864 86.056 16.864ZM93.9224 6.16V18H92.4664V6.16H93.9224ZM104.404 13.28C104.404 13.5573 104.388 13.8507 104.356 14.16H97.3479C97.4012 15.024 97.6945 15.7013 98.2279 16.192C98.7719 16.672 99.4279 16.912 100.196 16.912C100.825 16.912 101.348 16.768 101.764 16.48C102.191 16.1813 102.489 15.7867 102.66 15.296H104.228C103.993 16.1387 103.524 16.8267 102.82 17.36C102.116 17.8827 101.241 18.144 100.196 18.144C99.3639 18.144 98.6172 17.9573 97.9559 17.584C97.3052 17.2107 96.7932 16.6827 96.4199 16C96.0465 15.3067 95.8599 14.5067 95.8599 13.6C95.8599 12.6933 96.0412 11.8987 96.4039 11.216C96.7665 10.5333 97.2732 10.0107 97.9239 9.648C98.5852 9.27467 99.3425 9.088 100.196 9.088C101.028 9.088 101.764 9.26933 102.404 9.632C103.044 9.99467 103.535 10.496 103.876 11.136C104.228 11.7653 104.404 12.48 104.404 13.28ZM102.9 12.976C102.9 12.4213 102.777 11.9467 102.532 11.552C102.287 11.1467 101.951 10.8427 101.524 10.64C101.108 10.4267 100.644 10.32 100.132 10.32C99.3959 10.32 98.7665 10.5547 98.2439 11.024C97.7319 11.4933 97.4385 12.144 97.3639 12.976H102.9ZM115.286 18.608V19.952H106.774V18.608H115.286Z" fill="black"/>
<path d="M10.464 61L6.624 54.328H4.536V61H1.8V44.32H7.56C8.84 44.32 9.92 44.544 10.8 44.992C11.696 45.44 12.36 46.04 12.792 46.792C13.24 47.544 13.464 48.384 13.464 49.312C13.464 50.4 13.144 51.392 12.504 52.288C11.88 53.168 10.912 53.768 9.6 54.088L13.728 61H10.464ZM4.536 52.144H7.56C8.584 52.144 9.352 51.888 9.864 51.376C10.392 50.864 10.656 50.176 10.656 49.312C10.656 48.448 10.4 47.776 9.888 47.296C9.376 46.8 8.6 46.552 7.56 46.552H4.536V52.144ZM21.7641 61.216C20.7241 61.216 19.7881 61.032 18.9561 60.664C18.1401 60.28 17.4921 59.768 17.0121 59.128C16.5321 58.472 16.2761 57.744 16.2441 56.944H19.0761C19.1241 57.504 19.3881 57.976 19.8681 58.36C20.3641 58.728 20.9801 58.912 21.7161 58.912C22.4841 58.912 23.0761 58.768 23.4921 58.48C23.9241 58.176 24.1401 57.792 24.1401 57.328C24.1401 56.832 23.9001 56.464 23.4201 56.224C22.9561 55.984 22.2121 55.72 21.1881 55.432C20.1961 55.16 19.3881 54.896 18.7641 54.64C18.1401 54.384 17.5961 53.992 17.1321 53.464C16.6841 52.936 16.4601 52.24 16.4601 51.376C16.4601 50.672 16.6681 50.032 17.0841 49.456C17.5001 48.864 18.0921 48.4 18.8601 48.064C19.6441 47.728 20.5401 47.56 21.5481 47.56C23.0521 47.56 24.2601 47.944 25.1721 48.712C26.1001 49.464 26.5961 50.496 26.6601 51.808H23.9241C23.8761 51.216 23.6361 50.744 23.2041 50.392C22.7721 50.04 22.1881 49.864 21.4521 49.864C20.7321 49.864 20.1801 50 19.7961 50.272C19.4121 50.544 19.2201 50.904 19.2201 51.352C19.2201 51.704 19.3481 52 19.6041 52.24C19.8601 52.48 20.1721 52.672 20.5401 52.816C20.9081 52.944 21.4521 53.112 22.1721 53.32C23.1321 53.576 23.9161 53.84 24.5241 54.112C25.1481 54.368 25.6841 54.752 26.1321 55.264C26.5801 55.776 26.8121 56.456 26.8281 57.304C26.8281 58.056 26.6201 58.728 26.2041 59.32C25.7881 59.912 25.1961 60.376 24.4281 60.712C23.6761 61.048 22.7881 61.216 21.7641 61.216ZM30.8884 61.168C30.3924 61.168 29.9764 61 29.6404 60.664C29.3044 60.328 29.1364 59.912 29.1364 59.416C29.1364 58.92 29.3044 58.504 29.6404 58.168C29.9764 57.832 30.3924 57.664 30.8884 57.664C31.3684 57.664 31.7764 57.832 32.1124 58.168C32.4484 58.504 32.6164 58.92 32.6164 59.416C32.6164 59.912 32.4484 60.328 32.1124 60.664C31.7764 61 31.3684 61.168 30.8884 61.168ZM42.9598 57.28C44.4958 55.952 45.7038 54.864 46.5838 54.016C47.4798 53.152 48.2238 52.256 48.8158 51.328C49.4078 50.4 49.7038 49.472 49.7038 48.544C49.7038 47.584 49.4718 46.832 49.0078 46.288C48.5598 45.744 47.8478 45.472 46.8718 45.472C45.9278 45.472 45.1918 45.776 44.6638 46.384C44.1518 46.976 43.8798 47.776 43.8478 48.784H41.2078C41.2558 46.96 41.7998 45.568 42.8398 44.608C43.8958 43.632 45.2318 43.144 46.8478 43.144C48.5918 43.144 49.9518 43.624 50.9278 44.584C51.9198 45.544 52.4158 46.824 52.4158 48.424C52.4158 49.576 52.1198 50.688 51.5278 51.76C50.9518 52.816 50.2558 53.768 49.4398 54.616C48.6398 55.448 47.6158 56.416 46.3678 57.52L45.2878 58.48H52.8958V60.76H41.2318V58.768L42.9598 57.28ZM66.5794 45.856H58.5394V50.632C58.8754 50.184 59.3714 49.808 60.0274 49.504C60.6994 49.2 61.4114 49.048 62.1634 49.048C63.5074 49.048 64.5954 49.336 65.4274 49.912C66.2754 50.488 66.8754 51.216 67.2274 52.096C67.5954 52.976 67.7794 53.904 67.7794 54.88C67.7794 56.064 67.5474 57.12 67.0834 58.048C66.6354 58.96 65.9554 59.68 65.0434 60.208C64.1474 60.736 63.0434 61 61.7314 61C59.9874 61 58.5874 60.568 57.5314 59.704C56.4754 58.84 55.8434 57.696 55.6354 56.272H58.2994C58.4754 57.024 58.8674 57.624 59.4754 58.072C60.0834 58.504 60.8434 58.72 61.7554 58.72C62.8914 58.72 63.7394 58.376 64.2994 57.688C64.8754 57 65.1634 56.088 65.1634 54.952C65.1634 53.8 64.8754 52.92 64.2994 52.312C63.7234 51.688 62.8754 51.376 61.7554 51.376C60.9714 51.376 60.3074 51.576 59.7634 51.976C59.2354 52.36 58.8514 52.888 58.6114 53.56H56.0194V43.456H66.5794V45.856ZM73.5795 51.856C71.9155 51.024 71.0835 49.712 71.0835 47.92C71.0835 47.056 71.2995 46.264 71.7315 45.544C72.1635 44.824 72.8115 44.256 73.6755 43.84C74.5395 43.408 75.5955 43.192 76.8435 43.192C78.0755 43.192 79.1235 43.408 79.9875 43.84C80.8675 44.256 81.5235 44.824 81.9555 45.544C82.3875 46.264 82.6035 47.056 82.6035 47.92C82.6035 48.816 82.3715 49.608 81.9075 50.296C81.4595 50.968 80.8595 51.488 80.1075 51.856C81.0195 52.192 81.7395 52.744 82.2675 53.512C82.7955 54.264 83.0595 55.152 83.0595 56.176C83.0595 57.216 82.7955 58.136 82.2675 58.936C81.7395 59.736 81.0035 60.352 80.0595 60.784C79.1155 61.216 78.0435 61.432 76.8435 61.432C75.6435 61.432 74.5715 61.216 73.6275 60.784C72.6995 60.352 71.9715 59.736 71.4435 58.936C70.9155 58.136 70.6515 57.216 70.6515 56.176C70.6515 55.136 70.9155 54.24 71.4435 53.488C71.9715 52.736 72.6835 52.192 73.5795 51.856ZM79.9875 48.256C79.9875 47.36 79.7075 46.672 79.1475 46.192C78.5875 45.712 77.8195 45.472 76.8435 45.472C75.8835 45.472 75.1235 45.712 74.5635 46.192C74.0035 46.672 73.7235 47.368 73.7235 48.28C73.7235 49.08 74.0115 49.736 74.5875 50.248C75.1795 50.744 75.9315 50.992 76.8435 50.992C77.7555 50.992 78.5075 50.736 79.0995 50.224C79.6915 49.712 79.9875 49.056 79.9875 48.256ZM76.8435 53.056C75.7875 53.056 74.9235 53.32 74.2515 53.848C73.5955 54.36 73.2675 55.104 73.2675 56.08C73.2675 56.992 73.5875 57.736 74.2275 58.312C74.8675 58.872 75.7395 59.152 76.8435 59.152C77.9315 59.152 78.7875 58.864 79.4115 58.288C80.0515 57.712 80.3715 56.976 80.3715 56.08C80.3715 55.12 80.0435 54.376 79.3875 53.848C78.7475 53.32 77.8995 53.056 76.8435 53.056ZM89.2922 57.712L86.3882 64.336H84.6122L86.3162 57.712H89.2922ZM92.8348 57.28C94.3708 55.952 95.5788 54.864 96.4588 54.016C97.3548 53.152 98.0988 52.256 98.6908 51.328C99.2828 50.4 99.5788 49.472 99.5788 48.544C99.5788 47.584 99.3468 46.832 98.8828 46.288C98.4348 45.744 97.7228 45.472 96.7468 45.472C95.8028 45.472 95.0668 45.776 94.5388 46.384C94.0268 46.976 93.7548 47.776 93.7228 48.784H91.0828C91.1308 46.96 91.6748 45.568 92.7148 44.608C93.7708 43.632 95.1068 43.144 96.7228 43.144C98.4668 43.144 99.8268 43.624 100.803 44.584C101.795 45.544 102.291 46.824 102.291 48.424C102.291 49.576 101.995 50.688 101.403 51.76C100.827 52.816 100.131 53.768 99.3148 54.616C98.5148 55.448 97.4908 56.416 96.2428 57.52L95.1628 58.48H102.771V60.76H91.1068V58.768L92.8348 57.28ZM105.174 52.024C105.174 49.256 105.638 47.096 106.566 45.544C107.51 43.976 109.126 43.192 111.414 43.192C113.702 43.192 115.31 43.976 116.238 45.544C117.182 47.096 117.654 49.256 117.654 52.024C117.654 54.824 117.182 57.016 116.238 58.6C115.31 60.168 113.702 60.952 111.414 60.952C109.126 60.952 107.51 60.168 106.566 58.6C105.638 57.016 105.174 54.824 105.174 52.024ZM114.966 52.024C114.966 50.728 114.878 49.632 114.702 48.736C114.542 47.84 114.206 47.112 113.694 46.552C113.182 45.976 112.422 45.688 111.414 45.688C110.406 45.688 109.646 45.976 109.134 46.552C108.622 47.112 108.278 47.84 108.102 48.736C107.942 49.632 107.862 50.728 107.862 52.024C107.862 53.368 107.942 54.496 108.102 55.408C108.262 56.32 108.598 57.056 109.11 57.616C109.638 58.176 110.406 58.456 111.414 58.456C112.422 58.456 113.182 58.176 113.694 57.616C114.222 57.056 114.566 56.32 114.726 55.408C114.886 54.496 114.966 53.368 114.966 52.024ZM120.549 52.024C120.549 49.256 121.013 47.096 121.941 45.544C122.885 43.976 124.501 43.192 126.789 43.192C129.077 43.192 130.685 43.976 131.613 45.544C132.557 47.096 133.029 49.256 133.029 52.024C133.029 54.824 132.557 57.016 131.613 58.6C130.685 60.168 129.077 60.952 126.789 60.952C124.501 60.952 122.885 60.168 121.941 58.6C121.013 57.016 120.549 54.824 120.549 52.024ZM130.341 52.024C130.341 50.728 130.253 49.632 130.077 48.736C129.917 47.84 129.581 47.112 129.069 46.552C128.557 45.976 127.797 45.688 126.789 45.688C125.781 45.688 125.021 45.976 124.509 46.552C123.997 47.112 123.653 47.84 123.477 48.736C123.317 49.632 123.237 50.728 123.237 52.024C123.237 53.368 123.317 54.496 123.477 55.408C123.637 56.32 123.973 57.056 124.485 57.616C125.013 58.176 125.781 58.456 126.789 58.456C127.797 58.456 128.557 58.176 129.069 57.616C129.597 57.056 129.941 56.32 130.101 55.408C130.261 54.496 130.341 53.368 130.341 52.024ZM137.388 61.168C136.892 61.168 136.476 61 136.14 60.664C135.804 60.328 135.636 59.912 135.636 59.416C135.636 58.92 135.804 58.504 136.14 58.168C136.476 57.832 136.892 57.664 137.388 57.664C137.868 57.664 138.276 57.832 138.612 58.168C138.948 58.504 139.116 58.92 139.116 59.416C139.116 59.912 138.948 60.328 138.612 60.664C138.276 61 137.868 61.168 137.388 61.168ZM141.713 52.024C141.713 49.256 142.177 47.096 143.105 45.544C144.049 43.976 145.665 43.192 147.953 43.192C150.241 43.192 151.849 43.976 152.777 45.544C153.721 47.096 154.193 49.256 154.193 52.024C154.193 54.824 153.721 57.016 152.777 58.6C151.849 60.168 150.241 60.952 147.953 60.952C145.665 60.952 144.049 60.168 143.105 58.6C142.177 57.016 141.713 54.824 141.713 52.024ZM151.505 52.024C151.505 50.728 151.417 49.632 151.241 48.736C151.081 47.84 150.745 47.112 150.233 46.552C149.721 45.976 148.961 45.688 147.953 45.688C146.945 45.688 146.185 45.976 145.673 46.552C145.161 47.112 144.817 47.84 144.641 48.736C144.481 49.632 144.401 50.728 144.401 52.024C144.401 53.368 144.481 54.496 144.641 55.408C144.801 56.32 145.137 57.056 145.649 57.616C146.177 58.176 146.945 58.456 147.953 58.456C148.961 58.456 149.721 58.176 150.233 57.616C150.761 57.056 151.105 56.32 151.265 55.408C151.425 54.496 151.505 53.368 151.505 52.024ZM157.088 52.024C157.088 49.256 157.552 47.096 158.48 45.544C159.424 43.976 161.04 43.192 163.328 43.192C165.616 43.192 167.224 43.976 168.152 45.544C169.096 47.096 169.568 49.256 169.568 52.024C169.568 54.824 169.096 57.016 168.152 58.6C167.224 60.168 165.616 60.952 163.328 60.952C161.04 60.952 159.424 60.168 158.48 58.6C157.552 57.016 157.088 54.824 157.088 52.024ZM166.88 52.024C166.88 50.728 166.792 49.632 166.616 48.736C166.456 47.84 166.12 47.112 165.608 46.552C165.096 45.976 164.336 45.688 163.328 45.688C162.32 45.688 161.56 45.976 161.048 46.552C160.536 47.112 160.192 47.84 160.016 48.736C159.856 49.632 159.776 50.728 159.776 52.024C159.776 53.368 159.856 54.496 160.016 55.408C160.176 56.32 160.512 57.056 161.024 57.616C161.552 58.176 162.32 58.456 163.328 58.456C164.336 58.456 165.096 58.176 165.608 57.616C166.136 57.056 166.48 56.32 166.64 55.408C166.8 54.496 166.88 53.368 166.88 52.024Z" fill="black"/>
</svg>
