<svg width="203" height="71" viewBox="0 0 203 71" fill="none" xmlns="http://www.w3.org/2000/svg">
<path d="M9.68 10.08C9.37067 9.42933 8.92267 8.928 8.336 8.576C7.74933 8.21333 7.06667 8.032 6.288 8.032C5.50933 8.032 4.80533 8.21333 4.176 8.576C3.55733 8.928 3.06667 9.44 2.704 10.112C2.352 10.7733 2.176 11.5413 2.176 12.416C2.176 13.2907 2.352 14.0587 2.704 14.72C3.06667 15.3813 3.55733 15.8933 4.176 16.256C4.80533 16.608 5.50933 16.784 6.288 16.784C7.376 16.784 8.272 16.4587 8.976 15.808C9.68 15.1573 10.0907 14.2773 10.208 13.168H5.76V11.984H11.76V13.104C11.6747 14.0213 11.3867 14.864 10.896 15.632C10.4053 16.3893 9.76 16.992 8.96 17.44C8.16 17.8773 7.26933 18.096 6.288 18.096C5.25333 18.096 4.30933 17.856 3.456 17.376C2.60267 16.8853 1.92533 16.208 1.424 15.344C0.933333 14.48 0.688 13.504 0.688 12.416C0.688 11.328 0.933333 10.352 1.424 9.488C1.92533 8.61333 2.60267 7.936 3.456 7.456C4.30933 6.96533 5.25333 6.72 6.288 6.72C7.472 6.72 8.51733 7.01333 9.424 7.6C10.3413 8.18667 11.008 9.01333 11.424 10.08H9.68ZM15.1411 10.656C15.3971 10.1547 15.7598 9.76533 16.2291 9.488C16.7091 9.21067 17.2905 9.072 17.9731 9.072V10.576H17.5891C15.9571 10.576 15.1411 11.4613 15.1411 13.232V18H13.6851V9.232H15.1411V10.656ZM19.1099 13.584C19.1099 12.688 19.2912 11.904 19.6539 11.232C20.0165 10.5493 20.5125 10.0213 21.1419 9.648C21.7819 9.27467 22.4912 9.088 23.2699 9.088C24.0379 9.088 24.7045 9.25333 25.2699 9.584C25.8352 9.91467 26.2565 10.3307 26.5339 10.832V9.232H28.0059V18H26.5339V16.368C26.2459 16.88 25.8139 17.3067 25.2379 17.648C24.6725 17.9787 24.0112 18.144 23.2539 18.144C22.4752 18.144 21.7712 17.952 21.1419 17.568C20.5125 17.184 20.0165 16.6453 19.6539 15.952C19.2912 15.2587 19.1099 14.4693 19.1099 13.584ZM26.5339 13.6C26.5339 12.9387 26.4005 12.3627 26.1339 11.872C25.8672 11.3813 25.5045 11.008 25.0459 10.752C24.5979 10.4853 24.1019 10.352 23.5579 10.352C23.0139 10.352 22.5179 10.48 22.0699 10.736C21.6219 10.992 21.2645 11.3653 20.9979 11.856C20.7312 12.3467 20.5979 12.9227 20.5979 13.584C20.5979 14.256 20.7312 14.8427 20.9979 15.344C21.2645 15.8347 21.6219 16.2133 22.0699 16.48C22.5179 16.736 23.0139 16.864 23.5579 16.864C24.1019 16.864 24.5979 16.736 25.0459 16.48C25.5045 16.2133 25.8672 15.8347 26.1339 15.344C26.4005 14.8427 26.5339 14.2613 26.5339 13.6ZM34.7384 9.072C35.805 9.072 36.669 9.39733 37.3304 10.048C37.9917 10.688 38.3224 11.616 38.3224 12.832V18H36.8824V13.04C36.8824 12.1653 36.6637 11.4987 36.2264 11.04C35.789 10.5707 35.1917 10.336 34.4344 10.336C33.6664 10.336 33.053 10.576 32.5944 11.056C32.1464 11.536 31.9224 12.2347 31.9224 13.152V18H30.4664V9.232H31.9224V10.48C32.2104 10.032 32.5997 9.68533 33.0904 9.44C33.5917 9.19467 34.141 9.072 34.7384 9.072ZM41.4528 7.808C41.1754 7.808 40.9408 7.712 40.7488 7.52C40.5568 7.328 40.4608 7.09333 40.4608 6.816C40.4608 6.53867 40.5568 6.304 40.7488 6.112C40.9408 5.92 41.1754 5.824 41.4528 5.824C41.7194 5.824 41.9434 5.92 42.1248 6.112C42.3168 6.304 42.4128 6.53867 42.4128 6.816C42.4128 7.09333 42.3168 7.328 42.1248 7.52C41.9434 7.712 41.7194 7.808 41.4528 7.808ZM42.1568 9.232V18H40.7008V9.232H42.1568ZM46.4143 10.432V15.6C46.4143 16.0267 46.5049 16.3307 46.6863 16.512C46.8676 16.6827 47.1823 16.768 47.6302 16.768H48.7023V18H47.3903C46.5796 18 45.9716 17.8133 45.5663 17.44C45.1609 17.0667 44.9583 16.4533 44.9583 15.6V10.432H43.8223V9.232H44.9583V7.024H46.4143V9.232H48.7023V10.432H46.4143ZM58.4664 13.28C58.4664 13.5573 58.4504 13.8507 58.4184 14.16H51.4104C51.4637 15.024 51.757 15.7013 52.2904 16.192C52.8344 16.672 53.4904 16.912 54.2584 16.912C54.8877 16.912 55.4104 16.768 55.8264 16.48C56.253 16.1813 56.5517 15.7867 56.7224 15.296H58.2904C58.0557 16.1387 57.5864 16.8267 56.8824 17.36C56.1784 17.8827 55.3037 18.144 54.2584 18.144C53.4264 18.144 52.6797 17.9573 52.0184 17.584C51.3677 17.2107 50.8557 16.6827 50.4824 16C50.109 15.3067 49.9224 14.5067 49.9224 13.6C49.9224 12.6933 50.1037 11.8987 50.4664 11.216C50.829 10.5333 51.3357 10.0107 51.9864 9.648C52.6477 9.27467 53.405 9.088 54.2584 9.088C55.0904 9.088 55.8264 9.26933 56.4664 9.632C57.1064 9.99467 57.597 10.496 57.9384 11.136C58.2904 11.7653 58.4664 12.48 58.4664 13.28ZM56.9624 12.976C56.9624 12.4213 56.8397 11.9467 56.5944 11.552C56.349 11.1467 56.013 10.8427 55.5864 10.64C55.1704 10.4267 54.7064 10.32 54.1944 10.32C53.4584 10.32 52.829 10.5547 52.3064 11.024C51.7944 11.4933 51.501 12.144 51.4264 12.976H56.9624ZM67.7579 18.144C67.0859 18.144 66.4832 18.032 65.9499 17.808C65.4165 17.5733 64.9952 17.2533 64.6859 16.848C64.3765 16.432 64.2059 15.9573 64.1739 15.424H65.6779C65.7205 15.8613 65.9232 16.2187 66.2859 16.496C66.6592 16.7733 67.1445 16.912 67.7419 16.912C68.2965 16.912 68.7339 16.7893 69.0539 16.544C69.3739 16.2987 69.5339 15.9893 69.5339 15.616C69.5339 15.232 69.3632 14.9493 69.0219 14.768C68.6805 14.576 68.1525 14.3893 67.4379 14.208C66.7872 14.0373 66.2539 13.8667 65.8379 13.696C65.4325 13.5147 65.0805 13.2533 64.7819 12.912C64.4939 12.56 64.3499 12.1013 64.3499 11.536C64.3499 11.088 64.4832 10.6773 64.7499 10.304C65.0165 9.93067 65.3952 9.63733 65.8859 9.424C66.3765 9.2 66.9365 9.088 67.5659 9.088C68.5365 9.088 69.3205 9.33333 69.9179 9.824C70.5152 10.3147 70.8352 10.9867 70.8779 11.84H69.4219C69.3899 11.3813 69.2032 11.0133 68.8619 10.736C68.5312 10.4587 68.0832 10.32 67.5179 10.32C66.9952 10.32 66.5792 10.432 66.2699 10.656C65.9605 10.88 65.8059 11.1733 65.8059 11.536C65.8059 11.824 65.8965 12.064 66.0779 12.256C66.2699 12.4373 66.5045 12.5867 66.7819 12.704C67.0699 12.8107 67.4645 12.9333 67.9659 13.072C68.5952 13.2427 69.1072 13.4133 69.5019 13.584C69.8965 13.744 70.2325 13.9893 70.5099 14.32C70.7979 14.6507 70.9472 15.0827 70.9579 15.616C70.9579 16.096 70.8245 16.528 70.5579 16.912C70.2912 17.296 69.9125 17.6 69.4219 17.824C68.9419 18.0373 68.3872 18.144 67.7579 18.144ZM72.4693 13.584C72.4693 12.688 72.6506 11.904 73.0133 11.232C73.3759 10.5493 73.8719 10.0213 74.5013 9.648C75.1413 9.27467 75.8559 9.088 76.6453 9.088C77.4026 9.088 78.0639 9.25867 78.6293 9.6C79.2053 9.93067 79.6266 10.3413 79.8933 10.832V9.232H81.3653V22.16H79.8933V16.384C79.6159 16.8747 79.1893 17.2907 78.6133 17.632C78.0373 17.9733 77.3653 18.144 76.5973 18.144C75.8293 18.144 75.1306 17.952 74.5013 17.568C73.8719 17.184 73.3759 16.6453 73.0133 15.952C72.6506 15.2587 72.4693 14.4693 72.4693 13.584ZM79.8933 13.6C79.8933 12.9387 79.7599 12.3627 79.4933 11.872C79.2266 11.3813 78.8639 11.008 78.4053 10.752C77.9573 10.4853 77.4613 10.352 76.9173 10.352C76.3733 10.352 75.8773 10.48 75.4293 10.736C74.9813 10.992 74.6239 11.3653 74.3573 11.856C74.0906 12.3467 73.9573 12.9227 73.9573 13.584C73.9573 14.256 74.0906 14.8427 74.3573 15.344C74.6239 15.8347 74.9813 16.2133 75.4293 16.48C75.8773 16.736 76.3733 16.864 76.9173 16.864C77.4613 16.864 77.9573 16.736 78.4053 16.48C78.8639 16.2133 79.2266 15.8347 79.4933 15.344C79.7599 14.8427 79.8933 14.2613 79.8933 13.6ZM91.6018 9.232V18H90.1458V16.704C89.8684 17.152 89.4791 17.504 88.9778 17.76C88.4871 18.0053 87.9431 18.128 87.3458 18.128C86.6631 18.128 86.0498 17.9893 85.5058 17.712C84.9618 17.424 84.5298 16.9973 84.2098 16.432C83.9004 15.8667 83.7458 15.1787 83.7458 14.368V9.232H85.1858V14.176C85.1858 15.04 85.4044 15.7067 85.8418 16.176C86.2791 16.6347 86.8764 16.864 87.6338 16.864C88.4124 16.864 89.0258 16.624 89.4738 16.144C89.9218 15.664 90.1458 14.9653 90.1458 14.048V9.232H91.6018ZM93.5161 13.584C93.5161 12.688 93.6975 11.904 94.0601 11.232C94.4228 10.5493 94.9188 10.0213 95.5481 9.648C96.1881 9.27467 96.8975 9.088 97.6761 9.088C98.4441 9.088 99.1108 9.25333 99.6761 9.584C100.241 9.91467 100.663 10.3307 100.94 10.832V9.232H102.412V18H100.94V16.368C100.652 16.88 100.22 17.3067 99.6441 17.648C99.0788 17.9787 98.4175 18.144 97.6601 18.144C96.8815 18.144 96.1775 17.952 95.5481 17.568C94.9188 17.184 94.4228 16.6453 94.0601 15.952C93.6975 15.2587 93.5161 14.4693 93.5161 13.584ZM100.94 13.6C100.94 12.9387 100.807 12.3627 100.54 11.872C100.273 11.3813 99.9108 11.008 99.4521 10.752C99.0041 10.4853 98.5081 10.352 97.9641 10.352C97.4201 10.352 96.9241 10.48 96.4761 10.736C96.0281 10.992 95.6708 11.3653 95.4041 11.856C95.1375 12.3467 95.0041 12.9227 95.0041 13.584C95.0041 14.256 95.1375 14.8427 95.4041 15.344C95.6708 15.8347 96.0281 16.2133 96.4761 16.48C96.9241 16.736 97.4201 16.864 97.9641 16.864C98.5081 16.864 99.0041 16.736 99.4521 16.48C99.9108 16.2133 100.273 15.8347 100.54 15.344C100.807 14.8427 100.94 14.2613 100.94 13.6ZM106.329 10.656C106.585 10.1547 106.947 9.76533 107.417 9.488C107.897 9.21067 108.478 9.072 109.161 9.072V10.576H108.777C107.145 10.576 106.329 11.4613 106.329 13.232V18H104.873V9.232H106.329V10.656ZM118.841 13.28C118.841 13.5573 118.825 13.8507 118.793 14.16H111.785C111.839 15.024 112.132 15.7013 112.665 16.192C113.209 16.672 113.865 16.912 114.633 16.912C115.263 16.912 115.785 16.768 116.201 16.48C116.628 16.1813 116.927 15.7867 117.097 15.296H118.665C118.431 16.1387 117.961 16.8267 117.257 17.36C116.553 17.8827 115.679 18.144 114.633 18.144C113.801 18.144 113.055 17.9573 112.393 17.584C111.743 17.2107 111.231 16.6827 110.857 16C110.484 15.3067 110.297 14.5067 110.297 13.6C110.297 12.6933 110.479 11.8987 110.841 11.216C111.204 10.5333 111.711 10.0107 112.361 9.648C113.023 9.27467 113.78 9.088 114.633 9.088C115.465 9.088 116.201 9.26933 116.841 9.632C117.481 9.99467 117.972 10.496 118.313 11.136C118.665 11.7653 118.841 12.48 118.841 13.28ZM117.337 12.976C117.337 12.4213 117.215 11.9467 116.969 11.552C116.724 11.1467 116.388 10.8427 115.961 10.64C115.545 10.4267 115.081 10.32 114.569 10.32C113.833 10.32 113.204 10.5547 112.681 11.024C112.169 11.4933 111.876 12.144 111.801 12.976H117.337ZM128.133 18.144C127.461 18.144 126.858 18.032 126.325 17.808C125.792 17.5733 125.37 17.2533 125.061 16.848C124.752 16.432 124.581 15.9573 124.549 15.424H126.053C126.096 15.8613 126.298 16.2187 126.661 16.496C127.034 16.7733 127.52 16.912 128.117 16.912C128.672 16.912 129.109 16.7893 129.429 16.544C129.749 16.2987 129.909 15.9893 129.909 15.616C129.909 15.232 129.738 14.9493 129.397 14.768C129.056 14.576 128.528 14.3893 127.813 14.208C127.162 14.0373 126.629 13.8667 126.213 13.696C125.808 13.5147 125.456 13.2533 125.157 12.912C124.869 12.56 124.725 12.1013 124.725 11.536C124.725 11.088 124.858 10.6773 125.125 10.304C125.392 9.93067 125.77 9.63733 126.261 9.424C126.752 9.2 127.312 9.088 127.941 9.088C128.912 9.088 129.696 9.33333 130.293 9.824C130.89 10.3147 131.21 10.9867 131.253 11.84H129.797C129.765 11.3813 129.578 11.0133 129.237 10.736C128.906 10.4587 128.458 10.32 127.893 10.32C127.37 10.32 126.954 10.432 126.645 10.656C126.336 10.88 126.181 11.1733 126.181 11.536C126.181 11.824 126.272 12.064 126.453 12.256C126.645 12.4373 126.88 12.5867 127.157 12.704C127.445 12.8107 127.84 12.9333 128.341 13.072C128.97 13.2427 129.482 13.4133 129.877 13.584C130.272 13.744 130.608 13.9893 130.885 14.32C131.173 14.6507 131.322 15.0827 131.333 15.616C131.333 16.096 131.2 16.528 130.933 16.912C130.666 17.296 130.288 17.6 129.797 17.824C129.317 18.0373 128.762 18.144 128.133 18.144ZM134.14 7.808C133.863 7.808 133.628 7.712 133.436 7.52C133.244 7.328 133.148 7.09333 133.148 6.816C133.148 6.53867 133.244 6.304 133.436 6.112C133.628 5.92 133.863 5.824 134.14 5.824C134.407 5.824 134.631 5.92 134.812 6.112C135.004 6.304 135.1 6.53867 135.1 6.816C135.1 7.09333 135.004 7.328 134.812 7.52C134.631 7.712 134.407 7.808 134.14 7.808ZM134.844 9.232V18H133.388V9.232H134.844ZM136.782 13.584C136.782 12.688 136.963 11.904 137.326 11.232C137.688 10.5493 138.184 10.0213 138.814 9.648C139.454 9.27467 140.168 9.088 140.958 9.088C141.64 9.088 142.275 9.248 142.862 9.568C143.448 9.87733 143.896 10.288 144.206 10.8V6.16H145.678V18H144.206V16.352C143.918 16.8747 143.491 17.3067 142.926 17.648C142.36 17.9787 141.699 18.144 140.942 18.144C140.163 18.144 139.454 17.952 138.814 17.568C138.184 17.184 137.688 16.6453 137.326 15.952C136.963 15.2587 136.782 14.4693 136.782 13.584ZM144.206 13.6C144.206 12.9387 144.072 12.3627 143.806 11.872C143.539 11.3813 143.176 11.008 142.718 10.752C142.27 10.4853 141.774 10.352 141.23 10.352C140.686 10.352 140.19 10.48 139.742 10.736C139.294 10.992 138.936 11.3653 138.67 11.856C138.403 12.3467 138.27 12.9227 138.27 13.584C138.27 14.256 138.403 14.8427 138.67 15.344C138.936 15.8347 139.294 16.2133 139.742 16.48C140.19 16.736 140.686 16.864 141.23 16.864C141.774 16.864 142.27 16.736 142.718 16.48C143.176 16.2133 143.539 15.8347 143.806 15.344C144.072 14.8427 144.206 14.2613 144.206 13.6ZM156.138 13.28C156.138 13.5573 156.122 13.8507 156.09 14.16H149.082C149.136 15.024 149.429 15.7013 149.962 16.192C150.506 16.672 151.162 16.912 151.93 16.912C152.56 16.912 153.082 16.768 153.498 16.48C153.925 16.1813 154.224 15.7867 154.394 15.296H155.962C155.728 16.1387 155.258 16.8267 154.554 17.36C153.85 17.8827 152.976 18.144 151.93 18.144C151.098 18.144 150.352 17.9573 149.69 17.584C149.04 17.2107 148.528 16.6827 148.154 16C147.781 15.3067 147.594 14.5067 147.594 13.6C147.594 12.6933 147.776 11.8987 148.138 11.216C148.501 10.5333 149.008 10.0107 149.658 9.648C150.32 9.27467 151.077 9.088 151.93 9.088C152.762 9.088 153.498 9.26933 154.138 9.632C154.778 9.99467 155.269 10.496 155.61 11.136C155.962 11.7653 156.138 12.48 156.138 13.28ZM154.634 12.976C154.634 12.4213 154.512 11.9467 154.266 11.552C154.021 11.1467 153.685 10.8427 153.258 10.64C152.842 10.4267 152.378 10.32 151.866 10.32C151.13 10.32 150.501 10.5547 149.978 11.024C149.466 11.4933 149.173 12.144 149.098 12.976H154.634ZM164.102 10.432V15.6C164.102 16.0267 164.192 16.3307 164.374 16.512C164.555 16.6827 164.87 16.768 165.318 16.768H166.39V18H165.078C164.267 18 163.659 17.8133 163.254 17.44C162.848 17.0667 162.646 16.4533 162.646 15.6V10.432H161.51V9.232H162.646V7.024H164.102V9.232H166.39V10.432H164.102ZM167.61 13.584C167.61 12.688 167.791 11.904 168.154 11.232C168.517 10.5493 169.013 10.0213 169.642 9.648C170.282 9.27467 170.991 9.088 171.77 9.088C172.538 9.088 173.205 9.25333 173.77 9.584C174.335 9.91467 174.757 10.3307 175.034 10.832V9.232H176.506V18H175.034V16.368C174.746 16.88 174.314 17.3067 173.738 17.648C173.173 17.9787 172.511 18.144 171.754 18.144C170.975 18.144 170.271 17.952 169.642 17.568C169.013 17.184 168.517 16.6453 168.154 15.952C167.791 15.2587 167.61 14.4693 167.61 13.584ZM175.034 13.6C175.034 12.9387 174.901 12.3627 174.634 11.872C174.367 11.3813 174.005 11.008 173.546 10.752C173.098 10.4853 172.602 10.352 172.058 10.352C171.514 10.352 171.018 10.48 170.57 10.736C170.122 10.992 169.765 11.3653 169.498 11.856C169.231 12.3467 169.098 12.9227 169.098 13.584C169.098 14.256 169.231 14.8427 169.498 15.344C169.765 15.8347 170.122 16.2133 170.57 16.48C171.018 16.736 171.514 16.864 172.058 16.864C172.602 16.864 173.098 16.736 173.546 16.48C174.005 16.2133 174.367 15.8347 174.634 15.344C174.901 14.8427 175.034 14.2613 175.034 13.6ZM180.422 10.864C180.721 10.3413 181.158 9.91467 181.734 9.584C182.31 9.25333 182.966 9.088 183.702 9.088C184.492 9.088 185.201 9.27467 185.83 9.648C186.46 10.0213 186.956 10.5493 187.318 11.232C187.681 11.904 187.862 12.688 187.862 13.584C187.862 14.4693 187.681 15.2587 187.318 15.952C186.956 16.6453 186.454 17.184 185.814 17.568C185.185 17.952 184.481 18.144 183.702 18.144C182.945 18.144 182.278 17.9787 181.702 17.648C181.137 17.3173 180.71 16.896 180.422 16.384V18H178.966V6.16H180.422V10.864ZM186.374 13.584C186.374 12.9227 186.241 12.3467 185.974 11.856C185.708 11.3653 185.345 10.992 184.886 10.736C184.438 10.48 183.942 10.352 183.398 10.352C182.865 10.352 182.369 10.4853 181.91 10.752C181.462 11.008 181.1 11.3867 180.822 11.888C180.556 12.3787 180.422 12.9493 180.422 13.6C180.422 14.2613 180.556 14.8427 180.822 15.344C181.1 15.8347 181.462 16.2133 181.91 16.48C182.369 16.736 182.865 16.864 183.398 16.864C183.942 16.864 184.438 16.736 184.886 16.48C185.345 16.2133 185.708 15.8347 185.974 15.344C186.241 14.8427 186.374 14.256 186.374 13.584ZM191.235 6.16V18H189.779V6.16H191.235ZM201.716 13.28C201.716 13.5573 201.7 13.8507 201.668 14.16H194.66C194.714 15.024 195.007 15.7013 195.54 16.192C196.084 16.672 196.74 16.912 197.508 16.912C198.138 16.912 198.66 16.768 199.076 16.48C199.503 16.1813 199.802 15.7867 199.972 15.296H201.54C201.306 16.1387 200.836 16.8267 200.132 17.36C199.428 17.8827 198.554 18.144 197.508 18.144C196.676 18.144 195.93 17.9573 195.268 17.584C194.618 17.2107 194.106 16.6827 193.732 16C193.359 15.3067 193.172 14.5067 193.172 13.6C193.172 12.6933 193.354 11.8987 193.716 11.216C194.079 10.5333 194.586 10.0107 195.236 9.648C195.898 9.27467 196.655 9.088 197.508 9.088C198.34 9.088 199.076 9.26933 199.716 9.632C200.356 9.99467 200.847 10.496 201.188 11.136C201.54 11.7653 201.716 12.48 201.716 13.28ZM200.212 12.976C200.212 12.4213 200.09 11.9467 199.844 11.552C199.599 11.1467 199.263 10.8427 198.836 10.64C198.42 10.4267 197.956 10.32 197.444 10.32C196.708 10.32 196.079 10.5547 195.556 11.024C195.044 11.4933 194.751 12.144 194.676 12.976H200.212Z" fill="black"/>
<path d="M10.464 61L6.624 54.328H4.536V61H1.8V44.32H7.56C8.84 44.32 9.92 44.544 10.8 44.992C11.696 45.44 12.36 46.04 12.792 46.792C13.24 47.544 13.464 48.384 13.464 49.312C13.464 50.4 13.144 51.392 12.504 52.288C11.88 53.168 10.912 53.768 9.6 54.088L13.728 61H10.464ZM4.536 52.144H7.56C8.584 52.144 9.352 51.888 9.864 51.376C10.392 50.864 10.656 50.176 10.656 49.312C10.656 48.448 10.4 47.776 9.888 47.296C9.376 46.8 8.6 46.552 7.56 46.552H4.536V52.144ZM21.7641 61.216C20.7241 61.216 19.7881 61.032 18.9561 60.664C18.1401 60.28 17.4921 59.768 17.0121 59.128C16.5321 58.472 16.2761 57.744 16.2441 56.944H19.0761C19.1241 57.504 19.3881 57.976 19.8681 58.36C20.3641 58.728 20.9801 58.912 21.7161 58.912C22.4841 58.912 23.0761 58.768 23.4921 58.48C23.9241 58.176 24.1401 57.792 24.1401 57.328C24.1401 56.832 23.9001 56.464 23.4201 56.224C22.9561 55.984 22.2121 55.72 21.1881 55.432C20.1961 55.16 19.3881 54.896 18.7641 54.64C18.1401 54.384 17.5961 53.992 17.1321 53.464C16.6841 52.936 16.4601 52.24 16.4601 51.376C16.4601 50.672 16.6681 50.032 17.0841 49.456C17.5001 48.864 18.0921 48.4 18.8601 48.064C19.6441 47.728 20.5401 47.56 21.5481 47.56C23.0521 47.56 24.2601 47.944 25.1721 48.712C26.1001 49.464 26.5961 50.496 26.6601 51.808H23.9241C23.8761 51.216 23.6361 50.744 23.2041 50.392C22.7721 50.04 22.1881 49.864 21.4521 49.864C20.7321 49.864 20.1801 50 19.7961 50.272C19.4121 50.544 19.2201 50.904 19.2201 51.352C19.2201 51.704 19.3481 52 19.6041 52.24C19.8601 52.48 20.1721 52.672 20.5401 52.816C20.9081 52.944 21.4521 53.112 22.1721 53.32C23.1321 53.576 23.9161 53.84 24.5241 54.112C25.1481 54.368 25.6841 54.752 26.1321 55.264C26.5801 55.776 26.8121 56.456 26.8281 57.304C26.8281 58.056 26.6201 58.728 26.2041 59.32C25.7881 59.912 25.1961 60.376 24.4281 60.712C23.6761 61.048 22.7881 61.216 21.7641 61.216ZM30.8884 61.168C30.3924 61.168 29.9764 61 29.6404 60.664C29.3044 60.328 29.1364 59.912 29.1364 59.416C29.1364 58.92 29.3044 58.504 29.6404 58.168C29.9764 57.832 30.3924 57.664 30.8884 57.664C31.3684 57.664 31.7764 57.832 32.1124 58.168C32.4484 58.504 32.6164 58.92 32.6164 59.416C32.6164 59.912 32.4484 60.328 32.1124 60.664C31.7764 61 31.3684 61.168 30.8884 61.168ZM42.9598 57.28C44.4958 55.952 45.7038 54.864 46.5838 54.016C47.4798 53.152 48.2238 52.256 48.8158 51.328C49.4078 50.4 49.7038 49.472 49.7038 48.544C49.7038 47.584 49.4718 46.832 49.0078 46.288C48.5598 45.744 47.8478 45.472 46.8718 45.472C45.9278 45.472 45.1918 45.776 44.6638 46.384C44.1518 46.976 43.8798 47.776 43.8478 48.784H41.2078C41.2558 46.96 41.7998 45.568 42.8398 44.608C43.8958 43.632 45.2318 43.144 46.8478 43.144C48.5918 43.144 49.9518 43.624 50.9278 44.584C51.9198 45.544 52.4158 46.824 52.4158 48.424C52.4158 49.576 52.1198 50.688 51.5278 51.76C50.9518 52.816 50.2558 53.768 49.4398 54.616C48.6398 55.448 47.6158 56.416 46.3678 57.52L45.2878 58.48H52.8958V60.76H41.2318V58.768L42.9598 57.28ZM66.5794 45.856H58.5394V50.632C58.8754 50.184 59.3714 49.808 60.0274 49.504C60.6994 49.2 61.4114 49.048 62.1634 49.048C63.5074 49.048 64.5954 49.336 65.4274 49.912C66.2754 50.488 66.8754 51.216 67.2274 52.096C67.5954 52.976 67.7794 53.904 67.7794 54.88C67.7794 56.064 67.5474 57.12 67.0834 58.048C66.6354 58.96 65.9554 59.68 65.0434 60.208C64.1474 60.736 63.0434 61 61.7314 61C59.9874 61 58.5874 60.568 57.5314 59.704C56.4754 58.84 55.8434 57.696 55.6354 56.272H58.2994C58.4754 57.024 58.8674 57.624 59.4754 58.072C60.0834 58.504 60.8434 58.72 61.7554 58.72C62.8914 58.72 63.7394 58.376 64.2994 57.688C64.8754 57 65.1634 56.088 65.1634 54.952C65.1634 53.8 64.8754 52.92 64.2994 52.312C63.7234 51.688 62.8754 51.376 61.7554 51.376C60.9714 51.376 60.3074 51.576 59.7634 51.976C59.2354 52.36 58.8514 52.888 58.6114 53.56H56.0194V43.456H66.5794V45.856ZM73.5795 51.856C71.9155 51.024 71.0835 49.712 71.0835 47.92C71.0835 47.056 71.2995 46.264 71.7315 45.544C72.1635 44.824 72.8115 44.256 73.6755 43.84C74.5395 43.408 75.5955 43.192 76.8435 43.192C78.0755 43.192 79.1235 43.408 79.9875 43.84C80.8675 44.256 81.5235 44.824 81.9555 45.544C82.3875 46.264 82.6035 47.056 82.6035 47.92C82.6035 48.816 82.3715 49.608 81.9075 50.296C81.4595 50.968 80.8595 51.488 80.1075 51.856C81.0195 52.192 81.7395 52.744 82.2675 53.512C82.7955 54.264 83.0595 55.152 83.0595 56.176C83.0595 57.216 82.7955 58.136 82.2675 58.936C81.7395 59.736 81.0035 60.352 80.0595 60.784C79.1155 61.216 78.0435 61.432 76.8435 61.432C75.6435 61.432 74.5715 61.216 73.6275 60.784C72.6995 60.352 71.9715 59.736 71.4435 58.936C70.9155 58.136 70.6515 57.216 70.6515 56.176C70.6515 55.136 70.9155 54.24 71.4435 53.488C71.9715 52.736 72.6835 52.192 73.5795 51.856ZM79.9875 48.256C79.9875 47.36 79.7075 46.672 79.1475 46.192C78.5875 45.712 77.8195 45.472 76.8435 45.472C75.8835 45.472 75.1235 45.712 74.5635 46.192C74.0035 46.672 73.7235 47.368 73.7235 48.28C73.7235 49.08 74.0115 49.736 74.5875 50.248C75.1795 50.744 75.9315 50.992 76.8435 50.992C77.7555 50.992 78.5075 50.736 79.0995 50.224C79.6915 49.712 79.9875 49.056 79.9875 48.256ZM76.8435 53.056C75.7875 53.056 74.9235 53.32 74.2515 53.848C73.5955 54.36 73.2675 55.104 73.2675 56.08C73.2675 56.992 73.5875 57.736 74.2275 58.312C74.8675 58.872 75.7395 59.152 76.8435 59.152C77.9315 59.152 78.7875 58.864 79.4115 58.288C80.0515 57.712 80.3715 56.976 80.3715 56.08C80.3715 55.12 80.0435 54.376 79.3875 53.848C78.7475 53.32 77.8995 53.056 76.8435 53.056ZM89.2922 57.712L86.3882 64.336H84.6122L86.3162 57.712H89.2922ZM94.2748 51.856C92.6108 51.024 91.7788 49.712 91.7788 47.92C91.7788 47.056 91.9948 46.264 92.4268 45.544C92.8588 44.824 93.5068 44.256 94.3708 43.84C95.2348 43.408 96.2908 43.192 97.5388 43.192C98.7708 43.192 99.8188 43.408 100.683 43.84C101.563 44.256 102.219 44.824 102.651 45.544C103.083 46.264 103.299 47.056 103.299 47.92C103.299 48.816 103.067 49.608 102.603 50.296C102.155 50.968 101.555 51.488 100.803 51.856C101.715 52.192 102.435 52.744 102.963 53.512C103.491 54.264 103.755 55.152 103.755 56.176C103.755 57.216 103.491 58.136 102.963 58.936C102.435 59.736 101.699 60.352 100.755 60.784C99.8108 61.216 98.7388 61.432 97.5388 61.432C96.3388 61.432 95.2668 61.216 94.3228 60.784C93.3948 60.352 92.6668 59.736 92.1388 58.936C91.6108 58.136 91.3468 57.216 91.3468 56.176C91.3468 55.136 91.6108 54.24 92.1388 53.488C92.6668 52.736 93.3788 52.192 94.2748 51.856ZM100.683 48.256C100.683 47.36 100.403 46.672 99.8428 46.192C99.2828 45.712 98.5148 45.472 97.5388 45.472C96.5788 45.472 95.8188 45.712 95.2588 46.192C94.6988 46.672 94.4188 47.368 94.4188 48.28C94.4188 49.08 94.7068 49.736 95.2828 50.248C95.8748 50.744 96.6268 50.992 97.5388 50.992C98.4508 50.992 99.2028 50.736 99.7948 50.224C100.387 49.712 100.683 49.056 100.683 48.256ZM97.5388 53.056C96.4828 53.056 95.6188 53.32 94.9468 53.848C94.2908 54.36 93.9628 55.104 93.9628 56.08C93.9628 56.992 94.2828 57.736 94.9228 58.312C95.5628 58.872 96.4348 59.152 97.5388 59.152C98.6268 59.152 99.4828 58.864 100.107 58.288C100.747 57.712 101.067 56.976 101.067 56.08C101.067 55.12 100.739 54.376 100.083 53.848C99.4428 53.32 98.5948 53.056 97.5388 53.056ZM106.628 52.024C106.628 49.256 107.092 47.096 108.02 45.544C108.964 43.976 110.58 43.192 112.868 43.192C115.156 43.192 116.764 43.976 117.692 45.544C118.636 47.096 119.108 49.256 119.108 52.024C119.108 54.824 118.636 57.016 117.692 58.6C116.764 60.168 115.156 60.952 112.868 60.952C110.58 60.952 108.964 60.168 108.02 58.6C107.092 57.016 106.628 54.824 106.628 52.024ZM116.42 52.024C116.42 50.728 116.332 49.632 116.156 48.736C115.996 47.84 115.66 47.112 115.148 46.552C114.636 45.976 113.876 45.688 112.868 45.688C111.86 45.688 111.1 45.976 110.588 46.552C110.076 47.112 109.732 47.84 109.556 48.736C109.396 49.632 109.316 50.728 109.316 52.024C109.316 53.368 109.396 54.496 109.556 55.408C109.716 56.32 110.052 57.056 110.564 57.616C111.092 58.176 111.86 58.456 112.868 58.456C113.876 58.456 114.636 58.176 115.148 57.616C115.676 57.056 116.02 56.32 116.18 55.408C116.34 54.496 116.42 53.368 116.42 52.024ZM122.003 52.024C122.003 49.256 122.467 47.096 123.395 45.544C124.339 43.976 125.955 43.192 128.243 43.192C130.531 43.192 132.139 43.976 133.067 45.544C134.011 47.096 134.483 49.256 134.483 52.024C134.483 54.824 134.011 57.016 133.067 58.6C132.139 60.168 130.531 60.952 128.243 60.952C125.955 60.952 124.339 60.168 123.395 58.6C122.467 57.016 122.003 54.824 122.003 52.024ZM131.795 52.024C131.795 50.728 131.707 49.632 131.531 48.736C131.371 47.84 131.035 47.112 130.523 46.552C130.011 45.976 129.251 45.688 128.243 45.688C127.235 45.688 126.475 45.976 125.963 46.552C125.451 47.112 125.107 47.84 124.931 48.736C124.771 49.632 124.691 50.728 124.691 52.024C124.691 53.368 124.771 54.496 124.931 55.408C125.091 56.32 125.427 57.056 125.939 57.616C126.467 58.176 127.235 58.456 128.243 58.456C129.251 58.456 130.011 58.176 130.523 57.616C131.051 57.056 131.395 56.32 131.555 55.408C131.715 54.496 131.795 53.368 131.795 52.024ZM138.842 61.168C138.346 61.168 137.93 61 137.594 60.664C137.258 60.328 137.09 59.912 137.09 59.416C137.09 58.92 137.258 58.504 137.594 58.168C137.93 57.832 138.346 57.664 138.842 57.664C139.322 57.664 139.73 57.832 140.066 58.168C140.402 58.504 140.57 58.92 140.57 59.416C140.57 59.912 140.402 60.328 140.066 60.664C139.73 61 139.322 61.168 138.842 61.168ZM143.167 52.024C143.167 49.256 143.631 47.096 144.559 45.544C145.503 43.976 147.119 43.192 149.407 43.192C151.695 43.192 153.303 43.976 154.231 45.544C155.175 47.096 155.647 49.256 155.647 52.024C155.647 54.824 155.175 57.016 154.231 58.6C153.303 60.168 151.695 60.952 149.407 60.952C147.119 60.952 145.503 60.168 144.559 58.6C143.631 57.016 143.167 54.824 143.167 52.024ZM152.959 52.024C152.959 50.728 152.871 49.632 152.695 48.736C152.535 47.84 152.199 47.112 151.687 46.552C151.175 45.976 150.415 45.688 149.407 45.688C148.399 45.688 147.639 45.976 147.127 46.552C146.615 47.112 146.271 47.84 146.095 48.736C145.935 49.632 145.855 50.728 145.855 52.024C145.855 53.368 145.935 54.496 146.095 55.408C146.255 56.32 146.591 57.056 147.103 57.616C147.631 58.176 148.399 58.456 149.407 58.456C150.415 58.456 151.175 58.176 151.687 57.616C152.215 57.056 152.559 56.32 152.719 55.408C152.879 54.496 152.959 53.368 152.959 52.024ZM158.542 52.024C158.542 49.256 159.006 47.096 159.934 45.544C160.878 43.976 162.494 43.192 164.782 43.192C167.07 43.192 168.678 43.976 169.606 45.544C170.55 47.096 171.022 49.256 171.022 52.024C171.022 54.824 170.55 57.016 169.606 58.6C168.678 60.168 167.07 60.952 164.782 60.952C162.494 60.952 160.878 60.168 159.934 58.6C159.006 57.016 158.542 54.824 158.542 52.024ZM168.334 52.024C168.334 50.728 168.246 49.632 168.07 48.736C167.91 47.84 167.574 47.112 167.062 46.552C166.55 45.976 165.79 45.688 164.782 45.688C163.774 45.688 163.014 45.976 162.502 46.552C161.99 47.112 161.646 47.84 161.47 48.736C161.31 49.632 161.23 50.728 161.23 52.024C161.23 53.368 161.31 54.496 161.47 55.408C161.63 56.32 161.966 57.056 162.478 57.616C163.006 58.176 163.774 58.456 164.782 58.456C165.79 58.456 166.55 58.176 167.062 57.616C167.59 57.056 167.934 56.32 168.094 55.408C168.254 54.496 168.334 53.368 168.334 52.024Z" fill="black"/>
</svg>
