<svg width="237" height="37" viewBox="0 0 237 37" fill="none" xmlns="http://www.w3.org/2000/svg">
<line x1="1" x2="1" y2="37" stroke="#9F9F9F" stroke-width="2"/>
<path d="M38.768 25.112C38.032 25.112 37.3707 24.984 36.784 24.728C36.208 24.4613 35.7547 24.0987 35.424 23.64C35.0933 23.1707 34.9227 22.632 34.912 22.024H36.464C36.5173 22.5467 36.7307 22.9893 37.104 23.352C37.488 23.704 38.0427 23.88 38.768 23.88C39.4613 23.88 40.0053 23.7093 40.4 23.368C40.8053 23.016 41.008 22.568 41.008 22.024C41.008 21.5973 40.8907 21.2507 40.656 20.984C40.4213 20.7173 40.128 20.5147 39.776 20.376C39.424 20.2373 38.9493 20.088 38.352 19.928C37.616 19.736 37.024 19.544 36.576 19.352C36.1387 19.16 35.76 18.8613 35.44 18.456C35.1307 18.04 34.976 17.4853 34.976 16.792C34.976 16.184 35.1307 15.6453 35.44 15.176C35.7493 14.7067 36.1813 14.344 36.736 14.088C37.3013 13.832 37.9467 13.704 38.672 13.704C39.7173 13.704 40.5707 13.9653 41.232 14.488C41.904 15.0107 42.2827 15.704 42.368 16.568H40.768C40.7147 16.1413 40.4907 15.768 40.096 15.448C39.7013 15.1173 39.1787 14.952 38.528 14.952C37.92 14.952 37.424 15.112 37.04 15.432C36.656 15.7413 36.464 16.1787 36.464 16.744C36.464 17.1493 36.576 17.48 36.8 17.736C37.0347 17.992 37.3173 18.1893 37.648 18.328C37.9893 18.456 38.464 18.6053 39.072 18.776C39.808 18.9787 40.4 19.1813 40.848 19.384C41.296 19.576 41.68 19.88 42 20.296C42.32 20.7013 42.48 21.256 42.48 21.96C42.48 22.504 42.336 23.016 42.048 23.496C41.76 23.976 41.3333 24.3653 40.768 24.664C40.2027 24.9627 39.536 25.112 38.768 25.112ZM48.9746 16.072C49.636 16.072 50.2333 16.216 50.7666 16.504C51.3 16.7813 51.716 17.2027 52.0146 17.768C52.324 18.3333 52.4786 19.0213 52.4786 19.832V25H51.0386V20.04C51.0386 19.1653 50.82 18.4987 50.3826 18.04C49.9453 17.5707 49.348 17.336 48.5906 17.336C47.8226 17.336 47.2093 17.576 46.7506 18.056C46.3026 18.536 46.0786 19.2347 46.0786 20.152V25H44.6226V13.16H46.0786V17.48C46.3666 17.032 46.7613 16.6853 47.2626 16.44C47.7746 16.1947 48.3453 16.072 48.9746 16.072ZM58.681 25.144C57.8597 25.144 57.113 24.9573 56.441 24.584C55.7797 24.2107 55.257 23.6827 54.873 23C54.4997 22.3067 54.313 21.5067 54.313 20.6C54.313 19.704 54.505 18.9147 54.889 18.232C55.2837 17.5387 55.817 17.0107 56.489 16.648C57.161 16.2747 57.913 16.088 58.745 16.088C59.577 16.088 60.329 16.2747 61.001 16.648C61.673 17.0107 62.201 17.5333 62.585 18.216C62.9797 18.8987 63.177 19.6933 63.177 20.6C63.177 21.5067 62.9743 22.3067 62.569 23C62.1743 23.6827 61.6357 24.2107 60.953 24.584C60.2703 24.9573 59.513 25.144 58.681 25.144ZM58.681 23.864C59.2037 23.864 59.6943 23.7413 60.153 23.496C60.6117 23.2507 60.9797 22.8827 61.257 22.392C61.545 21.9013 61.689 21.304 61.689 20.6C61.689 19.896 61.5503 19.2987 61.273 18.808C60.9957 18.3173 60.633 17.9547 60.185 17.72C59.737 17.4747 59.2517 17.352 58.729 17.352C58.1957 17.352 57.705 17.4747 57.257 17.72C56.8197 17.9547 56.4677 18.3173 56.201 18.808C55.9343 19.2987 55.801 19.896 55.801 20.6C55.801 21.3147 55.929 21.9173 56.185 22.408C56.4517 22.8987 56.8037 23.2667 57.241 23.512C57.6783 23.7467 58.1583 23.864 58.681 23.864ZM76.7714 16.232L74.0354 25H72.5314L70.4194 18.04L68.3074 25H66.8034L64.0514 16.232H65.5394L67.5554 23.592L69.7314 16.232H71.2194L73.3474 23.608L75.3314 16.232H76.7714ZM78.9684 14.808C78.691 14.808 78.4564 14.712 78.2644 14.52C78.0724 14.328 77.9764 14.0933 77.9764 13.816C77.9764 13.5387 78.0724 13.304 78.2644 13.112C78.4564 12.92 78.691 12.824 78.9684 12.824C79.235 12.824 79.459 12.92 79.6404 13.112C79.8324 13.304 79.9284 13.5387 79.9284 13.816C79.9284 14.0933 79.8324 14.328 79.6404 14.52C79.459 14.712 79.235 14.808 78.9684 14.808ZM79.6724 16.232V25H78.2164V16.232H79.6724ZM86.4259 16.072C87.4925 16.072 88.3565 16.3973 89.0179 17.048C89.6792 17.688 90.0099 18.616 90.0099 19.832V25H88.5699V20.04C88.5699 19.1653 88.3512 18.4987 87.9139 18.04C87.4765 17.5707 86.8792 17.336 86.1219 17.336C85.3539 17.336 84.7405 17.576 84.2819 18.056C83.8339 18.536 83.6099 19.2347 83.6099 20.152V25H82.1539V16.232H83.6099V17.48C83.8979 17.032 84.2872 16.6853 84.7779 16.44C85.2792 16.1947 85.8285 16.072 86.4259 16.072ZM96.0043 16.088C96.7616 16.088 97.4229 16.2533 97.9883 16.584C98.5643 16.9147 98.9909 17.3307 99.2683 17.832V16.232H100.74V25.192C100.74 25.992 100.57 26.7013 100.228 27.32C99.8869 27.9493 99.3963 28.44 98.7563 28.792C98.1269 29.144 97.3909 29.32 96.5483 29.32C95.3963 29.32 94.4363 29.048 93.6683 28.504C92.9003 27.96 92.4469 27.2187 92.3083 26.28H93.7483C93.9083 26.8133 94.2389 27.24 94.7403 27.56C95.2416 27.8907 95.8443 28.056 96.5483 28.056C97.3483 28.056 97.9989 27.8053 98.5003 27.304C99.0123 26.8027 99.2683 26.0987 99.2683 25.192V23.352C98.9803 23.864 98.5536 24.2907 97.9883 24.632C97.4229 24.9733 96.7616 25.144 96.0043 25.144C95.2256 25.144 94.5163 24.952 93.8763 24.568C93.2469 24.184 92.7509 23.6453 92.3883 22.952C92.0256 22.2587 91.8443 21.4693 91.8443 20.584C91.8443 19.688 92.0256 18.904 92.3883 18.232C92.7509 17.5493 93.2469 17.0213 93.8763 16.648C94.5163 16.2747 95.2256 16.088 96.0043 16.088ZM99.2683 20.6C99.2683 19.9387 99.1349 19.3627 98.8683 18.872C98.6016 18.3813 98.2389 18.008 97.7803 17.752C97.3323 17.4853 96.8363 17.352 96.2923 17.352C95.7483 17.352 95.2523 17.48 94.8043 17.736C94.3563 17.992 93.9989 18.3653 93.7323 18.856C93.4656 19.3467 93.3323 19.9227 93.3323 20.584C93.3323 21.256 93.4656 21.8427 93.7323 22.344C93.9989 22.8347 94.3563 23.2133 94.8043 23.48C95.2523 23.736 95.7483 23.864 96.2923 23.864C96.8363 23.864 97.3323 23.736 97.7803 23.48C98.2389 23.2133 98.6016 22.8347 98.8683 22.344C99.1349 21.8427 99.2683 21.2613 99.2683 20.6ZM106.842 14.76V13.432H109.85V25H108.378V14.76H106.842ZM120.991 18.52V19.752H112.575V18.52H120.991ZM122.796 14.76V13.432H125.804V25H124.332V14.76H122.796ZM134.753 16.184C134.518 15 133.787 14.408 132.561 14.408C131.611 14.408 130.902 14.776 130.433 15.512C129.963 16.2373 129.734 17.4373 129.745 19.112C129.99 18.5573 130.395 18.1253 130.961 17.816C131.537 17.496 132.177 17.336 132.881 17.336C133.979 17.336 134.854 17.6773 135.505 18.36C136.166 19.0427 136.497 19.9867 136.497 21.192C136.497 21.9173 136.353 22.568 136.065 23.144C135.787 23.72 135.361 24.1787 134.785 24.52C134.219 24.8613 133.531 25.032 132.721 25.032C131.622 25.032 130.763 24.7867 130.145 24.296C129.526 23.8053 129.094 23.128 128.849 22.264C128.603 21.4 128.481 20.3333 128.481 19.064C128.481 15.1493 129.846 13.192 132.577 13.192C133.622 13.192 134.443 13.4747 135.041 14.04C135.638 14.6053 135.99 15.32 136.097 16.184H134.753ZM132.577 18.568C132.118 18.568 131.686 18.664 131.281 18.856C130.875 19.0373 130.545 19.32 130.289 19.704C130.043 20.0773 129.921 20.536 129.921 21.08C129.921 21.8907 130.155 22.552 130.625 23.064C131.094 23.5653 131.766 23.816 132.641 23.816C133.387 23.816 133.979 23.5867 134.417 23.128C134.865 22.6587 135.089 22.0293 135.089 21.24C135.089 20.408 134.875 19.7573 134.449 19.288C134.022 18.808 133.398 18.568 132.577 18.568ZM146.79 25.144C145.969 25.144 145.222 24.9573 144.55 24.584C143.889 24.2107 143.366 23.6827 142.982 23C142.609 22.3067 142.422 21.5067 142.422 20.6C142.422 19.704 142.614 18.9147 142.998 18.232C143.393 17.5387 143.926 17.0107 144.598 16.648C145.27 16.2747 146.022 16.088 146.854 16.088C147.686 16.088 148.438 16.2747 149.11 16.648C149.782 17.0107 150.31 17.5333 150.694 18.216C151.089 18.8987 151.286 19.6933 151.286 20.6C151.286 21.5067 151.084 22.3067 150.678 23C150.284 23.6827 149.745 24.2107 149.062 24.584C148.38 24.9573 147.622 25.144 146.79 25.144ZM146.79 23.864C147.313 23.864 147.804 23.7413 148.262 23.496C148.721 23.2507 149.089 22.8827 149.366 22.392C149.654 21.9013 149.798 21.304 149.798 20.6C149.798 19.896 149.66 19.2987 149.382 18.808C149.105 18.3173 148.742 17.9547 148.294 17.72C147.846 17.4747 147.361 17.352 146.838 17.352C146.305 17.352 145.814 17.4747 145.366 17.72C144.929 17.9547 144.577 18.3173 144.31 18.808C144.044 19.2987 143.91 19.896 143.91 20.6C143.91 21.3147 144.038 21.9173 144.294 22.408C144.561 22.8987 144.913 23.2667 145.35 23.512C145.788 23.7467 146.268 23.864 146.79 23.864ZM156.769 17.432H154.929V25H153.473V17.432H152.337V16.232H153.473V15.608C153.473 14.6267 153.723 13.912 154.225 13.464C154.737 13.0053 155.553 12.776 156.673 12.776V13.992C156.033 13.992 155.579 14.12 155.313 14.376C155.057 14.6213 154.929 15.032 154.929 15.608V16.232H156.769V17.432ZM162.46 16.344C162.535 15.3627 162.913 14.5947 163.596 14.04C164.279 13.4853 165.164 13.208 166.252 13.208C166.977 13.208 167.601 13.3413 168.124 13.608C168.657 13.864 169.057 14.216 169.324 14.664C169.601 15.112 169.74 15.6187 169.74 16.184C169.74 16.8453 169.548 17.416 169.164 17.896C168.791 18.376 168.3 18.6853 167.692 18.824V18.904C168.385 19.0747 168.935 19.4107 169.34 19.912C169.745 20.4133 169.948 21.0693 169.948 21.88C169.948 22.488 169.809 23.0373 169.532 23.528C169.255 24.008 168.839 24.3867 168.284 24.664C167.729 24.9413 167.063 25.08 166.284 25.08C165.153 25.08 164.225 24.7867 163.5 24.2C162.775 23.6027 162.369 22.76 162.284 21.672H163.692C163.767 22.312 164.028 22.8347 164.476 23.24C164.924 23.6453 165.521 23.848 166.268 23.848C167.015 23.848 167.58 23.656 167.964 23.272C168.359 22.8773 168.556 22.3707 168.556 21.752C168.556 20.952 168.289 20.376 167.756 20.024C167.223 19.672 166.417 19.496 165.34 19.496H164.972V18.28H165.356C166.337 18.2693 167.079 18.1093 167.58 17.8C168.081 17.48 168.332 16.9893 168.332 16.328C168.332 15.7627 168.145 15.3093 167.772 14.968C167.409 14.6267 166.887 14.456 166.204 14.456C165.543 14.456 165.009 14.6267 164.604 14.968C164.199 15.3093 163.959 15.768 163.884 16.344H162.46ZM171.738 23.832C173.093 22.744 174.154 21.8533 174.922 21.16C175.69 20.456 176.335 19.7253 176.858 18.968C177.391 18.2 177.658 17.448 177.658 16.712C177.658 16.0187 177.487 15.4747 177.146 15.08C176.815 14.6747 176.277 14.472 175.53 14.472C174.805 14.472 174.239 14.7013 173.834 15.16C173.439 15.608 173.226 16.2107 173.194 16.968H171.786C171.829 15.7733 172.191 14.8507 172.874 14.2C173.557 13.5493 174.437 13.224 175.514 13.224C176.613 13.224 177.482 13.528 178.122 14.136C178.773 14.744 179.098 15.5813 179.098 16.648C179.098 17.5333 178.831 18.3973 178.298 19.24C177.775 20.072 177.178 20.808 176.506 21.448C175.834 22.0773 174.975 22.8133 173.93 23.656H179.434V24.872H171.738V23.832ZM187.079 17.656C187.335 17.1547 187.697 16.7653 188.167 16.488C188.647 16.2107 189.228 16.072 189.911 16.072V17.576H189.527C187.895 17.576 187.079 18.4613 187.079 20.232V25H185.623V16.232H187.079V17.656ZM199.591 20.28C199.591 20.5573 199.575 20.8507 199.543 21.16H192.535C192.589 22.024 192.882 22.7013 193.415 23.192C193.959 23.672 194.615 23.912 195.383 23.912C196.013 23.912 196.535 23.768 196.951 23.48C197.378 23.1813 197.677 22.7867 197.847 22.296H199.415C199.181 23.1387 198.711 23.8267 198.007 24.36C197.303 24.8827 196.429 25.144 195.383 25.144C194.551 25.144 193.805 24.9573 193.143 24.584C192.493 24.2107 191.981 23.6827 191.607 23C191.234 22.3067 191.047 21.5067 191.047 20.6C191.047 19.6933 191.229 18.8987 191.591 18.216C191.954 17.5333 192.461 17.0107 193.111 16.648C193.773 16.2747 194.53 16.088 195.383 16.088C196.215 16.088 196.951 16.2693 197.591 16.632C198.231 16.9947 198.722 17.496 199.063 18.136C199.415 18.7653 199.591 19.48 199.591 20.28ZM198.087 19.976C198.087 19.4213 197.965 18.9467 197.719 18.552C197.474 18.1467 197.138 17.8427 196.711 17.64C196.295 17.4267 195.831 17.32 195.319 17.32C194.583 17.32 193.954 17.5547 193.431 18.024C192.919 18.4933 192.626 19.144 192.551 19.976H198.087ZM204.617 25.144C203.945 25.144 203.343 25.032 202.809 24.808C202.276 24.5733 201.855 24.2533 201.545 23.848C201.236 23.432 201.065 22.9573 201.033 22.424H202.537C202.58 22.8613 202.783 23.2187 203.145 23.496C203.519 23.7733 204.004 23.912 204.601 23.912C205.156 23.912 205.593 23.7893 205.913 23.544C206.233 23.2987 206.393 22.9893 206.393 22.616C206.393 22.232 206.223 21.9493 205.881 21.768C205.54 21.576 205.012 21.3893 204.297 21.208C203.647 21.0373 203.113 20.8667 202.697 20.696C202.292 20.5147 201.94 20.2533 201.641 19.912C201.353 19.56 201.209 19.1013 201.209 18.536C201.209 18.088 201.343 17.6773 201.609 17.304C201.876 16.9307 202.255 16.6373 202.745 16.424C203.236 16.2 203.796 16.088 204.425 16.088C205.396 16.088 206.18 16.3333 206.777 16.824C207.375 17.3147 207.695 17.9867 207.737 18.84H206.281C206.249 18.3813 206.063 18.0133 205.721 17.736C205.391 17.4587 204.943 17.32 204.377 17.32C203.855 17.32 203.439 17.432 203.129 17.656C202.82 17.88 202.665 18.1733 202.665 18.536C202.665 18.824 202.756 19.064 202.937 19.256C203.129 19.4373 203.364 19.5867 203.641 19.704C203.929 19.8107 204.324 19.9333 204.825 20.072C205.455 20.2427 205.967 20.4133 206.361 20.584C206.756 20.744 207.092 20.9893 207.369 21.32C207.657 21.6507 207.807 22.0827 207.817 22.616C207.817 23.096 207.684 23.528 207.417 23.912C207.151 24.296 206.772 24.6 206.281 24.824C205.801 25.0373 205.247 25.144 204.617 25.144ZM217.649 16.232V25H216.193V23.704C215.915 24.152 215.526 24.504 215.025 24.76C214.534 25.0053 213.99 25.128 213.393 25.128C212.71 25.128 212.097 24.9893 211.553 24.712C211.009 24.424 210.577 23.9973 210.257 23.432C209.947 22.8667 209.793 22.1787 209.793 21.368V16.232H211.233V21.176C211.233 22.04 211.451 22.7067 211.889 23.176C212.326 23.6347 212.923 23.864 213.681 23.864C214.459 23.864 215.073 23.624 215.521 23.144C215.969 22.664 216.193 21.9653 216.193 21.048V16.232H217.649ZM221.563 13.16V25H220.107V13.16H221.563ZM225.821 17.432V22.6C225.821 23.0267 225.911 23.3307 226.093 23.512C226.274 23.6827 226.589 23.768 227.036 23.768H228.109V25H226.797C225.986 25 225.378 24.8133 224.973 24.44C224.567 24.0667 224.365 23.4533 224.365 22.6V17.432H223.229V16.232H224.365V14.024H225.821V16.232H228.109V17.432H225.821ZM232.977 25.144C232.305 25.144 231.702 25.032 231.169 24.808C230.635 24.5733 230.214 24.2533 229.905 23.848C229.595 23.432 229.425 22.9573 229.393 22.424H230.897C230.939 22.8613 231.142 23.2187 231.505 23.496C231.878 23.7733 232.363 23.912 232.961 23.912C233.515 23.912 233.953 23.7893 234.273 23.544C234.593 23.2987 234.753 22.9893 234.753 22.616C234.753 22.232 234.582 21.9493 234.241 21.768C233.899 21.576 233.371 21.3893 232.657 21.208C232.006 21.0373 231.473 20.8667 231.057 20.696C230.651 20.5147 230.299 20.2533 230.001 19.912C229.713 19.56 229.569 19.1013 229.569 18.536C229.569 18.088 229.702 17.6773 229.969 17.304C230.235 16.9307 230.614 16.6373 231.105 16.424C231.595 16.2 232.155 16.088 232.785 16.088C233.755 16.088 234.539 16.3333 235.137 16.824C235.734 17.3147 236.054 17.9867 236.097 18.84H234.641C234.609 18.3813 234.422 18.0133 234.081 17.736C233.75 17.4587 233.302 17.32 232.737 17.32C232.214 17.32 231.798 17.432 231.489 17.656C231.179 17.88 231.025 18.1733 231.025 18.536C231.025 18.824 231.115 19.064 231.297 19.256C231.489 19.4373 231.723 19.5867 232.001 19.704C232.289 19.8107 232.683 19.9333 233.185 20.072C233.814 20.2427 234.326 20.4133 234.721 20.584C235.115 20.744 235.451 20.9893 235.729 21.32C236.017 21.6507 236.166 22.0827 236.177 22.616C236.177 23.096 236.043 23.528 235.777 23.912C235.51 24.296 235.131 24.6 234.641 24.824C234.161 25.0373 233.606 25.144 232.977 25.144Z" fill="black"/>
</svg>
