<svg width="121" height="24" viewBox="0 0 121 24" fill="none" xmlns="http://www.w3.org/2000/svg">
<path d="M10.08 6.88V18H8.256V13.136H3.024V18H1.2V6.88H3.024V11.648H8.256V6.88H10.08ZM16.3053 18.144C15.4733 18.144 14.7213 17.9573 14.0493 17.584C13.3773 17.2 12.8493 16.6667 12.4653 15.984C12.0813 15.2907 11.8893 14.4907 11.8893 13.584C11.8893 12.688 12.0866 11.8933 12.4813 11.2C12.8759 10.5067 13.4146 9.97333 14.0973 9.6C14.7799 9.22667 15.5426 9.04 16.3853 9.04C17.2279 9.04 17.9906 9.22667 18.6733 9.6C19.3559 9.97333 19.8946 10.5067 20.2893 11.2C20.6839 11.8933 20.8813 12.688 20.8813 13.584C20.8813 14.48 20.6786 15.2747 20.2733 15.968C19.8679 16.6613 19.3133 17.2 18.6093 17.584C17.9159 17.9573 17.1479 18.144 16.3053 18.144ZM16.3053 16.56C16.7746 16.56 17.2119 16.448 17.6173 16.224C18.0333 16 18.3693 15.664 18.6253 15.216C18.8813 14.768 19.0093 14.224 19.0093 13.584C19.0093 12.944 18.8866 12.4053 18.6413 11.968C18.3959 11.52 18.0706 11.184 17.6653 10.96C17.2599 10.736 16.8226 10.624 16.3533 10.624C15.8839 10.624 15.4466 10.736 15.0413 10.96C14.6466 11.184 14.3319 11.52 14.0973 11.968C13.8626 12.4053 13.7453 12.944 13.7453 13.584C13.7453 14.5333 13.9853 15.2693 14.4653 15.792C14.9559 16.304 15.5693 16.56 16.3053 16.56ZM33.3564 9.04C34.0497 9.04 34.6684 9.184 35.2124 9.472C35.767 9.76 36.199 10.1867 36.5084 10.752C36.8284 11.3173 36.9884 12 36.9884 12.8V18H35.1804V13.072C35.1804 12.2827 34.983 11.68 34.5884 11.264C34.1937 10.8373 33.655 10.624 32.9724 10.624C32.2897 10.624 31.7457 10.8373 31.3404 11.264C30.9457 11.68 30.7484 12.2827 30.7484 13.072V18H28.9404V13.072C28.9404 12.2827 28.743 11.68 28.3484 11.264C27.9537 10.8373 27.415 10.624 26.7324 10.624C26.0497 10.624 25.5057 10.8373 25.1004 11.264C24.7057 11.68 24.5084 12.2827 24.5084 13.072V18H22.6844V9.184H24.5084V10.192C24.807 9.82933 25.1857 9.54667 25.6444 9.344C26.103 9.14133 26.5937 9.04 27.1164 9.04C27.8204 9.04 28.4497 9.18933 29.0044 9.488C29.559 9.78667 29.9857 10.2187 30.2844 10.784C30.551 10.2507 30.967 9.82933 31.5324 9.52C32.0977 9.2 32.7057 9.04 33.3564 9.04ZM47.3894 13.376C47.3894 13.7067 47.368 14.0053 47.3254 14.272H40.5894C40.6427 14.976 40.904 15.5413 41.3734 15.968C41.8427 16.3947 42.4187 16.608 43.1014 16.608C44.0827 16.608 44.776 16.1973 45.1814 15.376H47.1494C46.8827 16.1867 46.3974 16.8533 45.6934 17.376C45 17.888 44.136 18.144 43.1014 18.144C42.2587 18.144 41.5014 17.9573 40.8294 17.584C40.168 17.2 39.6454 16.6667 39.2614 15.984C38.888 15.2907 38.7014 14.4907 38.7014 13.584C38.7014 12.6773 38.8827 11.8827 39.2454 11.2C39.6187 10.5067 40.136 9.97333 40.7974 9.6C41.4694 9.22667 42.2374 9.04 43.1014 9.04C43.9334 9.04 44.6747 9.22133 45.3254 9.584C45.976 9.94667 46.4827 10.4587 46.8454 11.12C47.208 11.7707 47.3894 12.5227 47.3894 13.376ZM45.4854 12.8C45.4747 12.128 45.2347 11.5893 44.7654 11.184C44.296 10.7787 43.7147 10.576 43.0214 10.576C42.392 10.576 41.8534 10.7787 41.4054 11.184C40.9574 11.5787 40.6907 12.1173 40.6054 12.8H45.4854Z" fill="black"/>
<path d="M84.672 18.112C83.936 18.112 83.2853 17.984 82.72 17.728C82.1653 17.472 81.728 17.1147 81.408 16.656C81.088 16.1973 80.9173 15.6853 80.896 15.12H82.08C82.1333 15.664 82.3733 16.144 82.8 16.56C83.2267 16.9653 83.8507 17.168 84.672 17.168C85.4293 17.168 86.0267 16.976 86.464 16.592C86.912 16.1973 87.136 15.7013 87.136 15.104C87.136 14.624 87.0133 14.24 86.768 13.952C86.5227 13.6533 86.2187 13.4347 85.856 13.296C85.4933 13.1467 84.992 12.9867 84.352 12.816C83.6053 12.6133 83.0133 12.416 82.576 12.224C82.1387 12.032 81.7653 11.7333 81.456 11.328C81.1467 10.9227 80.992 10.3733 80.992 9.68C80.992 9.104 81.1413 8.592 81.44 8.144C81.7387 7.68533 82.16 7.328 82.704 7.072C83.248 6.816 83.872 6.688 84.576 6.688C85.6107 6.688 86.4427 6.944 87.072 7.456C87.712 7.95733 88.08 8.608 88.176 9.408H86.96C86.8853 8.94933 86.6347 8.544 86.208 8.192C85.7813 7.82933 85.2053 7.648 84.48 7.648C83.808 7.648 83.248 7.82933 82.8 8.192C82.352 8.544 82.128 9.02933 82.128 9.648C82.128 10.1173 82.2507 10.496 82.496 10.784C82.7413 11.072 83.0453 11.2907 83.408 11.44C83.7813 11.5893 84.2827 11.7493 84.912 11.92C85.6373 12.1227 86.224 12.3253 86.672 12.528C87.12 12.72 87.4987 13.0187 87.808 13.424C88.1173 13.8293 88.272 14.3733 88.272 15.056C88.272 15.5787 88.1333 16.0747 87.856 16.544C87.5787 17.0133 87.168 17.392 86.624 17.68C86.08 17.968 85.4293 18.112 84.672 18.112ZM94.5963 9.104C95.2576 9.104 95.8496 9.24267 96.3723 9.52C96.9056 9.79733 97.3216 10.224 97.6203 10.8C97.9296 11.3653 98.0843 12.0587 98.0843 12.88V18H96.9803V13.008C96.9803 12.0587 96.7403 11.3333 96.2603 10.832C95.7909 10.3307 95.1456 10.08 94.3243 10.08C93.4816 10.08 92.8096 10.3467 92.3083 10.88C91.8069 11.4133 91.5563 12.1973 91.5563 13.232V18H90.4363V6.16H91.5563V10.752C91.8336 10.2293 92.2389 9.824 92.7723 9.536C93.3163 9.248 93.9243 9.104 94.5963 9.104ZM104.385 18.128C103.564 18.128 102.823 17.9467 102.161 17.584C101.511 17.2107 100.993 16.688 100.609 16.016C100.236 15.3333 100.049 14.5387 100.049 13.632C100.049 12.7253 100.241 11.936 100.625 11.264C101.009 10.5813 101.532 10.0587 102.193 9.696C102.855 9.32267 103.596 9.136 104.417 9.136C105.239 9.136 105.98 9.32267 106.641 9.696C107.313 10.0587 107.836 10.5813 108.209 11.264C108.593 11.936 108.785 12.7253 108.785 13.632C108.785 14.528 108.593 15.3173 108.209 16C107.825 16.6827 107.297 17.2107 106.625 17.584C105.953 17.9467 105.207 18.128 104.385 18.128ZM104.385 17.152C104.961 17.152 105.495 17.024 105.985 16.768C106.476 16.5013 106.871 16.1067 107.169 15.584C107.479 15.0507 107.633 14.4 107.633 13.632C107.633 12.864 107.484 12.2187 107.185 11.696C106.887 11.1627 106.492 10.768 106.001 10.512C105.511 10.2453 104.977 10.112 104.401 10.112C103.825 10.112 103.292 10.2453 102.801 10.512C102.311 10.768 101.916 11.1627 101.617 11.696C101.329 12.2187 101.185 12.864 101.185 13.632C101.185 14.4 101.329 15.0507 101.617 15.584C101.916 16.1067 102.305 16.5013 102.785 16.768C103.276 17.024 103.809 17.152 104.385 17.152ZM111.931 11.184C112.208 10.5973 112.646 10.112 113.243 9.728C113.851 9.33333 114.571 9.136 115.403 9.136C116.192 9.136 116.902 9.32267 117.531 9.696C118.171 10.0587 118.667 10.5813 119.019 11.264C119.382 11.936 119.563 12.72 119.563 13.616C119.563 14.512 119.382 15.3013 119.019 15.984C118.667 16.6667 118.171 17.1947 117.531 17.568C116.902 17.9413 116.192 18.128 115.403 18.128C114.582 18.128 113.867 17.936 113.259 17.552C112.651 17.1573 112.208 16.6667 111.931 16.08V22.128H110.827V9.264H111.931V11.184ZM118.427 13.616C118.427 12.8907 118.283 12.2667 117.995 11.744C117.718 11.2107 117.334 10.8053 116.843 10.528C116.352 10.2507 115.798 10.112 115.179 10.112C114.582 10.112 114.032 10.256 113.531 10.544C113.04 10.832 112.651 11.2427 112.363 11.776C112.075 12.3093 111.931 12.928 111.931 13.632C111.931 14.336 112.075 14.9547 112.363 15.488C112.651 16.0213 113.04 16.432 113.531 16.72C114.032 17.008 114.582 17.152 115.179 17.152C115.798 17.152 116.352 17.0133 116.843 16.736C117.334 16.448 117.718 16.0373 117.995 15.504C118.283 14.96 118.427 14.3307 118.427 13.616Z" fill="black"/>
<path d="M60 17L65 12L60 7L61 5L68 12L61 19L60 17Z" fill="black"/>
</svg>
