<svg width="608" height="630" viewBox="0 0 608 630" fill="none" xmlns="http://www.w3.org/2000/svg">
<rect width="608" height="630" fill="white"/>
<rect x="76.5" y="445.5" width="29" height="26" rx="4.5" fill="white" stroke="#9F9F9F"/>
<rect x="72.5" y="508.5" width="214" height="63" rx="14.5" stroke="black"/>
<path d="M154.36 545.52H159.24V547H152.54V533.06H154.36V545.52ZM165.953 547.18C164.926 547.18 163.993 546.947 163.153 546.48C162.326 546.013 161.673 545.353 161.193 544.5C160.726 543.633 160.493 542.633 160.493 541.5C160.493 540.38 160.733 539.393 161.213 538.54C161.706 537.673 162.373 537.013 163.213 536.56C164.053 536.093 164.993 535.86 166.033 535.86C167.073 535.86 168.013 536.093 168.853 536.56C169.693 537.013 170.353 537.667 170.833 538.52C171.326 539.373 171.573 540.367 171.573 541.5C171.573 542.633 171.319 543.633 170.813 544.5C170.319 545.353 169.646 546.013 168.793 546.48C167.939 546.947 166.993 547.18 165.953 547.18ZM165.953 545.58C166.606 545.58 167.219 545.427 167.793 545.12C168.366 544.813 168.826 544.353 169.173 543.74C169.533 543.127 169.713 542.38 169.713 541.5C169.713 540.62 169.539 539.873 169.193 539.26C168.846 538.647 168.393 538.193 167.833 537.9C167.273 537.593 166.666 537.44 166.013 537.44C165.346 537.44 164.733 537.593 164.173 537.9C163.626 538.193 163.186 538.647 162.853 539.26C162.519 539.873 162.353 540.62 162.353 541.5C162.353 542.393 162.513 543.147 162.833 543.76C163.166 544.373 163.606 544.833 164.153 545.14C164.699 545.433 165.299 545.58 165.953 545.58ZM178.486 535.86C179.432 535.86 180.259 536.067 180.966 536.48C181.686 536.893 182.219 537.413 182.566 538.04V536.04H184.406V547.24C184.406 548.24 184.192 549.127 183.766 549.9C183.339 550.687 182.726 551.3 181.926 551.74C181.139 552.18 180.219 552.4 179.166 552.4C177.726 552.4 176.526 552.06 175.566 551.38C174.606 550.7 174.039 549.773 173.866 548.6H175.666C175.866 549.267 176.279 549.8 176.906 550.2C177.532 550.613 178.286 550.82 179.166 550.82C180.166 550.82 180.979 550.507 181.606 549.88C182.246 549.253 182.566 548.373 182.566 547.24V544.94C182.206 545.58 181.672 546.113 180.966 546.54C180.259 546.967 179.432 547.18 178.486 547.18C177.512 547.18 176.626 546.94 175.826 546.46C175.039 545.98 174.419 545.307 173.966 544.44C173.512 543.573 173.286 542.587 173.286 541.48C173.286 540.36 173.512 539.38 173.966 538.54C174.419 537.687 175.039 537.027 175.826 536.56C176.626 536.093 177.512 535.86 178.486 535.86ZM182.566 541.5C182.566 540.673 182.399 539.953 182.066 539.34C181.732 538.727 181.279 538.26 180.706 537.94C180.146 537.607 179.526 537.44 178.846 537.44C178.166 537.44 177.546 537.6 176.986 537.92C176.426 538.24 175.979 538.707 175.646 539.32C175.312 539.933 175.146 540.653 175.146 541.48C175.146 542.32 175.312 543.053 175.646 543.68C175.979 544.293 176.426 544.767 176.986 545.1C177.546 545.42 178.166 545.58 178.846 545.58C179.526 545.58 180.146 545.42 180.706 545.1C181.279 544.767 181.732 544.293 182.066 543.68C182.399 543.053 182.566 542.327 182.566 541.5ZM194.633 533.06V547H192.813V533.06H194.633ZM203.075 535.84C204.409 535.84 205.489 536.247 206.315 537.06C207.142 537.86 207.555 539.02 207.555 540.54V547H205.755V540.8C205.755 539.707 205.482 538.873 204.935 538.3C204.389 537.713 203.642 537.42 202.695 537.42C201.735 537.42 200.969 537.72 200.395 538.32C199.835 538.92 199.555 539.793 199.555 540.94V547H197.735V536.04H199.555V537.6C199.915 537.04 200.402 536.607 201.015 536.3C201.642 535.993 202.329 535.84 203.075 535.84Z" fill="black"/>
<path d="M81.524 71.004H89.804V75H76.484V49.872H81.524V71.004ZM101.863 75.324C99.9434 75.324 98.2154 74.904 96.6794 74.064C95.1434 73.2 93.9314 71.988 93.0434 70.428C92.1794 68.868 91.7474 67.068 91.7474 65.028C91.7474 62.988 92.1914 61.188 93.0794 59.628C93.9914 58.068 95.2274 56.868 96.7874 56.028C98.3474 55.164 100.087 54.732 102.007 54.732C103.927 54.732 105.667 55.164 107.227 56.028C108.787 56.868 110.011 58.068 110.899 59.628C111.811 61.188 112.267 62.988 112.267 65.028C112.267 67.068 111.799 68.868 110.863 70.428C109.951 71.988 108.703 73.2 107.119 74.064C105.559 74.904 103.807 75.324 101.863 75.324ZM101.863 70.932C102.775 70.932 103.627 70.716 104.419 70.284C105.235 69.828 105.883 69.156 106.363 68.268C106.843 67.38 107.083 66.3 107.083 65.028C107.083 63.132 106.579 61.68 105.571 60.672C104.587 59.64 103.375 59.124 101.935 59.124C100.495 59.124 99.2834 59.64 98.2994 60.672C97.3394 61.68 96.8594 63.132 96.8594 65.028C96.8594 66.924 97.3274 68.388 98.2634 69.42C99.2234 70.428 100.423 70.932 101.863 70.932ZM123.776 54.732C125.264 54.732 126.572 55.032 127.7 55.632C128.828 56.208 129.716 56.964 130.364 57.9V55.056H135.44V75.144C135.44 76.992 135.068 78.636 134.324 80.076C133.58 81.54 132.464 82.692 130.976 83.532C129.488 84.396 127.688 84.828 125.576 84.828C122.744 84.828 120.416 84.168 118.592 82.848C116.792 81.528 115.772 79.728 115.532 77.448H120.536C120.8 78.36 121.364 79.08 122.228 79.608C123.116 80.16 124.184 80.436 125.432 80.436C126.896 80.436 128.084 79.992 128.996 79.104C129.908 78.24 130.364 76.92 130.364 75.144V72.048C129.716 72.984 128.816 73.764 127.664 74.388C126.536 75.012 125.24 75.324 123.776 75.324C122.096 75.324 120.56 74.892 119.168 74.028C117.776 73.164 116.672 71.952 115.856 70.392C115.064 68.808 114.668 66.996 114.668 64.956C114.668 62.94 115.064 61.152 115.856 59.592C116.672 58.032 117.764 56.832 119.132 55.992C120.524 55.152 122.072 54.732 123.776 54.732ZM130.364 65.028C130.364 63.804 130.124 62.76 129.644 61.896C129.164 61.008 128.516 60.336 127.7 59.88C126.884 59.4 126.008 59.16 125.072 59.16C124.136 59.16 123.272 59.388 122.48 59.844C121.688 60.3 121.04 60.972 120.536 61.86C120.056 62.724 119.816 63.756 119.816 64.956C119.816 66.156 120.056 67.212 120.536 68.124C121.04 69.012 121.688 69.696 122.48 70.176C123.296 70.656 124.16 70.896 125.072 70.896C126.008 70.896 126.884 70.668 127.7 70.212C128.516 69.732 129.164 69.06 129.644 68.196C130.124 67.308 130.364 66.252 130.364 65.028ZM153.981 49.872V75H148.941V49.872H153.981ZM170.013 54.768C172.389 54.768 174.309 55.524 175.773 57.036C177.237 58.524 177.969 60.612 177.969 63.3V75H172.929V63.984C172.929 62.4 172.533 61.188 171.741 60.348C170.949 59.484 169.869 59.052 168.501 59.052C167.109 59.052 166.005 59.484 165.189 60.348C164.397 61.188 164.001 62.4 164.001 63.984V75H158.961V55.056H164.001V57.54C164.673 56.676 165.525 56.004 166.557 55.524C167.613 55.02 168.765 54.768 170.013 54.768Z" fill="black"/>
<path d="M78.008 131.88V138.968C78.008 139.811 78.2267 140.445 78.664 140.872C79.112 141.299 79.7307 141.512 80.52 141.512C81.32 141.512 81.9387 141.299 82.376 140.872C82.824 140.445 83.048 139.811 83.048 138.968V131.88H84.872V138.936C84.872 139.843 84.6747 140.611 84.28 141.24C83.8853 141.869 83.3573 142.339 82.696 142.648C82.0347 142.957 81.304 143.112 80.504 143.112C79.704 143.112 78.9733 142.957 78.312 142.648C77.6613 142.339 77.144 141.869 76.76 141.24C76.376 140.611 76.184 139.843 76.184 138.936V131.88H78.008ZM90.4469 143.144C89.7535 143.144 89.1295 143.021 88.5749 142.776C88.0309 142.52 87.5989 142.179 87.2789 141.752C86.9589 141.315 86.7882 140.829 86.7669 140.296H88.6549C88.6869 140.669 88.8629 140.984 89.1829 141.24C89.5135 141.485 89.9242 141.608 90.4149 141.608C90.9269 141.608 91.3215 141.512 91.5989 141.32C91.8869 141.117 92.0309 140.861 92.0309 140.552C92.0309 140.221 91.8709 139.976 91.5509 139.816C91.2415 139.656 90.7455 139.48 90.0629 139.288C89.4015 139.107 88.8629 138.931 88.4469 138.76C88.0309 138.589 87.6682 138.328 87.3589 137.976C87.0602 137.624 86.9109 137.16 86.9109 136.584C86.9109 136.115 87.0495 135.688 87.3269 135.304C87.6042 134.909 87.9989 134.6 88.5109 134.376C89.0335 134.152 89.6309 134.04 90.3029 134.04C91.3055 134.04 92.1109 134.296 92.7189 134.808C93.3375 135.309 93.6682 135.997 93.7109 136.872H91.8869C91.8549 136.477 91.6949 136.163 91.4069 135.928C91.1189 135.693 90.7295 135.576 90.2389 135.576C89.7589 135.576 89.3909 135.667 89.1349 135.848C88.8789 136.029 88.7509 136.269 88.7509 136.568C88.7509 136.803 88.8362 137 89.0069 137.16C89.1775 137.32 89.3855 137.448 89.6309 137.544C89.8762 137.629 90.2389 137.741 90.7189 137.88C91.3589 138.051 91.8815 138.227 92.2869 138.408C92.7029 138.579 93.0602 138.835 93.3589 139.176C93.6575 139.517 93.8122 139.971 93.8229 140.536C93.8229 141.037 93.6842 141.485 93.4069 141.88C93.1295 142.275 92.7349 142.584 92.2229 142.808C91.7215 143.032 91.1295 143.144 90.4469 143.144ZM103.874 138.376C103.874 138.707 103.852 139.005 103.81 139.272H97.0738C97.1271 139.976 97.3884 140.541 97.8578 140.968C98.3271 141.395 98.9031 141.608 99.5858 141.608C100.567 141.608 101.26 141.197 101.666 140.376H103.634C103.367 141.187 102.882 141.853 102.178 142.376C101.484 142.888 100.62 143.144 99.5858 143.144C98.7431 143.144 97.9858 142.957 97.3138 142.584C96.6524 142.2 96.1298 141.667 95.7458 140.984C95.3724 140.291 95.1858 139.491 95.1858 138.584C95.1858 137.677 95.3671 136.883 95.7298 136.2C96.1031 135.507 96.6204 134.973 97.2818 134.6C97.9538 134.227 98.7218 134.04 99.5858 134.04C100.418 134.04 101.159 134.221 101.81 134.584C102.46 134.947 102.967 135.459 103.33 136.12C103.692 136.771 103.874 137.523 103.874 138.376ZM101.97 137.8C101.959 137.128 101.719 136.589 101.25 136.184C100.78 135.779 100.199 135.576 99.5058 135.576C98.8764 135.576 98.3378 135.779 97.8898 136.184C97.4418 136.579 97.1751 137.117 97.0898 137.8H101.97ZM107.493 135.464C107.759 135.016 108.111 134.669 108.549 134.424C108.997 134.168 109.525 134.04 110.133 134.04V135.928H109.669C108.954 135.928 108.41 136.109 108.037 136.472C107.674 136.835 107.493 137.464 107.493 138.36V143H105.669V134.184H107.493V135.464ZM116.257 134.04C116.951 134.04 117.569 134.184 118.113 134.472C118.668 134.76 119.1 135.187 119.409 135.752C119.719 136.317 119.873 137 119.873 137.8V143H118.065V138.072C118.065 137.283 117.868 136.68 117.473 136.264C117.079 135.837 116.54 135.624 115.857 135.624C115.175 135.624 114.631 135.837 114.225 136.264C113.831 136.68 113.633 137.283 113.633 138.072V143H111.809V134.184H113.633V135.192C113.932 134.829 114.311 134.547 114.769 134.344C115.239 134.141 115.735 134.04 116.257 134.04ZM121.592 138.552C121.592 137.667 121.773 136.883 122.136 136.2C122.509 135.517 123.011 134.989 123.64 134.616C124.28 134.232 124.984 134.04 125.752 134.04C126.445 134.04 127.048 134.179 127.56 134.456C128.083 134.723 128.499 135.059 128.808 135.464V134.184H130.648V143H128.808V141.688C128.499 142.104 128.077 142.451 127.544 142.728C127.011 143.005 126.403 143.144 125.72 143.144C124.963 143.144 124.269 142.952 123.64 142.568C123.011 142.173 122.509 141.629 122.136 140.936C121.773 140.232 121.592 139.437 121.592 138.552ZM128.808 138.584C128.808 137.976 128.68 137.448 128.424 137C128.179 136.552 127.853 136.211 127.448 135.976C127.043 135.741 126.605 135.624 126.136 135.624C125.667 135.624 125.229 135.741 124.824 135.976C124.419 136.2 124.088 136.536 123.832 136.984C123.587 137.421 123.464 137.944 123.464 138.552C123.464 139.16 123.587 139.693 123.832 140.152C124.088 140.611 124.419 140.963 124.824 141.208C125.24 141.443 125.677 141.56 126.136 141.56C126.605 141.56 127.043 141.443 127.448 141.208C127.853 140.973 128.179 140.632 128.424 140.184C128.68 139.725 128.808 139.192 128.808 138.584ZM143.716 134.04C144.409 134.04 145.028 134.184 145.572 134.472C146.126 134.76 146.558 135.187 146.868 135.752C147.188 136.317 147.348 137 147.348 137.8V143H145.54V138.072C145.54 137.283 145.342 136.68 144.948 136.264C144.553 135.837 144.014 135.624 143.332 135.624C142.649 135.624 142.105 135.837 141.7 136.264C141.305 136.68 141.108 137.283 141.108 138.072V143H139.3V138.072C139.3 137.283 139.102 136.68 138.708 136.264C138.313 135.837 137.774 135.624 137.092 135.624C136.409 135.624 135.865 135.837 135.46 136.264C135.065 136.68 134.868 137.283 134.868 138.072V143H133.044V134.184H134.868V135.192C135.166 134.829 135.545 134.547 136.004 134.344C136.462 134.141 136.953 134.04 137.476 134.04C138.18 134.04 138.809 134.189 139.364 134.488C139.918 134.787 140.345 135.219 140.644 135.784C140.91 135.251 141.326 134.829 141.892 134.52C142.457 134.2 143.065 134.04 143.716 134.04ZM157.749 138.376C157.749 138.707 157.727 139.005 157.685 139.272H150.949C151.002 139.976 151.263 140.541 151.733 140.968C152.202 141.395 152.778 141.608 153.461 141.608C154.442 141.608 155.135 141.197 155.541 140.376H157.509C157.242 141.187 156.757 141.853 156.053 142.376C155.359 142.888 154.495 143.144 153.461 143.144C152.618 143.144 151.861 142.957 151.189 142.584C150.527 142.2 150.005 141.667 149.621 140.984C149.247 140.291 149.061 139.491 149.061 138.584C149.061 137.677 149.242 136.883 149.605 136.2C149.978 135.507 150.495 134.973 151.157 134.6C151.829 134.227 152.597 134.04 153.461 134.04C154.293 134.04 155.034 134.221 155.685 134.584C156.335 134.947 156.842 135.459 157.205 136.12C157.567 136.771 157.749 137.523 157.749 138.376ZM155.845 137.8C155.834 137.128 155.594 136.589 155.125 136.184C154.655 135.779 154.074 135.576 153.381 135.576C152.751 135.576 152.213 135.779 151.765 136.184C151.317 136.579 151.05 137.117 150.965 137.8H155.845ZM167.524 143.144C166.692 143.144 165.94 142.957 165.268 142.584C164.596 142.2 164.068 141.667 163.684 140.984C163.3 140.291 163.108 139.491 163.108 138.584C163.108 137.688 163.305 136.893 163.7 136.2C164.095 135.507 164.633 134.973 165.316 134.6C165.999 134.227 166.761 134.04 167.604 134.04C168.447 134.04 169.209 134.227 169.892 134.6C170.575 134.973 171.113 135.507 171.508 136.2C171.903 136.893 172.1 137.688 172.1 138.584C172.1 139.48 171.897 140.275 171.492 140.968C171.087 141.661 170.532 142.2 169.828 142.584C169.135 142.957 168.367 143.144 167.524 143.144ZM167.524 141.56C167.993 141.56 168.431 141.448 168.836 141.224C169.252 141 169.588 140.664 169.844 140.216C170.1 139.768 170.228 139.224 170.228 138.584C170.228 137.944 170.105 137.405 169.86 136.968C169.615 136.52 169.289 136.184 168.884 135.96C168.479 135.736 168.041 135.624 167.572 135.624C167.103 135.624 166.665 135.736 166.26 135.96C165.865 136.184 165.551 136.52 165.316 136.968C165.081 137.405 164.964 137.944 164.964 138.584C164.964 139.533 165.204 140.269 165.684 140.792C166.175 141.304 166.788 141.56 167.524 141.56ZM175.727 135.464C175.994 135.016 176.346 134.669 176.783 134.424C177.231 134.168 177.759 134.04 178.367 134.04V135.928H177.903C177.188 135.928 176.644 136.109 176.271 136.472C175.908 136.835 175.727 137.464 175.727 138.36V143H173.903V134.184H175.727V135.464ZM192.28 138.376C192.28 138.707 192.259 139.005 192.216 139.272H185.48C185.533 139.976 185.795 140.541 186.264 140.968C186.733 141.395 187.309 141.608 187.992 141.608C188.973 141.608 189.667 141.197 190.072 140.376H192.04C191.773 141.187 191.288 141.853 190.584 142.376C189.891 142.888 189.027 143.144 187.992 143.144C187.149 143.144 186.392 142.957 185.72 142.584C185.059 142.2 184.536 141.667 184.152 140.984C183.779 140.291 183.592 139.491 183.592 138.584C183.592 137.677 183.773 136.883 184.136 136.2C184.509 135.507 185.027 134.973 185.688 134.6C186.36 134.227 187.128 134.04 187.992 134.04C188.824 134.04 189.565 134.221 190.216 134.584C190.867 134.947 191.373 135.459 191.736 136.12C192.099 136.771 192.28 137.523 192.28 138.376ZM190.376 137.8C190.365 137.128 190.125 136.589 189.656 136.184C189.187 135.779 188.605 135.576 187.912 135.576C187.283 135.576 186.744 135.779 186.296 136.184C185.848 136.579 185.581 137.117 185.496 137.8H190.376ZM204.747 134.04C205.44 134.04 206.059 134.184 206.603 134.472C207.158 134.76 207.59 135.187 207.899 135.752C208.219 136.317 208.379 137 208.379 137.8V143H206.571V138.072C206.571 137.283 206.374 136.68 205.979 136.264C205.584 135.837 205.046 135.624 204.363 135.624C203.68 135.624 203.136 135.837 202.731 136.264C202.336 136.68 202.139 137.283 202.139 138.072V143H200.331V138.072C200.331 137.283 200.134 136.68 199.739 136.264C199.344 135.837 198.806 135.624 198.123 135.624C197.44 135.624 196.896 135.837 196.491 136.264C196.096 136.68 195.899 137.283 195.899 138.072V143H194.075V134.184H195.899V135.192C196.198 134.829 196.576 134.547 197.035 134.344C197.494 134.141 197.984 134.04 198.507 134.04C199.211 134.04 199.84 134.189 200.395 134.488C200.95 134.787 201.376 135.219 201.675 135.784C201.942 135.251 202.358 134.829 202.923 134.52C203.488 134.2 204.096 134.04 204.747 134.04ZM210.092 138.552C210.092 137.667 210.273 136.883 210.636 136.2C211.009 135.517 211.511 134.989 212.14 134.616C212.78 134.232 213.484 134.04 214.252 134.04C214.945 134.04 215.548 134.179 216.06 134.456C216.583 134.723 216.999 135.059 217.308 135.464V134.184H219.148V143H217.308V141.688C216.999 142.104 216.577 142.451 216.044 142.728C215.511 143.005 214.903 143.144 214.22 143.144C213.463 143.144 212.769 142.952 212.14 142.568C211.511 142.173 211.009 141.629 210.636 140.936C210.273 140.232 210.092 139.437 210.092 138.552ZM217.308 138.584C217.308 137.976 217.18 137.448 216.924 137C216.679 136.552 216.353 136.211 215.948 135.976C215.543 135.741 215.105 135.624 214.636 135.624C214.167 135.624 213.729 135.741 213.324 135.976C212.919 136.2 212.588 136.536 212.332 136.984C212.087 137.421 211.964 137.944 211.964 138.552C211.964 139.16 212.087 139.693 212.332 140.152C212.588 140.611 212.919 140.963 213.324 141.208C213.74 141.443 214.177 141.56 214.636 141.56C215.105 141.56 215.543 141.443 215.948 141.208C216.353 140.973 216.679 140.632 216.924 140.184C217.18 139.725 217.308 139.192 217.308 138.584ZM222.472 133.016C222.141 133.016 221.864 132.904 221.64 132.68C221.416 132.456 221.304 132.179 221.304 131.848C221.304 131.517 221.416 131.24 221.64 131.016C221.864 130.792 222.141 130.68 222.472 130.68C222.792 130.68 223.064 130.792 223.288 131.016C223.512 131.24 223.624 131.517 223.624 131.848C223.624 132.179 223.512 132.456 223.288 132.68C223.064 132.904 222.792 133.016 222.472 133.016ZM223.368 134.184V143H221.544V134.184H223.368ZM227.587 131.16V143H225.763V131.16H227.587ZM233.53 138.552C233.53 137.667 233.711 136.883 234.074 136.2C234.447 135.517 234.948 134.989 235.578 134.616C236.218 134.232 236.922 134.04 237.69 134.04C238.383 134.04 238.986 134.179 239.498 134.456C240.02 134.723 240.436 135.059 240.746 135.464V134.184H242.586V143H240.746V141.688C240.436 142.104 240.015 142.451 239.482 142.728C238.948 143.005 238.34 143.144 237.658 143.144C236.9 143.144 236.207 142.952 235.578 142.568C234.948 142.173 234.447 141.629 234.074 140.936C233.711 140.232 233.53 139.437 233.53 138.552ZM240.746 138.584C240.746 137.976 240.618 137.448 240.362 137C240.116 136.552 239.791 136.211 239.386 135.976C238.98 135.741 238.543 135.624 238.074 135.624C237.604 135.624 237.167 135.741 236.762 135.976C236.356 136.2 236.026 136.536 235.77 136.984C235.524 137.421 235.402 137.944 235.402 138.552C235.402 139.16 235.524 139.693 235.77 140.152C236.026 140.611 236.356 140.963 236.762 141.208C237.178 141.443 237.615 141.56 238.074 141.56C238.543 141.56 238.98 141.443 239.386 141.208C239.791 140.973 240.116 140.632 240.362 140.184C240.618 139.725 240.746 139.192 240.746 138.584ZM244.373 138.552C244.373 137.667 244.555 136.883 244.917 136.2C245.291 135.517 245.792 134.989 246.421 134.616C247.061 134.232 247.771 134.04 248.549 134.04C249.125 134.04 249.691 134.168 250.245 134.424C250.811 134.669 251.259 135 251.589 135.416V131.16H253.429V143H251.589V141.672C251.291 142.099 250.875 142.451 250.341 142.728C249.819 143.005 249.216 143.144 248.533 143.144C247.765 143.144 247.061 142.952 246.421 142.568C245.792 142.173 245.291 141.629 244.917 140.936C244.555 140.232 244.373 139.437 244.373 138.552ZM251.589 138.584C251.589 137.976 251.461 137.448 251.205 137C250.96 136.552 250.635 136.211 250.229 135.976C249.824 135.741 249.387 135.624 248.917 135.624C248.448 135.624 248.011 135.741 247.605 135.976C247.2 136.2 246.869 136.536 246.613 136.984C246.368 137.421 246.245 137.944 246.245 138.552C246.245 139.16 246.368 139.693 246.613 140.152C246.869 140.611 247.2 140.963 247.605 141.208C248.021 141.443 248.459 141.56 248.917 141.56C249.387 141.56 249.824 141.443 250.229 141.208C250.635 140.973 250.96 140.632 251.205 140.184C251.461 139.725 251.589 139.192 251.589 138.584ZM255.217 138.552C255.217 137.667 255.398 136.883 255.761 136.2C256.134 135.517 256.636 134.989 257.265 134.616C257.905 134.232 258.614 134.04 259.393 134.04C259.969 134.04 260.534 134.168 261.089 134.424C261.654 134.669 262.102 135 262.433 135.416V131.16H264.273V143H262.433V141.672C262.134 142.099 261.718 142.451 261.185 142.728C260.662 143.005 260.06 143.144 259.377 143.144C258.609 143.144 257.905 142.952 257.265 142.568C256.636 142.173 256.134 141.629 255.761 140.936C255.398 140.232 255.217 139.437 255.217 138.552ZM262.433 138.584C262.433 137.976 262.305 137.448 262.049 137C261.804 136.552 261.478 136.211 261.073 135.976C260.668 135.741 260.23 135.624 259.761 135.624C259.292 135.624 258.854 135.741 258.449 135.976C258.044 136.2 257.713 136.536 257.457 136.984C257.212 137.421 257.089 137.944 257.089 138.552C257.089 139.16 257.212 139.693 257.457 140.152C257.713 140.611 258.044 140.963 258.449 141.208C258.865 141.443 259.302 141.56 259.761 141.56C260.23 141.56 260.668 141.443 261.073 141.208C261.478 140.973 261.804 140.632 262.049 140.184C262.305 139.725 262.433 139.192 262.433 138.584ZM268.493 135.464C268.759 135.016 269.111 134.669 269.549 134.424C269.997 134.168 270.525 134.04 271.133 134.04V135.928H270.669C269.954 135.928 269.41 136.109 269.037 136.472C268.674 136.835 268.493 137.464 268.493 138.36V143H266.669V134.184H268.493V135.464ZM280.889 138.376C280.889 138.707 280.868 139.005 280.825 139.272H274.089C274.143 139.976 274.404 140.541 274.873 140.968C275.343 141.395 275.919 141.608 276.601 141.608C277.583 141.608 278.276 141.197 278.681 140.376H280.649C280.383 141.187 279.897 141.853 279.193 142.376C278.5 142.888 277.636 143.144 276.601 143.144C275.759 143.144 275.001 142.957 274.329 142.584C273.668 142.2 273.145 141.667 272.761 140.984C272.388 140.291 272.201 139.491 272.201 138.584C272.201 137.677 272.383 136.883 272.745 136.2C273.119 135.507 273.636 134.973 274.297 134.6C274.969 134.227 275.737 134.04 276.601 134.04C277.433 134.04 278.175 134.221 278.825 134.584C279.476 134.947 279.983 135.459 280.345 136.12C280.708 136.771 280.889 137.523 280.889 138.376ZM278.985 137.8C278.975 137.128 278.735 136.589 278.265 136.184C277.796 135.779 277.215 135.576 276.521 135.576C275.892 135.576 275.353 135.779 274.905 136.184C274.457 136.579 274.191 137.117 274.105 137.8H278.985ZM285.884 143.144C285.191 143.144 284.567 143.021 284.012 142.776C283.468 142.52 283.036 142.179 282.716 141.752C282.396 141.315 282.226 140.829 282.204 140.296H284.092C284.124 140.669 284.3 140.984 284.62 141.24C284.951 141.485 285.362 141.608 285.852 141.608C286.364 141.608 286.759 141.512 287.036 141.32C287.324 141.117 287.468 140.861 287.468 140.552C287.468 140.221 287.308 139.976 286.988 139.816C286.679 139.656 286.183 139.48 285.5 139.288C284.839 139.107 284.3 138.931 283.884 138.76C283.468 138.589 283.106 138.328 282.796 137.976C282.498 137.624 282.348 137.16 282.348 136.584C282.348 136.115 282.487 135.688 282.764 135.304C283.042 134.909 283.436 134.6 283.948 134.376C284.471 134.152 285.068 134.04 285.74 134.04C286.743 134.04 287.548 134.296 288.156 134.808C288.775 135.309 289.106 135.997 289.148 136.872H287.324C287.292 136.477 287.132 136.163 286.844 135.928C286.556 135.693 286.167 135.576 285.676 135.576C285.196 135.576 284.828 135.667 284.572 135.848C284.316 136.029 284.188 136.269 284.188 136.568C284.188 136.803 284.274 137 284.444 137.16C284.615 137.32 284.823 137.448 285.068 137.544C285.314 137.629 285.676 137.741 286.156 137.88C286.796 138.051 287.319 138.227 287.724 138.408C288.14 138.579 288.498 138.835 288.796 139.176C289.095 139.517 289.25 139.971 289.26 140.536C289.26 141.037 289.122 141.485 288.844 141.88C288.567 142.275 288.172 142.584 287.66 142.808C287.159 143.032 286.567 143.144 285.884 143.144ZM294.431 143.144C293.738 143.144 293.114 143.021 292.559 142.776C292.015 142.52 291.583 142.179 291.263 141.752C290.943 141.315 290.773 140.829 290.751 140.296H292.639C292.671 140.669 292.847 140.984 293.167 141.24C293.498 141.485 293.909 141.608 294.399 141.608C294.911 141.608 295.306 141.512 295.583 141.32C295.871 141.117 296.015 140.861 296.015 140.552C296.015 140.221 295.855 139.976 295.535 139.816C295.226 139.656 294.73 139.48 294.047 139.288C293.386 139.107 292.847 138.931 292.431 138.76C292.015 138.589 291.653 138.328 291.343 137.976C291.045 137.624 290.895 137.16 290.895 136.584C290.895 136.115 291.034 135.688 291.311 135.304C291.589 134.909 291.983 134.6 292.495 134.376C293.018 134.152 293.615 134.04 294.287 134.04C295.29 134.04 296.095 134.296 296.703 134.808C297.322 135.309 297.653 135.997 297.695 136.872H295.871C295.839 136.477 295.679 136.163 295.391 135.928C295.103 135.693 294.714 135.576 294.223 135.576C293.743 135.576 293.375 135.667 293.119 135.848C292.863 136.029 292.735 136.269 292.735 136.568C292.735 136.803 292.821 137 292.991 137.16C293.162 137.32 293.37 137.448 293.615 137.544C293.861 137.629 294.223 137.741 294.703 137.88C295.343 138.051 295.866 138.227 296.271 138.408C296.687 138.579 297.045 138.835 297.343 139.176C297.642 139.517 297.797 139.971 297.807 140.536C297.807 141.037 297.669 141.485 297.391 141.88C297.114 142.275 296.719 142.584 296.207 142.808C295.706 143.032 295.114 143.144 294.431 143.144Z" fill="black"/>
<rect x="76.5" y="171.5" width="422" height="74" rx="9.5" fill="white" stroke="#9F9F9F"/>
<path d="M83.976 292.192C83.976 292.757 83.8427 293.291 83.576 293.792C83.3093 294.293 82.8827 294.704 82.296 295.024C81.7093 295.333 80.9573 295.488 80.04 295.488H78.024V300H76.2V288.88H80.04C80.8933 288.88 81.6133 289.029 82.2 289.328C82.7973 289.616 83.24 290.011 83.528 290.512C83.8267 291.013 83.976 291.573 83.976 292.192ZM80.04 294C80.7333 294 81.2507 293.845 81.592 293.536C81.9333 293.216 82.104 292.768 82.104 292.192C82.104 290.976 81.416 290.368 80.04 290.368H78.024V294H80.04ZM85.1076 295.552C85.1076 294.667 85.289 293.883 85.6516 293.2C86.025 292.517 86.5263 291.989 87.1556 291.616C87.7956 291.232 88.4996 291.04 89.2676 291.04C89.961 291.04 90.5636 291.179 91.0756 291.456C91.5983 291.723 92.0143 292.059 92.3236 292.464V291.184H94.1636V300H92.3236V298.688C92.0143 299.104 91.593 299.451 91.0596 299.728C90.5263 300.005 89.9183 300.144 89.2356 300.144C88.4783 300.144 87.785 299.952 87.1556 299.568C86.5263 299.173 86.025 298.629 85.6516 297.936C85.289 297.232 85.1076 296.437 85.1076 295.552ZM92.3236 295.584C92.3236 294.976 92.1956 294.448 91.9396 294C91.6943 293.552 91.369 293.211 90.9636 292.976C90.5583 292.741 90.121 292.624 89.6516 292.624C89.1823 292.624 88.745 292.741 88.3396 292.976C87.9343 293.2 87.6036 293.536 87.3476 293.984C87.1023 294.421 86.9796 294.944 86.9796 295.552C86.9796 296.16 87.1023 296.693 87.3476 297.152C87.6036 297.611 87.9343 297.963 88.3396 298.208C88.7556 298.443 89.193 298.56 89.6516 298.56C90.121 298.56 90.5583 298.443 90.9636 298.208C91.369 297.973 91.6943 297.632 91.9396 297.184C92.1956 296.725 92.3236 296.192 92.3236 295.584ZM99.7594 300.144C99.066 300.144 98.442 300.021 97.8874 299.776C97.3434 299.52 96.9114 299.179 96.5914 298.752C96.2714 298.315 96.1007 297.829 96.0794 297.296H97.9674C97.9994 297.669 98.1754 297.984 98.4954 298.24C98.826 298.485 99.2367 298.608 99.7274 298.608C100.239 298.608 100.634 298.512 100.911 298.32C101.199 298.117 101.343 297.861 101.343 297.552C101.343 297.221 101.183 296.976 100.863 296.816C100.554 296.656 100.058 296.48 99.3754 296.288C98.714 296.107 98.1754 295.931 97.7594 295.76C97.3434 295.589 96.9807 295.328 96.6714 294.976C96.3727 294.624 96.2234 294.16 96.2234 293.584C96.2234 293.115 96.362 292.688 96.6394 292.304C96.9167 291.909 97.3114 291.6 97.8234 291.376C98.346 291.152 98.9434 291.04 99.6154 291.04C100.618 291.04 101.423 291.296 102.031 291.808C102.65 292.309 102.981 292.997 103.023 293.872H101.199C101.167 293.477 101.007 293.163 100.719 292.928C100.431 292.693 100.042 292.576 99.5514 292.576C99.0714 292.576 98.7034 292.667 98.4474 292.848C98.1914 293.029 98.0634 293.269 98.0634 293.568C98.0634 293.803 98.1487 294 98.3194 294.16C98.49 294.32 98.698 294.448 98.9434 294.544C99.1887 294.629 99.5514 294.741 100.031 294.88C100.671 295.051 101.194 295.227 101.599 295.408C102.015 295.579 102.373 295.835 102.671 296.176C102.97 296.517 103.125 296.971 103.135 297.536C103.135 298.037 102.997 298.485 102.719 298.88C102.442 299.275 102.047 299.584 101.535 299.808C101.034 300.032 100.442 300.144 99.7594 300.144ZM108.306 300.144C107.613 300.144 106.989 300.021 106.434 299.776C105.89 299.52 105.458 299.179 105.138 298.752C104.818 298.315 104.648 297.829 104.626 297.296H106.514C106.546 297.669 106.722 297.984 107.042 298.24C107.373 298.485 107.784 298.608 108.274 298.608C108.786 298.608 109.181 298.512 109.458 298.32C109.746 298.117 109.89 297.861 109.89 297.552C109.89 297.221 109.73 296.976 109.41 296.816C109.101 296.656 108.605 296.48 107.922 296.288C107.261 296.107 106.722 295.931 106.306 295.76C105.89 295.589 105.528 295.328 105.218 294.976C104.92 294.624 104.77 294.16 104.77 293.584C104.77 293.115 104.909 292.688 105.186 292.304C105.464 291.909 105.858 291.6 106.37 291.376C106.893 291.152 107.49 291.04 108.162 291.04C109.165 291.04 109.97 291.296 110.578 291.808C111.197 292.309 111.528 292.997 111.57 293.872H109.746C109.714 293.477 109.554 293.163 109.266 292.928C108.978 292.693 108.589 292.576 108.098 292.576C107.618 292.576 107.25 292.667 106.994 292.848C106.738 293.029 106.61 293.269 106.61 293.568C106.61 293.803 106.696 294 106.866 294.16C107.037 294.32 107.245 294.448 107.49 294.544C107.736 294.629 108.098 294.741 108.578 294.88C109.218 295.051 109.741 295.227 110.146 295.408C110.562 295.579 110.92 295.835 111.218 296.176C111.517 296.517 111.672 296.971 111.682 297.536C111.682 298.037 111.544 298.485 111.266 298.88C110.989 299.275 110.594 299.584 110.082 299.808C109.581 300.032 108.989 300.144 108.306 300.144ZM125.493 291.184L122.757 300H120.837L119.061 293.488L117.285 300H115.365L112.613 291.184H114.469L116.309 298.272L118.181 291.184H120.085L121.877 298.24L123.701 291.184H125.493ZM130.68 300.144C129.848 300.144 129.096 299.957 128.424 299.584C127.752 299.2 127.224 298.667 126.84 297.984C126.456 297.291 126.264 296.491 126.264 295.584C126.264 294.688 126.462 293.893 126.856 293.2C127.251 292.507 127.79 291.973 128.472 291.6C129.155 291.227 129.918 291.04 130.76 291.04C131.603 291.04 132.366 291.227 133.048 291.6C133.731 291.973 134.27 292.507 134.664 293.2C135.059 293.893 135.256 294.688 135.256 295.584C135.256 296.48 135.054 297.275 134.648 297.968C134.243 298.661 133.688 299.2 132.984 299.584C132.291 299.957 131.523 300.144 130.68 300.144ZM130.68 298.56C131.15 298.56 131.587 298.448 131.992 298.224C132.408 298 132.744 297.664 133 297.216C133.256 296.768 133.384 296.224 133.384 295.584C133.384 294.944 133.262 294.405 133.016 293.968C132.771 293.52 132.446 293.184 132.04 292.96C131.635 292.736 131.198 292.624 130.728 292.624C130.259 292.624 129.822 292.736 129.416 292.96C129.022 293.184 128.707 293.52 128.472 293.968C128.238 294.405 128.12 294.944 128.12 295.584C128.12 296.533 128.36 297.269 128.84 297.792C129.331 298.304 129.944 298.56 130.68 298.56ZM138.883 292.464C139.15 292.016 139.502 291.669 139.939 291.424C140.387 291.168 140.915 291.04 141.523 291.04V292.928H141.059C140.345 292.928 139.801 293.109 139.427 293.472C139.065 293.835 138.883 294.464 138.883 295.36V300H137.059V291.184H138.883V292.464ZM142.592 295.552C142.592 294.667 142.773 293.883 143.136 293.2C143.509 292.517 144.011 291.989 144.64 291.616C145.28 291.232 145.989 291.04 146.768 291.04C147.344 291.04 147.909 291.168 148.464 291.424C149.029 291.669 149.477 292 149.808 292.416V288.16H151.648V300H149.808V298.672C149.509 299.099 149.093 299.451 148.56 299.728C148.037 300.005 147.435 300.144 146.752 300.144C145.984 300.144 145.28 299.952 144.64 299.568C144.011 299.173 143.509 298.629 143.136 297.936C142.773 297.232 142.592 296.437 142.592 295.552ZM149.808 295.584C149.808 294.976 149.68 294.448 149.424 294C149.179 293.552 148.853 293.211 148.448 292.976C148.043 292.741 147.605 292.624 147.136 292.624C146.667 292.624 146.229 292.741 145.824 292.976C145.419 293.2 145.088 293.536 144.832 293.984C144.587 294.421 144.464 294.944 144.464 295.552C144.464 296.16 144.587 296.693 144.832 297.152C145.088 297.611 145.419 297.963 145.824 298.208C146.24 298.443 146.677 298.56 147.136 298.56C147.605 298.56 148.043 298.443 148.448 298.208C148.853 297.973 149.179 297.632 149.424 297.184C149.68 296.725 149.808 296.192 149.808 295.584Z" fill="black"/>
<rect x="76.5" y="328.5" width="422" height="74" rx="9.5" fill="white" stroke="#9F9F9F"/>
<path d="M134.104 464L131.448 459.44H129.688V464H128.232V452.848H131.832C132.675 452.848 133.384 452.992 133.96 453.28C134.547 453.568 134.984 453.957 135.272 454.448C135.56 454.939 135.704 455.499 135.704 456.128C135.704 456.896 135.48 457.573 135.032 458.16C134.595 458.747 133.933 459.136 133.048 459.328L135.848 464H134.104ZM129.688 458.272H131.832C132.621 458.272 133.213 458.08 133.608 457.696C134.003 457.301 134.2 456.779 134.2 456.128C134.2 455.467 134.003 454.955 133.608 454.592C133.224 454.229 132.632 454.048 131.832 454.048H129.688V458.272ZM145.966 459.28C145.966 459.557 145.95 459.851 145.918 460.16H138.91C138.964 461.024 139.257 461.701 139.79 462.192C140.334 462.672 140.99 462.912 141.758 462.912C142.388 462.912 142.91 462.768 143.326 462.48C143.753 462.181 144.052 461.787 144.222 461.296H145.79C145.556 462.139 145.086 462.827 144.382 463.36C143.678 463.883 142.804 464.144 141.758 464.144C140.926 464.144 140.18 463.957 139.518 463.584C138.868 463.211 138.356 462.683 137.982 462C137.609 461.307 137.422 460.507 137.422 459.6C137.422 458.693 137.604 457.899 137.966 457.216C138.329 456.533 138.836 456.011 139.486 455.648C140.148 455.275 140.905 455.088 141.758 455.088C142.59 455.088 143.326 455.269 143.966 455.632C144.606 455.995 145.097 456.496 145.438 457.136C145.79 457.765 145.966 458.48 145.966 459.28ZM144.462 458.976C144.462 458.421 144.34 457.947 144.094 457.552C143.849 457.147 143.513 456.843 143.086 456.64C142.67 456.427 142.206 456.32 141.694 456.32C140.958 456.32 140.329 456.555 139.806 457.024C139.294 457.493 139.001 458.144 138.926 458.976H144.462ZM158.432 455.072C159.115 455.072 159.723 455.216 160.256 455.504C160.79 455.781 161.211 456.203 161.52 456.768C161.83 457.333 161.984 458.021 161.984 458.832V464H160.544V459.04C160.544 458.165 160.326 457.499 159.888 457.04C159.462 456.571 158.88 456.336 158.144 456.336C157.387 456.336 156.784 456.581 156.336 457.072C155.888 457.552 155.664 458.251 155.664 459.168V464H154.224V459.04C154.224 458.165 154.006 457.499 153.568 457.04C153.142 456.571 152.56 456.336 151.824 456.336C151.067 456.336 150.464 456.581 150.016 457.072C149.568 457.552 149.344 458.251 149.344 459.168V464H147.888V455.232H149.344V456.496C149.632 456.037 150.016 455.685 150.496 455.44C150.987 455.195 151.526 455.072 152.112 455.072C152.848 455.072 153.499 455.237 154.064 455.568C154.63 455.899 155.051 456.384 155.328 457.024C155.574 456.405 155.979 455.925 156.544 455.584C157.11 455.243 157.739 455.072 158.432 455.072ZM172.373 459.28C172.373 459.557 172.357 459.851 172.325 460.16H165.317C165.37 461.024 165.663 461.701 166.197 462.192C166.741 462.672 167.397 462.912 168.165 462.912C168.794 462.912 169.317 462.768 169.733 462.48C170.159 462.181 170.458 461.787 170.629 461.296H172.197C171.962 462.139 171.493 462.827 170.789 463.36C170.085 463.883 169.21 464.144 168.165 464.144C167.333 464.144 166.586 463.957 165.925 463.584C165.274 463.211 164.762 462.683 164.389 462C164.015 461.307 163.829 460.507 163.829 459.6C163.829 458.693 164.01 457.899 164.373 457.216C164.735 456.533 165.242 456.011 165.893 455.648C166.554 455.275 167.311 455.088 168.165 455.088C168.997 455.088 169.733 455.269 170.373 455.632C171.013 455.995 171.503 456.496 171.845 457.136C172.197 457.765 172.373 458.48 172.373 459.28ZM170.869 458.976C170.869 458.421 170.746 457.947 170.501 457.552C170.255 457.147 169.919 456.843 169.493 456.64C169.077 456.427 168.613 456.32 168.101 456.32C167.365 456.32 166.735 456.555 166.213 457.024C165.701 457.493 165.407 458.144 165.333 458.976H170.869ZM184.839 455.072C185.521 455.072 186.129 455.216 186.663 455.504C187.196 455.781 187.617 456.203 187.927 456.768C188.236 457.333 188.391 458.021 188.391 458.832V464H186.951V459.04C186.951 458.165 186.732 457.499 186.295 457.04C185.868 456.571 185.287 456.336 184.551 456.336C183.793 456.336 183.191 456.581 182.743 457.072C182.295 457.552 182.071 458.251 182.071 459.168V464H180.631V459.04C180.631 458.165 180.412 457.499 179.975 457.04C179.548 456.571 178.967 456.336 178.231 456.336C177.473 456.336 176.871 456.581 176.423 457.072C175.975 457.552 175.751 458.251 175.751 459.168V464H174.295V455.232H175.751V456.496C176.039 456.037 176.423 455.685 176.903 455.44C177.393 455.195 177.932 455.072 178.519 455.072C179.255 455.072 179.905 455.237 180.471 455.568C181.036 455.899 181.457 456.384 181.735 457.024C181.98 456.405 182.385 455.925 182.951 455.584C183.516 455.243 184.145 455.072 184.839 455.072ZM192.235 456.864C192.534 456.341 192.971 455.915 193.547 455.584C194.123 455.253 194.779 455.088 195.515 455.088C196.304 455.088 197.014 455.275 197.643 455.648C198.272 456.021 198.768 456.549 199.131 457.232C199.494 457.904 199.675 458.688 199.675 459.584C199.675 460.469 199.494 461.259 199.131 461.952C198.768 462.645 198.267 463.184 197.627 463.568C196.998 463.952 196.294 464.144 195.515 464.144C194.758 464.144 194.091 463.979 193.515 463.648C192.95 463.317 192.523 462.896 192.235 462.384V464H190.779V452.16H192.235V456.864ZM198.187 459.584C198.187 458.923 198.054 458.347 197.787 457.856C197.52 457.365 197.158 456.992 196.699 456.736C196.251 456.48 195.755 456.352 195.211 456.352C194.678 456.352 194.182 456.485 193.723 456.752C193.275 457.008 192.912 457.387 192.635 457.888C192.368 458.379 192.235 458.949 192.235 459.6C192.235 460.261 192.368 460.843 192.635 461.344C192.912 461.835 193.275 462.213 193.723 462.48C194.182 462.736 194.678 462.864 195.211 462.864C195.755 462.864 196.251 462.736 196.699 462.48C197.158 462.213 197.52 461.835 197.787 461.344C198.054 460.843 198.187 460.256 198.187 459.584ZM209.591 459.28C209.591 459.557 209.575 459.851 209.543 460.16H202.535C202.589 461.024 202.882 461.701 203.415 462.192C203.959 462.672 204.615 462.912 205.383 462.912C206.013 462.912 206.535 462.768 206.951 462.48C207.378 462.181 207.677 461.787 207.847 461.296H209.415C209.181 462.139 208.711 462.827 208.007 463.36C207.303 463.883 206.429 464.144 205.383 464.144C204.551 464.144 203.805 463.957 203.143 463.584C202.493 463.211 201.981 462.683 201.607 462C201.234 461.307 201.047 460.507 201.047 459.6C201.047 458.693 201.229 457.899 201.591 457.216C201.954 456.533 202.461 456.011 203.111 455.648C203.773 455.275 204.53 455.088 205.383 455.088C206.215 455.088 206.951 455.269 207.591 455.632C208.231 455.995 208.722 456.496 209.063 457.136C209.415 457.765 209.591 458.48 209.591 459.28ZM208.087 458.976C208.087 458.421 207.965 457.947 207.719 457.552C207.474 457.147 207.138 456.843 206.711 456.64C206.295 456.427 205.831 456.32 205.319 456.32C204.583 456.32 203.954 456.555 203.431 457.024C202.919 457.493 202.626 458.144 202.551 458.976H208.087ZM212.969 456.656C213.225 456.155 213.588 455.765 214.057 455.488C214.537 455.211 215.119 455.072 215.801 455.072V456.576H215.417C213.785 456.576 212.969 457.461 212.969 459.232V464H211.513V455.232H212.969V456.656ZM232.292 455.072C232.974 455.072 233.582 455.216 234.116 455.504C234.649 455.781 235.07 456.203 235.38 456.768C235.689 457.333 235.844 458.021 235.844 458.832V464H234.404V459.04C234.404 458.165 234.185 457.499 233.748 457.04C233.321 456.571 232.74 456.336 232.004 456.336C231.246 456.336 230.644 456.581 230.196 457.072C229.748 457.552 229.524 458.251 229.524 459.168V464H228.084V459.04C228.084 458.165 227.865 457.499 227.428 457.04C227.001 456.571 226.42 456.336 225.684 456.336C224.926 456.336 224.324 456.581 223.876 457.072C223.428 457.552 223.204 458.251 223.204 459.168V464H221.748V455.232H223.204V456.496C223.492 456.037 223.876 455.685 224.356 455.44C224.846 455.195 225.385 455.072 225.972 455.072C226.708 455.072 227.358 455.237 227.924 455.568C228.489 455.899 228.91 456.384 229.188 457.024C229.433 456.405 229.838 455.925 230.404 455.584C230.969 455.243 231.598 455.072 232.292 455.072ZM246.232 459.28C246.232 459.557 246.216 459.851 246.184 460.16H239.176C239.229 461.024 239.523 461.701 240.056 462.192C240.6 462.672 241.256 462.912 242.024 462.912C242.653 462.912 243.176 462.768 243.592 462.48C244.019 462.181 244.317 461.787 244.488 461.296H246.056C245.821 462.139 245.352 462.827 244.648 463.36C243.944 463.883 243.069 464.144 242.024 464.144C241.192 464.144 240.445 463.957 239.784 463.584C239.133 463.211 238.621 462.683 238.248 462C237.875 461.307 237.688 460.507 237.688 459.6C237.688 458.693 237.869 457.899 238.232 457.216C238.595 456.533 239.101 456.011 239.752 455.648C240.413 455.275 241.171 455.088 242.024 455.088C242.856 455.088 243.592 455.269 244.232 455.632C244.872 455.995 245.363 456.496 245.704 457.136C246.056 457.765 246.232 458.48 246.232 459.28ZM244.728 458.976C244.728 458.421 244.605 457.947 244.36 457.552C244.115 457.147 243.779 456.843 243.352 456.64C242.936 456.427 242.472 456.32 241.96 456.32C241.224 456.32 240.595 456.555 240.072 457.024C239.56 457.493 239.267 458.144 239.192 458.976H244.728Z" fill="black"/>
<path d="M320.4 548.088H324.416V549H319.28V537.816H320.4V548.088ZM329.838 549.128C329.017 549.128 328.276 548.947 327.614 548.584C326.964 548.211 326.446 547.688 326.062 547.016C325.689 546.333 325.502 545.539 325.502 544.632C325.502 543.725 325.694 542.936 326.078 542.264C326.462 541.581 326.985 541.059 327.646 540.696C328.308 540.323 329.049 540.136 329.87 540.136C330.692 540.136 331.433 540.323 332.094 540.696C332.766 541.059 333.289 541.581 333.662 542.264C334.046 542.936 334.238 543.725 334.238 544.632C334.238 545.528 334.046 546.317 333.662 547C333.278 547.683 332.75 548.211 332.078 548.584C331.406 548.947 330.66 549.128 329.838 549.128ZM329.838 548.152C330.414 548.152 330.948 548.024 331.438 547.768C331.929 547.501 332.324 547.107 332.622 546.584C332.932 546.051 333.086 545.4 333.086 544.632C333.086 543.864 332.937 543.219 332.638 542.696C332.34 542.163 331.945 541.768 331.454 541.512C330.964 541.245 330.43 541.112 329.854 541.112C329.278 541.112 328.745 541.245 328.254 541.512C327.764 541.768 327.369 542.163 327.07 542.696C326.782 543.219 326.638 543.864 326.638 544.632C326.638 545.4 326.782 546.051 327.07 546.584C327.369 547.107 327.758 547.501 328.238 547.768C328.729 548.024 329.262 548.152 329.838 548.152ZM339.288 549.128C338.285 549.128 337.464 548.899 336.824 548.44C336.195 547.971 335.843 547.336 335.768 546.536H336.92C336.973 547.027 337.203 547.427 337.608 547.736C338.024 548.035 338.579 548.184 339.272 548.184C339.88 548.184 340.355 548.04 340.696 547.752C341.048 547.464 341.224 547.107 341.224 546.68C341.224 546.381 341.128 546.136 340.936 545.944C340.744 545.752 340.499 545.603 340.2 545.496C339.912 545.379 339.517 545.256 339.016 545.128C338.365 544.957 337.837 544.787 337.432 544.616C337.027 544.445 336.68 544.195 336.392 543.864C336.115 543.523 335.976 543.069 335.976 542.504C335.976 542.077 336.104 541.683 336.36 541.32C336.616 540.957 336.979 540.669 337.448 540.456C337.917 540.243 338.451 540.136 339.048 540.136C339.987 540.136 340.744 540.376 341.32 540.856C341.896 541.325 342.205 541.976 342.248 542.808H341.128C341.096 542.296 340.893 541.885 340.52 541.576C340.157 541.256 339.656 541.096 339.016 541.096C338.451 541.096 337.992 541.229 337.64 541.496C337.288 541.763 337.112 542.093 337.112 542.488C337.112 542.829 337.213 543.112 337.416 543.336C337.629 543.549 337.891 543.72 338.2 543.848C338.509 543.965 338.925 544.099 339.448 544.248C340.077 544.419 340.579 544.584 340.952 544.744C341.325 544.904 341.645 545.139 341.912 545.448C342.179 545.757 342.317 546.168 342.328 546.68C342.328 547.149 342.2 547.571 341.944 547.944C341.688 548.307 341.331 548.595 340.872 548.808C340.413 549.021 339.885 549.128 339.288 549.128ZM345.892 541.208V546.632C345.892 547.165 345.994 547.533 346.196 547.736C346.399 547.939 346.756 548.04 347.268 548.04H348.292V549H347.092C346.303 549 345.716 548.819 345.332 548.456C344.948 548.083 344.756 547.475 344.756 546.632V541.208H343.54V540.264H344.756V538.072H345.892V540.264H348.292V541.208H345.892ZM361.922 537.816L358.338 544.648V549H357.218V544.648L353.602 537.816H354.866L357.778 543.624L360.674 537.816H361.922ZM367.385 549.128C366.564 549.128 365.823 548.947 365.161 548.584C364.511 548.211 363.993 547.688 363.609 547.016C363.236 546.333 363.049 545.539 363.049 544.632C363.049 543.725 363.241 542.936 363.625 542.264C364.009 541.581 364.532 541.059 365.193 540.696C365.855 540.323 366.596 540.136 367.417 540.136C368.239 540.136 368.98 540.323 369.641 540.696C370.313 541.059 370.836 541.581 371.209 542.264C371.593 542.936 371.785 543.725 371.785 544.632C371.785 545.528 371.593 546.317 371.209 547C370.825 547.683 370.297 548.211 369.625 548.584C368.953 548.947 368.207 549.128 367.385 549.128ZM367.385 548.152C367.961 548.152 368.495 548.024 368.985 547.768C369.476 547.501 369.871 547.107 370.169 546.584C370.479 546.051 370.633 545.4 370.633 544.632C370.633 543.864 370.484 543.219 370.185 542.696C369.887 542.163 369.492 541.768 369.001 541.512C368.511 541.245 367.977 541.112 367.401 541.112C366.825 541.112 366.292 541.245 365.801 541.512C365.311 541.768 364.916 542.163 364.617 542.696C364.329 543.219 364.185 543.864 364.185 544.632C364.185 545.4 364.329 546.051 364.617 546.584C364.916 547.107 365.305 547.501 365.785 547.768C366.276 548.024 366.809 548.152 367.385 548.152ZM381.395 540.264V549H380.275V547.464C380.019 548.008 379.624 548.424 379.091 548.712C378.558 549 377.96 549.144 377.299 549.144C376.254 549.144 375.4 548.824 374.739 548.184C374.078 547.533 373.747 546.595 373.747 545.368V540.264H374.851V545.24C374.851 546.189 375.086 546.915 375.555 547.416C376.035 547.917 376.686 548.168 377.507 548.168C378.35 548.168 379.022 547.901 379.523 547.368C380.024 546.835 380.275 546.051 380.275 545.016V540.264H381.395ZM385.072 541.816C385.317 541.272 385.691 540.851 386.192 540.552C386.704 540.253 387.328 540.104 388.064 540.104V541.272H387.76C386.949 541.272 386.299 541.491 385.808 541.928C385.317 542.365 385.072 543.096 385.072 544.12V549H383.952V540.264H385.072V541.816ZM401.291 541.032C401.291 541.992 400.977 542.765 400.347 543.352C399.718 543.939 398.774 544.232 397.515 544.232H395.259V549H394.139V537.816H397.515C398.763 537.816 399.702 538.109 400.331 538.696C400.971 539.283 401.291 540.061 401.291 541.032ZM397.515 543.272C399.265 543.272 400.139 542.525 400.139 541.032C400.139 540.285 399.931 539.72 399.515 539.336C399.099 538.952 398.433 538.76 397.515 538.76H395.259V543.272H397.515ZM402.659 544.616C402.659 543.72 402.835 542.936 403.187 542.264C403.549 541.581 404.045 541.059 404.675 540.696C405.315 540.323 406.035 540.136 406.835 540.136C407.667 540.136 408.381 540.328 408.979 540.712C409.587 541.096 410.024 541.587 410.291 542.184V540.264H411.411V549H410.291V547.064C410.013 547.661 409.571 548.157 408.963 548.552C408.365 548.936 407.651 549.128 406.819 549.128C406.029 549.128 405.315 548.941 404.675 548.568C404.045 548.195 403.549 547.667 403.187 546.984C402.835 546.301 402.659 545.512 402.659 544.616ZM410.291 544.632C410.291 543.928 410.147 543.309 409.859 542.776C409.571 542.243 409.176 541.832 408.675 541.544C408.184 541.256 407.64 541.112 407.043 541.112C406.424 541.112 405.869 541.251 405.379 541.528C404.888 541.805 404.499 542.211 404.211 542.744C403.933 543.267 403.795 543.891 403.795 544.616C403.795 545.331 403.933 545.96 404.211 546.504C404.499 547.037 404.888 547.448 405.379 547.736C405.869 548.013 406.424 548.152 407.043 548.152C407.64 548.152 408.184 548.008 408.675 547.72C409.176 547.432 409.571 547.021 409.859 546.488C410.147 545.955 410.291 545.336 410.291 544.632ZM416.976 549.128C415.973 549.128 415.152 548.899 414.512 548.44C413.882 547.971 413.53 547.336 413.456 546.536H414.608C414.661 547.027 414.89 547.427 415.296 547.736C415.712 548.035 416.266 548.184 416.96 548.184C417.568 548.184 418.042 548.04 418.384 547.752C418.736 547.464 418.912 547.107 418.912 546.68C418.912 546.381 418.816 546.136 418.624 545.944C418.432 545.752 418.186 545.603 417.888 545.496C417.6 545.379 417.205 545.256 416.704 545.128C416.053 544.957 415.525 544.787 415.12 544.616C414.714 544.445 414.368 544.195 414.08 543.864C413.802 543.523 413.664 543.069 413.664 542.504C413.664 542.077 413.792 541.683 414.048 541.32C414.304 540.957 414.666 540.669 415.136 540.456C415.605 540.243 416.138 540.136 416.736 540.136C417.674 540.136 418.432 540.376 419.008 540.856C419.584 541.325 419.893 541.976 419.936 542.808H418.816C418.784 542.296 418.581 541.885 418.208 541.576C417.845 541.256 417.344 541.096 416.704 541.096C416.138 541.096 415.68 541.229 415.328 541.496C414.976 541.763 414.799 542.093 414.799 542.488C414.799 542.829 414.901 543.112 415.104 543.336C415.317 543.549 415.578 543.72 415.888 543.848C416.197 543.965 416.613 544.099 417.136 544.248C417.765 544.419 418.266 544.584 418.64 544.744C419.013 544.904 419.333 545.139 419.6 545.448C419.866 545.757 420.005 546.168 420.016 546.68C420.016 547.149 419.888 547.571 419.632 547.944C419.376 548.307 419.018 548.595 418.56 548.808C418.101 549.021 417.573 549.128 416.976 549.128ZM425.132 549.128C424.129 549.128 423.308 548.899 422.668 548.44C422.038 547.971 421.686 547.336 421.612 546.536H422.764C422.817 547.027 423.046 547.427 423.452 547.736C423.868 548.035 424.422 548.184 425.116 548.184C425.724 548.184 426.198 548.04 426.54 547.752C426.892 547.464 427.068 547.107 427.068 546.68C427.068 546.381 426.972 546.136 426.78 545.944C426.588 545.752 426.342 545.603 426.044 545.496C425.756 545.379 425.361 545.256 424.86 545.128C424.209 544.957 423.681 544.787 423.276 544.616C422.87 544.445 422.524 544.195 422.236 543.864C421.958 543.523 421.82 543.069 421.82 542.504C421.82 542.077 421.948 541.683 422.204 541.32C422.46 540.957 422.822 540.669 423.292 540.456C423.761 540.243 424.294 540.136 424.892 540.136C425.83 540.136 426.588 540.376 427.164 540.856C427.74 541.325 428.049 541.976 428.092 542.808H426.972C426.94 542.296 426.737 541.885 426.364 541.576C426.001 541.256 425.5 541.096 424.86 541.096C424.294 541.096 423.836 541.229 423.484 541.496C423.132 541.763 422.956 542.093 422.956 542.488C422.956 542.829 423.057 543.112 423.26 543.336C423.473 543.549 423.734 543.72 424.044 543.848C424.353 543.965 424.769 544.099 425.292 544.248C425.921 544.419 426.422 544.584 426.796 544.744C427.169 544.904 427.489 545.139 427.756 545.448C428.022 545.757 428.161 546.168 428.172 546.68C428.172 547.149 428.044 547.571 427.788 547.944C427.532 548.307 427.174 548.595 426.716 548.808C426.257 549.021 425.729 549.128 425.132 549.128ZM441.8 540.264L439.064 549H437.944L435.528 541.672L433.112 549H431.976L429.24 540.264H430.376L432.552 547.864L435 540.264H436.12L438.536 547.88L440.696 540.264H441.8ZM447.151 549.128C446.33 549.128 445.588 548.947 444.927 548.584C444.276 548.211 443.759 547.688 443.375 547.016C443.002 546.333 442.815 545.539 442.815 544.632C442.815 543.725 443.007 542.936 443.391 542.264C443.775 541.581 444.298 541.059 444.959 540.696C445.62 540.323 446.362 540.136 447.183 540.136C448.004 540.136 448.746 540.323 449.407 540.696C450.079 541.059 450.602 541.581 450.975 542.264C451.359 542.936 451.551 543.725 451.551 544.632C451.551 545.528 451.359 546.317 450.975 547C450.591 547.683 450.063 548.211 449.391 548.584C448.719 548.947 447.972 549.128 447.151 549.128ZM447.151 548.152C447.727 548.152 448.26 548.024 448.751 547.768C449.242 547.501 449.636 547.107 449.935 546.584C450.244 546.051 450.399 545.4 450.399 544.632C450.399 543.864 450.25 543.219 449.951 542.696C449.652 542.163 449.258 541.768 448.767 541.512C448.276 541.245 447.743 541.112 447.167 541.112C446.591 541.112 446.058 541.245 445.567 541.512C445.076 541.768 444.682 542.163 444.383 542.696C444.095 543.219 443.951 543.864 443.951 544.632C443.951 545.4 444.095 546.051 444.383 546.584C444.682 547.107 445.071 547.501 445.551 547.768C446.042 548.024 446.575 548.152 447.151 548.152ZM454.713 541.816C454.958 541.272 455.331 540.851 455.833 540.552C456.345 540.253 456.969 540.104 457.705 540.104V541.272H457.401C456.59 541.272 455.939 541.491 455.449 541.928C454.958 542.365 454.713 543.096 454.713 544.12V549H453.593V540.264H454.713V541.816ZM458.877 544.616C458.877 543.72 459.059 542.936 459.421 542.264C459.784 541.581 460.28 541.059 460.909 540.696C461.549 540.323 462.269 540.136 463.069 540.136C463.837 540.136 464.531 540.323 465.149 540.696C465.768 541.069 466.221 541.555 466.509 542.152V537.16H467.629V549H466.509V547.048C466.243 547.656 465.805 548.157 465.197 548.552C464.589 548.936 463.875 549.128 463.053 549.128C462.253 549.128 461.533 548.941 460.893 548.568C460.264 548.195 459.768 547.667 459.405 546.984C459.053 546.301 458.877 545.512 458.877 544.616ZM466.509 544.632C466.509 543.928 466.365 543.309 466.077 542.776C465.789 542.243 465.395 541.832 464.893 541.544C464.403 541.256 463.859 541.112 463.261 541.112C462.643 541.112 462.088 541.251 461.597 541.528C461.107 541.805 460.717 542.211 460.429 542.744C460.152 543.267 460.013 543.891 460.013 544.616C460.013 545.331 460.152 545.96 460.429 546.504C460.717 547.037 461.107 547.448 461.597 547.736C462.088 548.013 462.643 548.152 463.261 548.152C463.859 548.152 464.403 548.008 464.893 547.72C465.395 547.432 465.789 547.021 466.077 546.488C466.365 545.955 466.509 545.336 466.509 544.632ZM472.89 537.672C473.573 537.672 474.176 537.805 474.698 538.072C475.232 538.339 475.642 538.723 475.93 539.224C476.229 539.715 476.378 540.285 476.378 540.936C476.378 542.088 476.021 542.936 475.306 543.48C474.602 544.013 473.637 544.28 472.41 544.28L472.362 546.04H471.402L471.338 543.48H471.754C472.853 543.48 473.717 543.309 474.346 542.968C474.986 542.616 475.306 541.939 475.306 540.936C475.306 540.232 475.082 539.672 474.634 539.256C474.197 538.84 473.616 538.632 472.89 538.632C472.165 538.632 471.589 538.829 471.162 539.224C470.736 539.619 470.522 540.157 470.522 540.84H469.45C469.45 540.2 469.594 539.645 469.882 539.176C470.181 538.696 470.586 538.328 471.098 538.072C471.621 537.805 472.218 537.672 472.89 537.672ZM471.882 549.08C471.648 549.08 471.45 549 471.29 548.84C471.141 548.68 471.066 548.483 471.066 548.248C471.066 548.013 471.141 547.821 471.29 547.672C471.45 547.512 471.648 547.432 471.882 547.432C472.106 547.432 472.293 547.512 472.442 547.672C472.602 547.821 472.682 548.013 472.682 548.248C472.682 548.483 472.602 548.68 472.442 548.84C472.293 549 472.106 549.08 471.882 549.08Z" fill="black"/>
</svg>
