<svg width="288" height="55" viewBox="0 0 288 55" fill="none" xmlns="http://www.w3.org/2000/svg">
<path d="M5.96 34.14C5.04 34.14 4.21333 33.98 3.48 33.66C2.76 33.3267 2.19333 32.8733 1.78 32.3C1.36667 31.7133 1.15333 31.04 1.14 30.28H3.08C3.14667 30.9333 3.41333 31.4867 3.88 31.94C4.36 32.38 5.05333 32.6 5.96 32.6C6.82667 32.6 7.50667 32.3867 8 31.96C8.50667 31.52 8.76 30.96 8.76 30.28C8.76 29.7467 8.61333 29.3133 8.32 28.98C8.02667 28.6467 7.66 28.3933 7.22 28.22C6.78 28.0467 6.18667 27.86 5.44 27.66C4.52 27.42 3.78 27.18 3.22 26.94C2.67333 26.7 2.2 26.3267 1.8 25.82C1.41333 25.3 1.22 24.6067 1.22 23.74C1.22 22.98 1.41333 22.3067 1.8 21.72C2.18667 21.1333 2.72667 20.68 3.42 20.36C4.12667 20.04 4.93333 19.88 5.84 19.88C7.14667 19.88 8.21333 20.2067 9.04 20.86C9.88 21.5133 10.3533 22.38 10.46 23.46H8.46C8.39333 22.9267 8.11333 22.46 7.62 22.06C7.12667 21.6467 6.47333 21.44 5.66 21.44C4.9 21.44 4.28 21.64 3.8 22.04C3.32 22.4267 3.08 22.9733 3.08 23.68C3.08 24.1867 3.22 24.6 3.5 24.92C3.79333 25.24 4.14667 25.4867 4.56 25.66C4.98667 25.82 5.58 26.0067 6.34 26.22C7.26 26.4733 8 26.7267 8.56 26.98C9.12 27.22 9.6 27.6 10 28.12C10.4 28.6267 10.6 29.32 10.6 30.2C10.6 30.88 10.42 31.52 10.06 32.12C9.7 32.72 9.16667 33.2067 8.46 33.58C7.75333 33.9533 6.92 34.14 5.96 34.14ZM18.7183 22.84C19.5449 22.84 20.2916 23.02 20.9583 23.38C21.6249 23.7267 22.1449 24.2533 22.5183 24.96C22.9049 25.6667 23.0983 26.5267 23.0983 27.54V34H21.2983V27.8C21.2983 26.7067 21.0249 25.8733 20.4783 25.3C19.9316 24.7133 19.1849 24.42 18.2383 24.42C17.2783 24.42 16.5116 24.72 15.9383 25.32C15.3783 25.92 15.0983 26.7933 15.0983 27.94V34H13.2783V19.2H15.0983V24.6C15.4583 24.04 15.9516 23.6067 16.5783 23.3C17.2183 22.9933 17.9316 22.84 18.7183 22.84ZM30.8513 34.18C29.8246 34.18 28.8913 33.9467 28.0513 33.48C27.2246 33.0133 26.5713 32.3533 26.0913 31.5C25.6246 30.6333 25.3913 29.6333 25.3913 28.5C25.3913 27.38 25.6313 26.3933 26.1113 25.54C26.6046 24.6733 27.2713 24.0133 28.1113 23.56C28.9513 23.0933 29.8913 22.86 30.9313 22.86C31.9713 22.86 32.9113 23.0933 33.7513 23.56C34.5913 24.0133 35.2513 24.6667 35.7313 25.52C36.2246 26.3733 36.4713 27.3667 36.4713 28.5C36.4713 29.6333 36.2179 30.6333 35.7113 31.5C35.2179 32.3533 34.5446 33.0133 33.6913 33.48C32.8379 33.9467 31.8913 34.18 30.8513 34.18ZM30.8513 32.58C31.5046 32.58 32.1179 32.4267 32.6913 32.12C33.2646 31.8133 33.7246 31.3533 34.0713 30.74C34.4313 30.1267 34.6113 29.38 34.6113 28.5C34.6113 27.62 34.4379 26.8733 34.0913 26.26C33.7446 25.6467 33.2913 25.1933 32.7313 24.9C32.1713 24.5933 31.5646 24.44 30.9113 24.44C30.2446 24.44 29.6313 24.5933 29.0713 24.9C28.5246 25.1933 28.0846 25.6467 27.7513 26.26C27.4179 26.8733 27.2513 27.62 27.2513 28.5C27.2513 29.3933 27.4113 30.1467 27.7313 30.76C28.0646 31.3733 28.5046 31.8333 29.0513 32.14C29.5979 32.4333 30.1979 32.58 30.8513 32.58ZM40.6842 24.82C41.0042 24.1933 41.4576 23.7067 42.0442 23.36C42.6442 23.0133 43.3709 22.84 44.2242 22.84V24.72H43.7442C41.7042 24.72 40.6842 25.8267 40.6842 28.04V34H38.8642V23.04H40.6842V24.82ZM48.5452 24.54V31C48.5452 31.5333 48.6585 31.9133 48.8852 32.14C49.1118 32.3533 49.5052 32.46 50.0652 32.46H51.4052V34H49.7652C48.7518 34 47.9918 33.7667 47.4852 33.3C46.9785 32.8333 46.7252 32.0667 46.7252 31V24.54H45.3052V23.04H46.7252V20.28H48.5452V23.04H51.4052V24.54H48.5452ZM60.7623 25.08C61.1357 24.4267 61.6823 23.8933 62.4023 23.48C63.1223 23.0667 63.9423 22.86 64.8623 22.86C65.849 22.86 66.7357 23.0933 67.5223 23.56C68.309 24.0267 68.929 24.6867 69.3823 25.54C69.8357 26.38 70.0623 27.36 70.0623 28.48C70.0623 29.5867 69.8357 30.5733 69.3823 31.44C68.929 32.3067 68.3023 32.98 67.5023 33.46C66.7157 33.94 65.8357 34.18 64.8623 34.18C63.9157 34.18 63.0823 33.9733 62.3623 33.56C61.6557 33.1467 61.1223 32.62 60.7623 31.98V34H58.9423V19.2H60.7623V25.08ZM68.2023 28.48C68.2023 27.6533 68.0357 26.9333 67.7023 26.32C67.369 25.7067 66.9157 25.24 66.3423 24.92C65.7823 24.6 65.1623 24.44 64.4823 24.44C63.8157 24.44 63.1957 24.6067 62.6223 24.94C62.0623 25.26 61.609 25.7333 61.2623 26.36C60.929 26.9733 60.7623 27.6867 60.7623 28.5C60.7623 29.3267 60.929 30.0533 61.2623 30.68C61.609 31.2933 62.0623 31.7667 62.6223 32.1C63.1957 32.42 63.8157 32.58 64.4823 32.58C65.1623 32.58 65.7823 32.42 66.3423 32.1C66.9157 31.7667 67.369 31.2933 67.7023 30.68C68.0357 30.0533 68.2023 29.32 68.2023 28.48ZM81.898 23.04L75.298 39.16H73.418L75.578 33.88L71.158 23.04H73.178L76.618 31.92L80.018 23.04H81.898Z" fill="black"/>
<rect x="100" width="188" height="55" fill="white"/>
<path d="M135.88 20.06C137.4 20.06 138.713 20.3467 139.82 20.92C140.94 21.48 141.793 22.2867 142.38 23.34C142.98 24.3933 143.28 25.6333 143.28 27.06C143.28 28.4867 142.98 29.7267 142.38 30.78C141.793 31.82 140.94 32.62 139.82 33.18C138.713 33.7267 137.4 34 135.88 34H131.54V20.06H135.88ZM135.88 32.5C137.68 32.5 139.053 32.0267 140 31.08C140.947 30.12 141.42 28.78 141.42 27.06C141.42 25.3267 140.94 23.9733 139.98 23C139.033 22.0267 137.667 21.54 135.88 21.54H133.36V32.5H135.88ZM155.681 28.1C155.681 28.4467 155.661 28.8133 155.621 29.2H146.861C146.927 30.28 147.294 31.1267 147.961 31.74C148.641 32.34 149.461 32.64 150.421 32.64C151.207 32.64 151.861 32.46 152.381 32.1C152.914 31.7267 153.287 31.2333 153.501 30.62H155.461C155.167 31.6733 154.581 32.5333 153.701 33.2C152.821 33.8533 151.727 34.18 150.421 34.18C149.381 34.18 148.447 33.9467 147.621 33.48C146.807 33.0133 146.167 32.3533 145.701 31.5C145.234 30.6333 145.001 29.6333 145.001 28.5C145.001 27.3667 145.227 26.3733 145.681 25.52C146.134 24.6667 146.767 24.0133 147.581 23.56C148.407 23.0933 149.354 22.86 150.421 22.86C151.461 22.86 152.381 23.0867 153.181 23.54C153.981 23.9933 154.594 24.62 155.021 25.42C155.461 26.2067 155.681 27.1 155.681 28.1ZM153.801 27.72C153.801 27.0267 153.647 26.4333 153.341 25.94C153.034 25.4333 152.614 25.0533 152.081 24.8C151.561 24.5333 150.981 24.4 150.341 24.4C149.421 24.4 148.634 24.6933 147.981 25.28C147.341 25.8667 146.974 26.68 146.881 27.72H153.801ZM162.543 24.54H160.243V34H158.423V24.54H157.003V23.04H158.423V22.26C158.423 21.0333 158.736 20.14 159.363 19.58C160.003 19.0067 161.023 18.72 162.423 18.72V20.24C161.623 20.24 161.056 20.4 160.723 20.72C160.403 21.0267 160.243 21.54 160.243 22.26V23.04H162.543V24.54ZM163.985 28.48C163.985 27.36 164.212 26.38 164.665 25.54C165.118 24.6867 165.738 24.0267 166.525 23.56C167.325 23.0933 168.212 22.86 169.185 22.86C170.145 22.86 170.978 23.0667 171.685 23.48C172.392 23.8933 172.918 24.4133 173.265 25.04V23.04H175.105V34H173.265V31.96C172.905 32.6 172.365 33.1333 171.645 33.56C170.938 33.9733 170.112 34.18 169.165 34.18C168.192 34.18 167.312 33.94 166.525 33.46C165.738 32.98 165.118 32.3067 164.665 31.44C164.212 30.5733 163.985 29.5867 163.985 28.48ZM173.265 28.5C173.265 27.6733 173.098 26.9533 172.765 26.34C172.432 25.7267 171.978 25.26 171.405 24.94C170.845 24.6067 170.225 24.44 169.545 24.44C168.865 24.44 168.245 24.6 167.685 24.92C167.125 25.24 166.678 25.7067 166.345 26.32C166.012 26.9333 165.845 27.6533 165.845 28.48C165.845 29.32 166.012 30.0533 166.345 30.68C166.678 31.2933 167.125 31.7667 167.685 32.1C168.245 32.42 168.865 32.58 169.545 32.58C170.225 32.58 170.845 32.42 171.405 32.1C171.978 31.7667 172.432 31.2933 172.765 30.68C173.098 30.0533 173.265 29.3267 173.265 28.5ZM187.901 23.04V34H186.081V32.38C185.734 32.94 185.247 33.38 184.621 33.7C184.007 34.0067 183.327 34.16 182.581 34.16C181.727 34.16 180.961 33.9867 180.281 33.64C179.601 33.28 179.061 32.7467 178.661 32.04C178.274 31.3333 178.081 30.4733 178.081 29.46V23.04H179.881V29.22C179.881 30.3 180.154 31.1333 180.701 31.72C181.247 32.2933 181.994 32.58 182.941 32.58C183.914 32.58 184.681 32.28 185.241 31.68C185.801 31.08 186.081 30.2067 186.081 29.06V23.04H187.901ZM192.794 19.2V34H190.974V19.2H192.794ZM198.115 24.54V31C198.115 31.5333 198.229 31.9133 198.455 32.14C198.682 32.3533 199.075 32.46 199.635 32.46H200.975V34H199.335C198.322 34 197.562 33.7667 197.055 33.3C196.549 32.8333 196.295 32.0667 196.295 31V24.54H194.875V23.04H196.295V20.28H198.115V23.04H200.975V24.54H198.115Z" fill="#9F9F9F"/>
</svg>
