<svg width="212" height="96" viewBox="0 0 212 96" fill="none" xmlns="http://www.w3.org/2000/svg">
<path d="M7.104 18L4.448 13.44H2.688V18H1.232V6.848H4.832C5.67467 6.848 6.384 6.992 6.96 7.28C7.54667 7.568 7.984 7.95733 8.272 8.448C8.56 8.93867 8.704 9.49867 8.704 10.128C8.704 10.896 8.48 11.5733 8.032 12.16C7.59467 12.7467 6.93333 13.136 6.048 13.328L8.848 18H7.104ZM2.688 12.272H4.832C5.62133 12.272 6.21333 12.08 6.608 11.696C7.00267 11.3013 7.2 10.7787 7.2 10.128C7.2 9.46667 7.00267 8.95467 6.608 8.592C6.224 8.22933 5.632 8.048 4.832 8.048H2.688V12.272ZM14.7904 18.144C13.969 18.144 13.2224 17.9573 12.5504 17.584C11.889 17.2107 11.3664 16.6827 10.9824 16C10.609 15.3067 10.4224 14.5067 10.4224 13.6C10.4224 12.704 10.6144 11.9147 10.9984 11.232C11.393 10.5387 11.9264 10.0107 12.5984 9.648C13.2704 9.27467 14.0224 9.088 14.8544 9.088C15.6864 9.088 16.4384 9.27467 17.1104 9.648C17.7824 10.0107 18.3104 10.5333 18.6944 11.216C19.089 11.8987 19.2864 12.6933 19.2864 13.6C19.2864 14.5067 19.0837 15.3067 18.6784 16C18.2837 16.6827 17.745 17.2107 17.0624 17.584C16.3797 17.9573 15.6224 18.144 14.7904 18.144ZM14.7904 16.864C15.313 16.864 15.8037 16.7413 16.2624 16.496C16.721 16.2507 17.089 15.8827 17.3664 15.392C17.6544 14.9013 17.7984 14.304 17.7984 13.6C17.7984 12.896 17.6597 12.2987 17.3824 11.808C17.105 11.3173 16.7424 10.9547 16.2944 10.72C15.8464 10.4747 15.361 10.352 14.8384 10.352C14.305 10.352 13.8144 10.4747 13.3664 10.72C12.929 10.9547 12.577 11.3173 12.3104 11.808C12.0437 12.2987 11.9104 12.896 11.9104 13.6C11.9104 14.3147 12.0384 14.9173 12.2944 15.408C12.561 15.8987 12.913 16.2667 13.3504 16.512C13.7877 16.7467 14.2677 16.864 14.7904 16.864ZM28.9768 9.232V18H27.5208V16.704C27.2434 17.152 26.8541 17.504 26.3528 17.76C25.8621 18.0053 25.3181 18.128 24.7208 18.128C24.0381 18.128 23.4248 17.9893 22.8808 17.712C22.3368 17.424 21.9048 16.9973 21.5848 16.432C21.2754 15.8667 21.1208 15.1787 21.1208 14.368V9.232H22.5608V14.176C22.5608 15.04 22.7794 15.7067 23.2168 16.176C23.6541 16.6347 24.2514 16.864 25.0088 16.864C25.7874 16.864 26.4008 16.624 26.8488 16.144C27.2968 15.664 27.5208 14.9653 27.5208 14.048V9.232H28.9768ZM35.7071 9.072C36.7738 9.072 37.6378 9.39733 38.2991 10.048C38.9605 10.688 39.2911 11.616 39.2911 12.832V18H37.8511V13.04C37.8511 12.1653 37.6325 11.4987 37.1951 11.04C36.7578 10.5707 36.1605 10.336 35.4031 10.336C34.6351 10.336 34.0218 10.576 33.5631 11.056C33.1151 11.536 32.8911 12.2347 32.8911 13.152V18H31.4351V9.232H32.8911V10.48C33.1791 10.032 33.5685 9.68533 34.0591 9.44C34.5605 9.19467 35.1098 9.072 35.7071 9.072ZM41.1255 13.584C41.1255 12.688 41.3068 11.904 41.6695 11.232C42.0322 10.5493 42.5282 10.0213 43.1575 9.648C43.7975 9.27467 44.5122 9.088 45.3015 9.088C45.9842 9.088 46.6188 9.248 47.2055 9.568C47.7922 9.87733 48.2402 10.288 48.5495 10.8V6.16H50.0215V18H48.5495V16.352C48.2615 16.8747 47.8348 17.3067 47.2695 17.648C46.7042 17.9787 46.0428 18.144 45.2855 18.144C44.5068 18.144 43.7975 17.952 43.1575 17.568C42.5282 17.184 42.0322 16.6453 41.6695 15.952C41.3068 15.2587 41.1255 14.4693 41.1255 13.584ZM48.5495 13.6C48.5495 12.9387 48.4162 12.3627 48.1495 11.872C47.8828 11.3813 47.5202 11.008 47.0615 10.752C46.6135 10.4853 46.1175 10.352 45.5735 10.352C45.0295 10.352 44.5335 10.48 44.0855 10.736C43.6375 10.992 43.2802 11.3653 43.0135 11.856C42.7468 12.3467 42.6135 12.9227 42.6135 13.584C42.6135 14.256 42.7468 14.8427 43.0135 15.344C43.2802 15.8347 43.6375 16.2133 44.0855 16.48C44.5335 16.736 45.0295 16.864 45.5735 16.864C46.1175 16.864 46.6135 16.736 47.0615 16.48C47.5202 16.2133 47.8828 15.8347 48.1495 15.344C48.4162 14.8427 48.5495 14.2613 48.5495 13.6ZM56.2036 13.6C56.2036 12.6933 56.385 11.904 56.7476 11.232C57.1103 10.5493 57.6116 10.0213 58.2516 9.648C58.9023 9.27467 59.6436 9.088 60.4756 9.088C61.553 9.088 62.4383 9.34933 63.1316 9.872C63.8356 10.3947 64.2996 11.12 64.5236 12.048H62.9556C62.8063 11.5147 62.513 11.0933 62.0756 10.784C61.649 10.4747 61.1156 10.32 60.4756 10.32C59.6436 10.32 58.9716 10.608 58.4596 11.184C57.9476 11.7493 57.6916 12.5547 57.6916 13.6C57.6916 14.656 57.9476 15.472 58.4596 16.048C58.9716 16.624 59.6436 16.912 60.4756 16.912C61.1156 16.912 61.649 16.7627 62.0756 16.464C62.5023 16.1653 62.7956 15.7387 62.9556 15.184H64.5236C64.289 16.08 63.8196 16.8 63.1156 17.344C62.4116 17.8773 61.5316 18.144 60.4756 18.144C59.6436 18.144 58.9023 17.9573 58.2516 17.584C57.6116 17.2107 57.1103 16.6827 56.7476 16C56.385 15.3173 56.2036 14.5173 56.2036 13.6ZM70.2904 18.144C69.469 18.144 68.7224 17.9573 68.0504 17.584C67.389 17.2107 66.8664 16.6827 66.4824 16C66.109 15.3067 65.9224 14.5067 65.9224 13.6C65.9224 12.704 66.1144 11.9147 66.4984 11.232C66.893 10.5387 67.4264 10.0107 68.0984 9.648C68.7704 9.27467 69.5224 9.088 70.3544 9.088C71.1864 9.088 71.9384 9.27467 72.6104 9.648C73.2824 10.0107 73.8104 10.5333 74.1944 11.216C74.589 11.8987 74.7864 12.6933 74.7864 13.6C74.7864 14.5067 74.5837 15.3067 74.1784 16C73.7837 16.6827 73.245 17.2107 72.5624 17.584C71.8797 17.9573 71.1224 18.144 70.2904 18.144ZM70.2904 16.864C70.813 16.864 71.3037 16.7413 71.7624 16.496C72.221 16.2507 72.589 15.8827 72.8664 15.392C73.1544 14.9013 73.2984 14.304 73.2984 13.6C73.2984 12.896 73.1597 12.2987 72.8824 11.808C72.605 11.3173 72.2424 10.9547 71.7944 10.72C71.3464 10.4747 70.861 10.352 70.3384 10.352C69.805 10.352 69.3144 10.4747 68.8664 10.72C68.429 10.9547 68.077 11.3173 67.8104 11.808C67.5437 12.2987 67.4104 12.896 67.4104 13.6C67.4104 14.3147 67.5384 14.9173 67.7944 15.408C68.061 15.8987 68.413 16.2667 68.8504 16.512C69.2877 16.7467 69.7677 16.864 70.2904 16.864ZM80.2688 10.432H78.4288V18H76.9728V10.432H75.8368V9.232H76.9728V8.608C76.9728 7.62667 77.2234 6.912 77.7248 6.464C78.2368 6.00533 79.0528 5.776 80.1727 5.776V6.992C79.5328 6.992 79.0794 7.12 78.8128 7.376C78.5568 7.62133 78.4288 8.032 78.4288 8.608V9.232H80.2688V10.432ZM85.5344 10.432H83.6944V18H82.2384V10.432H81.1024V9.232H82.2384V8.608C82.2384 7.62667 82.489 6.912 82.9904 6.464C83.5024 6.00533 84.3184 5.776 85.4384 5.776V6.992C84.7984 6.992 84.345 7.12 84.0784 7.376C83.8224 7.62133 83.6944 8.032 83.6944 8.608V9.232H85.5344V10.432ZM95.232 13.28C95.232 13.5573 95.216 13.8507 95.184 14.16H88.176C88.2293 15.024 88.5227 15.7013 89.056 16.192C89.6 16.672 90.256 16.912 91.024 16.912C91.6533 16.912 92.176 16.768 92.592 16.48C93.0187 16.1813 93.3173 15.7867 93.488 15.296H95.056C94.8213 16.1387 94.352 16.8267 93.648 17.36C92.944 17.8827 92.0693 18.144 91.024 18.144C90.192 18.144 89.4453 17.9573 88.784 17.584C88.1333 17.2107 87.6213 16.6827 87.248 16C86.8747 15.3067 86.688 14.5067 86.688 13.6C86.688 12.6933 86.8693 11.8987 87.232 11.216C87.5947 10.5333 88.1013 10.0107 88.752 9.648C89.4133 9.27467 90.1707 9.088 91.024 9.088C91.856 9.088 92.592 9.26933 93.232 9.632C93.872 9.99467 94.3627 10.496 94.704 11.136C95.056 11.7653 95.232 12.48 95.232 13.28ZM93.728 12.976C93.728 12.4213 93.6053 11.9467 93.36 11.552C93.1147 11.1467 92.7787 10.8427 92.352 10.64C91.936 10.4267 91.472 10.32 90.96 10.32C90.224 10.32 89.5947 10.5547 89.072 11.024C88.56 11.4933 88.2667 12.144 88.192 12.976H93.728ZM105.154 13.28C105.154 13.5573 105.138 13.8507 105.106 14.16H98.0979C98.1512 15.024 98.4445 15.7013 98.9779 16.192C99.5219 16.672 100.178 16.912 100.946 16.912C101.575 16.912 102.098 16.768 102.514 16.48C102.941 16.1813 103.239 15.7867 103.41 15.296H104.978C104.743 16.1387 104.274 16.8267 103.57 17.36C102.866 17.8827 101.991 18.144 100.946 18.144C100.114 18.144 99.3672 17.9573 98.7059 17.584C98.0552 17.2107 97.5432 16.6827 97.1699 16C96.7965 15.3067 96.6099 14.5067 96.6099 13.6C96.6099 12.6933 96.7912 11.8987 97.1539 11.216C97.5165 10.5333 98.0232 10.0107 98.6739 9.648C99.3352 9.27467 100.093 9.088 100.946 9.088C101.778 9.088 102.514 9.26933 103.154 9.632C103.794 9.99467 104.285 10.496 104.626 11.136C104.978 11.7653 105.154 12.48 105.154 13.28ZM103.65 12.976C103.65 12.4213 103.527 11.9467 103.282 11.552C103.037 11.1467 102.701 10.8427 102.274 10.64C101.858 10.4267 101.394 10.32 100.882 10.32C100.146 10.32 99.5165 10.5547 98.9939 11.024C98.4819 11.4933 98.1885 12.144 98.1139 12.976H103.65ZM113.117 10.432V15.6C113.117 16.0267 113.208 16.3307 113.389 16.512C113.571 16.6827 113.885 16.768 114.333 16.768H115.405V18H114.093C113.283 18 112.675 17.8133 112.269 17.44C111.864 17.0667 111.661 16.4533 111.661 15.6V10.432H110.525V9.232H111.661V7.024H113.117V9.232H115.405V10.432H113.117ZM116.626 13.584C116.626 12.688 116.807 11.904 117.17 11.232C117.532 10.5493 118.028 10.0213 118.658 9.648C119.298 9.27467 120.007 9.088 120.786 9.088C121.554 9.088 122.22 9.25333 122.786 9.584C123.351 9.91467 123.772 10.3307 124.05 10.832V9.232H125.522V18H124.05V16.368C123.762 16.88 123.33 17.3067 122.754 17.648C122.188 17.9787 121.527 18.144 120.77 18.144C119.991 18.144 119.287 17.952 118.658 17.568C118.028 17.184 117.532 16.6453 117.17 15.952C116.807 15.2587 116.626 14.4693 116.626 13.584ZM124.05 13.6C124.05 12.9387 123.916 12.3627 123.65 11.872C123.383 11.3813 123.02 11.008 122.562 10.752C122.114 10.4853 121.618 10.352 121.074 10.352C120.53 10.352 120.034 10.48 119.586 10.736C119.138 10.992 118.78 11.3653 118.514 11.856C118.247 12.3467 118.114 12.9227 118.114 13.584C118.114 14.256 118.247 14.8427 118.514 15.344C118.78 15.8347 119.138 16.2133 119.586 16.48C120.034 16.736 120.53 16.864 121.074 16.864C121.618 16.864 122.114 16.736 122.562 16.48C123.02 16.2133 123.383 15.8347 123.65 15.344C123.916 14.8427 124.05 14.2613 124.05 13.6ZM129.438 10.864C129.737 10.3413 130.174 9.91467 130.75 9.584C131.326 9.25333 131.982 9.088 132.718 9.088C133.507 9.088 134.217 9.27467 134.846 9.648C135.475 10.0213 135.971 10.5493 136.334 11.232C136.697 11.904 136.878 12.688 136.878 13.584C136.878 14.4693 136.697 15.2587 136.334 15.952C135.971 16.6453 135.47 17.184 134.83 17.568C134.201 17.952 133.497 18.144 132.718 18.144C131.961 18.144 131.294 17.9787 130.718 17.648C130.153 17.3173 129.726 16.896 129.438 16.384V18H127.982V6.16H129.438V10.864ZM135.39 13.584C135.39 12.9227 135.257 12.3467 134.99 11.856C134.723 11.3653 134.361 10.992 133.902 10.736C133.454 10.48 132.958 10.352 132.414 10.352C131.881 10.352 131.385 10.4853 130.926 10.752C130.478 11.008 130.115 11.3867 129.838 11.888C129.571 12.3787 129.438 12.9493 129.438 13.6C129.438 14.2613 129.571 14.8427 129.838 15.344C130.115 15.8347 130.478 16.2133 130.926 16.48C131.385 16.736 131.881 16.864 132.414 16.864C132.958 16.864 133.454 16.736 133.902 16.48C134.361 16.2133 134.723 15.8347 134.99 15.344C135.257 14.8427 135.39 14.256 135.39 13.584ZM140.251 6.16V18H138.795V6.16H140.251ZM150.732 13.28C150.732 13.5573 150.716 13.8507 150.684 14.16H143.676C143.729 15.024 144.023 15.7013 144.556 16.192C145.1 16.672 145.756 16.912 146.524 16.912C147.153 16.912 147.676 16.768 148.092 16.48C148.519 16.1813 148.817 15.7867 148.988 15.296H150.556C150.321 16.1387 149.852 16.8267 149.148 17.36C148.444 17.8827 147.569 18.144 146.524 18.144C145.692 18.144 144.945 17.9573 144.284 17.584C143.633 17.2107 143.121 16.6827 142.748 16C142.375 15.3067 142.188 14.5067 142.188 13.6C142.188 12.6933 142.369 11.8987 142.732 11.216C143.095 10.5333 143.601 10.0107 144.252 9.648C144.913 9.27467 145.671 9.088 146.524 9.088C147.356 9.088 148.092 9.26933 148.732 9.632C149.372 9.99467 149.863 10.496 150.204 11.136C150.556 11.7653 150.732 12.48 150.732 13.28ZM149.228 12.976C149.228 12.4213 149.105 11.9467 148.86 11.552C148.615 11.1467 148.279 10.8427 147.852 10.64C147.436 10.4267 146.972 10.32 146.46 10.32C145.724 10.32 145.095 10.5547 144.572 11.024C144.06 11.4933 143.767 12.144 143.692 12.976H149.228ZM161.614 18.608V19.952H153.102V18.608H161.614ZM163.844 13.6C163.844 12.6933 164.026 11.904 164.388 11.232C164.751 10.5493 165.252 10.0213 165.892 9.648C166.543 9.27467 167.284 9.088 168.116 9.088C169.194 9.088 170.079 9.34933 170.772 9.872C171.476 10.3947 171.94 11.12 172.164 12.048H170.596C170.447 11.5147 170.154 11.0933 169.716 10.784C169.29 10.4747 168.756 10.32 168.116 10.32C167.284 10.32 166.612 10.608 166.1 11.184C165.588 11.7493 165.332 12.5547 165.332 13.6C165.332 14.656 165.588 15.472 166.1 16.048C166.612 16.624 167.284 16.912 168.116 16.912C168.756 16.912 169.29 16.7627 169.716 16.464C170.143 16.1653 170.436 15.7387 170.596 15.184H172.164C171.93 16.08 171.46 16.8 170.756 17.344C170.052 17.8773 169.172 18.144 168.116 18.144C167.284 18.144 166.543 17.9573 165.892 17.584C165.252 17.2107 164.751 16.6827 164.388 16C164.026 15.3173 163.844 14.5173 163.844 13.6ZM177.931 18.144C177.11 18.144 176.363 17.9573 175.691 17.584C175.03 17.2107 174.507 16.6827 174.123 16C173.75 15.3067 173.563 14.5067 173.563 13.6C173.563 12.704 173.755 11.9147 174.139 11.232C174.534 10.5387 175.067 10.0107 175.739 9.648C176.411 9.27467 177.163 9.088 177.995 9.088C178.827 9.088 179.579 9.27467 180.251 9.648C180.923 10.0107 181.451 10.5333 181.835 11.216C182.23 11.8987 182.427 12.6933 182.427 13.6C182.427 14.5067 182.224 15.3067 181.819 16C181.424 16.6827 180.886 17.2107 180.203 17.584C179.52 17.9573 178.763 18.144 177.931 18.144ZM177.931 16.864C178.454 16.864 178.944 16.7413 179.403 16.496C179.862 16.2507 180.23 15.8827 180.507 15.392C180.795 14.9013 180.939 14.304 180.939 13.6C180.939 12.896 180.8 12.2987 180.523 11.808C180.246 11.3173 179.883 10.9547 179.435 10.72C178.987 10.4747 178.502 10.352 177.979 10.352C177.446 10.352 176.955 10.4747 176.507 10.72C176.07 10.9547 175.718 11.3173 175.451 11.808C175.184 12.2987 175.051 12.896 175.051 13.6C175.051 14.3147 175.179 14.9173 175.435 15.408C175.702 15.8987 176.054 16.2667 176.491 16.512C176.928 16.7467 177.408 16.864 177.931 16.864ZM185.797 6.16V18H184.341V6.16H185.797ZM192.103 18.144C191.282 18.144 190.535 17.9573 189.863 17.584C189.202 17.2107 188.679 16.6827 188.295 16C187.922 15.3067 187.735 14.5067 187.735 13.6C187.735 12.704 187.927 11.9147 188.311 11.232C188.706 10.5387 189.239 10.0107 189.911 9.648C190.583 9.27467 191.335 9.088 192.167 9.088C192.999 9.088 193.751 9.27467 194.423 9.648C195.095 10.0107 195.623 10.5333 196.007 11.216C196.402 11.8987 196.599 12.6933 196.599 13.6C196.599 14.5067 196.396 15.3067 195.991 16C195.596 16.6827 195.058 17.2107 194.375 17.584C193.692 17.9573 192.935 18.144 192.103 18.144ZM192.103 16.864C192.626 16.864 193.116 16.7413 193.575 16.496C194.034 16.2507 194.402 15.8827 194.679 15.392C194.967 14.9013 195.111 14.304 195.111 13.6C195.111 12.896 194.972 12.2987 194.695 11.808C194.418 11.3173 194.055 10.9547 193.607 10.72C193.159 10.4747 192.674 10.352 192.151 10.352C191.618 10.352 191.127 10.4747 190.679 10.72C190.242 10.9547 189.89 11.3173 189.623 11.808C189.356 12.2987 189.223 12.896 189.223 13.6C189.223 14.3147 189.351 14.9173 189.607 15.408C189.874 15.8987 190.226 16.2667 190.663 16.512C191.1 16.7467 191.58 16.864 192.103 16.864ZM199.969 10.656C200.225 10.1547 200.588 9.76533 201.057 9.488C201.537 9.21067 202.119 9.072 202.801 9.072V10.576H202.417C200.785 10.576 199.969 11.4613 199.969 13.232V18H198.513V9.232H199.969V10.656ZM0.816 40.832C2.17067 39.744 3.232 38.8533 4 38.16C4.768 37.456 5.41333 36.7253 5.936 35.968C6.46933 35.2 6.736 34.448 6.736 33.712C6.736 33.0187 6.56533 32.4747 6.224 32.08C5.89333 31.6747 5.35467 31.472 4.608 31.472C3.88267 31.472 3.31733 31.7013 2.912 32.16C2.51733 32.608 2.304 33.2107 2.272 33.968H0.864C0.906667 32.7733 1.26933 31.8507 1.952 31.2C2.63467 30.5493 3.51467 30.224 4.592 30.224C5.69067 30.224 6.56 30.528 7.2 31.136C7.85067 31.744 8.176 32.5813 8.176 33.648C8.176 34.5333 7.90933 35.3973 7.376 36.24C6.85333 37.072 6.256 37.808 5.584 38.448C4.912 39.0773 4.05333 39.8133 3.008 40.656H8.512V41.872H0.816V40.832Z" fill="black"/>
<path d="M10.464 86L6.624 79.328H4.536V86H1.8V69.32H7.56C8.84 69.32 9.92 69.544 10.8 69.992C11.696 70.44 12.36 71.04 12.792 71.792C13.24 72.544 13.464 73.384 13.464 74.312C13.464 75.4 13.144 76.392 12.504 77.288C11.88 78.168 10.912 78.768 9.6 79.088L13.728 86H10.464ZM4.536 77.144H7.56C8.584 77.144 9.352 76.888 9.864 76.376C10.392 75.864 10.656 75.176 10.656 74.312C10.656 73.448 10.4 72.776 9.888 72.296C9.376 71.8 8.6 71.552 7.56 71.552H4.536V77.144ZM21.7641 86.216C20.7241 86.216 19.7881 86.032 18.9561 85.664C18.1401 85.28 17.4921 84.768 17.0121 84.128C16.5321 83.472 16.2761 82.744 16.2441 81.944H19.0761C19.1241 82.504 19.3881 82.976 19.8681 83.36C20.3641 83.728 20.9801 83.912 21.7161 83.912C22.4841 83.912 23.0761 83.768 23.4921 83.48C23.9241 83.176 24.1401 82.792 24.1401 82.328C24.1401 81.832 23.9001 81.464 23.4201 81.224C22.9561 80.984 22.2121 80.72 21.1881 80.432C20.1961 80.16 19.3881 79.896 18.7641 79.64C18.1401 79.384 17.5961 78.992 17.1321 78.464C16.6841 77.936 16.4601 77.24 16.4601 76.376C16.4601 75.672 16.6681 75.032 17.0841 74.456C17.5001 73.864 18.0921 73.4 18.8601 73.064C19.6441 72.728 20.5401 72.56 21.5481 72.56C23.0521 72.56 24.2601 72.944 25.1721 73.712C26.1001 74.464 26.5961 75.496 26.6601 76.808H23.9241C23.8761 76.216 23.6361 75.744 23.2041 75.392C22.7721 75.04 22.1881 74.864 21.4521 74.864C20.7321 74.864 20.1801 75 19.7961 75.272C19.4121 75.544 19.2201 75.904 19.2201 76.352C19.2201 76.704 19.3481 77 19.6041 77.24C19.8601 77.48 20.1721 77.672 20.5401 77.816C20.9081 77.944 21.4521 78.112 22.1721 78.32C23.1321 78.576 23.9161 78.84 24.5241 79.112C25.1481 79.368 25.6841 79.752 26.1321 80.264C26.5801 80.776 26.8121 81.456 26.8281 82.304C26.8281 83.056 26.6201 83.728 26.2041 84.32C25.7881 84.912 25.1961 85.376 24.4281 85.712C23.6761 86.048 22.7881 86.216 21.7641 86.216ZM30.8884 86.168C30.3924 86.168 29.9764 86 29.6404 85.664C29.3044 85.328 29.1364 84.912 29.1364 84.416C29.1364 83.92 29.3044 83.504 29.6404 83.168C29.9764 82.832 30.3924 82.664 30.8884 82.664C31.3684 82.664 31.7764 82.832 32.1124 83.168C32.4484 83.504 32.6164 83.92 32.6164 84.416C32.6164 84.912 32.4484 85.328 32.1124 85.664C31.7764 86 31.3684 86.168 30.8884 86.168ZM42.9598 82.28C44.4958 80.952 45.7038 79.864 46.5838 79.016C47.4798 78.152 48.2238 77.256 48.8158 76.328C49.4078 75.4 49.7038 74.472 49.7038 73.544C49.7038 72.584 49.4718 71.832 49.0078 71.288C48.5598 70.744 47.8478 70.472 46.8718 70.472C45.9278 70.472 45.1918 70.776 44.6638 71.384C44.1518 71.976 43.8798 72.776 43.8478 73.784H41.2078C41.2558 71.96 41.7998 70.568 42.8398 69.608C43.8958 68.632 45.2318 68.144 46.8478 68.144C48.5918 68.144 49.9518 68.624 50.9278 69.584C51.9198 70.544 52.4158 71.824 52.4158 73.424C52.4158 74.576 52.1198 75.688 51.5278 76.76C50.9518 77.816 50.2558 78.768 49.4398 79.616C48.6398 80.448 47.6158 81.416 46.3678 82.52L45.2878 83.48H52.8958V85.76H41.2318V83.768L42.9598 82.28ZM66.5794 70.856H58.5394V75.632C58.8754 75.184 59.3714 74.808 60.0274 74.504C60.6994 74.2 61.4114 74.048 62.1634 74.048C63.5074 74.048 64.5954 74.336 65.4274 74.912C66.2754 75.488 66.8754 76.216 67.2274 77.096C67.5954 77.976 67.7794 78.904 67.7794 79.88C67.7794 81.064 67.5474 82.12 67.0834 83.048C66.6354 83.96 65.9554 84.68 65.0434 85.208C64.1474 85.736 63.0434 86 61.7314 86C59.9874 86 58.5874 85.568 57.5314 84.704C56.4754 83.84 55.8434 82.696 55.6354 81.272H58.2994C58.4754 82.024 58.8674 82.624 59.4754 83.072C60.0834 83.504 60.8434 83.72 61.7554 83.72C62.8914 83.72 63.7394 83.376 64.2994 82.688C64.8754 82 65.1634 81.088 65.1634 79.952C65.1634 78.8 64.8754 77.92 64.2994 77.312C63.7234 76.688 62.8754 76.376 61.7554 76.376C60.9714 76.376 60.3074 76.576 59.7634 76.976C59.2354 77.36 58.8514 77.888 58.6114 78.56H56.0194V68.456H66.5794V70.856ZM70.2675 71V68.504H75.2595V86H72.4995V71H70.2675ZM82.3781 82.712L79.4741 89.336H77.6981L79.4021 82.712H82.3781ZM84.4088 77.024C84.4088 74.256 84.8728 72.096 85.8008 70.544C86.7448 68.976 88.3608 68.192 90.6488 68.192C92.9368 68.192 94.5448 68.976 95.4728 70.544C96.4168 72.096 96.8888 74.256 96.8888 77.024C96.8888 79.824 96.4168 82.016 95.4728 83.6C94.5448 85.168 92.9368 85.952 90.6488 85.952C88.3608 85.952 86.7448 85.168 85.8008 83.6C84.8728 82.016 84.4088 79.824 84.4088 77.024ZM94.2008 77.024C94.2008 75.728 94.1128 74.632 93.9368 73.736C93.7768 72.84 93.4408 72.112 92.9288 71.552C92.4168 70.976 91.6568 70.688 90.6488 70.688C89.6408 70.688 88.8808 70.976 88.3688 71.552C87.8568 72.112 87.5128 72.84 87.3368 73.736C87.1768 74.632 87.0968 75.728 87.0968 77.024C87.0968 78.368 87.1768 79.496 87.3368 80.408C87.4968 81.32 87.8328 82.056 88.3448 82.616C88.8728 83.176 89.6408 83.456 90.6488 83.456C91.6568 83.456 92.4168 83.176 92.9288 82.616C93.4568 82.056 93.8008 81.32 93.9608 80.408C94.1208 79.496 94.2008 78.368 94.2008 77.024ZM99.7838 77.024C99.7838 74.256 100.248 72.096 101.176 70.544C102.12 68.976 103.736 68.192 106.024 68.192C108.312 68.192 109.92 68.976 110.848 70.544C111.792 72.096 112.264 74.256 112.264 77.024C112.264 79.824 111.792 82.016 110.848 83.6C109.92 85.168 108.312 85.952 106.024 85.952C103.736 85.952 102.12 85.168 101.176 83.6C100.248 82.016 99.7838 79.824 99.7838 77.024ZM109.576 77.024C109.576 75.728 109.488 74.632 109.312 73.736C109.152 72.84 108.816 72.112 108.304 71.552C107.792 70.976 107.032 70.688 106.024 70.688C105.016 70.688 104.256 70.976 103.744 71.552C103.232 72.112 102.888 72.84 102.712 73.736C102.552 74.632 102.472 75.728 102.472 77.024C102.472 78.368 102.552 79.496 102.712 80.408C102.872 81.32 103.208 82.056 103.72 82.616C104.248 83.176 105.016 83.456 106.024 83.456C107.032 83.456 107.792 83.176 108.304 82.616C108.832 82.056 109.176 81.32 109.336 80.408C109.496 79.496 109.576 78.368 109.576 77.024ZM115.159 77.024C115.159 74.256 115.623 72.096 116.551 70.544C117.495 68.976 119.111 68.192 121.399 68.192C123.687 68.192 125.295 68.976 126.223 70.544C127.167 72.096 127.639 74.256 127.639 77.024C127.639 79.824 127.167 82.016 126.223 83.6C125.295 85.168 123.687 85.952 121.399 85.952C119.111 85.952 117.495 85.168 116.551 83.6C115.623 82.016 115.159 79.824 115.159 77.024ZM124.951 77.024C124.951 75.728 124.863 74.632 124.687 73.736C124.527 72.84 124.191 72.112 123.679 71.552C123.167 70.976 122.407 70.688 121.399 70.688C120.391 70.688 119.631 70.976 119.119 71.552C118.607 72.112 118.263 72.84 118.087 73.736C117.927 74.632 117.847 75.728 117.847 77.024C117.847 78.368 117.927 79.496 118.087 80.408C118.247 81.32 118.583 82.056 119.095 82.616C119.623 83.176 120.391 83.456 121.399 83.456C122.407 83.456 123.167 83.176 123.679 82.616C124.207 82.056 124.551 81.32 124.711 80.408C124.871 79.496 124.951 78.368 124.951 77.024ZM131.998 86.168C131.502 86.168 131.086 86 130.75 85.664C130.414 85.328 130.246 84.912 130.246 84.416C130.246 83.92 130.414 83.504 130.75 83.168C131.086 82.832 131.502 82.664 131.998 82.664C132.478 82.664 132.886 82.832 133.222 83.168C133.558 83.504 133.726 83.92 133.726 84.416C133.726 84.912 133.558 85.328 133.222 85.664C132.886 86 132.478 86.168 131.998 86.168ZM136.323 77.024C136.323 74.256 136.787 72.096 137.715 70.544C138.659 68.976 140.275 68.192 142.563 68.192C144.851 68.192 146.459 68.976 147.387 70.544C148.331 72.096 148.803 74.256 148.803 77.024C148.803 79.824 148.331 82.016 147.387 83.6C146.459 85.168 144.851 85.952 142.563 85.952C140.275 85.952 138.659 85.168 137.715 83.6C136.787 82.016 136.323 79.824 136.323 77.024ZM146.115 77.024C146.115 75.728 146.027 74.632 145.851 73.736C145.691 72.84 145.355 72.112 144.843 71.552C144.331 70.976 143.571 70.688 142.563 70.688C141.555 70.688 140.795 70.976 140.283 71.552C139.771 72.112 139.427 72.84 139.251 73.736C139.091 74.632 139.011 75.728 139.011 77.024C139.011 78.368 139.091 79.496 139.251 80.408C139.411 81.32 139.747 82.056 140.259 82.616C140.787 83.176 141.555 83.456 142.563 83.456C143.571 83.456 144.331 83.176 144.843 82.616C145.371 82.056 145.715 81.32 145.875 80.408C146.035 79.496 146.115 78.368 146.115 77.024ZM151.698 77.024C151.698 74.256 152.162 72.096 153.09 70.544C154.034 68.976 155.65 68.192 157.938 68.192C160.226 68.192 161.834 68.976 162.762 70.544C163.706 72.096 164.178 74.256 164.178 77.024C164.178 79.824 163.706 82.016 162.762 83.6C161.834 85.168 160.226 85.952 157.938 85.952C155.65 85.952 154.034 85.168 153.09 83.6C152.162 82.016 151.698 79.824 151.698 77.024ZM161.49 77.024C161.49 75.728 161.402 74.632 161.226 73.736C161.066 72.84 160.73 72.112 160.218 71.552C159.706 70.976 158.946 70.688 157.938 70.688C156.93 70.688 156.17 70.976 155.658 71.552C155.146 72.112 154.802 72.84 154.626 73.736C154.466 74.632 154.386 75.728 154.386 77.024C154.386 78.368 154.466 79.496 154.626 80.408C154.786 81.32 155.122 82.056 155.634 82.616C156.162 83.176 156.93 83.456 157.938 83.456C158.946 83.456 159.706 83.176 160.218 82.616C160.746 82.056 161.09 81.32 161.25 80.408C161.41 79.496 161.49 78.368 161.49 77.024Z" fill="black"/>
</svg>
