<svg width="152" height="71" viewBox="0 0 152 71" fill="none" xmlns="http://www.w3.org/2000/svg">
<path d="M9.68 10.08C9.37067 9.42933 8.92267 8.928 8.336 8.576C7.74933 8.21333 7.06667 8.032 6.288 8.032C5.50933 8.032 4.80533 8.21333 4.176 8.576C3.55733 8.928 3.06667 9.44 2.704 10.112C2.352 10.7733 2.176 11.5413 2.176 12.416C2.176 13.2907 2.352 14.0587 2.704 14.72C3.06667 15.3813 3.55733 15.8933 4.176 16.256C4.80533 16.608 5.50933 16.784 6.288 16.784C7.376 16.784 8.272 16.4587 8.976 15.808C9.68 15.1573 10.0907 14.2773 10.208 13.168H5.76V11.984H11.76V13.104C11.6747 14.0213 11.3867 14.864 10.896 15.632C10.4053 16.3893 9.76 16.992 8.96 17.44C8.16 17.8773 7.26933 18.096 6.288 18.096C5.25333 18.096 4.30933 17.856 3.456 17.376C2.60267 16.8853 1.92533 16.208 1.424 15.344C0.933333 14.48 0.688 13.504 0.688 12.416C0.688 11.328 0.933333 10.352 1.424 9.488C1.92533 8.61333 2.60267 7.936 3.456 7.456C4.30933 6.96533 5.25333 6.72 6.288 6.72C7.472 6.72 8.51733 7.01333 9.424 7.6C10.3413 8.18667 11.008 9.01333 11.424 10.08H9.68ZM15.1411 10.656C15.3971 10.1547 15.7598 9.76533 16.2291 9.488C16.7091 9.21067 17.2905 9.072 17.9731 9.072V10.576H17.5891C15.9571 10.576 15.1411 11.4613 15.1411 13.232V18H13.6851V9.232H15.1411V10.656ZM19.1099 13.584C19.1099 12.688 19.2912 11.904 19.6539 11.232C20.0165 10.5493 20.5125 10.0213 21.1419 9.648C21.7819 9.27467 22.4912 9.088 23.2699 9.088C24.0379 9.088 24.7045 9.25333 25.2699 9.584C25.8352 9.91467 26.2565 10.3307 26.5339 10.832V9.232H28.0059V18H26.5339V16.368C26.2459 16.88 25.8139 17.3067 25.2379 17.648C24.6725 17.9787 24.0112 18.144 23.2539 18.144C22.4752 18.144 21.7712 17.952 21.1419 17.568C20.5125 17.184 20.0165 16.6453 19.6539 15.952C19.2912 15.2587 19.1099 14.4693 19.1099 13.584ZM26.5339 13.6C26.5339 12.9387 26.4005 12.3627 26.1339 11.872C25.8672 11.3813 25.5045 11.008 25.0459 10.752C24.5979 10.4853 24.1019 10.352 23.5579 10.352C23.0139 10.352 22.5179 10.48 22.0699 10.736C21.6219 10.992 21.2645 11.3653 20.9979 11.856C20.7312 12.3467 20.5979 12.9227 20.5979 13.584C20.5979 14.256 20.7312 14.8427 20.9979 15.344C21.2645 15.8347 21.6219 16.2133 22.0699 16.48C22.5179 16.736 23.0139 16.864 23.5579 16.864C24.1019 16.864 24.5979 16.736 25.0459 16.48C25.5045 16.2133 25.8672 15.8347 26.1339 15.344C26.4005 14.8427 26.5339 14.2613 26.5339 13.6ZM31.2184 7.808C30.941 7.808 30.7064 7.712 30.5144 7.52C30.3224 7.328 30.2264 7.09333 30.2264 6.816C30.2264 6.53867 30.3224 6.304 30.5144 6.112C30.7064 5.92 30.941 5.824 31.2184 5.824C31.485 5.824 31.709 5.92 31.8904 6.112C32.0824 6.304 32.1784 6.53867 32.1784 6.816C32.1784 7.09333 32.0824 7.328 31.8904 7.52C31.709 7.712 31.485 7.808 31.2184 7.808ZM31.9224 9.232V18H30.4664V9.232H31.9224ZM38.6759 9.072C39.7425 9.072 40.6065 9.39733 41.2679 10.048C41.9292 10.688 42.2599 11.616 42.2599 12.832V18H40.8199V13.04C40.8199 12.1653 40.6012 11.4987 40.1639 11.04C39.7265 10.5707 39.1292 10.336 38.3719 10.336C37.6039 10.336 36.9905 10.576 36.5319 11.056C36.0839 11.536 35.8599 12.2347 35.8599 13.152V18H34.4039V9.232H35.8599V10.48C36.1479 10.032 36.5372 9.68533 37.0279 9.44C37.5292 9.19467 38.0785 9.072 38.6759 9.072ZM48.3599 13.6C48.3599 12.6933 48.5412 11.904 48.9039 11.232C49.2665 10.5493 49.7679 10.0213 50.4079 9.648C51.0585 9.27467 51.7999 9.088 52.6319 9.088C53.7092 9.088 54.5945 9.34933 55.2879 9.872C55.9919 10.3947 56.4559 11.12 56.6799 12.048H55.1119C54.9625 11.5147 54.6692 11.0933 54.2319 10.784C53.8052 10.4747 53.2719 10.32 52.6319 10.32C51.7999 10.32 51.1279 10.608 50.6159 11.184C50.1039 11.7493 49.8479 12.5547 49.8479 13.6C49.8479 14.656 50.1039 15.472 50.6159 16.048C51.1279 16.624 51.7999 16.912 52.6319 16.912C53.2719 16.912 53.8052 16.7627 54.2319 16.464C54.6585 16.1653 54.9519 15.7387 55.1119 15.184H56.6799C56.4452 16.08 55.9759 16.8 55.2719 17.344C54.5679 17.8773 53.6879 18.144 52.6319 18.144C51.7999 18.144 51.0585 17.9573 50.4079 17.584C49.7679 17.2107 49.2665 16.6827 48.9039 16C48.5412 15.3173 48.3599 14.5173 48.3599 13.6ZM62.4466 18.144C61.6253 18.144 60.8786 17.9573 60.2066 17.584C59.5453 17.2107 59.0226 16.6827 58.6386 16C58.2653 15.3067 58.0786 14.5067 58.0786 13.6C58.0786 12.704 58.2706 11.9147 58.6546 11.232C59.0493 10.5387 59.5826 10.0107 60.2546 9.648C60.9266 9.27467 61.6786 9.088 62.5106 9.088C63.3426 9.088 64.0946 9.27467 64.7666 9.648C65.4386 10.0107 65.9666 10.5333 66.3506 11.216C66.7453 11.8987 66.9426 12.6933 66.9426 13.6C66.9426 14.5067 66.74 15.3067 66.3346 16C65.94 16.6827 65.4013 17.2107 64.7186 17.584C64.036 17.9573 63.2786 18.144 62.4466 18.144ZM62.4466 16.864C62.9693 16.864 63.46 16.7413 63.9186 16.496C64.3773 16.2507 64.7453 15.8827 65.0226 15.392C65.3106 14.9013 65.4546 14.304 65.4546 13.6C65.4546 12.896 65.316 12.2987 65.0386 11.808C64.7613 11.3173 64.3986 10.9547 63.9506 10.72C63.5026 10.4747 63.0173 10.352 62.4946 10.352C61.9613 10.352 61.4706 10.4747 61.0226 10.72C60.5853 10.9547 60.2333 11.3173 59.9666 11.808C59.7 12.2987 59.5666 12.896 59.5666 13.6C59.5666 14.3147 59.6946 14.9173 59.9506 15.408C60.2173 15.8987 60.5693 16.2667 61.0066 16.512C61.444 16.7467 61.924 16.864 62.4466 16.864ZM72.425 10.432H70.585V18H69.129V10.432H67.993V9.232H69.129V8.608C69.129 7.62667 69.3797 6.912 69.881 6.464C70.393 6.00533 71.209 5.776 72.329 5.776V6.992C71.689 6.992 71.2357 7.12 70.969 7.376C70.713 7.62133 70.585 8.032 70.585 8.608V9.232H72.425V10.432ZM77.6906 10.432H75.8506V18H74.3946V10.432H73.2586V9.232H74.3946V8.608C74.3946 7.62667 74.6453 6.912 75.1466 6.464C75.6586 6.00533 76.4746 5.776 77.5946 5.776V6.992C76.9546 6.992 76.5013 7.12 76.2346 7.376C75.9786 7.62133 75.8506 8.032 75.8506 8.608V9.232H77.6906V10.432ZM87.3883 13.28C87.3883 13.5573 87.3723 13.8507 87.3403 14.16H80.3323C80.3856 15.024 80.6789 15.7013 81.2123 16.192C81.7563 16.672 82.4123 16.912 83.1803 16.912C83.8096 16.912 84.3323 16.768 84.7483 16.48C85.1749 16.1813 85.4736 15.7867 85.6443 15.296H87.2123C86.9776 16.1387 86.5083 16.8267 85.8043 17.36C85.1003 17.8827 84.2256 18.144 83.1803 18.144C82.3483 18.144 81.6016 17.9573 80.9403 17.584C80.2896 17.2107 79.7776 16.6827 79.4043 16C79.0309 15.3067 78.8443 14.5067 78.8443 13.6C78.8443 12.6933 79.0256 11.8987 79.3883 11.216C79.7509 10.5333 80.2576 10.0107 80.9083 9.648C81.5696 9.27467 82.3269 9.088 83.1803 9.088C84.0123 9.088 84.7483 9.26933 85.3883 9.632C86.0283 9.99467 86.5189 10.496 86.8603 11.136C87.2123 11.7653 87.3883 12.48 87.3883 13.28ZM85.8843 12.976C85.8843 12.4213 85.7616 11.9467 85.5163 11.552C85.2709 11.1467 84.9349 10.8427 84.5083 10.64C84.0923 10.4267 83.6283 10.32 83.1163 10.32C82.3803 10.32 81.7509 10.5547 81.2283 11.024C80.7163 11.4933 80.4229 12.144 80.3483 12.976H85.8843ZM97.3101 13.28C97.3101 13.5573 97.2941 13.8507 97.2621 14.16H90.2541C90.3075 15.024 90.6008 15.7013 91.1341 16.192C91.6781 16.672 92.3341 16.912 93.1021 16.912C93.7315 16.912 94.2541 16.768 94.6701 16.48C95.0968 16.1813 95.3955 15.7867 95.5661 15.296H97.1341C96.8995 16.1387 96.4301 16.8267 95.7261 17.36C95.0221 17.8827 94.1475 18.144 93.1021 18.144C92.2701 18.144 91.5235 17.9573 90.8621 17.584C90.2115 17.2107 89.6995 16.6827 89.3261 16C88.9528 15.3067 88.7661 14.5067 88.7661 13.6C88.7661 12.6933 88.9475 11.8987 89.3101 11.216C89.6728 10.5333 90.1795 10.0107 90.8301 9.648C91.4915 9.27467 92.2488 9.088 93.1021 9.088C93.9341 9.088 94.6701 9.26933 95.3101 9.632C95.9501 9.99467 96.4408 10.496 96.7821 11.136C97.1341 11.7653 97.3101 12.48 97.3101 13.28ZM95.8061 12.976C95.8061 12.4213 95.6835 11.9467 95.4381 11.552C95.1928 11.1467 94.8568 10.8427 94.4301 10.64C94.0141 10.4267 93.5501 10.32 93.0381 10.32C92.3021 10.32 91.6728 10.5547 91.1501 11.024C90.6381 11.4933 90.3448 12.144 90.2701 12.976H95.8061ZM105.274 10.432V15.6C105.274 16.0267 105.364 16.3307 105.546 16.512C105.727 16.6827 106.042 16.768 106.49 16.768H107.562V18H106.25C105.439 18 104.831 17.8133 104.426 17.44C104.02 17.0667 103.818 16.4533 103.818 15.6V10.432H102.682V9.232H103.818V7.024H105.274V9.232H107.562V10.432H105.274ZM108.782 13.584C108.782 12.688 108.963 11.904 109.326 11.232C109.688 10.5493 110.184 10.0213 110.814 9.648C111.454 9.27467 112.163 9.088 112.942 9.088C113.71 9.088 114.376 9.25333 114.942 9.584C115.507 9.91467 115.928 10.3307 116.206 10.832V9.232H117.678V18H116.206V16.368C115.918 16.88 115.486 17.3067 114.91 17.648C114.344 17.9787 113.683 18.144 112.926 18.144C112.147 18.144 111.443 17.952 110.814 17.568C110.184 17.184 109.688 16.6453 109.326 15.952C108.963 15.2587 108.782 14.4693 108.782 13.584ZM116.206 13.6C116.206 12.9387 116.072 12.3627 115.806 11.872C115.539 11.3813 115.176 11.008 114.718 10.752C114.27 10.4853 113.774 10.352 113.23 10.352C112.686 10.352 112.19 10.48 111.742 10.736C111.294 10.992 110.936 11.3653 110.67 11.856C110.403 12.3467 110.27 12.9227 110.27 13.584C110.27 14.256 110.403 14.8427 110.67 15.344C110.936 15.8347 111.294 16.2133 111.742 16.48C112.19 16.736 112.686 16.864 113.23 16.864C113.774 16.864 114.27 16.736 114.718 16.48C115.176 16.2133 115.539 15.8347 115.806 15.344C116.072 14.8427 116.206 14.2613 116.206 13.6ZM121.594 10.864C121.893 10.3413 122.33 9.91467 122.906 9.584C123.482 9.25333 124.138 9.088 124.874 9.088C125.664 9.088 126.373 9.27467 127.002 9.648C127.632 10.0213 128.128 10.5493 128.49 11.232C128.853 11.904 129.034 12.688 129.034 13.584C129.034 14.4693 128.853 15.2587 128.49 15.952C128.128 16.6453 127.626 17.184 126.986 17.568C126.357 17.952 125.653 18.144 124.874 18.144C124.117 18.144 123.45 17.9787 122.874 17.648C122.309 17.3173 121.882 16.896 121.594 16.384V18H120.138V6.16H121.594V10.864ZM127.546 13.584C127.546 12.9227 127.413 12.3467 127.146 11.856C126.88 11.3653 126.517 10.992 126.058 10.736C125.61 10.48 125.114 10.352 124.57 10.352C124.037 10.352 123.541 10.4853 123.082 10.752C122.634 11.008 122.272 11.3867 121.994 11.888C121.728 12.3787 121.594 12.9493 121.594 13.6C121.594 14.2613 121.728 14.8427 121.994 15.344C122.272 15.8347 122.634 16.2133 123.082 16.48C123.541 16.736 124.037 16.864 124.57 16.864C125.114 16.864 125.61 16.736 126.058 16.48C126.517 16.2133 126.88 15.8347 127.146 15.344C127.413 14.8427 127.546 14.256 127.546 13.584ZM132.407 6.16V18H130.951V6.16H132.407ZM142.888 13.28C142.888 13.5573 142.872 13.8507 142.84 14.16H135.832C135.886 15.024 136.179 15.7013 136.712 16.192C137.256 16.672 137.912 16.912 138.68 16.912C139.31 16.912 139.832 16.768 140.248 16.48C140.675 16.1813 140.974 15.7867 141.144 15.296H142.712C142.478 16.1387 142.008 16.8267 141.304 17.36C140.6 17.8827 139.726 18.144 138.68 18.144C137.848 18.144 137.102 17.9573 136.44 17.584C135.79 17.2107 135.278 16.6827 134.904 16C134.531 15.3067 134.344 14.5067 134.344 13.6C134.344 12.6933 134.526 11.8987 134.888 11.216C135.251 10.5333 135.758 10.0107 136.408 9.648C137.07 9.27467 137.827 9.088 138.68 9.088C139.512 9.088 140.248 9.26933 140.888 9.632C141.528 9.99467 142.019 10.496 142.36 11.136C142.712 11.7653 142.888 12.48 142.888 13.28ZM141.384 12.976C141.384 12.4213 141.262 11.9467 141.016 11.552C140.771 11.1467 140.435 10.8427 140.008 10.64C139.592 10.4267 139.128 10.32 138.616 10.32C137.88 10.32 137.251 10.5547 136.728 11.024C136.216 11.4933 135.923 12.144 135.848 12.976H141.384Z" fill="black"/>
<path d="M10.464 61L6.624 54.328H4.536V61H1.8V44.32H7.56C8.84 44.32 9.92 44.544 10.8 44.992C11.696 45.44 12.36 46.04 12.792 46.792C13.24 47.544 13.464 48.384 13.464 49.312C13.464 50.4 13.144 51.392 12.504 52.288C11.88 53.168 10.912 53.768 9.6 54.088L13.728 61H10.464ZM4.536 52.144H7.56C8.584 52.144 9.352 51.888 9.864 51.376C10.392 50.864 10.656 50.176 10.656 49.312C10.656 48.448 10.4 47.776 9.888 47.296C9.376 46.8 8.6 46.552 7.56 46.552H4.536V52.144ZM21.7641 61.216C20.7241 61.216 19.7881 61.032 18.9561 60.664C18.1401 60.28 17.4921 59.768 17.0121 59.128C16.5321 58.472 16.2761 57.744 16.2441 56.944H19.0761C19.1241 57.504 19.3881 57.976 19.8681 58.36C20.3641 58.728 20.9801 58.912 21.7161 58.912C22.4841 58.912 23.0761 58.768 23.4921 58.48C23.9241 58.176 24.1401 57.792 24.1401 57.328C24.1401 56.832 23.9001 56.464 23.4201 56.224C22.9561 55.984 22.2121 55.72 21.1881 55.432C20.1961 55.16 19.3881 54.896 18.7641 54.64C18.1401 54.384 17.5961 53.992 17.1321 53.464C16.6841 52.936 16.4601 52.24 16.4601 51.376C16.4601 50.672 16.6681 50.032 17.0841 49.456C17.5001 48.864 18.0921 48.4 18.8601 48.064C19.6441 47.728 20.5401 47.56 21.5481 47.56C23.0521 47.56 24.2601 47.944 25.1721 48.712C26.1001 49.464 26.5961 50.496 26.6601 51.808H23.9241C23.8761 51.216 23.6361 50.744 23.2041 50.392C22.7721 50.04 22.1881 49.864 21.4521 49.864C20.7321 49.864 20.1801 50 19.7961 50.272C19.4121 50.544 19.2201 50.904 19.2201 51.352C19.2201 51.704 19.3481 52 19.6041 52.24C19.8601 52.48 20.1721 52.672 20.5401 52.816C20.9081 52.944 21.4521 53.112 22.1721 53.32C23.1321 53.576 23.9161 53.84 24.5241 54.112C25.1481 54.368 25.6841 54.752 26.1321 55.264C26.5801 55.776 26.8121 56.456 26.8281 57.304C26.8281 58.056 26.6201 58.728 26.2041 59.32C25.7881 59.912 25.1961 60.376 24.4281 60.712C23.6761 61.048 22.7881 61.216 21.7641 61.216ZM30.8884 61.168C30.3924 61.168 29.9764 61 29.6404 60.664C29.3044 60.328 29.1364 59.912 29.1364 59.416C29.1364 58.92 29.3044 58.504 29.6404 58.168C29.9764 57.832 30.3924 57.664 30.8884 57.664C31.3684 57.664 31.7764 57.832 32.1124 58.168C32.4484 58.504 32.6164 58.92 32.6164 59.416C32.6164 59.912 32.4484 60.328 32.1124 60.664C31.7764 61 31.3684 61.168 30.8884 61.168ZM41.0878 46V43.504H46.0798V61H43.3198V46H41.0878ZM61.1184 45.856H53.0784V50.632C53.4144 50.184 53.9104 49.808 54.5664 49.504C55.2384 49.2 55.9504 49.048 56.7024 49.048C58.0464 49.048 59.1344 49.336 59.9664 49.912C60.8144 50.488 61.4144 51.216 61.7664 52.096C62.1344 52.976 62.3184 53.904 62.3184 54.88C62.3184 56.064 62.0864 57.12 61.6224 58.048C61.1744 58.96 60.4944 59.68 59.5824 60.208C58.6864 60.736 57.5824 61 56.2704 61C54.5264 61 53.1264 60.568 52.0704 59.704C51.0144 58.84 50.3824 57.696 50.1744 56.272H52.8384C53.0144 57.024 53.4064 57.624 54.0144 58.072C54.6224 58.504 55.3824 58.72 56.2944 58.72C57.4304 58.72 58.2784 58.376 58.8384 57.688C59.4144 57 59.7024 56.088 59.7024 54.952C59.7024 53.8 59.4144 52.92 58.8384 52.312C58.2624 51.688 57.4144 51.376 56.2944 51.376C55.5104 51.376 54.8464 51.576 54.3024 51.976C53.7744 52.36 53.3904 52.888 53.1504 53.56H50.5584V43.456H61.1184V45.856ZM68.5266 57.712L65.6226 64.336H63.8466L65.5506 57.712H68.5266ZM70.5572 52.024C70.5572 49.256 71.0212 47.096 71.9492 45.544C72.8932 43.976 74.5092 43.192 76.7972 43.192C79.0852 43.192 80.6932 43.976 81.6212 45.544C82.5652 47.096 83.0372 49.256 83.0372 52.024C83.0372 54.824 82.5652 57.016 81.6212 58.6C80.6932 60.168 79.0852 60.952 76.7972 60.952C74.5092 60.952 72.8932 60.168 71.9492 58.6C71.0212 57.016 70.5572 54.824 70.5572 52.024ZM80.3492 52.024C80.3492 50.728 80.2612 49.632 80.0852 48.736C79.9252 47.84 79.5892 47.112 79.0772 46.552C78.5652 45.976 77.8052 45.688 76.7972 45.688C75.7892 45.688 75.0292 45.976 74.5172 46.552C74.0052 47.112 73.6612 47.84 73.4852 48.736C73.3252 49.632 73.2452 50.728 73.2452 52.024C73.2452 53.368 73.3252 54.496 73.4852 55.408C73.6452 56.32 73.9812 57.056 74.4932 57.616C75.0212 58.176 75.7892 58.456 76.7972 58.456C77.8052 58.456 78.5652 58.176 79.0772 57.616C79.6052 57.056 79.9492 56.32 80.1092 55.408C80.2692 54.496 80.3492 53.368 80.3492 52.024ZM85.9322 52.024C85.9322 49.256 86.3962 47.096 87.3242 45.544C88.2682 43.976 89.8842 43.192 92.1722 43.192C94.4602 43.192 96.0682 43.976 96.9962 45.544C97.9402 47.096 98.4122 49.256 98.4122 52.024C98.4122 54.824 97.9402 57.016 96.9962 58.6C96.0682 60.168 94.4602 60.952 92.1722 60.952C89.8842 60.952 88.2682 60.168 87.3242 58.6C86.3962 57.016 85.9322 54.824 85.9322 52.024ZM95.7242 52.024C95.7242 50.728 95.6362 49.632 95.4602 48.736C95.3002 47.84 94.9642 47.112 94.4522 46.552C93.9402 45.976 93.1802 45.688 92.1722 45.688C91.1642 45.688 90.4042 45.976 89.8922 46.552C89.3802 47.112 89.0362 47.84 88.8602 48.736C88.7002 49.632 88.6202 50.728 88.6202 52.024C88.6202 53.368 88.7002 54.496 88.8602 55.408C89.0202 56.32 89.3562 57.056 89.8682 57.616C90.3962 58.176 91.1642 58.456 92.1722 58.456C93.1802 58.456 93.9402 58.176 94.4522 57.616C94.9802 57.056 95.3242 56.32 95.4842 55.408C95.6442 54.496 95.7242 53.368 95.7242 52.024ZM101.307 52.024C101.307 49.256 101.771 47.096 102.699 45.544C103.643 43.976 105.259 43.192 107.547 43.192C109.835 43.192 111.443 43.976 112.371 45.544C113.315 47.096 113.787 49.256 113.787 52.024C113.787 54.824 113.315 57.016 112.371 58.6C111.443 60.168 109.835 60.952 107.547 60.952C105.259 60.952 103.643 60.168 102.699 58.6C101.771 57.016 101.307 54.824 101.307 52.024ZM111.099 52.024C111.099 50.728 111.011 49.632 110.835 48.736C110.675 47.84 110.339 47.112 109.827 46.552C109.315 45.976 108.555 45.688 107.547 45.688C106.539 45.688 105.779 45.976 105.267 46.552C104.755 47.112 104.411 47.84 104.235 48.736C104.075 49.632 103.995 50.728 103.995 52.024C103.995 53.368 104.075 54.496 104.235 55.408C104.395 56.32 104.731 57.056 105.243 57.616C105.771 58.176 106.539 58.456 107.547 58.456C108.555 58.456 109.315 58.176 109.827 57.616C110.355 57.056 110.699 56.32 110.859 55.408C111.019 54.496 111.099 53.368 111.099 52.024ZM118.146 61.168C117.65 61.168 117.234 61 116.898 60.664C116.562 60.328 116.394 59.912 116.394 59.416C116.394 58.92 116.562 58.504 116.898 58.168C117.234 57.832 117.65 57.664 118.146 57.664C118.626 57.664 119.034 57.832 119.37 58.168C119.706 58.504 119.874 58.92 119.874 59.416C119.874 59.912 119.706 60.328 119.37 60.664C119.034 61 118.626 61.168 118.146 61.168ZM122.471 52.024C122.471 49.256 122.935 47.096 123.863 45.544C124.807 43.976 126.423 43.192 128.711 43.192C130.999 43.192 132.607 43.976 133.535 45.544C134.479 47.096 134.951 49.256 134.951 52.024C134.951 54.824 134.479 57.016 133.535 58.6C132.607 60.168 130.999 60.952 128.711 60.952C126.423 60.952 124.807 60.168 123.863 58.6C122.935 57.016 122.471 54.824 122.471 52.024ZM132.263 52.024C132.263 50.728 132.175 49.632 131.999 48.736C131.839 47.84 131.503 47.112 130.991 46.552C130.479 45.976 129.719 45.688 128.711 45.688C127.703 45.688 126.943 45.976 126.431 46.552C125.919 47.112 125.575 47.84 125.399 48.736C125.239 49.632 125.159 50.728 125.159 52.024C125.159 53.368 125.239 54.496 125.399 55.408C125.559 56.32 125.895 57.056 126.407 57.616C126.935 58.176 127.703 58.456 128.711 58.456C129.719 58.456 130.479 58.176 130.991 57.616C131.519 57.056 131.863 56.32 132.023 55.408C132.183 54.496 132.263 53.368 132.263 52.024ZM137.846 52.024C137.846 49.256 138.31 47.096 139.238 45.544C140.182 43.976 141.798 43.192 144.086 43.192C146.374 43.192 147.982 43.976 148.91 45.544C149.854 47.096 150.326 49.256 150.326 52.024C150.326 54.824 149.854 57.016 148.91 58.6C147.982 60.168 146.374 60.952 144.086 60.952C141.798 60.952 140.182 60.168 139.238 58.6C138.31 57.016 137.846 54.824 137.846 52.024ZM147.638 52.024C147.638 50.728 147.55 49.632 147.374 48.736C147.214 47.84 146.878 47.112 146.366 46.552C145.854 45.976 145.094 45.688 144.086 45.688C143.078 45.688 142.318 45.976 141.806 46.552C141.294 47.112 140.95 47.84 140.774 48.736C140.614 49.632 140.534 50.728 140.534 52.024C140.534 53.368 140.614 54.496 140.774 55.408C140.934 56.32 141.27 57.056 141.782 57.616C142.31 58.176 143.078 58.456 144.086 58.456C145.094 58.456 145.854 58.176 146.366 57.616C146.894 57.056 147.238 56.32 147.398 55.408C147.558 54.496 147.638 53.368 147.638 52.024Z" fill="black"/>
</svg>
