<svg width="199" height="71" viewBox="0 0 199 71" fill="none" xmlns="http://www.w3.org/2000/svg">
<path d="M6.288 18.112C5.25333 18.112 4.30933 17.872 3.456 17.392C2.60267 16.9013 1.92533 16.224 1.424 15.36C0.933333 14.4853 0.688 13.504 0.688 12.416C0.688 11.328 0.933333 10.352 1.424 9.488C1.92533 8.61333 2.60267 7.936 3.456 7.456C4.30933 6.96533 5.25333 6.72 6.288 6.72C7.33333 6.72 8.28267 6.96533 9.136 7.456C9.98933 7.936 10.6613 8.608 11.152 9.472C11.6427 10.336 11.888 11.3173 11.888 12.416C11.888 13.5147 11.6427 14.496 11.152 15.36C10.6613 16.224 9.98933 16.9013 9.136 17.392C8.28267 17.872 7.33333 18.112 6.288 18.112ZM6.288 16.848C7.06667 16.848 7.76533 16.6667 8.384 16.304C9.01333 15.9413 9.504 15.424 9.856 14.752C10.2187 14.08 10.4 13.3013 10.4 12.416C10.4 11.52 10.2187 10.7413 9.856 10.08C9.504 9.408 9.01867 8.89067 8.4 8.528C7.78133 8.16533 7.07733 7.984 6.288 7.984C5.49867 7.984 4.79467 8.16533 4.176 8.528C3.55733 8.89067 3.06667 9.408 2.704 10.08C2.352 10.7413 2.176 11.52 2.176 12.416C2.176 13.3013 2.352 14.08 2.704 14.752C3.06667 15.424 3.55733 15.9413 4.176 16.304C4.80533 16.6667 5.50933 16.848 6.288 16.848ZM21.5861 9.232V18H20.1301V16.704C19.8528 17.152 19.4635 17.504 18.9621 17.76C18.4715 18.0053 17.9275 18.128 17.3301 18.128C16.6475 18.128 16.0341 17.9893 15.4901 17.712C14.9461 17.424 14.5141 16.9973 14.1941 16.432C13.8848 15.8667 13.7301 15.1787 13.7301 14.368V9.232H15.1701V14.176C15.1701 15.04 15.3888 15.7067 15.8261 16.176C16.2635 16.6347 16.8608 16.864 17.6181 16.864C18.3968 16.864 19.0101 16.624 19.4581 16.144C19.9061 15.664 20.1301 14.9653 20.1301 14.048V9.232H21.5861ZM25.8205 10.432V15.6C25.8205 16.0267 25.9112 16.3307 26.0925 16.512C26.2738 16.6827 26.5885 16.768 27.0365 16.768H28.1085V18H26.7965C25.9858 18 25.3778 17.8133 24.9725 17.44C24.5672 17.0667 24.3645 16.4533 24.3645 15.6V10.432H23.2285V9.232H24.3645V7.024H25.8205V9.232H28.1085V10.432H25.8205ZM29.3286 13.584C29.3286 12.688 29.51 11.904 29.8726 11.232C30.2353 10.5493 30.7313 10.0213 31.3606 9.648C32.0006 9.27467 32.7153 9.088 33.5046 9.088C34.1873 9.088 34.822 9.248 35.4086 9.568C35.9953 9.87733 36.4433 10.288 36.7526 10.8V6.16H38.2246V18H36.7526V16.352C36.4646 16.8747 36.038 17.3067 35.4726 17.648C34.9073 17.9787 34.246 18.144 33.4886 18.144C32.71 18.144 32.0006 17.952 31.3606 17.568C30.7313 17.184 30.2353 16.6453 29.8726 15.952C29.51 15.2587 29.3286 14.4693 29.3286 13.584ZM36.7526 13.6C36.7526 12.9387 36.6193 12.3627 36.3526 11.872C36.086 11.3813 35.7233 11.008 35.2646 10.752C34.8166 10.4853 34.3206 10.352 33.7766 10.352C33.2326 10.352 32.7366 10.48 32.2886 10.736C31.8406 10.992 31.4833 11.3653 31.2166 11.856C30.95 12.3467 30.8166 12.9227 30.8166 13.584C30.8166 14.256 30.95 14.8427 31.2166 15.344C31.4833 15.8347 31.8406 16.2133 32.2886 16.48C32.7366 16.736 33.2326 16.864 33.7766 16.864C34.3206 16.864 34.8166 16.736 35.2646 16.48C35.7233 16.2133 36.086 15.8347 36.3526 15.344C36.6193 14.8427 36.7526 14.2613 36.7526 13.6ZM44.5091 18.144C43.6878 18.144 42.9411 17.9573 42.2691 17.584C41.6078 17.2107 41.0851 16.6827 40.7011 16C40.3278 15.3067 40.1411 14.5067 40.1411 13.6C40.1411 12.704 40.3331 11.9147 40.7171 11.232C41.1118 10.5387 41.6451 10.0107 42.3171 9.648C42.9891 9.27467 43.7411 9.088 44.5731 9.088C45.4051 9.088 46.1571 9.27467 46.8291 9.648C47.5011 10.0107 48.0291 10.5333 48.4131 11.216C48.8078 11.8987 49.0051 12.6933 49.0051 13.6C49.0051 14.5067 48.8025 15.3067 48.3971 16C48.0025 16.6827 47.4638 17.2107 46.7811 17.584C46.0985 17.9573 45.3411 18.144 44.5091 18.144ZM44.5091 16.864C45.0318 16.864 45.5225 16.7413 45.9811 16.496C46.4398 16.2507 46.8078 15.8827 47.0851 15.392C47.3731 14.9013 47.5171 14.304 47.5171 13.6C47.5171 12.896 47.3785 12.2987 47.1011 11.808C46.8238 11.3173 46.4611 10.9547 46.0131 10.72C45.5651 10.4747 45.0798 10.352 44.5571 10.352C44.0238 10.352 43.5331 10.4747 43.0851 10.72C42.6478 10.9547 42.2958 11.3173 42.0291 11.808C41.7625 12.2987 41.6291 12.896 41.6291 13.6C41.6291 14.3147 41.7571 14.9173 42.0131 15.408C42.2798 15.8987 42.6318 16.2667 43.0691 16.512C43.5065 16.7467 43.9865 16.864 44.5091 16.864ZM54.7435 18.144C53.9222 18.144 53.1755 17.9573 52.5035 17.584C51.8422 17.2107 51.3195 16.6827 50.9355 16C50.5622 15.3067 50.3755 14.5067 50.3755 13.6C50.3755 12.704 50.5675 11.9147 50.9515 11.232C51.3462 10.5387 51.8795 10.0107 52.5515 9.648C53.2235 9.27467 53.9755 9.088 54.8075 9.088C55.6395 9.088 56.3915 9.27467 57.0635 9.648C57.7355 10.0107 58.2635 10.5333 58.6475 11.216C59.0422 11.8987 59.2395 12.6933 59.2395 13.6C59.2395 14.5067 59.0368 15.3067 58.6315 16C58.2368 16.6827 57.6982 17.2107 57.0155 17.584C56.3328 17.9573 55.5755 18.144 54.7435 18.144ZM54.7435 16.864C55.2662 16.864 55.7568 16.7413 56.2155 16.496C56.6742 16.2507 57.0422 15.8827 57.3195 15.392C57.6075 14.9013 57.7515 14.304 57.7515 13.6C57.7515 12.896 57.6128 12.2987 57.3355 11.808C57.0582 11.3173 56.6955 10.9547 56.2475 10.72C55.7995 10.4747 55.3142 10.352 54.7915 10.352C54.2582 10.352 53.7675 10.4747 53.3195 10.72C52.8822 10.9547 52.5302 11.3173 52.2635 11.808C51.9968 12.2987 51.8635 12.896 51.8635 13.6C51.8635 14.3147 51.9915 14.9173 52.2475 15.408C52.5142 15.8987 52.8662 16.2667 53.3035 16.512C53.7408 16.7467 54.2208 16.864 54.7435 16.864ZM62.6099 10.656C62.8659 10.1547 63.2285 9.76533 63.6979 9.488C64.1779 9.21067 64.7592 9.072 65.4419 9.072V10.576H65.0579C63.4259 10.576 62.6099 11.4613 62.6099 13.232V18H61.1539V9.232H62.6099V10.656ZM74.4923 18.144C73.8203 18.144 73.2176 18.032 72.6843 17.808C72.1509 17.5733 71.7296 17.2533 71.4203 16.848C71.1109 16.432 70.9403 15.9573 70.9083 15.424H72.4123C72.4549 15.8613 72.6576 16.2187 73.0203 16.496C73.3936 16.7733 73.8789 16.912 74.4763 16.912C75.0309 16.912 75.4683 16.7893 75.7883 16.544C76.1083 16.2987 76.2683 15.9893 76.2683 15.616C76.2683 15.232 76.0976 14.9493 75.7563 14.768C75.4149 14.576 74.8869 14.3893 74.1723 14.208C73.5216 14.0373 72.9883 13.8667 72.5723 13.696C72.1669 13.5147 71.8149 13.2533 71.5163 12.912C71.2283 12.56 71.0843 12.1013 71.0843 11.536C71.0843 11.088 71.2176 10.6773 71.4843 10.304C71.7509 9.93067 72.1296 9.63733 72.6203 9.424C73.1109 9.2 73.6709 9.088 74.3003 9.088C75.2709 9.088 76.0549 9.33333 76.6523 9.824C77.2496 10.3147 77.5696 10.9867 77.6123 11.84H76.1563C76.1243 11.3813 75.9376 11.0133 75.5963 10.736C75.2656 10.4587 74.8176 10.32 74.2523 10.32C73.7296 10.32 73.3136 10.432 73.0043 10.656C72.6949 10.88 72.5403 11.1733 72.5403 11.536C72.5403 11.824 72.6309 12.064 72.8123 12.256C73.0043 12.4373 73.2389 12.5867 73.5163 12.704C73.8043 12.8107 74.1989 12.9333 74.7003 13.072C75.3296 13.2427 75.8416 13.4133 76.2363 13.584C76.6309 13.744 76.9669 13.9893 77.2443 14.32C77.5323 14.6507 77.6816 15.0827 77.6923 15.616C77.6923 16.096 77.5589 16.528 77.2923 16.912C77.0256 17.296 76.6469 17.6 76.1563 17.824C75.6763 18.0373 75.1216 18.144 74.4923 18.144ZM83.5716 18.144C82.7503 18.144 82.0036 17.9573 81.3316 17.584C80.6703 17.2107 80.1476 16.6827 79.7636 16C79.3903 15.3067 79.2036 14.5067 79.2036 13.6C79.2036 12.704 79.3956 11.9147 79.7796 11.232C80.1743 10.5387 80.7076 10.0107 81.3796 9.648C82.0516 9.27467 82.8036 9.088 83.6356 9.088C84.4676 9.088 85.2196 9.27467 85.8916 9.648C86.5636 10.0107 87.0916 10.5333 87.4756 11.216C87.8703 11.8987 88.0676 12.6933 88.0676 13.6C88.0676 14.5067 87.865 15.3067 87.4596 16C87.065 16.6827 86.5263 17.2107 85.8436 17.584C85.161 17.9573 84.4036 18.144 83.5716 18.144ZM83.5716 16.864C84.0943 16.864 84.585 16.7413 85.0436 16.496C85.5023 16.2507 85.8703 15.8827 86.1476 15.392C86.4356 14.9013 86.5796 14.304 86.5796 13.6C86.5796 12.896 86.441 12.2987 86.1636 11.808C85.8863 11.3173 85.5236 10.9547 85.0756 10.72C84.6276 10.4747 84.1423 10.352 83.6196 10.352C83.0863 10.352 82.5956 10.4747 82.1476 10.72C81.7103 10.9547 81.3583 11.3173 81.0916 11.808C80.825 12.2987 80.6916 12.896 80.6916 13.6C80.6916 14.3147 80.8196 14.9173 81.0756 15.408C81.3423 15.8987 81.6943 16.2667 82.1316 16.512C82.569 16.7467 83.049 16.864 83.5716 16.864ZM93.55 10.432H91.71V18H90.254V10.432H89.118V9.232H90.254V8.608C90.254 7.62667 90.5047 6.912 91.006 6.464C91.518 6.00533 92.334 5.776 93.454 5.776V6.992C92.814 6.992 92.3607 7.12 92.094 7.376C91.838 7.62133 91.71 8.032 91.71 8.608V9.232H93.55V10.432ZM94.7036 13.584C94.7036 12.688 94.885 11.904 95.2476 11.232C95.6103 10.5493 96.1063 10.0213 96.7356 9.648C97.3756 9.27467 98.085 9.088 98.8636 9.088C99.6316 9.088 100.298 9.25333 100.864 9.584C101.429 9.91467 101.85 10.3307 102.128 10.832V9.232H103.6V18H102.128V16.368C101.84 16.88 101.408 17.3067 100.832 17.648C100.266 17.9787 99.605 18.144 98.8476 18.144C98.069 18.144 97.365 17.952 96.7356 17.568C96.1063 17.184 95.6103 16.6453 95.2476 15.952C94.885 15.2587 94.7036 14.4693 94.7036 13.584ZM102.128 13.6C102.128 12.9387 101.994 12.3627 101.728 11.872C101.461 11.3813 101.098 11.008 100.64 10.752C100.192 10.4853 99.6956 10.352 99.1516 10.352C98.6076 10.352 98.1116 10.48 97.6636 10.736C97.2156 10.992 96.8583 11.3653 96.5916 11.856C96.325 12.3467 96.1916 12.9227 96.1916 13.584C96.1916 14.256 96.325 14.8427 96.5916 15.344C96.8583 15.8347 97.2156 16.2133 97.6636 16.48C98.1116 16.736 98.6076 16.864 99.1516 16.864C99.6956 16.864 100.192 16.736 100.64 16.48C101.098 16.2133 101.461 15.8347 101.728 15.344C101.994 14.8427 102.128 14.2613 102.128 13.6ZM113.43 18.144C112.758 18.144 112.155 18.032 111.622 17.808C111.088 17.5733 110.667 17.2533 110.358 16.848C110.048 16.432 109.878 15.9573 109.846 15.424H111.35C111.392 15.8613 111.595 16.2187 111.958 16.496C112.331 16.7733 112.816 16.912 113.414 16.912C113.968 16.912 114.406 16.7893 114.726 16.544C115.046 16.2987 115.206 15.9893 115.206 15.616C115.206 15.232 115.035 14.9493 114.694 14.768C114.352 14.576 113.824 14.3893 113.11 14.208C112.459 14.0373 111.926 13.8667 111.51 13.696C111.104 13.5147 110.752 13.2533 110.454 12.912C110.166 12.56 110.022 12.1013 110.022 11.536C110.022 11.088 110.155 10.6773 110.422 10.304C110.688 9.93067 111.067 9.63733 111.558 9.424C112.048 9.2 112.608 9.088 113.238 9.088C114.208 9.088 114.992 9.33333 115.59 9.824C116.187 10.3147 116.507 10.9867 116.55 11.84H115.094C115.062 11.3813 114.875 11.0133 114.534 10.736C114.203 10.4587 113.755 10.32 113.19 10.32C112.667 10.32 112.251 10.432 111.942 10.656C111.632 10.88 111.478 11.1733 111.478 11.536C111.478 11.824 111.568 12.064 111.75 12.256C111.942 12.4373 112.176 12.5867 112.454 12.704C112.742 12.8107 113.136 12.9333 113.638 13.072C114.267 13.2427 114.779 13.4133 115.174 13.584C115.568 13.744 115.904 13.9893 116.182 14.32C116.47 14.6507 116.619 15.0827 116.63 15.616C116.63 16.096 116.496 16.528 116.23 16.912C115.963 17.296 115.584 17.6 115.094 17.824C114.614 18.0373 114.059 18.144 113.43 18.144ZM126.685 13.28C126.685 13.5573 126.669 13.8507 126.637 14.16H119.629C119.682 15.024 119.976 15.7013 120.509 16.192C121.053 16.672 121.709 16.912 122.477 16.912C123.106 16.912 123.629 16.768 124.045 16.48C124.472 16.1813 124.77 15.7867 124.941 15.296H126.509C126.274 16.1387 125.805 16.8267 125.101 17.36C124.397 17.8827 123.522 18.144 122.477 18.144C121.645 18.144 120.898 17.9573 120.237 17.584C119.586 17.2107 119.074 16.6827 118.701 16C118.328 15.3067 118.141 14.5067 118.141 13.6C118.141 12.6933 118.322 11.8987 118.685 11.216C119.048 10.5333 119.554 10.0107 120.205 9.648C120.866 9.27467 121.624 9.088 122.477 9.088C123.309 9.088 124.045 9.26933 124.685 9.632C125.325 9.99467 125.816 10.496 126.157 11.136C126.509 11.7653 126.685 12.48 126.685 13.28ZM125.181 12.976C125.181 12.4213 125.058 11.9467 124.813 11.552C124.568 11.1467 124.232 10.8427 123.805 10.64C123.389 10.4267 122.925 10.32 122.413 10.32C121.677 10.32 121.048 10.5547 120.525 11.024C120.013 11.4933 119.72 12.144 119.645 12.976H125.181ZM130.383 10.432V15.6C130.383 16.0267 130.474 16.3307 130.655 16.512C130.836 16.6827 131.151 16.768 131.599 16.768H132.671V18H131.359C130.548 18 129.94 17.8133 129.535 17.44C129.13 17.0667 128.927 16.4533 128.927 15.6V10.432H127.791V9.232H128.927V7.024H130.383V9.232H132.671V10.432H130.383Z" fill="black"/>
<path d="M10.464 61L6.624 54.328H4.536V61H1.8V44.32H7.56C8.84 44.32 9.92 44.544 10.8 44.992C11.696 45.44 12.36 46.04 12.792 46.792C13.24 47.544 13.464 48.384 13.464 49.312C13.464 50.4 13.144 51.392 12.504 52.288C11.88 53.168 10.912 53.768 9.6 54.088L13.728 61H10.464ZM4.536 52.144H7.56C8.584 52.144 9.352 51.888 9.864 51.376C10.392 50.864 10.656 50.176 10.656 49.312C10.656 48.448 10.4 47.776 9.888 47.296C9.376 46.8 8.6 46.552 7.56 46.552H4.536V52.144ZM21.7641 61.216C20.7241 61.216 19.7881 61.032 18.9561 60.664C18.1401 60.28 17.4921 59.768 17.0121 59.128C16.5321 58.472 16.2761 57.744 16.2441 56.944H19.0761C19.1241 57.504 19.3881 57.976 19.8681 58.36C20.3641 58.728 20.9801 58.912 21.7161 58.912C22.4841 58.912 23.0761 58.768 23.4921 58.48C23.9241 58.176 24.1401 57.792 24.1401 57.328C24.1401 56.832 23.9001 56.464 23.4201 56.224C22.9561 55.984 22.2121 55.72 21.1881 55.432C20.1961 55.16 19.3881 54.896 18.7641 54.64C18.1401 54.384 17.5961 53.992 17.1321 53.464C16.6841 52.936 16.4601 52.24 16.4601 51.376C16.4601 50.672 16.6681 50.032 17.0841 49.456C17.5001 48.864 18.0921 48.4 18.8601 48.064C19.6441 47.728 20.5401 47.56 21.5481 47.56C23.0521 47.56 24.2601 47.944 25.1721 48.712C26.1001 49.464 26.5961 50.496 26.6601 51.808H23.9241C23.8761 51.216 23.6361 50.744 23.2041 50.392C22.7721 50.04 22.1881 49.864 21.4521 49.864C20.7321 49.864 20.1801 50 19.7961 50.272C19.4121 50.544 19.2201 50.904 19.2201 51.352C19.2201 51.704 19.3481 52 19.6041 52.24C19.8601 52.48 20.1721 52.672 20.5401 52.816C20.9081 52.944 21.4521 53.112 22.1721 53.32C23.1321 53.576 23.9161 53.84 24.5241 54.112C25.1481 54.368 25.6841 54.752 26.1321 55.264C26.5801 55.776 26.8121 56.456 26.8281 57.304C26.8281 58.056 26.6201 58.728 26.2041 59.32C25.7881 59.912 25.1961 60.376 24.4281 60.712C23.6761 61.048 22.7881 61.216 21.7641 61.216ZM30.8884 61.168C30.3924 61.168 29.9764 61 29.6404 60.664C29.3044 60.328 29.1364 59.912 29.1364 59.416C29.1364 58.92 29.3044 58.504 29.6404 58.168C29.9764 57.832 30.3924 57.664 30.8884 57.664C31.3684 57.664 31.7764 57.832 32.1124 58.168C32.4484 58.504 32.6164 58.92 32.6164 59.416C32.6164 59.912 32.4484 60.328 32.1124 60.664C31.7764 61 31.3684 61.168 30.8884 61.168ZM42.9598 57.28C44.4958 55.952 45.7038 54.864 46.5838 54.016C47.4798 53.152 48.2238 52.256 48.8158 51.328C49.4078 50.4 49.7038 49.472 49.7038 48.544C49.7038 47.584 49.4718 46.832 49.0078 46.288C48.5598 45.744 47.8478 45.472 46.8718 45.472C45.9278 45.472 45.1918 45.776 44.6638 46.384C44.1518 46.976 43.8798 47.776 43.8478 48.784H41.2078C41.2558 46.96 41.7998 45.568 42.8398 44.608C43.8958 43.632 45.2318 43.144 46.8478 43.144C48.5918 43.144 49.9518 43.624 50.9278 44.584C51.9198 45.544 52.4158 46.824 52.4158 48.424C52.4158 49.576 52.1198 50.688 51.5278 51.76C50.9518 52.816 50.2558 53.768 49.4398 54.616C48.6398 55.448 47.6158 56.416 46.3678 57.52L45.2878 58.48H52.8958V60.76H41.2318V58.768L42.9598 57.28ZM54.9634 57.352V55.288L63.0274 43.72H66.3394V54.976H68.5714V57.352H66.3394V61H63.6514V57.352H54.9634ZM63.7714 46.504L58.1074 54.976H63.7714V46.504ZM70.5024 57.352V55.288L78.5664 43.72H81.8784V54.976H84.1104V57.352H81.8784V61H79.1904V57.352H70.5024ZM79.3104 46.504L73.6464 54.976H79.3104V46.504ZM89.7375 57.712L86.8335 64.336H85.0575L86.7615 57.712H89.7375ZM91.7681 52.024C91.7681 49.256 92.2321 47.096 93.1601 45.544C94.1041 43.976 95.7201 43.192 98.0081 43.192C100.296 43.192 101.904 43.976 102.832 45.544C103.776 47.096 104.248 49.256 104.248 52.024C104.248 54.824 103.776 57.016 102.832 58.6C101.904 60.168 100.296 60.952 98.0081 60.952C95.7201 60.952 94.1041 60.168 93.1601 58.6C92.2321 57.016 91.7681 54.824 91.7681 52.024ZM101.56 52.024C101.56 50.728 101.472 49.632 101.296 48.736C101.136 47.84 100.8 47.112 100.288 46.552C99.7761 45.976 99.0161 45.688 98.0081 45.688C97.0001 45.688 96.2401 45.976 95.7281 46.552C95.2161 47.112 94.8721 47.84 94.6961 48.736C94.5361 49.632 94.4561 50.728 94.4561 52.024C94.4561 53.368 94.5361 54.496 94.6961 55.408C94.8561 56.32 95.1921 57.056 95.7041 57.616C96.2321 58.176 97.0001 58.456 98.0081 58.456C99.0161 58.456 99.7761 58.176 100.288 57.616C100.816 57.056 101.16 56.32 101.32 55.408C101.48 54.496 101.56 53.368 101.56 52.024ZM107.143 52.024C107.143 49.256 107.607 47.096 108.535 45.544C109.479 43.976 111.095 43.192 113.383 43.192C115.671 43.192 117.279 43.976 118.207 45.544C119.151 47.096 119.623 49.256 119.623 52.024C119.623 54.824 119.151 57.016 118.207 58.6C117.279 60.168 115.671 60.952 113.383 60.952C111.095 60.952 109.479 60.168 108.535 58.6C107.607 57.016 107.143 54.824 107.143 52.024ZM116.935 52.024C116.935 50.728 116.847 49.632 116.671 48.736C116.511 47.84 116.175 47.112 115.663 46.552C115.151 45.976 114.391 45.688 113.383 45.688C112.375 45.688 111.615 45.976 111.103 46.552C110.591 47.112 110.247 47.84 110.071 48.736C109.911 49.632 109.831 50.728 109.831 52.024C109.831 53.368 109.911 54.496 110.071 55.408C110.231 56.32 110.567 57.056 111.079 57.616C111.607 58.176 112.375 58.456 113.383 58.456C114.391 58.456 115.151 58.176 115.663 57.616C116.191 57.056 116.535 56.32 116.695 55.408C116.855 54.496 116.935 53.368 116.935 52.024ZM122.518 52.024C122.518 49.256 122.982 47.096 123.91 45.544C124.854 43.976 126.47 43.192 128.758 43.192C131.046 43.192 132.654 43.976 133.582 45.544C134.526 47.096 134.998 49.256 134.998 52.024C134.998 54.824 134.526 57.016 133.582 58.6C132.654 60.168 131.046 60.952 128.758 60.952C126.47 60.952 124.854 60.168 123.91 58.6C122.982 57.016 122.518 54.824 122.518 52.024ZM132.31 52.024C132.31 50.728 132.222 49.632 132.046 48.736C131.886 47.84 131.55 47.112 131.038 46.552C130.526 45.976 129.766 45.688 128.758 45.688C127.75 45.688 126.99 45.976 126.478 46.552C125.966 47.112 125.622 47.84 125.446 48.736C125.286 49.632 125.206 50.728 125.206 52.024C125.206 53.368 125.286 54.496 125.446 55.408C125.606 56.32 125.942 57.056 126.454 57.616C126.982 58.176 127.75 58.456 128.758 58.456C129.766 58.456 130.526 58.176 131.038 57.616C131.566 57.056 131.91 56.32 132.07 55.408C132.23 54.496 132.31 53.368 132.31 52.024ZM139.357 61.168C138.861 61.168 138.445 61 138.109 60.664C137.773 60.328 137.605 59.912 137.605 59.416C137.605 58.92 137.773 58.504 138.109 58.168C138.445 57.832 138.861 57.664 139.357 57.664C139.837 57.664 140.245 57.832 140.581 58.168C140.917 58.504 141.085 58.92 141.085 59.416C141.085 59.912 140.917 60.328 140.581 60.664C140.245 61 139.837 61.168 139.357 61.168ZM143.682 52.024C143.682 49.256 144.146 47.096 145.074 45.544C146.018 43.976 147.634 43.192 149.922 43.192C152.21 43.192 153.818 43.976 154.746 45.544C155.69 47.096 156.162 49.256 156.162 52.024C156.162 54.824 155.69 57.016 154.746 58.6C153.818 60.168 152.21 60.952 149.922 60.952C147.634 60.952 146.018 60.168 145.074 58.6C144.146 57.016 143.682 54.824 143.682 52.024ZM153.474 52.024C153.474 50.728 153.386 49.632 153.21 48.736C153.05 47.84 152.714 47.112 152.202 46.552C151.69 45.976 150.93 45.688 149.922 45.688C148.914 45.688 148.154 45.976 147.642 46.552C147.13 47.112 146.786 47.84 146.61 48.736C146.45 49.632 146.37 50.728 146.37 52.024C146.37 53.368 146.45 54.496 146.61 55.408C146.77 56.32 147.106 57.056 147.618 57.616C148.146 58.176 148.914 58.456 149.922 58.456C150.93 58.456 151.69 58.176 152.202 57.616C152.73 57.056 153.074 56.32 153.234 55.408C153.394 54.496 153.474 53.368 153.474 52.024ZM159.057 52.024C159.057 49.256 159.521 47.096 160.449 45.544C161.393 43.976 163.009 43.192 165.297 43.192C167.585 43.192 169.193 43.976 170.121 45.544C171.065 47.096 171.537 49.256 171.537 52.024C171.537 54.824 171.065 57.016 170.121 58.6C169.193 60.168 167.585 60.952 165.297 60.952C163.009 60.952 161.393 60.168 160.449 58.6C159.521 57.016 159.057 54.824 159.057 52.024ZM168.849 52.024C168.849 50.728 168.761 49.632 168.585 48.736C168.425 47.84 168.089 47.112 167.577 46.552C167.065 45.976 166.305 45.688 165.297 45.688C164.289 45.688 163.529 45.976 163.017 46.552C162.505 47.112 162.161 47.84 161.985 48.736C161.825 49.632 161.745 50.728 161.745 52.024C161.745 53.368 161.825 54.496 161.985 55.408C162.145 56.32 162.481 57.056 162.993 57.616C163.521 58.176 164.289 58.456 165.297 58.456C166.305 58.456 167.065 58.176 167.577 57.616C168.105 57.056 168.449 56.32 168.609 55.408C168.769 54.496 168.849 53.368 168.849 52.024Z" fill="black"/>
</svg>
