<svg width="212" height="71" viewBox="0 0 212 71" fill="none" xmlns="http://www.w3.org/2000/svg">
<path d="M7.28 18L2.688 12.912V18H1.232V6.848H2.688V12.016L7.296 6.848H9.136L4.08 12.432L9.184 18H7.28ZM18.8101 13.28C18.8101 13.5573 18.7941 13.8507 18.7621 14.16H11.7541C11.8075 15.024 12.1008 15.7013 12.6341 16.192C13.1781 16.672 13.8341 16.912 14.6021 16.912C15.2315 16.912 15.7541 16.768 16.1701 16.48C16.5968 16.1813 16.8955 15.7867 17.0661 15.296H18.6341C18.3995 16.1387 17.9301 16.8267 17.2261 17.36C16.5221 17.8827 15.6475 18.144 14.6021 18.144C13.7701 18.144 13.0235 17.9573 12.3621 17.584C11.7115 17.2107 11.1995 16.6827 10.8261 16C10.4528 15.3067 10.2661 14.5067 10.2661 13.6C10.2661 12.6933 10.4475 11.8987 10.8101 11.216C11.1728 10.5333 11.6795 10.0107 12.3301 9.648C12.9915 9.27467 13.7488 9.088 14.6021 9.088C15.4341 9.088 16.1701 9.26933 16.8101 9.632C17.4501 9.99467 17.9408 10.496 18.2821 11.136C18.6341 11.7653 18.8101 12.48 18.8101 13.28ZM17.3061 12.976C17.3061 12.4213 17.1835 11.9467 16.9381 11.552C16.6928 11.1467 16.3568 10.8427 15.9301 10.64C15.5141 10.4267 15.0501 10.32 14.5381 10.32C13.8021 10.32 13.1728 10.5547 12.6501 11.024C12.1381 11.4933 11.8448 12.144 11.7701 12.976H17.3061ZM25.004 9.072C26.0707 9.072 26.9347 9.39733 27.596 10.048C28.2573 10.688 28.588 11.616 28.588 12.832V18H27.148V13.04C27.148 12.1653 26.9293 11.4987 26.492 11.04C26.0547 10.5707 25.4573 10.336 24.7 10.336C23.932 10.336 23.3187 10.576 22.86 11.056C22.412 11.536 22.188 12.2347 22.188 13.152V18H20.732V9.232H22.188V10.48C22.476 10.032 22.8653 9.68533 23.356 9.44C23.8573 9.19467 24.4067 9.072 25.004 9.072ZM32.7424 10.432V15.6C32.7424 16.0267 32.833 16.3307 33.0144 16.512C33.1957 16.6827 33.5104 16.768 33.9584 16.768H35.0304V18H33.7184C32.9077 18 32.2997 17.8133 31.8944 17.44C31.489 17.0667 31.2864 16.4533 31.2864 15.6V10.432H30.1504V9.232H31.2864V7.024H32.7424V9.232H35.0304V10.432H32.7424ZM40.5161 13.6C40.5161 12.6933 40.6975 11.904 41.0601 11.232C41.4228 10.5493 41.9241 10.0213 42.5641 9.648C43.2148 9.27467 43.9561 9.088 44.7881 9.088C45.8655 9.088 46.7508 9.34933 47.4441 9.872C48.1481 10.3947 48.6121 11.12 48.8361 12.048H47.2681C47.1188 11.5147 46.8255 11.0933 46.3881 10.784C45.9615 10.4747 45.4281 10.32 44.7881 10.32C43.9561 10.32 43.2841 10.608 42.7721 11.184C42.2601 11.7493 42.0041 12.5547 42.0041 13.6C42.0041 14.656 42.2601 15.472 42.7721 16.048C43.2841 16.624 43.9561 16.912 44.7881 16.912C45.4281 16.912 45.9615 16.7627 46.3881 16.464C46.8148 16.1653 47.1081 15.7387 47.2681 15.184H48.8361C48.6015 16.08 48.1321 16.8 47.4281 17.344C46.7241 17.8773 45.8441 18.144 44.7881 18.144C43.9561 18.144 43.2148 17.9573 42.5641 17.584C41.9241 17.2107 41.4228 16.6827 41.0601 16C40.6975 15.3173 40.5161 14.5173 40.5161 13.6ZM54.6029 18.144C53.7815 18.144 53.0349 17.9573 52.3629 17.584C51.7015 17.2107 51.1789 16.6827 50.7949 16C50.4215 15.3067 50.2349 14.5067 50.2349 13.6C50.2349 12.704 50.4269 11.9147 50.8109 11.232C51.2055 10.5387 51.7389 10.0107 52.4109 9.648C53.0829 9.27467 53.8349 9.088 54.6669 9.088C55.4989 9.088 56.2509 9.27467 56.9229 9.648C57.5949 10.0107 58.1229 10.5333 58.5069 11.216C58.9015 11.8987 59.0989 12.6933 59.0989 13.6C59.0989 14.5067 58.8962 15.3067 58.4909 16C58.0962 16.6827 57.5575 17.2107 56.8749 17.584C56.1922 17.9573 55.4349 18.144 54.6029 18.144ZM54.6029 16.864C55.1255 16.864 55.6162 16.7413 56.0749 16.496C56.5335 16.2507 56.9015 15.8827 57.1789 15.392C57.4669 14.9013 57.6109 14.304 57.6109 13.6C57.6109 12.896 57.4722 12.2987 57.1949 11.808C56.9175 11.3173 56.5549 10.9547 56.1069 10.72C55.6589 10.4747 55.1735 10.352 54.6509 10.352C54.1175 10.352 53.6269 10.4747 53.1789 10.72C52.7415 10.9547 52.3895 11.3173 52.1229 11.808C51.8562 12.2987 51.7229 12.896 51.7229 13.6C51.7229 14.3147 51.8509 14.9173 52.1069 15.408C52.3735 15.8987 52.7255 16.2667 53.1629 16.512C53.6002 16.7467 54.0802 16.864 54.6029 16.864ZM64.5813 10.432H62.7413V18H61.2853V10.432H60.1493V9.232H61.2853V8.608C61.2853 7.62667 61.5359 6.912 62.0373 6.464C62.5493 6.00533 63.3653 5.776 64.4852 5.776V6.992C63.8453 6.992 63.3919 7.12 63.1253 7.376C62.8693 7.62133 62.7413 8.032 62.7413 8.608V9.232H64.5813V10.432ZM69.8469 10.432H68.0069V18H66.5509V10.432H65.4149V9.232H66.5509V8.608C66.5509 7.62667 66.8015 6.912 67.3029 6.464C67.8149 6.00533 68.6309 5.776 69.7509 5.776V6.992C69.1109 6.992 68.6575 7.12 68.3909 7.376C68.1349 7.62133 68.0069 8.032 68.0069 8.608V9.232H69.8469V10.432ZM79.5445 13.28C79.5445 13.5573 79.5285 13.8507 79.4965 14.16H72.4885C72.5418 15.024 72.8352 15.7013 73.3685 16.192C73.9125 16.672 74.5685 16.912 75.3365 16.912C75.9658 16.912 76.4885 16.768 76.9045 16.48C77.3312 16.1813 77.6298 15.7867 77.8005 15.296H79.3685C79.1338 16.1387 78.6645 16.8267 77.9605 17.36C77.2565 17.8827 76.3818 18.144 75.3365 18.144C74.5045 18.144 73.7578 17.9573 73.0965 17.584C72.4458 17.2107 71.9338 16.6827 71.5605 16C71.1872 15.3067 71.0005 14.5067 71.0005 13.6C71.0005 12.6933 71.1818 11.8987 71.5445 11.216C71.9072 10.5333 72.4138 10.0107 73.0645 9.648C73.7258 9.27467 74.4832 9.088 75.3365 9.088C76.1685 9.088 76.9045 9.26933 77.5445 9.632C78.1845 9.99467 78.6752 10.496 79.0165 11.136C79.3685 11.7653 79.5445 12.48 79.5445 13.28ZM78.0405 12.976C78.0405 12.4213 77.9178 11.9467 77.6725 11.552C77.4272 11.1467 77.0912 10.8427 76.6645 10.64C76.2485 10.4267 75.7845 10.32 75.2725 10.32C74.5365 10.32 73.9072 10.5547 73.3845 11.024C72.8725 11.4933 72.5792 12.144 72.5045 12.976H78.0405ZM89.4664 13.28C89.4664 13.5573 89.4504 13.8507 89.4184 14.16H82.4104C82.4637 15.024 82.757 15.7013 83.2904 16.192C83.8344 16.672 84.4904 16.912 85.2584 16.912C85.8877 16.912 86.4104 16.768 86.8264 16.48C87.253 16.1813 87.5517 15.7867 87.7224 15.296H89.2904C89.0557 16.1387 88.5864 16.8267 87.8824 17.36C87.1784 17.8827 86.3037 18.144 85.2584 18.144C84.4264 18.144 83.6797 17.9573 83.0184 17.584C82.3677 17.2107 81.8557 16.6827 81.4824 16C81.109 15.3067 80.9224 14.5067 80.9224 13.6C80.9224 12.6933 81.1037 11.8987 81.4664 11.216C81.829 10.5333 82.3357 10.0107 82.9864 9.648C83.6477 9.27467 84.405 9.088 85.2584 9.088C86.0904 9.088 86.8264 9.26933 87.4664 9.632C88.1064 9.99467 88.597 10.496 88.9384 11.136C89.2904 11.7653 89.4664 12.48 89.4664 13.28ZM87.9624 12.976C87.9624 12.4213 87.8397 11.9467 87.5944 11.552C87.349 11.1467 87.013 10.8427 86.5864 10.64C86.1704 10.4267 85.7064 10.32 85.1944 10.32C84.4584 10.32 83.829 10.5547 83.3064 11.024C82.7944 11.4933 82.501 12.144 82.4264 12.976H87.9624ZM97.4299 10.432V15.6C97.4299 16.0267 97.5205 16.3307 97.7019 16.512C97.8832 16.6827 98.1979 16.768 98.6459 16.768H99.7179V18H98.4059C97.5952 18 96.9872 17.8133 96.5819 17.44C96.1765 17.0667 95.9739 16.4533 95.9739 15.6V10.432H94.8379V9.232H95.9739V7.024H97.4299V9.232H99.7179V10.432H97.4299ZM100.938 13.584C100.938 12.688 101.119 11.904 101.482 11.232C101.845 10.5493 102.341 10.0213 102.97 9.648C103.61 9.27467 104.319 9.088 105.098 9.088C105.866 9.088 106.533 9.25333 107.098 9.584C107.663 9.91467 108.085 10.3307 108.362 10.832V9.232H109.834V18H108.362V16.368C108.074 16.88 107.642 17.3067 107.066 17.648C106.501 17.9787 105.839 18.144 105.082 18.144C104.303 18.144 103.599 17.952 102.97 17.568C102.341 17.184 101.845 16.6453 101.482 15.952C101.119 15.2587 100.938 14.4693 100.938 13.584ZM108.362 13.6C108.362 12.9387 108.229 12.3627 107.962 11.872C107.695 11.3813 107.333 11.008 106.874 10.752C106.426 10.4853 105.93 10.352 105.386 10.352C104.842 10.352 104.346 10.48 103.898 10.736C103.45 10.992 103.093 11.3653 102.826 11.856C102.559 12.3467 102.426 12.9227 102.426 13.584C102.426 14.256 102.559 14.8427 102.826 15.344C103.093 15.8347 103.45 16.2133 103.898 16.48C104.346 16.736 104.842 16.864 105.386 16.864C105.93 16.864 106.426 16.736 106.874 16.48C107.333 16.2133 107.695 15.8347 107.962 15.344C108.229 14.8427 108.362 14.2613 108.362 13.6ZM113.751 10.864C114.049 10.3413 114.487 9.91467 115.062 9.584C115.639 9.25333 116.295 9.088 117.031 9.088C117.82 9.088 118.529 9.27467 119.159 9.648C119.788 10.0213 120.284 10.5493 120.647 11.232C121.009 11.904 121.191 12.688 121.191 13.584C121.191 14.4693 121.009 15.2587 120.647 15.952C120.284 16.6453 119.782 17.184 119.142 17.568C118.513 17.952 117.809 18.144 117.031 18.144C116.273 18.144 115.607 17.9787 115.031 17.648C114.465 17.3173 114.039 16.896 113.751 16.384V18H112.295V6.16H113.751V10.864ZM119.703 13.584C119.703 12.9227 119.569 12.3467 119.303 11.856C119.036 11.3653 118.673 10.992 118.215 10.736C117.767 10.48 117.271 10.352 116.727 10.352C116.193 10.352 115.697 10.4853 115.239 10.752C114.791 11.008 114.428 11.3867 114.151 11.888C113.884 12.3787 113.751 12.9493 113.751 13.6C113.751 14.2613 113.884 14.8427 114.151 15.344C114.428 15.8347 114.791 16.2133 115.239 16.48C115.697 16.736 116.193 16.864 116.727 16.864C117.271 16.864 117.767 16.736 118.215 16.48C118.673 16.2133 119.036 15.8347 119.303 15.344C119.569 14.8427 119.703 14.256 119.703 13.584ZM124.563 6.16V18H123.107V6.16H124.563ZM135.045 13.28C135.045 13.5573 135.029 13.8507 134.997 14.16H127.989C128.042 15.024 128.335 15.7013 128.869 16.192C129.413 16.672 130.069 16.912 130.837 16.912C131.466 16.912 131.989 16.768 132.405 16.48C132.831 16.1813 133.13 15.7867 133.301 15.296H134.869C134.634 16.1387 134.165 16.8267 133.461 17.36C132.757 17.8827 131.882 18.144 130.837 18.144C130.005 18.144 129.258 17.9573 128.597 17.584C127.946 17.2107 127.434 16.6827 127.061 16C126.687 15.3067 126.501 14.5067 126.501 13.6C126.501 12.6933 126.682 11.8987 127.045 11.216C127.407 10.5333 127.914 10.0107 128.565 9.648C129.226 9.27467 129.983 9.088 130.837 9.088C131.669 9.088 132.405 9.26933 133.045 9.632C133.685 9.99467 134.175 10.496 134.517 11.136C134.869 11.7653 135.045 12.48 135.045 13.28ZM133.541 12.976C133.541 12.4213 133.418 11.9467 133.173 11.552C132.927 11.1467 132.591 10.8427 132.165 10.64C131.749 10.4267 131.285 10.32 130.773 10.32C130.037 10.32 129.407 10.5547 128.885 11.024C128.373 11.4933 128.079 12.144 128.005 12.976H133.541Z" fill="black"/>
<path d="M10.464 61L6.624 54.328H4.536V61H1.8V44.32H7.56C8.84 44.32 9.92 44.544 10.8 44.992C11.696 45.44 12.36 46.04 12.792 46.792C13.24 47.544 13.464 48.384 13.464 49.312C13.464 50.4 13.144 51.392 12.504 52.288C11.88 53.168 10.912 53.768 9.6 54.088L13.728 61H10.464ZM4.536 52.144H7.56C8.584 52.144 9.352 51.888 9.864 51.376C10.392 50.864 10.656 50.176 10.656 49.312C10.656 48.448 10.4 47.776 9.888 47.296C9.376 46.8 8.6 46.552 7.56 46.552H4.536V52.144ZM21.7641 61.216C20.7241 61.216 19.7881 61.032 18.9561 60.664C18.1401 60.28 17.4921 59.768 17.0121 59.128C16.5321 58.472 16.2761 57.744 16.2441 56.944H19.0761C19.1241 57.504 19.3881 57.976 19.8681 58.36C20.3641 58.728 20.9801 58.912 21.7161 58.912C22.4841 58.912 23.0761 58.768 23.4921 58.48C23.9241 58.176 24.1401 57.792 24.1401 57.328C24.1401 56.832 23.9001 56.464 23.4201 56.224C22.9561 55.984 22.2121 55.72 21.1881 55.432C20.1961 55.16 19.3881 54.896 18.7641 54.64C18.1401 54.384 17.5961 53.992 17.1321 53.464C16.6841 52.936 16.4601 52.24 16.4601 51.376C16.4601 50.672 16.6681 50.032 17.0841 49.456C17.5001 48.864 18.0921 48.4 18.8601 48.064C19.6441 47.728 20.5401 47.56 21.5481 47.56C23.0521 47.56 24.2601 47.944 25.1721 48.712C26.1001 49.464 26.5961 50.496 26.6601 51.808H23.9241C23.8761 51.216 23.6361 50.744 23.2041 50.392C22.7721 50.04 22.1881 49.864 21.4521 49.864C20.7321 49.864 20.1801 50 19.7961 50.272C19.4121 50.544 19.2201 50.904 19.2201 51.352C19.2201 51.704 19.3481 52 19.6041 52.24C19.8601 52.48 20.1721 52.672 20.5401 52.816C20.9081 52.944 21.4521 53.112 22.1721 53.32C23.1321 53.576 23.9161 53.84 24.5241 54.112C25.1481 54.368 25.6841 54.752 26.1321 55.264C26.5801 55.776 26.8121 56.456 26.8281 57.304C26.8281 58.056 26.6201 58.728 26.2041 59.32C25.7881 59.912 25.1961 60.376 24.4281 60.712C23.6761 61.048 22.7881 61.216 21.7641 61.216ZM30.8884 61.168C30.3924 61.168 29.9764 61 29.6404 60.664C29.3044 60.328 29.1364 59.912 29.1364 59.416C29.1364 58.92 29.3044 58.504 29.6404 58.168C29.9764 57.832 30.3924 57.664 30.8884 57.664C31.3684 57.664 31.7764 57.832 32.1124 58.168C32.4484 58.504 32.6164 58.92 32.6164 59.416C32.6164 59.912 32.4484 60.328 32.1124 60.664C31.7764 61 31.3684 61.168 30.8884 61.168ZM42.9598 57.28C44.4958 55.952 45.7038 54.864 46.5838 54.016C47.4798 53.152 48.2238 52.256 48.8158 51.328C49.4078 50.4 49.7038 49.472 49.7038 48.544C49.7038 47.584 49.4718 46.832 49.0078 46.288C48.5598 45.744 47.8478 45.472 46.8718 45.472C45.9278 45.472 45.1918 45.776 44.6638 46.384C44.1518 46.976 43.8798 47.776 43.8478 48.784H41.2078C41.2558 46.96 41.7998 45.568 42.8398 44.608C43.8958 43.632 45.2318 43.144 46.8478 43.144C48.5918 43.144 49.9518 43.624 50.9278 44.584C51.9198 45.544 52.4158 46.824 52.4158 48.424C52.4158 49.576 52.1198 50.688 51.5278 51.76C50.9518 52.816 50.2558 53.768 49.4398 54.616C48.6398 55.448 47.6158 56.416 46.3678 57.52L45.2878 58.48H52.8958V60.76H41.2318V58.768L42.9598 57.28ZM56.8114 57.28C58.3474 55.952 59.5554 54.864 60.4354 54.016C61.3314 53.152 62.0754 52.256 62.6674 51.328C63.2594 50.4 63.5554 49.472 63.5554 48.544C63.5554 47.584 63.3234 46.832 62.8594 46.288C62.4114 45.744 61.6994 45.472 60.7234 45.472C59.7794 45.472 59.0434 45.776 58.5154 46.384C58.0034 46.976 57.7314 47.776 57.6994 48.784H55.0594C55.1074 46.96 55.6514 45.568 56.6914 44.608C57.7474 43.632 59.0834 43.144 60.6994 43.144C62.4434 43.144 63.8034 43.624 64.7794 44.584C65.7714 45.544 66.2674 46.824 66.2674 48.424C66.2674 49.576 65.9714 50.688 65.3794 51.76C64.8034 52.816 64.1074 53.768 63.2914 54.616C62.4914 55.448 61.4674 56.416 60.2194 57.52L59.1394 58.48H66.7474V60.76H55.0834V58.768L56.8114 57.28ZM80.4309 45.856H72.3909V50.632C72.7269 50.184 73.2229 49.808 73.8789 49.504C74.5509 49.2 75.2629 49.048 76.0149 49.048C77.3589 49.048 78.4469 49.336 79.2789 49.912C80.1269 50.488 80.7269 51.216 81.0789 52.096C81.4469 52.976 81.6309 53.904 81.6309 54.88C81.6309 56.064 81.3989 57.12 80.9349 58.048C80.4869 58.96 79.8069 59.68 78.8949 60.208C77.9989 60.736 76.8949 61 75.5829 61C73.8389 61 72.4389 60.568 71.3829 59.704C70.3269 58.84 69.6949 57.696 69.4869 56.272H72.1509C72.3269 57.024 72.7189 57.624 73.3269 58.072C73.9349 58.504 74.6949 58.72 75.6069 58.72C76.7429 58.72 77.5909 58.376 78.1509 57.688C78.7269 57 79.0149 56.088 79.0149 54.952C79.0149 53.8 78.7269 52.92 78.1509 52.312C77.5749 51.688 76.7269 51.376 75.6069 51.376C74.8229 51.376 74.1589 51.576 73.6149 51.976C73.0869 52.36 72.7029 52.888 72.4629 53.56H69.8709V43.456H80.4309V45.856ZM87.8391 57.712L84.9351 64.336H83.1591L84.8631 57.712H87.8391ZM89.8697 52.024C89.8697 49.256 90.3337 47.096 91.2617 45.544C92.2057 43.976 93.8217 43.192 96.1097 43.192C98.3977 43.192 100.006 43.976 100.934 45.544C101.878 47.096 102.35 49.256 102.35 52.024C102.35 54.824 101.878 57.016 100.934 58.6C100.006 60.168 98.3977 60.952 96.1097 60.952C93.8217 60.952 92.2057 60.168 91.2617 58.6C90.3337 57.016 89.8697 54.824 89.8697 52.024ZM99.6617 52.024C99.6617 50.728 99.5737 49.632 99.3977 48.736C99.2377 47.84 98.9017 47.112 98.3897 46.552C97.8777 45.976 97.1177 45.688 96.1097 45.688C95.1017 45.688 94.3417 45.976 93.8297 46.552C93.3177 47.112 92.9737 47.84 92.7977 48.736C92.6377 49.632 92.5577 50.728 92.5577 52.024C92.5577 53.368 92.6377 54.496 92.7977 55.408C92.9577 56.32 93.2937 57.056 93.8057 57.616C94.3337 58.176 95.1017 58.456 96.1097 58.456C97.1177 58.456 97.8777 58.176 98.3897 57.616C98.9177 57.056 99.2617 56.32 99.4217 55.408C99.5817 54.496 99.6617 53.368 99.6617 52.024ZM105.245 52.024C105.245 49.256 105.709 47.096 106.637 45.544C107.581 43.976 109.197 43.192 111.485 43.192C113.773 43.192 115.381 43.976 116.309 45.544C117.253 47.096 117.725 49.256 117.725 52.024C117.725 54.824 117.253 57.016 116.309 58.6C115.381 60.168 113.773 60.952 111.485 60.952C109.197 60.952 107.581 60.168 106.637 58.6C105.709 57.016 105.245 54.824 105.245 52.024ZM115.037 52.024C115.037 50.728 114.949 49.632 114.773 48.736C114.613 47.84 114.277 47.112 113.765 46.552C113.253 45.976 112.493 45.688 111.485 45.688C110.477 45.688 109.717 45.976 109.205 46.552C108.693 47.112 108.349 47.84 108.173 48.736C108.013 49.632 107.933 50.728 107.933 52.024C107.933 53.368 108.013 54.496 108.173 55.408C108.333 56.32 108.669 57.056 109.181 57.616C109.709 58.176 110.477 58.456 111.485 58.456C112.493 58.456 113.253 58.176 113.765 57.616C114.293 57.056 114.637 56.32 114.797 55.408C114.957 54.496 115.037 53.368 115.037 52.024ZM120.62 52.024C120.62 49.256 121.084 47.096 122.012 45.544C122.956 43.976 124.572 43.192 126.86 43.192C129.148 43.192 130.756 43.976 131.684 45.544C132.628 47.096 133.1 49.256 133.1 52.024C133.1 54.824 132.628 57.016 131.684 58.6C130.756 60.168 129.148 60.952 126.86 60.952C124.572 60.952 122.956 60.168 122.012 58.6C121.084 57.016 120.62 54.824 120.62 52.024ZM130.412 52.024C130.412 50.728 130.324 49.632 130.148 48.736C129.988 47.84 129.652 47.112 129.14 46.552C128.628 45.976 127.868 45.688 126.86 45.688C125.852 45.688 125.092 45.976 124.58 46.552C124.068 47.112 123.724 47.84 123.548 48.736C123.388 49.632 123.308 50.728 123.308 52.024C123.308 53.368 123.388 54.496 123.548 55.408C123.708 56.32 124.044 57.056 124.556 57.616C125.084 58.176 125.852 58.456 126.86 58.456C127.868 58.456 128.628 58.176 129.14 57.616C129.668 57.056 130.012 56.32 130.172 55.408C130.332 54.496 130.412 53.368 130.412 52.024ZM137.459 61.168C136.963 61.168 136.547 61 136.211 60.664C135.875 60.328 135.707 59.912 135.707 59.416C135.707 58.92 135.875 58.504 136.211 58.168C136.547 57.832 136.963 57.664 137.459 57.664C137.939 57.664 138.347 57.832 138.683 58.168C139.019 58.504 139.187 58.92 139.187 59.416C139.187 59.912 139.019 60.328 138.683 60.664C138.347 61 137.939 61.168 137.459 61.168ZM141.784 52.024C141.784 49.256 142.248 47.096 143.176 45.544C144.12 43.976 145.736 43.192 148.024 43.192C150.312 43.192 151.92 43.976 152.848 45.544C153.792 47.096 154.264 49.256 154.264 52.024C154.264 54.824 153.792 57.016 152.848 58.6C151.92 60.168 150.312 60.952 148.024 60.952C145.736 60.952 144.12 60.168 143.176 58.6C142.248 57.016 141.784 54.824 141.784 52.024ZM151.576 52.024C151.576 50.728 151.488 49.632 151.312 48.736C151.152 47.84 150.816 47.112 150.304 46.552C149.792 45.976 149.032 45.688 148.024 45.688C147.016 45.688 146.256 45.976 145.744 46.552C145.232 47.112 144.888 47.84 144.712 48.736C144.552 49.632 144.472 50.728 144.472 52.024C144.472 53.368 144.552 54.496 144.712 55.408C144.872 56.32 145.208 57.056 145.72 57.616C146.248 58.176 147.016 58.456 148.024 58.456C149.032 58.456 149.792 58.176 150.304 57.616C150.832 57.056 151.176 56.32 151.336 55.408C151.496 54.496 151.576 53.368 151.576 52.024ZM157.159 52.024C157.159 49.256 157.623 47.096 158.551 45.544C159.495 43.976 161.111 43.192 163.399 43.192C165.687 43.192 167.295 43.976 168.223 45.544C169.167 47.096 169.639 49.256 169.639 52.024C169.639 54.824 169.167 57.016 168.223 58.6C167.295 60.168 165.687 60.952 163.399 60.952C161.111 60.952 159.495 60.168 158.551 58.6C157.623 57.016 157.159 54.824 157.159 52.024ZM166.951 52.024C166.951 50.728 166.863 49.632 166.687 48.736C166.527 47.84 166.191 47.112 165.679 46.552C165.167 45.976 164.407 45.688 163.399 45.688C162.391 45.688 161.631 45.976 161.119 46.552C160.607 47.112 160.263 47.84 160.087 48.736C159.927 49.632 159.847 50.728 159.847 52.024C159.847 53.368 159.927 54.496 160.087 55.408C160.247 56.32 160.583 57.056 161.095 57.616C161.623 58.176 162.391 58.456 163.399 58.456C164.407 58.456 165.167 58.176 165.679 57.616C166.207 57.056 166.551 56.32 166.711 55.408C166.871 54.496 166.951 53.368 166.951 52.024Z" fill="black"/>
</svg>
