<svg width="115" height="24" viewBox="0 0 115 24" fill="none" xmlns="http://www.w3.org/2000/svg">
<path d="M10.08 6.88V18H8.256V13.136H3.024V18H1.2V6.88H3.024V11.648H8.256V6.88H10.08ZM16.3053 18.144C15.4733 18.144 14.7213 17.9573 14.0493 17.584C13.3773 17.2 12.8493 16.6667 12.4653 15.984C12.0813 15.2907 11.8893 14.4907 11.8893 13.584C11.8893 12.688 12.0866 11.8933 12.4813 11.2C12.8759 10.5067 13.4146 9.97333 14.0973 9.6C14.7799 9.22667 15.5426 9.04 16.3853 9.04C17.2279 9.04 17.9906 9.22667 18.6733 9.6C19.3559 9.97333 19.8946 10.5067 20.2893 11.2C20.6839 11.8933 20.8813 12.688 20.8813 13.584C20.8813 14.48 20.6786 15.2747 20.2733 15.968C19.8679 16.6613 19.3133 17.2 18.6093 17.584C17.9159 17.9573 17.1479 18.144 16.3053 18.144ZM16.3053 16.56C16.7746 16.56 17.2119 16.448 17.6173 16.224C18.0333 16 18.3693 15.664 18.6253 15.216C18.8813 14.768 19.0093 14.224 19.0093 13.584C19.0093 12.944 18.8866 12.4053 18.6413 11.968C18.3959 11.52 18.0706 11.184 17.6653 10.96C17.2599 10.736 16.8226 10.624 16.3533 10.624C15.8839 10.624 15.4466 10.736 15.0413 10.96C14.6466 11.184 14.3319 11.52 14.0973 11.968C13.8626 12.4053 13.7453 12.944 13.7453 13.584C13.7453 14.5333 13.9853 15.2693 14.4653 15.792C14.9559 16.304 15.5693 16.56 16.3053 16.56ZM33.3564 9.04C34.0497 9.04 34.6684 9.184 35.2124 9.472C35.767 9.76 36.199 10.1867 36.5084 10.752C36.8284 11.3173 36.9884 12 36.9884 12.8V18H35.1804V13.072C35.1804 12.2827 34.983 11.68 34.5884 11.264C34.1937 10.8373 33.655 10.624 32.9724 10.624C32.2897 10.624 31.7457 10.8373 31.3404 11.264C30.9457 11.68 30.7484 12.2827 30.7484 13.072V18H28.9404V13.072C28.9404 12.2827 28.743 11.68 28.3484 11.264C27.9537 10.8373 27.415 10.624 26.7324 10.624C26.0497 10.624 25.5057 10.8373 25.1004 11.264C24.7057 11.68 24.5084 12.2827 24.5084 13.072V18H22.6844V9.184H24.5084V10.192C24.807 9.82933 25.1857 9.54667 25.6444 9.344C26.103 9.14133 26.5937 9.04 27.1164 9.04C27.8204 9.04 28.4497 9.18933 29.0044 9.488C29.559 9.78667 29.9857 10.2187 30.2844 10.784C30.551 10.2507 30.967 9.82933 31.5324 9.52C32.0977 9.2 32.7057 9.04 33.3564 9.04ZM47.3894 13.376C47.3894 13.7067 47.368 14.0053 47.3254 14.272H40.5894C40.6427 14.976 40.904 15.5413 41.3734 15.968C41.8427 16.3947 42.4187 16.608 43.1014 16.608C44.0827 16.608 44.776 16.1973 45.1814 15.376H47.1494C46.8827 16.1867 46.3974 16.8533 45.6934 17.376C45 17.888 44.136 18.144 43.1014 18.144C42.2587 18.144 41.5014 17.9573 40.8294 17.584C40.168 17.2 39.6454 16.6667 39.2614 15.984C38.888 15.2907 38.7014 14.4907 38.7014 13.584C38.7014 12.6773 38.8827 11.8827 39.2454 11.2C39.6187 10.5067 40.136 9.97333 40.7974 9.6C41.4694 9.22667 42.2374 9.04 43.1014 9.04C43.9334 9.04 44.6747 9.22133 45.3254 9.584C45.976 9.94667 46.4827 10.4587 46.8454 11.12C47.208 11.7707 47.3894 12.5227 47.3894 13.376ZM45.4854 12.8C45.4747 12.128 45.2347 11.5893 44.7654 11.184C44.296 10.7787 43.7147 10.576 43.0214 10.576C42.392 10.576 41.8534 10.7787 41.4054 11.184C40.9574 11.5787 40.6907 12.1173 40.6054 12.8H45.4854Z" fill="black"/>
<path d="M80.768 12.4C80.768 11.3013 81.008 10.32 81.488 9.456C81.968 8.58133 82.624 7.904 83.456 7.424C84.288 6.93333 85.216 6.688 86.24 6.688C87.488 6.688 88.5547 6.98667 89.44 7.584C90.336 8.17067 90.9867 9.00267 91.392 10.08H90.08C89.76 9.32267 89.2693 8.73067 88.608 8.304C87.9573 7.87733 87.168 7.664 86.24 7.664C85.4187 7.664 84.6773 7.856 84.016 8.24C83.3653 8.624 82.8533 9.17867 82.48 9.904C82.1067 10.6187 81.92 11.4507 81.92 12.4C81.92 13.3493 82.1067 14.1813 82.48 14.896C82.8533 15.6107 83.3653 16.16 84.016 16.544C84.6773 16.928 85.4187 17.12 86.24 17.12C87.168 17.12 87.9573 16.912 88.608 16.496C89.2693 16.0693 89.76 15.4827 90.08 14.736H91.392C90.9867 15.8027 90.336 16.6293 89.44 17.216C88.544 17.8027 87.4773 18.096 86.24 18.096C85.216 18.096 84.288 17.856 83.456 17.376C82.624 16.8853 81.968 16.208 81.488 15.344C81.008 14.48 80.768 13.4987 80.768 12.4ZM93.1118 13.616C93.1118 12.72 93.2878 11.936 93.6398 11.264C94.0024 10.5813 94.4984 10.0587 95.1278 9.696C95.7678 9.32267 96.4878 9.136 97.2878 9.136C98.1198 9.136 98.8344 9.328 99.4318 9.712C100.04 10.096 100.477 10.5867 100.744 11.184V9.264H101.864V18H100.744V16.064C100.466 16.6613 100.024 17.1573 99.4158 17.552C98.8184 17.936 98.1038 18.128 97.2718 18.128C96.4824 18.128 95.7678 17.9413 95.1278 17.568C94.4984 17.1947 94.0024 16.6667 93.6398 15.984C93.2878 15.3013 93.1118 14.512 93.1118 13.616ZM100.744 13.632C100.744 12.928 100.6 12.3093 100.312 11.776C100.024 11.2427 99.6291 10.832 99.1278 10.544C98.6371 10.256 98.0931 10.112 97.4958 10.112C96.8771 10.112 96.3224 10.2507 95.8318 10.528C95.3411 10.8053 94.9518 11.2107 94.6638 11.744C94.3864 12.2667 94.2478 12.8907 94.2478 13.616C94.2478 14.3307 94.3864 14.96 94.6638 15.504C94.9518 16.0373 95.3411 16.448 95.8318 16.736C96.3224 17.0133 96.8771 17.152 97.4958 17.152C98.0931 17.152 98.6371 17.008 99.1278 16.72C99.6291 16.432 100.024 16.0213 100.312 15.488C100.6 14.9547 100.744 14.336 100.744 13.632ZM105.541 10.816C105.786 10.272 106.159 9.85067 106.661 9.552C107.173 9.25333 107.797 9.104 108.533 9.104V10.272H108.229C107.418 10.272 106.767 10.4907 106.277 10.928C105.786 11.3653 105.541 12.096 105.541 13.12V18H104.421V9.264H105.541V10.816ZM111.674 10.208V15.632C111.674 16.1653 111.775 16.5333 111.978 16.736C112.18 16.9387 112.538 17.04 113.049 17.04H114.074V18H112.874C112.084 18 111.498 17.8187 111.114 17.456C110.73 17.0827 110.538 16.4747 110.538 15.632V10.208H109.322V9.264H110.538V7.072H111.674V9.264H114.074V10.208H111.674Z" fill="black"/>
<path d="M60 17L65 12L60 7L61 5L68 12L61 19L60 17Z" fill="black"/>
</svg>
