<svg width="212" height="71" viewBox="0 0 212 71" fill="none" xmlns="http://www.w3.org/2000/svg">
<path d="M12.544 6.928V18H11.088V9.744L7.408 18H6.384L2.688 9.728V18H1.232V6.928H2.8L6.896 16.08L10.992 6.928H12.544ZM14.4693 13.584C14.4693 12.688 14.6506 11.904 15.0133 11.232C15.3759 10.5493 15.8719 10.0213 16.5013 9.648C17.1413 9.27467 17.8506 9.088 18.6293 9.088C19.3973 9.088 20.0639 9.25333 20.6293 9.584C21.1946 9.91467 21.6159 10.3307 21.8933 10.832V9.232H23.3653V18H21.8933V16.368C21.6053 16.88 21.1733 17.3067 20.5973 17.648C20.0319 17.9787 19.3706 18.144 18.6133 18.144C17.8346 18.144 17.1306 17.952 16.5013 17.568C15.8719 17.184 15.3759 16.6453 15.0133 15.952C14.6506 15.2587 14.4693 14.4693 14.4693 13.584ZM21.8933 13.6C21.8933 12.9387 21.7599 12.3627 21.4933 11.872C21.2266 11.3813 20.8639 11.008 20.4053 10.752C19.9573 10.4853 19.4613 10.352 18.9173 10.352C18.3733 10.352 17.8773 10.48 17.4293 10.736C16.9813 10.992 16.6239 11.3653 16.3573 11.856C16.0906 12.3467 15.9573 12.9227 15.9573 13.584C15.9573 14.256 16.0906 14.8427 16.3573 15.344C16.6239 15.8347 16.9813 16.2133 17.4293 16.48C17.8773 16.736 18.3733 16.864 18.9173 16.864C19.4613 16.864 19.9573 16.736 20.4053 16.48C20.8639 16.2133 21.2266 15.8347 21.4933 15.344C21.7599 14.8427 21.8933 14.2613 21.8933 13.6ZM33.3778 9.232L28.0978 22.128H26.5938L28.3218 17.904L24.7858 9.232H26.4018L29.1538 16.336L31.8738 9.232H33.3778ZM34.2974 13.584C34.2974 12.688 34.4787 11.904 34.8414 11.232C35.204 10.5493 35.7 10.0213 36.3294 9.648C36.9694 9.27467 37.6787 9.088 38.4574 9.088C39.2254 9.088 39.892 9.25333 40.4574 9.584C41.0227 9.91467 41.444 10.3307 41.7214 10.832V9.232H43.1934V18H41.7214V16.368C41.4334 16.88 41.0014 17.3067 40.4254 17.648C39.86 17.9787 39.1987 18.144 38.4414 18.144C37.6627 18.144 36.9587 17.952 36.3294 17.568C35.7 17.184 35.204 16.6453 34.8414 15.952C34.4787 15.2587 34.2974 14.4693 34.2974 13.584ZM41.7214 13.6C41.7214 12.9387 41.588 12.3627 41.3214 11.872C41.0547 11.3813 40.692 11.008 40.2334 10.752C39.7854 10.4853 39.2894 10.352 38.7454 10.352C38.2014 10.352 37.7054 10.48 37.2574 10.736C36.8094 10.992 36.452 11.3653 36.1854 11.856C35.9187 12.3467 35.7854 12.9227 35.7854 13.584C35.7854 14.256 35.9187 14.8427 36.1854 15.344C36.452 15.8347 36.8094 16.2133 37.2574 16.48C37.7054 16.736 38.2014 16.864 38.7454 16.864C39.2894 16.864 39.7854 16.736 40.2334 16.48C40.692 16.2133 41.0547 15.8347 41.3214 15.344C41.588 14.8427 41.7214 14.2613 41.7214 13.6ZM53.0235 18.144C52.3515 18.144 51.7488 18.032 51.2155 17.808C50.6822 17.5733 50.2608 17.2533 49.9515 16.848C49.6422 16.432 49.4715 15.9573 49.4395 15.424H50.9435C50.9862 15.8613 51.1888 16.2187 51.5515 16.496C51.9248 16.7733 52.4102 16.912 53.0075 16.912C53.5622 16.912 53.9995 16.7893 54.3195 16.544C54.6395 16.2987 54.7995 15.9893 54.7995 15.616C54.7995 15.232 54.6288 14.9493 54.2875 14.768C53.9462 14.576 53.4182 14.3893 52.7035 14.208C52.0528 14.0373 51.5195 13.8667 51.1035 13.696C50.6982 13.5147 50.3462 13.2533 50.0475 12.912C49.7595 12.56 49.6155 12.1013 49.6155 11.536C49.6155 11.088 49.7488 10.6773 50.0155 10.304C50.2822 9.93067 50.6608 9.63733 51.1515 9.424C51.6422 9.2 52.2022 9.088 52.8315 9.088C53.8022 9.088 54.5862 9.33333 55.1835 9.824C55.7808 10.3147 56.1008 10.9867 56.1435 11.84H54.6875C54.6555 11.3813 54.4688 11.0133 54.1275 10.736C53.7968 10.4587 53.3488 10.32 52.7835 10.32C52.2608 10.32 51.8448 10.432 51.5355 10.656C51.2262 10.88 51.0715 11.1733 51.0715 11.536C51.0715 11.824 51.1622 12.064 51.3435 12.256C51.5355 12.4373 51.7702 12.5867 52.0475 12.704C52.3355 12.8107 52.7302 12.9333 53.2315 13.072C53.8608 13.2427 54.3728 13.4133 54.7675 13.584C55.1622 13.744 55.4982 13.9893 55.7755 14.32C56.0635 14.6507 56.2128 15.0827 56.2235 15.616C56.2235 16.096 56.0902 16.528 55.8235 16.912C55.5568 17.296 55.1782 17.6 54.6875 17.824C54.2075 18.0373 53.6528 18.144 53.0235 18.144ZM62.1029 18.144C61.2815 18.144 60.5349 17.9573 59.8629 17.584C59.2015 17.2107 58.6789 16.6827 58.2949 16C57.9215 15.3067 57.7349 14.5067 57.7349 13.6C57.7349 12.704 57.9269 11.9147 58.3109 11.232C58.7055 10.5387 59.2389 10.0107 59.9109 9.648C60.5829 9.27467 61.3349 9.088 62.1669 9.088C62.9989 9.088 63.7509 9.27467 64.4229 9.648C65.0949 10.0107 65.6229 10.5333 66.0069 11.216C66.4015 11.8987 66.5989 12.6933 66.5989 13.6C66.5989 14.5067 66.3962 15.3067 65.9909 16C65.5962 16.6827 65.0575 17.2107 64.3749 17.584C63.6922 17.9573 62.9349 18.144 62.1029 18.144ZM62.1029 16.864C62.6255 16.864 63.1162 16.7413 63.5749 16.496C64.0335 16.2507 64.4015 15.8827 64.6789 15.392C64.9669 14.9013 65.1109 14.304 65.1109 13.6C65.1109 12.896 64.9722 12.2987 64.6949 11.808C64.4175 11.3173 64.0549 10.9547 63.6069 10.72C63.1589 10.4747 62.6735 10.352 62.1509 10.352C61.6175 10.352 61.1269 10.4747 60.6789 10.72C60.2415 10.9547 59.8895 11.3173 59.6229 11.808C59.3562 12.2987 59.2229 12.896 59.2229 13.6C59.2229 14.3147 59.3509 14.9173 59.6069 15.408C59.8735 15.8987 60.2255 16.2667 60.6629 16.512C61.1002 16.7467 61.5802 16.864 62.1029 16.864ZM72.0813 10.432H70.2413V18H68.7853V10.432H67.6493V9.232H68.7853V8.608C68.7853 7.62667 69.0359 6.912 69.5373 6.464C70.0493 6.00533 70.8653 5.776 71.9852 5.776V6.992C71.3453 6.992 70.8919 7.12 70.6253 7.376C70.3693 7.62133 70.2413 8.032 70.2413 8.608V9.232H72.0813V10.432ZM73.2349 13.584C73.2349 12.688 73.4162 11.904 73.7789 11.232C74.1415 10.5493 74.6375 10.0213 75.2669 9.648C75.9069 9.27467 76.6162 9.088 77.3949 9.088C78.1629 9.088 78.8295 9.25333 79.3949 9.584C79.9602 9.91467 80.3815 10.3307 80.6589 10.832V9.232H82.1309V18H80.6589V16.368C80.3709 16.88 79.9389 17.3067 79.3629 17.648C78.7975 17.9787 78.1362 18.144 77.3789 18.144C76.6002 18.144 75.8962 17.952 75.2669 17.568C74.6375 17.184 74.1415 16.6453 73.7789 15.952C73.4162 15.2587 73.2349 14.4693 73.2349 13.584ZM80.6589 13.6C80.6589 12.9387 80.5255 12.3627 80.2589 11.872C79.9922 11.3813 79.6295 11.008 79.1709 10.752C78.7229 10.4853 78.2269 10.352 77.6829 10.352C77.1389 10.352 76.6429 10.48 76.1949 10.736C75.7469 10.992 75.3895 11.3653 75.1229 11.856C74.8562 12.3467 74.7229 12.9227 74.7229 13.584C74.7229 14.256 74.8562 14.8427 75.1229 15.344C75.3895 15.8347 75.7469 16.2133 76.1949 16.48C76.6429 16.736 77.1389 16.864 77.6829 16.864C78.2269 16.864 78.7229 16.736 79.1709 16.48C79.6295 16.2133 79.9922 15.8347 80.2589 15.344C80.5255 14.8427 80.6589 14.2613 80.6589 13.6ZM90.633 10.432V15.6C90.633 16.0267 90.7237 16.3307 90.905 16.512C91.0863 16.6827 91.401 16.768 91.849 16.768H92.921V18H91.609C90.7983 18 90.1903 17.8133 89.785 17.44C89.3797 17.0667 89.177 16.4533 89.177 15.6V10.432H88.041V9.232H89.177V7.024H90.633V9.232H92.921V10.432H90.633ZM99.0371 9.072C99.6985 9.072 100.296 9.216 100.829 9.504C101.362 9.78133 101.778 10.2027 102.077 10.768C102.386 11.3333 102.541 12.0213 102.541 12.832V18H101.101V13.04C101.101 12.1653 100.882 11.4987 100.445 11.04C100.008 10.5707 99.4105 10.336 98.6531 10.336C97.8851 10.336 97.2718 10.576 96.8131 11.056C96.3651 11.536 96.1411 12.2347 96.1411 13.152V18H94.6851V6.16H96.1411V10.48C96.4291 10.032 96.8238 9.68533 97.3251 9.44C97.8371 9.19467 98.4078 9.072 99.0371 9.072ZM106.376 10.656C106.632 10.1547 106.994 9.76533 107.464 9.488C107.944 9.21067 108.525 9.072 109.208 9.072V10.576H108.824C107.192 10.576 106.376 11.4613 106.376 13.232V18H104.92V9.232H106.376V10.656ZM118.888 13.28C118.888 13.5573 118.872 13.8507 118.84 14.16H111.832C111.886 15.024 112.179 15.7013 112.712 16.192C113.256 16.672 113.912 16.912 114.68 16.912C115.31 16.912 115.832 16.768 116.248 16.48C116.675 16.1813 116.974 15.7867 117.144 15.296H118.712C118.478 16.1387 118.008 16.8267 117.304 17.36C116.6 17.8827 115.726 18.144 114.68 18.144C113.848 18.144 113.102 17.9573 112.44 17.584C111.79 17.2107 111.278 16.6827 110.904 16C110.531 15.3067 110.344 14.5067 110.344 13.6C110.344 12.6933 110.526 11.8987 110.888 11.216C111.251 10.5333 111.758 10.0107 112.408 9.648C113.07 9.27467 113.827 9.088 114.68 9.088C115.512 9.088 116.248 9.26933 116.888 9.632C117.528 9.99467 118.019 10.496 118.36 11.136C118.712 11.7653 118.888 12.48 118.888 13.28ZM117.384 12.976C117.384 12.4213 117.262 11.9467 117.016 11.552C116.771 11.1467 116.435 10.8427 116.008 10.64C115.592 10.4267 115.128 10.32 114.616 10.32C113.88 10.32 113.251 10.5547 112.728 11.024C112.216 11.4933 111.923 12.144 111.848 12.976H117.384ZM128.81 13.28C128.81 13.5573 128.794 13.8507 128.762 14.16H121.754C121.807 15.024 122.101 15.7013 122.634 16.192C123.178 16.672 123.834 16.912 124.602 16.912C125.231 16.912 125.754 16.768 126.17 16.48C126.597 16.1813 126.895 15.7867 127.066 15.296H128.634C128.399 16.1387 127.93 16.8267 127.226 17.36C126.522 17.8827 125.647 18.144 124.602 18.144C123.77 18.144 123.023 17.9573 122.362 17.584C121.711 17.2107 121.199 16.6827 120.826 16C120.453 15.3067 120.266 14.5067 120.266 13.6C120.266 12.6933 120.447 11.8987 120.81 11.216C121.173 10.5333 121.679 10.0107 122.33 9.648C122.991 9.27467 123.749 9.088 124.602 9.088C125.434 9.088 126.17 9.26933 126.81 9.632C127.45 9.99467 127.941 10.496 128.282 11.136C128.634 11.7653 128.81 12.48 128.81 13.28ZM127.306 12.976C127.306 12.4213 127.183 11.9467 126.938 11.552C126.693 11.1467 126.357 10.8427 125.93 10.64C125.514 10.4267 125.05 10.32 124.538 10.32C123.802 10.32 123.173 10.5547 122.65 11.024C122.138 11.4933 121.845 12.144 121.77 12.976H127.306ZM138.102 18.144C137.43 18.144 136.827 18.032 136.294 17.808C135.76 17.5733 135.339 17.2533 135.03 16.848C134.72 16.432 134.55 15.9573 134.518 15.424H136.022C136.064 15.8613 136.267 16.2187 136.63 16.496C137.003 16.7733 137.488 16.912 138.086 16.912C138.64 16.912 139.078 16.7893 139.398 16.544C139.718 16.2987 139.878 15.9893 139.878 15.616C139.878 15.232 139.707 14.9493 139.366 14.768C139.024 14.576 138.496 14.3893 137.782 14.208C137.131 14.0373 136.598 13.8667 136.182 13.696C135.776 13.5147 135.424 13.2533 135.126 12.912C134.838 12.56 134.694 12.1013 134.694 11.536C134.694 11.088 134.827 10.6773 135.094 10.304C135.36 9.93067 135.739 9.63733 136.23 9.424C136.72 9.2 137.28 9.088 137.91 9.088C138.88 9.088 139.664 9.33333 140.262 9.824C140.859 10.3147 141.179 10.9867 141.222 11.84H139.766C139.734 11.3813 139.547 11.0133 139.206 10.736C138.875 10.4587 138.427 10.32 137.862 10.32C137.339 10.32 136.923 10.432 136.614 10.656C136.304 10.88 136.15 11.1733 136.15 11.536C136.15 11.824 136.24 12.064 136.422 12.256C136.614 12.4373 136.848 12.5867 137.126 12.704C137.414 12.8107 137.808 12.9333 138.31 13.072C138.939 13.2427 139.451 13.4133 139.846 13.584C140.24 13.744 140.576 13.9893 140.854 14.32C141.142 14.6507 141.291 15.0827 141.302 15.616C141.302 16.096 141.168 16.528 140.902 16.912C140.635 17.296 140.256 17.6 139.766 17.824C139.286 18.0373 138.731 18.144 138.102 18.144ZM151.357 13.28C151.357 13.5573 151.341 13.8507 151.309 14.16H144.301C144.354 15.024 144.648 15.7013 145.181 16.192C145.725 16.672 146.381 16.912 147.149 16.912C147.778 16.912 148.301 16.768 148.717 16.48C149.144 16.1813 149.442 15.7867 149.613 15.296H151.181C150.946 16.1387 150.477 16.8267 149.773 17.36C149.069 17.8827 148.194 18.144 147.149 18.144C146.317 18.144 145.57 17.9573 144.909 17.584C144.258 17.2107 143.746 16.6827 143.373 16C143 15.3067 142.813 14.5067 142.813 13.6C142.813 12.6933 142.994 11.8987 143.357 11.216C143.72 10.5333 144.226 10.0107 144.877 9.648C145.538 9.27467 146.296 9.088 147.149 9.088C147.981 9.088 148.717 9.26933 149.357 9.632C149.997 9.99467 150.488 10.496 150.829 11.136C151.181 11.7653 151.357 12.48 151.357 13.28ZM149.853 12.976C149.853 12.4213 149.73 11.9467 149.485 11.552C149.24 11.1467 148.904 10.8427 148.477 10.64C148.061 10.4267 147.597 10.32 147.085 10.32C146.349 10.32 145.72 10.5547 145.197 11.024C144.685 11.4933 144.392 12.144 144.317 12.976H149.853ZM152.735 13.584C152.735 12.688 152.916 11.904 153.279 11.232C153.642 10.5493 154.138 10.0213 154.767 9.648C155.407 9.27467 156.116 9.088 156.895 9.088C157.663 9.088 158.33 9.25333 158.895 9.584C159.46 9.91467 159.882 10.3307 160.159 10.832V9.232H161.631V18H160.159V16.368C159.871 16.88 159.439 17.3067 158.863 17.648C158.298 17.9787 157.636 18.144 156.879 18.144C156.1 18.144 155.396 17.952 154.767 17.568C154.138 17.184 153.642 16.6453 153.279 15.952C152.916 15.2587 152.735 14.4693 152.735 13.584ZM160.159 13.6C160.159 12.9387 160.026 12.3627 159.759 11.872C159.492 11.3813 159.13 11.008 158.671 10.752C158.223 10.4853 157.727 10.352 157.183 10.352C156.639 10.352 156.143 10.48 155.695 10.736C155.247 10.992 154.89 11.3653 154.623 11.856C154.356 12.3467 154.223 12.9227 154.223 13.584C154.223 14.256 154.356 14.8427 154.623 15.344C154.89 15.8347 155.247 16.2133 155.695 16.48C156.143 16.736 156.639 16.864 157.183 16.864C157.727 16.864 158.223 16.736 158.671 16.48C159.13 16.2133 159.492 15.8347 159.759 15.344C160.026 14.8427 160.159 14.2613 160.159 13.6ZM165.867 10.432V15.6C165.867 16.0267 165.958 16.3307 166.139 16.512C166.321 16.6827 166.635 16.768 167.083 16.768H168.155V18H166.843C166.033 18 165.425 17.8133 165.019 17.44C164.614 17.0667 164.411 16.4533 164.411 15.6V10.432H163.275V9.232H164.411V7.024H165.867V9.232H168.155V10.432H165.867ZM177.92 13.28C177.92 13.5573 177.904 13.8507 177.872 14.16H170.864C170.917 15.024 171.21 15.7013 171.744 16.192C172.288 16.672 172.944 16.912 173.712 16.912C174.341 16.912 174.864 16.768 175.28 16.48C175.706 16.1813 176.005 15.7867 176.176 15.296H177.744C177.509 16.1387 177.04 16.8267 176.336 17.36C175.632 17.8827 174.757 18.144 173.712 18.144C172.88 18.144 172.133 17.9573 171.472 17.584C170.821 17.2107 170.309 16.6827 169.936 16C169.562 15.3067 169.376 14.5067 169.376 13.6C169.376 12.6933 169.557 11.8987 169.92 11.216C170.282 10.5333 170.789 10.0107 171.44 9.648C172.101 9.27467 172.858 9.088 173.712 9.088C174.544 9.088 175.28 9.26933 175.92 9.632C176.56 9.99467 177.05 10.496 177.392 11.136C177.744 11.7653 177.92 12.48 177.92 13.28ZM176.416 12.976C176.416 12.4213 176.293 11.9467 176.048 11.552C175.802 11.1467 175.466 10.8427 175.04 10.64C174.624 10.4267 174.16 10.32 173.648 10.32C172.912 10.32 172.282 10.5547 171.76 11.024C171.248 11.4933 170.954 12.144 170.88 12.976H176.416ZM181.297 10.656C181.553 10.1547 181.916 9.76533 182.385 9.488C182.865 9.21067 183.447 9.072 184.129 9.072V10.576H183.745C182.113 10.576 181.297 11.4613 181.297 13.232V18H179.841V9.232H181.297V10.656Z" fill="black"/>
<path d="M10.464 61L6.624 54.328H4.536V61H1.8V44.32H7.56C8.84 44.32 9.92 44.544 10.8 44.992C11.696 45.44 12.36 46.04 12.792 46.792C13.24 47.544 13.464 48.384 13.464 49.312C13.464 50.4 13.144 51.392 12.504 52.288C11.88 53.168 10.912 53.768 9.6 54.088L13.728 61H10.464ZM4.536 52.144H7.56C8.584 52.144 9.352 51.888 9.864 51.376C10.392 50.864 10.656 50.176 10.656 49.312C10.656 48.448 10.4 47.776 9.888 47.296C9.376 46.8 8.6 46.552 7.56 46.552H4.536V52.144ZM21.7641 61.216C20.7241 61.216 19.7881 61.032 18.9561 60.664C18.1401 60.28 17.4921 59.768 17.0121 59.128C16.5321 58.472 16.2761 57.744 16.2441 56.944H19.0761C19.1241 57.504 19.3881 57.976 19.8681 58.36C20.3641 58.728 20.9801 58.912 21.7161 58.912C22.4841 58.912 23.0761 58.768 23.4921 58.48C23.9241 58.176 24.1401 57.792 24.1401 57.328C24.1401 56.832 23.9001 56.464 23.4201 56.224C22.9561 55.984 22.2121 55.72 21.1881 55.432C20.1961 55.16 19.3881 54.896 18.7641 54.64C18.1401 54.384 17.5961 53.992 17.1321 53.464C16.6841 52.936 16.4601 52.24 16.4601 51.376C16.4601 50.672 16.6681 50.032 17.0841 49.456C17.5001 48.864 18.0921 48.4 18.8601 48.064C19.6441 47.728 20.5401 47.56 21.5481 47.56C23.0521 47.56 24.2601 47.944 25.1721 48.712C26.1001 49.464 26.5961 50.496 26.6601 51.808H23.9241C23.8761 51.216 23.6361 50.744 23.2041 50.392C22.7721 50.04 22.1881 49.864 21.4521 49.864C20.7321 49.864 20.1801 50 19.7961 50.272C19.4121 50.544 19.2201 50.904 19.2201 51.352C19.2201 51.704 19.3481 52 19.6041 52.24C19.8601 52.48 20.1721 52.672 20.5401 52.816C20.9081 52.944 21.4521 53.112 22.1721 53.32C23.1321 53.576 23.9161 53.84 24.5241 54.112C25.1481 54.368 25.6841 54.752 26.1321 55.264C26.5801 55.776 26.8121 56.456 26.8281 57.304C26.8281 58.056 26.6201 58.728 26.2041 59.32C25.7881 59.912 25.1961 60.376 24.4281 60.712C23.6761 61.048 22.7881 61.216 21.7641 61.216ZM30.8884 61.168C30.3924 61.168 29.9764 61 29.6404 60.664C29.3044 60.328 29.1364 59.912 29.1364 59.416C29.1364 58.92 29.3044 58.504 29.6404 58.168C29.9764 57.832 30.3924 57.664 30.8884 57.664C31.3684 57.664 31.7764 57.832 32.1124 58.168C32.4484 58.504 32.6164 58.92 32.6164 59.416C32.6164 59.912 32.4484 60.328 32.1124 60.664C31.7764 61 31.3684 61.168 30.8884 61.168ZM41.0878 46V43.504H46.0798V61H43.3198V46H41.0878ZM49.4784 46V43.504H54.4704V61H51.7104V46H49.4784ZM69.5091 45.856H61.4691V50.632C61.8051 50.184 62.3011 49.808 62.9571 49.504C63.6291 49.2 64.3411 49.048 65.0931 49.048C66.4371 49.048 67.5251 49.336 68.3571 49.912C69.2051 50.488 69.8051 51.216 70.1571 52.096C70.5251 52.976 70.7091 53.904 70.7091 54.88C70.7091 56.064 70.4771 57.12 70.0131 58.048C69.5651 58.96 68.8851 59.68 67.9731 60.208C67.0771 60.736 65.9731 61 64.6611 61C62.9171 61 61.5171 60.568 60.4611 59.704C59.4051 58.84 58.7731 57.696 58.5651 56.272H61.2291C61.4051 57.024 61.7971 57.624 62.4051 58.072C63.0131 58.504 63.7731 58.72 64.6851 58.72C65.8211 58.72 66.6691 58.376 67.2291 57.688C67.8051 57 68.0931 56.088 68.0931 54.952C68.0931 53.8 67.8051 52.92 67.2291 52.312C66.6531 51.688 65.8051 51.376 64.6851 51.376C63.9011 51.376 63.2371 51.576 62.6931 51.976C62.1651 52.36 61.7811 52.888 61.5411 53.56H58.9491V43.456H69.5091V45.856ZM76.9172 57.712L74.0132 64.336H72.2372L73.9412 57.712H76.9172ZM78.9478 52.024C78.9478 49.256 79.4118 47.096 80.3398 45.544C81.2838 43.976 82.8998 43.192 85.1878 43.192C87.4758 43.192 89.0838 43.976 90.0118 45.544C90.9558 47.096 91.4278 49.256 91.4278 52.024C91.4278 54.824 90.9558 57.016 90.0118 58.6C89.0838 60.168 87.4758 60.952 85.1878 60.952C82.8998 60.952 81.2838 60.168 80.3398 58.6C79.4118 57.016 78.9478 54.824 78.9478 52.024ZM88.7398 52.024C88.7398 50.728 88.6518 49.632 88.4758 48.736C88.3158 47.84 87.9798 47.112 87.4678 46.552C86.9558 45.976 86.1958 45.688 85.1878 45.688C84.1798 45.688 83.4198 45.976 82.9078 46.552C82.3958 47.112 82.0518 47.84 81.8758 48.736C81.7158 49.632 81.6358 50.728 81.6358 52.024C81.6358 53.368 81.7158 54.496 81.8758 55.408C82.0358 56.32 82.3718 57.056 82.8838 57.616C83.4118 58.176 84.1798 58.456 85.1878 58.456C86.1958 58.456 86.9558 58.176 87.4678 57.616C87.9958 57.056 88.3398 56.32 88.4998 55.408C88.6598 54.496 88.7398 53.368 88.7398 52.024ZM94.3228 52.024C94.3228 49.256 94.7868 47.096 95.7148 45.544C96.6588 43.976 98.2748 43.192 100.563 43.192C102.851 43.192 104.459 43.976 105.387 45.544C106.331 47.096 106.803 49.256 106.803 52.024C106.803 54.824 106.331 57.016 105.387 58.6C104.459 60.168 102.851 60.952 100.563 60.952C98.2748 60.952 96.6588 60.168 95.7148 58.6C94.7868 57.016 94.3228 54.824 94.3228 52.024ZM104.115 52.024C104.115 50.728 104.027 49.632 103.851 48.736C103.691 47.84 103.355 47.112 102.843 46.552C102.331 45.976 101.571 45.688 100.563 45.688C99.5548 45.688 98.7948 45.976 98.2828 46.552C97.7708 47.112 97.4268 47.84 97.2508 48.736C97.0908 49.632 97.0108 50.728 97.0108 52.024C97.0108 53.368 97.0908 54.496 97.2508 55.408C97.4108 56.32 97.7468 57.056 98.2588 57.616C98.7868 58.176 99.5548 58.456 100.563 58.456C101.571 58.456 102.331 58.176 102.843 57.616C103.371 57.056 103.715 56.32 103.875 55.408C104.035 54.496 104.115 53.368 104.115 52.024ZM109.698 52.024C109.698 49.256 110.162 47.096 111.09 45.544C112.034 43.976 113.65 43.192 115.938 43.192C118.226 43.192 119.834 43.976 120.762 45.544C121.706 47.096 122.178 49.256 122.178 52.024C122.178 54.824 121.706 57.016 120.762 58.6C119.834 60.168 118.226 60.952 115.938 60.952C113.65 60.952 112.034 60.168 111.09 58.6C110.162 57.016 109.698 54.824 109.698 52.024ZM119.49 52.024C119.49 50.728 119.402 49.632 119.226 48.736C119.066 47.84 118.73 47.112 118.218 46.552C117.706 45.976 116.946 45.688 115.938 45.688C114.93 45.688 114.17 45.976 113.658 46.552C113.146 47.112 112.802 47.84 112.626 48.736C112.466 49.632 112.386 50.728 112.386 52.024C112.386 53.368 112.466 54.496 112.626 55.408C112.786 56.32 113.122 57.056 113.634 57.616C114.162 58.176 114.93 58.456 115.938 58.456C116.946 58.456 117.706 58.176 118.218 57.616C118.746 57.056 119.09 56.32 119.25 55.408C119.41 54.496 119.49 53.368 119.49 52.024ZM126.537 61.168C126.041 61.168 125.625 61 125.289 60.664C124.953 60.328 124.785 59.912 124.785 59.416C124.785 58.92 124.953 58.504 125.289 58.168C125.625 57.832 126.041 57.664 126.537 57.664C127.017 57.664 127.425 57.832 127.761 58.168C128.097 58.504 128.265 58.92 128.265 59.416C128.265 59.912 128.097 60.328 127.761 60.664C127.425 61 127.017 61.168 126.537 61.168ZM130.862 52.024C130.862 49.256 131.326 47.096 132.254 45.544C133.198 43.976 134.814 43.192 137.102 43.192C139.39 43.192 140.998 43.976 141.926 45.544C142.87 47.096 143.342 49.256 143.342 52.024C143.342 54.824 142.87 57.016 141.926 58.6C140.998 60.168 139.39 60.952 137.102 60.952C134.814 60.952 133.198 60.168 132.254 58.6C131.326 57.016 130.862 54.824 130.862 52.024ZM140.654 52.024C140.654 50.728 140.566 49.632 140.39 48.736C140.23 47.84 139.894 47.112 139.382 46.552C138.87 45.976 138.11 45.688 137.102 45.688C136.094 45.688 135.334 45.976 134.822 46.552C134.31 47.112 133.966 47.84 133.79 48.736C133.63 49.632 133.55 50.728 133.55 52.024C133.55 53.368 133.63 54.496 133.79 55.408C133.95 56.32 134.286 57.056 134.798 57.616C135.326 58.176 136.094 58.456 137.102 58.456C138.11 58.456 138.87 58.176 139.382 57.616C139.91 57.056 140.254 56.32 140.414 55.408C140.574 54.496 140.654 53.368 140.654 52.024ZM146.237 52.024C146.237 49.256 146.701 47.096 147.629 45.544C148.573 43.976 150.189 43.192 152.477 43.192C154.765 43.192 156.373 43.976 157.301 45.544C158.245 47.096 158.717 49.256 158.717 52.024C158.717 54.824 158.245 57.016 157.301 58.6C156.373 60.168 154.765 60.952 152.477 60.952C150.189 60.952 148.573 60.168 147.629 58.6C146.701 57.016 146.237 54.824 146.237 52.024ZM156.029 52.024C156.029 50.728 155.941 49.632 155.765 48.736C155.605 47.84 155.269 47.112 154.757 46.552C154.245 45.976 153.485 45.688 152.477 45.688C151.469 45.688 150.709 45.976 150.197 46.552C149.685 47.112 149.341 47.84 149.165 48.736C149.005 49.632 148.925 50.728 148.925 52.024C148.925 53.368 149.005 54.496 149.165 55.408C149.325 56.32 149.661 57.056 150.173 57.616C150.701 58.176 151.469 58.456 152.477 58.456C153.485 58.456 154.245 58.176 154.757 57.616C155.285 57.056 155.629 56.32 155.789 55.408C155.949 54.496 156.029 53.368 156.029 52.024Z" fill="black"/>
</svg>
