<svg width="199" height="96" viewBox="0 0 199 96" fill="none" xmlns="http://www.w3.org/2000/svg">
<path d="M7.104 18L4.448 13.44H2.688V18H1.232V6.848H4.832C5.67467 6.848 6.384 6.992 6.96 7.28C7.54667 7.568 7.984 7.95733 8.272 8.448C8.56 8.93867 8.704 9.49867 8.704 10.128C8.704 10.896 8.48 11.5733 8.032 12.16C7.59467 12.7467 6.93333 13.136 6.048 13.328L8.848 18H7.104ZM2.688 12.272H4.832C5.62133 12.272 6.21333 12.08 6.608 11.696C7.00267 11.3013 7.2 10.7787 7.2 10.128C7.2 9.46667 7.00267 8.95467 6.608 8.592C6.224 8.22933 5.632 8.048 4.832 8.048H2.688V12.272ZM18.9664 13.28C18.9664 13.5573 18.9504 13.8507 18.9184 14.16H11.9104C11.9637 15.024 12.257 15.7013 12.7904 16.192C13.3344 16.672 13.9904 16.912 14.7584 16.912C15.3877 16.912 15.9104 16.768 16.3264 16.48C16.753 16.1813 17.0517 15.7867 17.2224 15.296H18.7904C18.5557 16.1387 18.0864 16.8267 17.3824 17.36C16.6784 17.8827 15.8037 18.144 14.7584 18.144C13.9264 18.144 13.1797 17.9573 12.5184 17.584C11.8677 17.2107 11.3557 16.6827 10.9824 16C10.609 15.3067 10.4224 14.5067 10.4224 13.6C10.4224 12.6933 10.6037 11.8987 10.9664 11.216C11.329 10.5333 11.8357 10.0107 12.4864 9.648C13.1477 9.27467 13.905 9.088 14.7584 9.088C15.5904 9.088 16.3264 9.26933 16.9664 9.632C17.6064 9.99467 18.097 10.496 18.4384 11.136C18.7904 11.7653 18.9664 12.48 18.9664 13.28ZM17.4624 12.976C17.4624 12.4213 17.3397 11.9467 17.0944 11.552C16.849 11.1467 16.513 10.8427 16.0864 10.64C15.6704 10.4267 15.2064 10.32 14.6944 10.32C13.9584 10.32 13.329 10.5547 12.8064 11.024C12.2944 11.4933 12.001 12.144 11.9264 12.976H17.4624ZM20.3443 13.6C20.3443 12.6933 20.5256 11.904 20.8883 11.232C21.2509 10.5493 21.7523 10.0213 22.3923 9.648C23.0429 9.27467 23.7843 9.088 24.6163 9.088C25.6936 9.088 26.5789 9.34933 27.2723 9.872C27.9763 10.3947 28.4403 11.12 28.6643 12.048H27.0963C26.9469 11.5147 26.6536 11.0933 26.2163 10.784C25.7896 10.4747 25.2563 10.32 24.6163 10.32C23.7843 10.32 23.1123 10.608 22.6003 11.184C22.0883 11.7493 21.8323 12.5547 21.8323 13.6C21.8323 14.656 22.0883 15.472 22.6003 16.048C23.1123 16.624 23.7843 16.912 24.6163 16.912C25.2563 16.912 25.7896 16.7627 26.2163 16.464C26.6429 16.1653 26.9363 15.7387 27.0963 15.184H28.6643C28.4296 16.08 27.9603 16.8 27.2563 17.344C26.5523 17.8773 25.6723 18.144 24.6163 18.144C23.7843 18.144 23.0429 17.9573 22.3923 17.584C21.7523 17.2107 21.2509 16.6827 20.8883 16C20.5256 15.3173 20.3443 14.5173 20.3443 13.6ZM32.063 6.16V18H30.607V6.16H32.063ZM34.0005 13.584C34.0005 12.688 34.1818 11.904 34.5445 11.232C34.9072 10.5493 35.4032 10.0213 36.0325 9.648C36.6725 9.27467 37.3818 9.088 38.1605 9.088C38.9285 9.088 39.5952 9.25333 40.1605 9.584C40.7258 9.91467 41.1472 10.3307 41.4245 10.832V9.232H42.8965V18H41.4245V16.368C41.1365 16.88 40.7045 17.3067 40.1285 17.648C39.5632 17.9787 38.9018 18.144 38.1445 18.144C37.3658 18.144 36.6618 17.952 36.0325 17.568C35.4032 17.184 34.9072 16.6453 34.5445 15.952C34.1818 15.2587 34.0005 14.4693 34.0005 13.584ZM41.4245 13.6C41.4245 12.9387 41.2912 12.3627 41.0245 11.872C40.7578 11.3813 40.3952 11.008 39.9365 10.752C39.4885 10.4853 38.9925 10.352 38.4485 10.352C37.9045 10.352 37.4085 10.48 36.9605 10.736C36.5125 10.992 36.1552 11.3653 35.8885 11.856C35.6218 12.3467 35.4885 12.9227 35.4885 13.584C35.4885 14.256 35.6218 14.8427 35.8885 15.344C36.1552 15.8347 36.5125 16.2133 36.9605 16.48C37.4085 16.736 37.9045 16.864 38.4485 16.864C38.9925 16.864 39.4885 16.736 39.9365 16.48C40.3952 16.2133 40.7578 15.8347 41.0245 15.344C41.2912 14.8427 41.4245 14.2613 41.4245 13.6ZM46.109 7.808C45.8317 7.808 45.597 7.712 45.405 7.52C45.213 7.328 45.117 7.09333 45.117 6.816C45.117 6.53867 45.213 6.304 45.405 6.112C45.597 5.92 45.8317 5.824 46.109 5.824C46.3757 5.824 46.5997 5.92 46.781 6.112C46.973 6.304 47.069 6.53867 47.069 6.816C47.069 7.09333 46.973 7.328 46.781 7.52C46.5997 7.712 46.3757 7.808 46.109 7.808ZM46.813 9.232V18H45.357V9.232H46.813ZM59.8385 9.072C60.5212 9.072 61.1292 9.216 61.6625 9.504C62.1958 9.78133 62.6172 10.2027 62.9265 10.768C63.2358 11.3333 63.3905 12.0213 63.3905 12.832V18H61.9505V13.04C61.9505 12.1653 61.7318 11.4987 61.2945 11.04C60.8678 10.5707 60.2865 10.336 59.5505 10.336C58.7932 10.336 58.1905 10.5813 57.7425 11.072C57.2945 11.552 57.0705 12.2507 57.0705 13.168V18H55.6305V13.04C55.6305 12.1653 55.4118 11.4987 54.9745 11.04C54.5478 10.5707 53.9665 10.336 53.2305 10.336C52.4732 10.336 51.8705 10.5813 51.4225 11.072C50.9745 11.552 50.7505 12.2507 50.7505 13.168V18H49.2945V9.232H50.7505V10.496C51.0385 10.0373 51.4225 9.68533 51.9025 9.44C52.3932 9.19467 52.9318 9.072 53.5185 9.072C54.2545 9.072 54.9052 9.23733 55.4705 9.568C56.0358 9.89867 56.4572 10.384 56.7345 11.024C56.9798 10.4053 57.3852 9.92533 57.9505 9.584C58.5158 9.24267 59.1452 9.072 59.8385 9.072ZM73.7789 13.28C73.7789 13.5573 73.7629 13.8507 73.7309 14.16H66.7229C66.7762 15.024 67.0695 15.7013 67.6029 16.192C68.1469 16.672 68.8029 16.912 69.5709 16.912C70.2002 16.912 70.7229 16.768 71.1389 16.48C71.5655 16.1813 71.8642 15.7867 72.0349 15.296H73.6029C73.3682 16.1387 72.8989 16.8267 72.1949 17.36C71.4909 17.8827 70.6162 18.144 69.5709 18.144C68.7389 18.144 67.9922 17.9573 67.3309 17.584C66.6802 17.2107 66.1682 16.6827 65.7949 16C65.4215 15.3067 65.2349 14.5067 65.2349 13.6C65.2349 12.6933 65.4162 11.8987 65.7789 11.216C66.1415 10.5333 66.6482 10.0107 67.2989 9.648C67.9602 9.27467 68.7175 9.088 69.5709 9.088C70.4029 9.088 71.1389 9.26933 71.7789 9.632C72.4189 9.99467 72.9095 10.496 73.2509 11.136C73.6029 11.7653 73.7789 12.48 73.7789 13.28ZM72.2749 12.976C72.2749 12.4213 72.1522 11.9467 71.9069 11.552C71.6615 11.1467 71.3255 10.8427 70.8989 10.64C70.4829 10.4267 70.0189 10.32 69.5069 10.32C68.7709 10.32 68.1415 10.5547 67.6189 11.024C67.1069 11.4933 66.8135 12.144 66.7389 12.976H72.2749ZM75.1568 13.584C75.1568 12.688 75.3381 11.904 75.7008 11.232C76.0634 10.5493 76.5594 10.0213 77.1888 9.648C77.8288 9.27467 78.5434 9.088 79.3328 9.088C80.0154 9.088 80.6501 9.248 81.2368 9.568C81.8234 9.87733 82.2714 10.288 82.5808 10.8V6.16H84.0528V18H82.5808V16.352C82.2928 16.8747 81.8661 17.3067 81.3008 17.648C80.7354 17.9787 80.0741 18.144 79.3168 18.144C78.5381 18.144 77.8288 17.952 77.1888 17.568C76.5594 17.184 76.0634 16.6453 75.7008 15.952C75.3381 15.2587 75.1568 14.4693 75.1568 13.584ZM82.5808 13.6C82.5808 12.9387 82.4474 12.3627 82.1808 11.872C81.9141 11.3813 81.5514 11.008 81.0928 10.752C80.6448 10.4853 80.1488 10.352 79.6048 10.352C79.0608 10.352 78.5648 10.48 78.1168 10.736C77.6688 10.992 77.3114 11.3653 77.0448 11.856C76.7781 12.3467 76.6448 12.9227 76.6448 13.584C76.6448 14.256 76.7781 14.8427 77.0448 15.344C77.3114 15.8347 77.6688 16.2133 78.1168 16.48C78.5648 16.736 79.0608 16.864 79.6048 16.864C80.1488 16.864 80.6448 16.736 81.0928 16.48C81.5514 16.2133 81.9141 15.8347 82.1808 15.344C82.4474 14.8427 82.5808 14.2613 82.5808 13.6ZM92.5549 10.432V15.6C92.5549 16.0267 92.6455 16.3307 92.8269 16.512C93.0082 16.6827 93.3229 16.768 93.7709 16.768H94.8429V18H93.5309C92.7202 18 92.1122 17.8133 91.7069 17.44C91.3015 17.0667 91.0989 16.4533 91.0989 15.6V10.432H89.9629V9.232H91.0989V7.024H92.5549V9.232H94.8429V10.432H92.5549ZM104.607 13.28C104.607 13.5573 104.591 13.8507 104.559 14.16H97.551C97.6043 15.024 97.8977 15.7013 98.431 16.192C98.975 16.672 99.631 16.912 100.399 16.912C101.028 16.912 101.551 16.768 101.967 16.48C102.394 16.1813 102.692 15.7867 102.863 15.296H104.431C104.196 16.1387 103.727 16.8267 103.023 17.36C102.319 17.8827 101.444 18.144 100.399 18.144C99.567 18.144 98.8203 17.9573 98.159 17.584C97.5083 17.2107 96.9963 16.6827 96.623 16C96.2497 15.3067 96.063 14.5067 96.063 13.6C96.063 12.6933 96.2443 11.8987 96.607 11.216C96.9697 10.5333 97.4763 10.0107 98.127 9.648C98.7883 9.27467 99.5457 9.088 100.399 9.088C101.231 9.088 101.967 9.26933 102.607 9.632C103.247 9.99467 103.738 10.496 104.079 11.136C104.431 11.7653 104.607 12.48 104.607 13.28ZM103.103 12.976C103.103 12.4213 102.98 11.9467 102.735 11.552C102.49 11.1467 102.154 10.8427 101.727 10.64C101.311 10.4267 100.847 10.32 100.335 10.32C99.599 10.32 98.9697 10.5547 98.447 11.024C97.935 11.4933 97.6417 12.144 97.567 12.976H103.103ZM105.985 13.584C105.985 12.688 106.166 11.904 106.529 11.232C106.892 10.5493 107.388 10.0213 108.017 9.648C108.657 9.27467 109.366 9.088 110.145 9.088C110.913 9.088 111.58 9.25333 112.145 9.584C112.71 9.91467 113.132 10.3307 113.409 10.832V9.232H114.881V18H113.409V16.368C113.121 16.88 112.689 17.3067 112.113 17.648C111.548 17.9787 110.886 18.144 110.129 18.144C109.35 18.144 108.646 17.952 108.017 17.568C107.388 17.184 106.892 16.6453 106.529 15.952C106.166 15.2587 105.985 14.4693 105.985 13.584ZM113.409 13.6C113.409 12.9387 113.276 12.3627 113.009 11.872C112.742 11.3813 112.38 11.008 111.921 10.752C111.473 10.4853 110.977 10.352 110.433 10.352C109.889 10.352 109.393 10.48 108.945 10.736C108.497 10.992 108.14 11.3653 107.873 11.856C107.606 12.3467 107.473 12.9227 107.473 13.584C107.473 14.256 107.606 14.8427 107.873 15.344C108.14 15.8347 108.497 16.2133 108.945 16.48C109.393 16.736 109.889 16.864 110.433 16.864C110.977 16.864 111.473 16.736 111.921 16.48C112.38 16.2133 112.742 15.8347 113.009 15.344C113.276 14.8427 113.409 14.2613 113.409 13.6ZM122.237 18L118.797 14.128V18H117.341V6.16H118.797V13.12L122.173 9.232H124.205L120.077 13.6L124.221 18H122.237ZM129.297 13.6C129.297 12.6933 129.479 11.904 129.841 11.232C130.204 10.5493 130.705 10.0213 131.345 9.648C131.996 9.27467 132.737 9.088 133.569 9.088C134.647 9.088 135.532 9.34933 136.225 9.872C136.929 10.3947 137.393 11.12 137.617 12.048H136.049C135.9 11.5147 135.607 11.0933 135.169 10.784C134.743 10.4747 134.209 10.32 133.569 10.32C132.737 10.32 132.065 10.608 131.553 11.184C131.041 11.7493 130.785 12.5547 130.785 13.6C130.785 14.656 131.041 15.472 131.553 16.048C132.065 16.624 132.737 16.912 133.569 16.912C134.209 16.912 134.743 16.7627 135.169 16.464C135.596 16.1653 135.889 15.7387 136.049 15.184H137.617C137.383 16.08 136.913 16.8 136.209 17.344C135.505 17.8773 134.625 18.144 133.569 18.144C132.737 18.144 131.996 17.9573 131.345 17.584C130.705 17.2107 130.204 16.6827 129.841 16C129.479 15.3173 129.297 14.5173 129.297 13.6ZM143.384 18.144C142.563 18.144 141.816 17.9573 141.144 17.584C140.483 17.2107 139.96 16.6827 139.576 16C139.203 15.3067 139.016 14.5067 139.016 13.6C139.016 12.704 139.208 11.9147 139.592 11.232C139.987 10.5387 140.52 10.0107 141.192 9.648C141.864 9.27467 142.616 9.088 143.448 9.088C144.28 9.088 145.032 9.27467 145.704 9.648C146.376 10.0107 146.904 10.5333 147.288 11.216C147.683 11.8987 147.88 12.6933 147.88 13.6C147.88 14.5067 147.677 15.3067 147.272 16C146.877 16.6827 146.339 17.2107 145.656 17.584C144.973 17.9573 144.216 18.144 143.384 18.144ZM143.384 16.864C143.907 16.864 144.397 16.7413 144.856 16.496C145.315 16.2507 145.683 15.8827 145.96 15.392C146.248 14.9013 146.392 14.304 146.392 13.6C146.392 12.896 146.253 12.2987 145.976 11.808C145.699 11.3173 145.336 10.9547 144.888 10.72C144.44 10.4747 143.955 10.352 143.432 10.352C142.899 10.352 142.408 10.4747 141.96 10.72C141.523 10.9547 141.171 11.3173 140.904 11.808C140.637 12.2987 140.504 12.896 140.504 13.6C140.504 14.3147 140.632 14.9173 140.888 15.408C141.155 15.8987 141.507 16.2667 141.944 16.512C142.381 16.7467 142.861 16.864 143.384 16.864ZM153.363 10.432H151.523V18H150.067V10.432H148.931V9.232H150.067V8.608C150.067 7.62667 150.317 6.912 150.819 6.464C151.331 6.00533 152.147 5.776 153.266 5.776V6.992C152.627 6.992 152.173 7.12 151.907 7.376C151.651 7.62133 151.523 8.032 151.523 8.608V9.232H153.363V10.432ZM158.628 10.432H156.788V18H155.332V10.432H154.196V9.232H155.332V8.608C155.332 7.62667 155.583 6.912 156.084 6.464C156.596 6.00533 157.412 5.776 158.532 5.776V6.992C157.892 6.992 157.439 7.12 157.172 7.376C156.916 7.62133 156.788 8.032 156.788 8.608V9.232H158.628V10.432ZM168.326 13.28C168.326 13.5573 168.31 13.8507 168.278 14.16H161.27C161.323 15.024 161.616 15.7013 162.15 16.192C162.694 16.672 163.35 16.912 164.118 16.912C164.747 16.912 165.27 16.768 165.686 16.48C166.112 16.1813 166.411 15.7867 166.582 15.296H168.15C167.915 16.1387 167.446 16.8267 166.742 17.36C166.038 17.8827 165.163 18.144 164.118 18.144C163.286 18.144 162.539 17.9573 161.878 17.584C161.227 17.2107 160.715 16.6827 160.342 16C159.968 15.3067 159.782 14.5067 159.782 13.6C159.782 12.6933 159.963 11.8987 160.326 11.216C160.688 10.5333 161.195 10.0107 161.846 9.648C162.507 9.27467 163.264 9.088 164.118 9.088C164.95 9.088 165.686 9.26933 166.326 9.632C166.966 9.99467 167.456 10.496 167.798 11.136C168.15 11.7653 168.326 12.48 168.326 13.28ZM166.822 12.976C166.822 12.4213 166.699 11.9467 166.454 11.552C166.208 11.1467 165.872 10.8427 165.446 10.64C165.03 10.4267 164.566 10.32 164.054 10.32C163.318 10.32 162.688 10.5547 162.166 11.024C161.654 11.4933 161.36 12.144 161.286 12.976H166.822ZM178.248 13.28C178.248 13.5573 178.232 13.8507 178.2 14.16H171.192C171.245 15.024 171.538 15.7013 172.072 16.192C172.616 16.672 173.272 16.912 174.04 16.912C174.669 16.912 175.192 16.768 175.608 16.48C176.034 16.1813 176.333 15.7867 176.504 15.296H178.072C177.837 16.1387 177.368 16.8267 176.664 17.36C175.96 17.8827 175.085 18.144 174.04 18.144C173.208 18.144 172.461 17.9573 171.8 17.584C171.149 17.2107 170.637 16.6827 170.264 16C169.89 15.3067 169.704 14.5067 169.704 13.6C169.704 12.6933 169.885 11.8987 170.248 11.216C170.61 10.5333 171.117 10.0107 171.768 9.648C172.429 9.27467 173.186 9.088 174.04 9.088C174.872 9.088 175.608 9.26933 176.248 9.632C176.888 9.99467 177.378 10.496 177.72 11.136C178.072 11.7653 178.248 12.48 178.248 13.28ZM176.744 12.976C176.744 12.4213 176.621 11.9467 176.376 11.552C176.13 11.1467 175.794 10.8427 175.368 10.64C174.952 10.4267 174.488 10.32 173.976 10.32C173.24 10.32 172.61 10.5547 172.088 11.024C171.576 11.4933 171.282 12.144 171.208 12.976H176.744ZM3.008 34.432V39.6C3.008 40.0267 3.09867 40.3307 3.28 40.512C3.46133 40.6827 3.776 40.768 4.224 40.768H5.296V42H3.984C3.17333 42 2.56533 41.8133 2.16 41.44C1.75467 41.0667 1.552 40.4533 1.552 39.6V34.432H0.416V33.232H1.552V31.024H3.008V33.232H5.296V34.432H3.008ZM6.51613 37.584C6.51613 36.688 6.69746 35.904 7.06013 35.232C7.42279 34.5493 7.91879 34.0213 8.54813 33.648C9.18813 33.2747 9.89746 33.088 10.6761 33.088C11.4441 33.088 12.1108 33.2533 12.6761 33.584C13.2415 33.9147 13.6628 34.3307 13.9401 34.832V33.232H15.4121V42H13.9401V40.368C13.6521 40.88 13.2201 41.3067 12.6441 41.648C12.0788 41.9787 11.4175 42.144 10.6601 42.144C9.88146 42.144 9.17746 41.952 8.54813 41.568C7.91879 41.184 7.42279 40.6453 7.06013 39.952C6.69746 39.2587 6.51613 38.4693 6.51613 37.584ZM13.9401 37.6C13.9401 36.9387 13.8068 36.3627 13.5401 35.872C13.2735 35.3813 12.9108 35.008 12.4521 34.752C12.0041 34.4853 11.5081 34.352 10.9641 34.352C10.4201 34.352 9.92413 34.48 9.47613 34.736C9.02813 34.992 8.67079 35.3653 8.40413 35.856C8.13746 36.3467 8.00413 36.9227 8.00413 37.584C8.00413 38.256 8.13746 38.8427 8.40413 39.344C8.67079 39.8347 9.02813 40.2133 9.47613 40.48C9.92413 40.736 10.4201 40.864 10.9641 40.864C11.5081 40.864 12.0041 40.736 12.4521 40.48C12.9108 40.2133 13.2735 39.8347 13.5401 39.344C13.8068 38.8427 13.9401 38.2613 13.9401 37.6ZM19.3286 34.864C19.6273 34.3413 20.0646 33.9147 20.6406 33.584C21.2166 33.2533 21.8726 33.088 22.6086 33.088C23.398 33.088 24.1073 33.2747 24.7366 33.648C25.366 34.0213 25.862 34.5493 26.2246 35.232C26.5873 35.904 26.7686 36.688 26.7686 37.584C26.7686 38.4693 26.5873 39.2587 26.2246 39.952C25.862 40.6453 25.3606 41.184 24.7206 41.568C24.0913 41.952 23.3873 42.144 22.6086 42.144C21.8513 42.144 21.1846 41.9787 20.6086 41.648C20.0433 41.3173 19.6166 40.896 19.3286 40.384V42H17.8726V30.16H19.3286V34.864ZM25.2806 37.584C25.2806 36.9227 25.1473 36.3467 24.8806 35.856C24.614 35.3653 24.2513 34.992 23.7926 34.736C23.3446 34.48 22.8486 34.352 22.3046 34.352C21.7713 34.352 21.2753 34.4853 20.8166 34.752C20.3686 35.008 20.006 35.3867 19.7286 35.888C19.462 36.3787 19.3286 36.9493 19.3286 37.6C19.3286 38.2613 19.462 38.8427 19.7286 39.344C20.006 39.8347 20.3686 40.2133 20.8166 40.48C21.2753 40.736 21.7713 40.864 22.3046 40.864C22.8486 40.864 23.3446 40.736 23.7926 40.48C24.2513 40.2133 24.614 39.8347 24.8806 39.344C25.1473 38.8427 25.2806 38.256 25.2806 37.584ZM30.1411 30.16V42H28.6851V30.16H30.1411ZM40.6226 37.28C40.6226 37.5573 40.6066 37.8507 40.5746 38.16H33.5666C33.62 39.024 33.9133 39.7013 34.4466 40.192C34.9906 40.672 35.6466 40.912 36.4146 40.912C37.044 40.912 37.5666 40.768 37.9826 40.48C38.4093 40.1813 38.708 39.7867 38.8786 39.296H40.4466C40.212 40.1387 39.7426 40.8267 39.0386 41.36C38.3346 41.8827 37.46 42.144 36.4146 42.144C35.5826 42.144 34.836 41.9573 34.1746 41.584C33.524 41.2107 33.012 40.6827 32.6386 40C32.2653 39.3067 32.0786 38.5067 32.0786 37.6C32.0786 36.6933 32.26 35.8987 32.6226 35.216C32.9853 34.5333 33.492 34.0107 34.1426 33.648C34.804 33.2747 35.5613 33.088 36.4146 33.088C37.2466 33.088 37.9826 33.2693 38.6226 33.632C39.2626 33.9947 39.7533 34.496 40.0946 35.136C40.4466 35.7653 40.6226 36.48 40.6226 37.28ZM39.1186 36.976C39.1186 36.4213 38.996 35.9467 38.7506 35.552C38.5053 35.1467 38.1693 34.8427 37.7426 34.64C37.3266 34.4267 36.8626 34.32 36.3506 34.32C35.6146 34.32 34.9853 34.5547 34.4626 35.024C33.9506 35.4933 33.6573 36.144 33.5826 36.976H39.1186Z" fill="black"/>
<path d="M10.464 86L6.624 79.328H4.536V86H1.8V69.32H7.56C8.84 69.32 9.92 69.544 10.8 69.992C11.696 70.44 12.36 71.04 12.792 71.792C13.24 72.544 13.464 73.384 13.464 74.312C13.464 75.4 13.144 76.392 12.504 77.288C11.88 78.168 10.912 78.768 9.6 79.088L13.728 86H10.464ZM4.536 77.144H7.56C8.584 77.144 9.352 76.888 9.864 76.376C10.392 75.864 10.656 75.176 10.656 74.312C10.656 73.448 10.4 72.776 9.888 72.296C9.376 71.8 8.6 71.552 7.56 71.552H4.536V77.144ZM21.7641 86.216C20.7241 86.216 19.7881 86.032 18.9561 85.664C18.1401 85.28 17.4921 84.768 17.0121 84.128C16.5321 83.472 16.2761 82.744 16.2441 81.944H19.0761C19.1241 82.504 19.3881 82.976 19.8681 83.36C20.3641 83.728 20.9801 83.912 21.7161 83.912C22.4841 83.912 23.0761 83.768 23.4921 83.48C23.9241 83.176 24.1401 82.792 24.1401 82.328C24.1401 81.832 23.9001 81.464 23.4201 81.224C22.9561 80.984 22.2121 80.72 21.1881 80.432C20.1961 80.16 19.3881 79.896 18.7641 79.64C18.1401 79.384 17.5961 78.992 17.1321 78.464C16.6841 77.936 16.4601 77.24 16.4601 76.376C16.4601 75.672 16.6681 75.032 17.0841 74.456C17.5001 73.864 18.0921 73.4 18.8601 73.064C19.6441 72.728 20.5401 72.56 21.5481 72.56C23.0521 72.56 24.2601 72.944 25.1721 73.712C26.1001 74.464 26.5961 75.496 26.6601 76.808H23.9241C23.8761 76.216 23.6361 75.744 23.2041 75.392C22.7721 75.04 22.1881 74.864 21.4521 74.864C20.7321 74.864 20.1801 75 19.7961 75.272C19.4121 75.544 19.2201 75.904 19.2201 76.352C19.2201 76.704 19.3481 77 19.6041 77.24C19.8601 77.48 20.1721 77.672 20.5401 77.816C20.9081 77.944 21.4521 78.112 22.1721 78.32C23.1321 78.576 23.9161 78.84 24.5241 79.112C25.1481 79.368 25.6841 79.752 26.1321 80.264C26.5801 80.776 26.8121 81.456 26.8281 82.304C26.8281 83.056 26.6201 83.728 26.2041 84.32C25.7881 84.912 25.1961 85.376 24.4281 85.712C23.6761 86.048 22.7881 86.216 21.7641 86.216ZM30.8884 86.168C30.3924 86.168 29.9764 86 29.6404 85.664C29.3044 85.328 29.1364 84.912 29.1364 84.416C29.1364 83.92 29.3044 83.504 29.6404 83.168C29.9764 82.832 30.3924 82.664 30.8884 82.664C31.3684 82.664 31.7764 82.832 32.1124 83.168C32.4484 83.504 32.6164 83.92 32.6164 84.416C32.6164 84.912 32.4484 85.328 32.1124 85.664C31.7764 86 31.3684 86.168 30.8884 86.168ZM42.9598 82.28C44.4958 80.952 45.7038 79.864 46.5838 79.016C47.4798 78.152 48.2238 77.256 48.8158 76.328C49.4078 75.4 49.7038 74.472 49.7038 73.544C49.7038 72.584 49.4718 71.832 49.0078 71.288C48.5598 70.744 47.8478 70.472 46.8718 70.472C45.9278 70.472 45.1918 70.776 44.6638 71.384C44.1518 71.976 43.8798 72.776 43.8478 73.784H41.2078C41.2558 71.96 41.7998 70.568 42.8398 69.608C43.8958 68.632 45.2318 68.144 46.8478 68.144C48.5918 68.144 49.9518 68.624 50.9278 69.584C51.9198 70.544 52.4158 71.824 52.4158 73.424C52.4158 74.576 52.1198 75.688 51.5278 76.76C50.9518 77.816 50.2558 78.768 49.4398 79.616C48.6398 80.448 47.6158 81.416 46.3678 82.52L45.2878 83.48H52.8958V85.76H41.2318V83.768L42.9598 82.28ZM66.5794 70.856H58.5394V75.632C58.8754 75.184 59.3714 74.808 60.0274 74.504C60.6994 74.2 61.4114 74.048 62.1634 74.048C63.5074 74.048 64.5954 74.336 65.4274 74.912C66.2754 75.488 66.8754 76.216 67.2274 77.096C67.5954 77.976 67.7794 78.904 67.7794 79.88C67.7794 81.064 67.5474 82.12 67.0834 83.048C66.6354 83.96 65.9554 84.68 65.0434 85.208C64.1474 85.736 63.0434 86 61.7314 86C59.9874 86 58.5874 85.568 57.5314 84.704C56.4754 83.84 55.8434 82.696 55.6354 81.272H58.2994C58.4754 82.024 58.8674 82.624 59.4754 83.072C60.0834 83.504 60.8434 83.72 61.7554 83.72C62.8914 83.72 63.7394 83.376 64.2994 82.688C64.8754 82 65.1634 81.088 65.1634 79.952C65.1634 78.8 64.8754 77.92 64.2994 77.312C63.7234 76.688 62.8754 76.376 61.7554 76.376C60.9714 76.376 60.3074 76.576 59.7634 76.976C59.2354 77.36 58.8514 77.888 58.6114 78.56H56.0194V68.456H66.5794V70.856ZM73.9875 82.712L71.0835 89.336H69.3075L71.0115 82.712H73.9875ZM77.5301 82.28C79.0661 80.952 80.2741 79.864 81.1541 79.016C82.0501 78.152 82.7941 77.256 83.3861 76.328C83.9781 75.4 84.2741 74.472 84.2741 73.544C84.2741 72.584 84.0421 71.832 83.5781 71.288C83.1301 70.744 82.4181 70.472 81.4421 70.472C80.4981 70.472 79.7621 70.776 79.2341 71.384C78.7221 71.976 78.4501 72.776 78.4181 73.784H75.7781C75.8261 71.96 76.3701 70.568 77.4101 69.608C78.4661 68.632 79.8021 68.144 81.4181 68.144C83.1621 68.144 84.5221 68.624 85.4981 69.584C86.4901 70.544 86.9861 71.824 86.9861 73.424C86.9861 74.576 86.6901 75.688 86.0981 76.76C85.5221 77.816 84.8261 78.768 84.0101 79.616C83.2101 80.448 82.1861 81.416 80.9381 82.52L79.8581 83.48H87.4661V85.76H75.8021V83.768L77.5301 82.28ZM89.8697 77.024C89.8697 74.256 90.3337 72.096 91.2617 70.544C92.2057 68.976 93.8217 68.192 96.1097 68.192C98.3977 68.192 100.006 68.976 100.934 70.544C101.878 72.096 102.35 74.256 102.35 77.024C102.35 79.824 101.878 82.016 100.934 83.6C100.006 85.168 98.3977 85.952 96.1097 85.952C93.8217 85.952 92.2057 85.168 91.2617 83.6C90.3337 82.016 89.8697 79.824 89.8697 77.024ZM99.6617 77.024C99.6617 75.728 99.5737 74.632 99.3977 73.736C99.2377 72.84 98.9017 72.112 98.3897 71.552C97.8777 70.976 97.1177 70.688 96.1097 70.688C95.1017 70.688 94.3417 70.976 93.8297 71.552C93.3177 72.112 92.9737 72.84 92.7977 73.736C92.6377 74.632 92.5577 75.728 92.5577 77.024C92.5577 78.368 92.6377 79.496 92.7977 80.408C92.9577 81.32 93.2937 82.056 93.8057 82.616C94.3337 83.176 95.1017 83.456 96.1097 83.456C97.1177 83.456 97.8777 83.176 98.3897 82.616C98.9177 82.056 99.2617 81.32 99.4217 80.408C99.5817 79.496 99.6617 78.368 99.6617 77.024ZM105.245 77.024C105.245 74.256 105.709 72.096 106.637 70.544C107.581 68.976 109.197 68.192 111.485 68.192C113.773 68.192 115.381 68.976 116.309 70.544C117.253 72.096 117.725 74.256 117.725 77.024C117.725 79.824 117.253 82.016 116.309 83.6C115.381 85.168 113.773 85.952 111.485 85.952C109.197 85.952 107.581 85.168 106.637 83.6C105.709 82.016 105.245 79.824 105.245 77.024ZM115.037 77.024C115.037 75.728 114.949 74.632 114.773 73.736C114.613 72.84 114.277 72.112 113.765 71.552C113.253 70.976 112.493 70.688 111.485 70.688C110.477 70.688 109.717 70.976 109.205 71.552C108.693 72.112 108.349 72.84 108.173 73.736C108.013 74.632 107.933 75.728 107.933 77.024C107.933 78.368 108.013 79.496 108.173 80.408C108.333 81.32 108.669 82.056 109.181 82.616C109.709 83.176 110.477 83.456 111.485 83.456C112.493 83.456 113.253 83.176 113.765 82.616C114.293 82.056 114.637 81.32 114.797 80.408C114.957 79.496 115.037 78.368 115.037 77.024ZM122.084 86.168C121.588 86.168 121.172 86 120.836 85.664C120.5 85.328 120.332 84.912 120.332 84.416C120.332 83.92 120.5 83.504 120.836 83.168C121.172 82.832 121.588 82.664 122.084 82.664C122.564 82.664 122.972 82.832 123.308 83.168C123.644 83.504 123.812 83.92 123.812 84.416C123.812 84.912 123.644 85.328 123.308 85.664C122.972 86 122.564 86.168 122.084 86.168ZM126.409 77.024C126.409 74.256 126.873 72.096 127.801 70.544C128.745 68.976 130.361 68.192 132.649 68.192C134.937 68.192 136.545 68.976 137.473 70.544C138.417 72.096 138.889 74.256 138.889 77.024C138.889 79.824 138.417 82.016 137.473 83.6C136.545 85.168 134.937 85.952 132.649 85.952C130.361 85.952 128.745 85.168 127.801 83.6C126.873 82.016 126.409 79.824 126.409 77.024ZM136.201 77.024C136.201 75.728 136.113 74.632 135.937 73.736C135.777 72.84 135.441 72.112 134.929 71.552C134.417 70.976 133.657 70.688 132.649 70.688C131.641 70.688 130.881 70.976 130.369 71.552C129.857 72.112 129.513 72.84 129.337 73.736C129.177 74.632 129.097 75.728 129.097 77.024C129.097 78.368 129.177 79.496 129.337 80.408C129.497 81.32 129.833 82.056 130.345 82.616C130.873 83.176 131.641 83.456 132.649 83.456C133.657 83.456 134.417 83.176 134.929 82.616C135.457 82.056 135.801 81.32 135.961 80.408C136.121 79.496 136.201 78.368 136.201 77.024ZM141.784 77.024C141.784 74.256 142.248 72.096 143.176 70.544C144.12 68.976 145.736 68.192 148.024 68.192C150.312 68.192 151.92 68.976 152.848 70.544C153.792 72.096 154.264 74.256 154.264 77.024C154.264 79.824 153.792 82.016 152.848 83.6C151.92 85.168 150.312 85.952 148.024 85.952C145.736 85.952 144.12 85.168 143.176 83.6C142.248 82.016 141.784 79.824 141.784 77.024ZM151.576 77.024C151.576 75.728 151.488 74.632 151.312 73.736C151.152 72.84 150.816 72.112 150.304 71.552C149.792 70.976 149.032 70.688 148.024 70.688C147.016 70.688 146.256 70.976 145.744 71.552C145.232 72.112 144.888 72.84 144.712 73.736C144.552 74.632 144.472 75.728 144.472 77.024C144.472 78.368 144.552 79.496 144.712 80.408C144.872 81.32 145.208 82.056 145.72 82.616C146.248 83.176 147.016 83.456 148.024 83.456C149.032 83.456 149.792 83.176 150.304 82.616C150.832 82.056 151.176 81.32 151.336 80.408C151.496 79.496 151.576 78.368 151.576 77.024Z" fill="black"/>
</svg>
