<svg width="392" height="60" viewBox="0 0 392 60" fill="none" xmlns="http://www.w3.org/2000/svg">
<rect width="60" height="60" rx="10" fill="#FBEBB5"/>
<path d="M27.76 24.2V22.54H31.52V37H29.68V24.2H27.76Z" fill="black"/>
<rect x="98" width="60" height="60" rx="10" fill="#FFF9E6"/>
<path d="M123.02 35.54C124.713 34.18 126.04 33.0667 127 32.2C127.96 31.32 128.767 30.4067 129.42 29.46C130.087 28.5 130.42 27.56 130.42 26.64C130.42 25.7733 130.207 25.0933 129.78 24.6C129.367 24.0933 128.693 23.84 127.76 23.84C126.853 23.84 126.147 24.1267 125.64 24.7C125.147 25.26 124.88 26.0133 124.84 26.96H123.08C123.133 25.4667 123.587 24.3133 124.44 23.5C125.293 22.6867 126.393 22.28 127.74 22.28C129.113 22.28 130.2 22.66 131 23.42C131.813 24.18 132.22 25.2267 132.22 26.56C132.22 27.6667 131.887 28.7467 131.22 29.8C130.567 30.84 129.82 31.76 128.98 32.56C128.14 33.3467 127.067 34.2667 125.76 35.32H132.64V36.84H123.02V35.54Z" fill="black"/>
<rect x="196" width="60" height="60" rx="10" fill="#FFF9E6"/>
<path d="M221.2 26.18C221.293 24.9533 221.767 23.9933 222.62 23.3C223.473 22.6067 224.58 22.26 225.94 22.26C226.847 22.26 227.627 22.4267 228.28 22.76C228.947 23.08 229.447 23.52 229.78 24.08C230.127 24.64 230.3 25.2733 230.3 25.98C230.3 26.8067 230.06 27.52 229.58 28.12C229.113 28.72 228.5 29.1067 227.74 29.28V29.38C228.607 29.5933 229.293 30.0133 229.8 30.64C230.307 31.2667 230.56 32.0867 230.56 33.1C230.56 33.86 230.387 34.5467 230.04 35.16C229.693 35.76 229.173 36.2333 228.48 36.58C227.787 36.9267 226.953 37.1 225.98 37.1C224.567 37.1 223.407 36.7333 222.5 36C221.593 35.2533 221.087 34.2 220.98 32.84H222.74C222.833 33.64 223.16 34.2933 223.72 34.8C224.28 35.3067 225.027 35.56 225.96 35.56C226.893 35.56 227.6 35.32 228.08 34.84C228.573 34.3467 228.82 33.7133 228.82 32.94C228.82 31.94 228.487 31.22 227.82 30.78C227.153 30.34 226.147 30.12 224.8 30.12H224.34V28.6H224.82C226.047 28.5867 226.973 28.3867 227.6 28C228.227 27.6 228.54 26.9867 228.54 26.16C228.54 25.4533 228.307 24.8867 227.84 24.46C227.387 24.0333 226.733 23.82 225.88 23.82C225.053 23.82 224.387 24.0333 223.88 24.46C223.373 24.8867 223.073 25.46 222.98 26.18H221.2Z" fill="black"/>
<rect x="294" width="98" height="60" rx="10" fill="#FFF9E6"/>
<path d="M334.14 37H332.74L325 25.24V37H323.6V23.02H325L332.74 34.76V23.02H334.14V37ZM347.191 30.98C347.191 31.46 347.178 31.8267 347.151 32.08H338.091C338.131 32.9067 338.331 33.6133 338.691 34.2C339.051 34.7867 339.524 35.2333 340.111 35.54C340.698 35.8333 341.338 35.98 342.031 35.98C342.938 35.98 343.698 35.76 344.311 35.32C344.938 34.88 345.351 34.2867 345.551 33.54H347.031C346.764 34.6067 346.191 35.48 345.311 36.16C344.444 36.8267 343.351 37.16 342.031 37.16C341.004 37.16 340.084 36.9333 339.271 36.48C338.458 36.0133 337.818 35.36 337.351 34.52C336.898 33.6667 336.671 32.6733 336.671 31.54C336.671 30.4067 336.898 29.4133 337.351 28.56C337.804 27.7067 338.438 27.0533 339.251 26.6C340.064 26.1467 340.991 25.92 342.031 25.92C343.071 25.92 343.978 26.1467 344.751 26.6C345.538 27.0533 346.138 27.6667 346.551 28.44C346.978 29.2 347.191 30.0467 347.191 30.98ZM345.771 30.94C345.784 30.1267 345.618 29.4333 345.271 28.86C344.938 28.2867 344.478 27.8533 343.891 27.56C343.304 27.2667 342.664 27.12 341.971 27.12C340.931 27.12 340.044 27.4533 339.311 28.12C338.578 28.7867 338.171 29.7267 338.091 30.94H345.771ZM355.472 37L352.652 32.6L349.932 37H348.452L351.972 31.54L348.492 26.08H350.072L352.852 30.42L355.552 26.08H357.012L353.532 31.48L357.052 37H355.472ZM360.772 27.26V34.04C360.772 34.7067 360.898 35.1667 361.152 35.42C361.405 35.6733 361.852 35.8 362.492 35.8H363.772V37H362.272C361.285 37 360.552 36.7733 360.072 36.32C359.592 35.8533 359.352 35.0933 359.352 34.04V27.26H357.832V26.08H359.352V23.34H360.772V26.08H363.772V27.26H360.772Z" fill="black"/>
</svg>
