<svg width="126" height="55" viewBox="0 0 126 55" fill="none" xmlns="http://www.w3.org/2000/svg">
<path d="M5.96 34.14C5.04 34.14 4.21333 33.98 3.48 33.66C2.76 33.3267 2.19333 32.8733 1.78 32.3C1.36667 31.7133 1.15333 31.04 1.14 30.28H3.08C3.14667 30.9333 3.41333 31.4867 3.88 31.94C4.36 32.38 5.05333 32.6 5.96 32.6C6.82667 32.6 7.50667 32.3867 8 31.96C8.50667 31.52 8.76 30.96 8.76 30.28C8.76 29.7467 8.61333 29.3133 8.32 28.98C8.02667 28.6467 7.66 28.3933 7.22 28.22C6.78 28.0467 6.18667 27.86 5.44 27.66C4.52 27.42 3.78 27.18 3.22 26.94C2.67333 26.7 2.2 26.3267 1.8 25.82C1.41333 25.3 1.22 24.6067 1.22 23.74C1.22 22.98 1.41333 22.3067 1.8 21.72C2.18667 21.1333 2.72667 20.68 3.42 20.36C4.12667 20.04 4.93333 19.88 5.84 19.88C7.14667 19.88 8.21333 20.2067 9.04 20.86C9.88 21.5133 10.3533 22.38 10.46 23.46H8.46C8.39333 22.9267 8.11333 22.46 7.62 22.06C7.12667 21.6467 6.47333 21.44 5.66 21.44C4.9 21.44 4.28 21.64 3.8 22.04C3.32 22.4267 3.08 22.9733 3.08 23.68C3.08 24.1867 3.22 24.6 3.5 24.92C3.79333 25.24 4.14667 25.4867 4.56 25.66C4.98667 25.82 5.58 26.0067 6.34 26.22C7.26 26.4733 8 26.7267 8.56 26.98C9.12 27.22 9.6 27.6 10 28.12C10.4 28.6267 10.6 29.32 10.6 30.2C10.6 30.88 10.42 31.52 10.06 32.12C9.7 32.72 9.16667 33.2067 8.46 33.58C7.75333 33.9533 6.92 34.14 5.96 34.14ZM18.7183 22.84C19.5449 22.84 20.2916 23.02 20.9583 23.38C21.6249 23.7267 22.1449 24.2533 22.5183 24.96C22.9049 25.6667 23.0983 26.5267 23.0983 27.54V34H21.2983V27.8C21.2983 26.7067 21.0249 25.8733 20.4783 25.3C19.9316 24.7133 19.1849 24.42 18.2383 24.42C17.2783 24.42 16.5116 24.72 15.9383 25.32C15.3783 25.92 15.0983 26.7933 15.0983 27.94V34H13.2783V19.2H15.0983V24.6C15.4583 24.04 15.9516 23.6067 16.5783 23.3C17.2183 22.9933 17.9316 22.84 18.7183 22.84ZM30.8513 34.18C29.8246 34.18 28.8913 33.9467 28.0513 33.48C27.2246 33.0133 26.5713 32.3533 26.0913 31.5C25.6246 30.6333 25.3913 29.6333 25.3913 28.5C25.3913 27.38 25.6313 26.3933 26.1113 25.54C26.6046 24.6733 27.2713 24.0133 28.1113 23.56C28.9513 23.0933 29.8913 22.86 30.9313 22.86C31.9713 22.86 32.9113 23.0933 33.7513 23.56C34.5913 24.0133 35.2513 24.6667 35.7313 25.52C36.2246 26.3733 36.4713 27.3667 36.4713 28.5C36.4713 29.6333 36.2179 30.6333 35.7113 31.5C35.2179 32.3533 34.5446 33.0133 33.6913 33.48C32.8379 33.9467 31.8913 34.18 30.8513 34.18ZM30.8513 32.58C31.5046 32.58 32.1179 32.4267 32.6913 32.12C33.2646 31.8133 33.7246 31.3533 34.0713 30.74C34.4313 30.1267 34.6113 29.38 34.6113 28.5C34.6113 27.62 34.4379 26.8733 34.0913 26.26C33.7446 25.6467 33.2913 25.1933 32.7313 24.9C32.1713 24.5933 31.5646 24.44 30.9113 24.44C30.2446 24.44 29.6313 24.5933 29.0713 24.9C28.5246 25.1933 28.0846 25.6467 27.7513 26.26C27.4179 26.8733 27.2513 27.62 27.2513 28.5C27.2513 29.3933 27.4113 30.1467 27.7313 30.76C28.0646 31.3733 28.5046 31.8333 29.0513 32.14C29.5979 32.4333 30.1979 32.58 30.8513 32.58ZM53.4642 23.04L50.0442 34H48.1642L45.5242 25.3L42.8842 34H41.0042L37.5642 23.04H39.4242L41.9442 32.24L44.6642 23.04H46.5242L49.1842 32.26L51.6642 23.04H53.4642Z" fill="black"/>
<rect x="71" width="55" height="55" fill="white"/>
<path d="M89.76 21.2V19.54H93.52V34H91.68V21.2H89.76ZM104.706 22.98C104.413 21.5 103.5 20.76 101.966 20.76C100.78 20.76 99.8929 21.22 99.3063 22.14C98.7196 23.0467 98.4329 24.5467 98.4463 26.64C98.7529 25.9467 99.2596 25.4067 99.9663 25.02C100.686 24.62 101.486 24.42 102.366 24.42C103.74 24.42 104.833 24.8467 105.646 25.7C106.473 26.5533 106.886 27.7333 106.886 29.24C106.886 30.1467 106.706 30.96 106.346 31.68C106 32.4 105.466 32.9733 104.746 33.4C104.04 33.8267 103.18 34.04 102.166 34.04C100.793 34.04 99.7196 33.7333 98.9463 33.12C98.1729 32.5067 97.6329 31.66 97.3263 30.58C97.0196 29.5 96.8663 28.1667 96.8663 26.58C96.8663 21.6867 98.5729 19.24 101.986 19.24C103.293 19.24 104.32 19.5933 105.066 20.3C105.813 21.0067 106.253 21.9 106.386 22.98H104.706ZM101.986 25.96C101.413 25.96 100.873 26.08 100.366 26.32C99.8596 26.5467 99.4463 26.9 99.1263 27.38C98.8196 27.8467 98.6663 28.42 98.6663 29.1C98.6663 30.1133 98.9596 30.94 99.5463 31.58C100.133 32.2067 100.973 32.52 102.066 32.52C103 32.52 103.74 32.2333 104.286 31.66C104.846 31.0733 105.126 30.2867 105.126 29.3C105.126 28.26 104.86 27.4467 104.326 26.86C103.793 26.26 103.013 25.96 101.986 25.96Z" fill="#9F9F9F"/>
</svg>
