<svg width="212" height="71" viewBox="0 0 212 71" fill="none" xmlns="http://www.w3.org/2000/svg">
<path d="M7.104 18L4.448 13.44H2.688V18H1.232V6.848H4.832C5.67467 6.848 6.384 6.992 6.96 7.28C7.54667 7.568 7.984 7.95733 8.272 8.448C8.56 8.93867 8.704 9.49867 8.704 10.128C8.704 10.896 8.48 11.5733 8.032 12.16C7.59467 12.7467 6.93333 13.136 6.048 13.328L8.848 18H7.104ZM2.688 12.272H4.832C5.62133 12.272 6.21333 12.08 6.608 11.696C7.00267 11.3013 7.2 10.7787 7.2 10.128C7.2 9.46667 7.00267 8.95467 6.608 8.592C6.224 8.22933 5.632 8.048 4.832 8.048H2.688V12.272ZM18.9664 13.28C18.9664 13.5573 18.9504 13.8507 18.9184 14.16H11.9104C11.9637 15.024 12.257 15.7013 12.7904 16.192C13.3344 16.672 13.9904 16.912 14.7584 16.912C15.3877 16.912 15.9104 16.768 16.3264 16.48C16.753 16.1813 17.0517 15.7867 17.2224 15.296H18.7904C18.5557 16.1387 18.0864 16.8267 17.3824 17.36C16.6784 17.8827 15.8037 18.144 14.7584 18.144C13.9264 18.144 13.1797 17.9573 12.5184 17.584C11.8677 17.2107 11.3557 16.6827 10.9824 16C10.609 15.3067 10.4224 14.5067 10.4224 13.6C10.4224 12.6933 10.6037 11.8987 10.9664 11.216C11.329 10.5333 11.8357 10.0107 12.4864 9.648C13.1477 9.27467 13.905 9.088 14.7584 9.088C15.5904 9.088 16.3264 9.26933 16.9664 9.632C17.6064 9.99467 18.097 10.496 18.4384 11.136C18.7904 11.7653 18.9664 12.48 18.9664 13.28ZM17.4624 12.976C17.4624 12.4213 17.3397 11.9467 17.0944 11.552C16.849 11.1467 16.513 10.8427 16.0864 10.64C15.6704 10.4267 15.2064 10.32 14.6944 10.32C13.9584 10.32 13.329 10.5547 12.8064 11.024C12.2944 11.4933 12.001 12.144 11.9264 12.976H17.4624ZM20.3443 13.6C20.3443 12.6933 20.5256 11.904 20.8883 11.232C21.2509 10.5493 21.7523 10.0213 22.3923 9.648C23.0429 9.27467 23.7843 9.088 24.6163 9.088C25.6936 9.088 26.5789 9.34933 27.2723 9.872C27.9763 10.3947 28.4403 11.12 28.6643 12.048H27.0963C26.9469 11.5147 26.6536 11.0933 26.2163 10.784C25.7896 10.4747 25.2563 10.32 24.6163 10.32C23.7843 10.32 23.1123 10.608 22.6003 11.184C22.0883 11.7493 21.8323 12.5547 21.8323 13.6C21.8323 14.656 22.0883 15.472 22.6003 16.048C23.1123 16.624 23.7843 16.912 24.6163 16.912C25.2563 16.912 25.7896 16.7627 26.2163 16.464C26.6429 16.1653 26.9363 15.7387 27.0963 15.184H28.6643C28.4296 16.08 27.9603 16.8 27.2563 17.344C26.5523 17.8773 25.6723 18.144 24.6163 18.144C23.7843 18.144 23.0429 17.9573 22.3923 17.584C21.7523 17.2107 21.2509 16.6827 20.8883 16C20.5256 15.3173 20.3443 14.5173 20.3443 13.6ZM32.063 6.16V18H30.607V6.16H32.063ZM34.0005 13.584C34.0005 12.688 34.1818 11.904 34.5445 11.232C34.9072 10.5493 35.4032 10.0213 36.0325 9.648C36.6725 9.27467 37.3818 9.088 38.1605 9.088C38.9285 9.088 39.5952 9.25333 40.1605 9.584C40.7258 9.91467 41.1472 10.3307 41.4245 10.832V9.232H42.8965V18H41.4245V16.368C41.1365 16.88 40.7045 17.3067 40.1285 17.648C39.5632 17.9787 38.9018 18.144 38.1445 18.144C37.3658 18.144 36.6618 17.952 36.0325 17.568C35.4032 17.184 34.9072 16.6453 34.5445 15.952C34.1818 15.2587 34.0005 14.4693 34.0005 13.584ZM41.4245 13.6C41.4245 12.9387 41.2912 12.3627 41.0245 11.872C40.7578 11.3813 40.3952 11.008 39.9365 10.752C39.4885 10.4853 38.9925 10.352 38.4485 10.352C37.9045 10.352 37.4085 10.48 36.9605 10.736C36.5125 10.992 36.1552 11.3653 35.8885 11.856C35.6218 12.3467 35.4885 12.9227 35.4885 13.584C35.4885 14.256 35.6218 14.8427 35.8885 15.344C36.1552 15.8347 36.5125 16.2133 36.9605 16.48C37.4085 16.736 37.9045 16.864 38.4485 16.864C38.9925 16.864 39.4885 16.736 39.9365 16.48C40.3952 16.2133 40.7578 15.8347 41.0245 15.344C41.2912 14.8427 41.4245 14.2613 41.4245 13.6ZM46.109 7.808C45.8317 7.808 45.597 7.712 45.405 7.52C45.213 7.328 45.117 7.09333 45.117 6.816C45.117 6.53867 45.213 6.304 45.405 6.112C45.597 5.92 45.8317 5.824 46.109 5.824C46.3757 5.824 46.5997 5.92 46.781 6.112C46.973 6.304 47.069 6.53867 47.069 6.816C47.069 7.09333 46.973 7.328 46.781 7.52C46.5997 7.712 46.3757 7.808 46.109 7.808ZM46.813 9.232V18H45.357V9.232H46.813ZM59.8385 9.072C60.5212 9.072 61.1292 9.216 61.6625 9.504C62.1958 9.78133 62.6172 10.2027 62.9265 10.768C63.2358 11.3333 63.3905 12.0213 63.3905 12.832V18H61.9505V13.04C61.9505 12.1653 61.7318 11.4987 61.2945 11.04C60.8678 10.5707 60.2865 10.336 59.5505 10.336C58.7932 10.336 58.1905 10.5813 57.7425 11.072C57.2945 11.552 57.0705 12.2507 57.0705 13.168V18H55.6305V13.04C55.6305 12.1653 55.4118 11.4987 54.9745 11.04C54.5478 10.5707 53.9665 10.336 53.2305 10.336C52.4732 10.336 51.8705 10.5813 51.4225 11.072C50.9745 11.552 50.7505 12.2507 50.7505 13.168V18H49.2945V9.232H50.7505V10.496C51.0385 10.0373 51.4225 9.68533 51.9025 9.44C52.3932 9.19467 52.9318 9.072 53.5185 9.072C54.2545 9.072 54.9052 9.23733 55.4705 9.568C56.0358 9.89867 56.4572 10.384 56.7345 11.024C56.9798 10.4053 57.3852 9.92533 57.9505 9.584C58.5158 9.24267 59.1452 9.072 59.8385 9.072ZM73.7789 13.28C73.7789 13.5573 73.7629 13.8507 73.7309 14.16H66.7229C66.7762 15.024 67.0695 15.7013 67.6029 16.192C68.1469 16.672 68.8029 16.912 69.5709 16.912C70.2002 16.912 70.7229 16.768 71.1389 16.48C71.5655 16.1813 71.8642 15.7867 72.0349 15.296H73.6029C73.3682 16.1387 72.8989 16.8267 72.1949 17.36C71.4909 17.8827 70.6162 18.144 69.5709 18.144C68.7389 18.144 67.9922 17.9573 67.3309 17.584C66.6802 17.2107 66.1682 16.6827 65.7949 16C65.4215 15.3067 65.2349 14.5067 65.2349 13.6C65.2349 12.6933 65.4162 11.8987 65.7789 11.216C66.1415 10.5333 66.6482 10.0107 67.2989 9.648C67.9602 9.27467 68.7175 9.088 69.5709 9.088C70.4029 9.088 71.1389 9.26933 71.7789 9.632C72.4189 9.99467 72.9095 10.496 73.2509 11.136C73.6029 11.7653 73.7789 12.48 73.7789 13.28ZM72.2749 12.976C72.2749 12.4213 72.1522 11.9467 71.9069 11.552C71.6615 11.1467 71.3255 10.8427 70.8989 10.64C70.4829 10.4267 70.0189 10.32 69.5069 10.32C68.7709 10.32 68.1415 10.5547 67.6189 11.024C67.1069 11.4933 66.8135 12.144 66.7389 12.976H72.2749ZM75.1568 13.584C75.1568 12.688 75.3381 11.904 75.7008 11.232C76.0634 10.5493 76.5594 10.0213 77.1888 9.648C77.8288 9.27467 78.5434 9.088 79.3328 9.088C80.0154 9.088 80.6501 9.248 81.2368 9.568C81.8234 9.87733 82.2714 10.288 82.5808 10.8V6.16H84.0528V18H82.5808V16.352C82.2928 16.8747 81.8661 17.3067 81.3008 17.648C80.7354 17.9787 80.0741 18.144 79.3168 18.144C78.5381 18.144 77.8288 17.952 77.1888 17.568C76.5594 17.184 76.0634 16.6453 75.7008 15.952C75.3381 15.2587 75.1568 14.4693 75.1568 13.584ZM82.5808 13.6C82.5808 12.9387 82.4474 12.3627 82.1808 11.872C81.9141 11.3813 81.5514 11.008 81.0928 10.752C80.6448 10.4853 80.1488 10.352 79.6048 10.352C79.0608 10.352 78.5648 10.48 78.1168 10.736C77.6688 10.992 77.3114 11.3653 77.0448 11.856C76.7781 12.3467 76.6448 12.9227 76.6448 13.584C76.6448 14.256 76.7781 14.8427 77.0448 15.344C77.3114 15.8347 77.6688 16.2133 78.1168 16.48C78.5648 16.736 79.0608 16.864 79.6048 16.864C80.1488 16.864 80.6448 16.736 81.0928 16.48C81.5514 16.2133 81.9141 15.8347 82.1808 15.344C82.4474 14.8427 82.5808 14.2613 82.5808 13.6ZM92.5549 10.432V15.6C92.5549 16.0267 92.6455 16.3307 92.8269 16.512C93.0082 16.6827 93.3229 16.768 93.7709 16.768H94.8429V18H93.5309C92.7202 18 92.1122 17.8133 91.7069 17.44C91.3015 17.0667 91.0989 16.4533 91.0989 15.6V10.432H89.9629V9.232H91.0989V7.024H92.5549V9.232H94.8429V10.432H92.5549ZM104.607 13.28C104.607 13.5573 104.591 13.8507 104.559 14.16H97.551C97.6043 15.024 97.8977 15.7013 98.431 16.192C98.975 16.672 99.631 16.912 100.399 16.912C101.028 16.912 101.551 16.768 101.967 16.48C102.394 16.1813 102.692 15.7867 102.863 15.296H104.431C104.196 16.1387 103.727 16.8267 103.023 17.36C102.319 17.8827 101.444 18.144 100.399 18.144C99.567 18.144 98.8203 17.9573 98.159 17.584C97.5083 17.2107 96.9963 16.6827 96.623 16C96.2497 15.3067 96.063 14.5067 96.063 13.6C96.063 12.6933 96.2443 11.8987 96.607 11.216C96.9697 10.5333 97.4763 10.0107 98.127 9.648C98.7883 9.27467 99.5457 9.088 100.399 9.088C101.231 9.088 101.967 9.26933 102.607 9.632C103.247 9.99467 103.738 10.496 104.079 11.136C104.431 11.7653 104.607 12.48 104.607 13.28ZM103.103 12.976C103.103 12.4213 102.98 11.9467 102.735 11.552C102.49 11.1467 102.154 10.8427 101.727 10.64C101.311 10.4267 100.847 10.32 100.335 10.32C99.599 10.32 98.9697 10.5547 98.447 11.024C97.935 11.4933 97.6417 12.144 97.567 12.976H103.103ZM105.985 13.584C105.985 12.688 106.166 11.904 106.529 11.232C106.892 10.5493 107.388 10.0213 108.017 9.648C108.657 9.27467 109.366 9.088 110.145 9.088C110.913 9.088 111.58 9.25333 112.145 9.584C112.71 9.91467 113.132 10.3307 113.409 10.832V9.232H114.881V18H113.409V16.368C113.121 16.88 112.689 17.3067 112.113 17.648C111.548 17.9787 110.886 18.144 110.129 18.144C109.35 18.144 108.646 17.952 108.017 17.568C107.388 17.184 106.892 16.6453 106.529 15.952C106.166 15.2587 105.985 14.4693 105.985 13.584ZM113.409 13.6C113.409 12.9387 113.276 12.3627 113.009 11.872C112.742 11.3813 112.38 11.008 111.921 10.752C111.473 10.4853 110.977 10.352 110.433 10.352C109.889 10.352 109.393 10.48 108.945 10.736C108.497 10.992 108.14 11.3653 107.873 11.856C107.606 12.3467 107.473 12.9227 107.473 13.584C107.473 14.256 107.606 14.8427 107.873 15.344C108.14 15.8347 108.497 16.2133 108.945 16.48C109.393 16.736 109.889 16.864 110.433 16.864C110.977 16.864 111.473 16.736 111.921 16.48C112.38 16.2133 112.742 15.8347 113.009 15.344C113.276 14.8427 113.409 14.2613 113.409 13.6ZM122.237 18L118.797 14.128V18H117.341V6.16H118.797V13.12L122.173 9.232H124.205L120.077 13.6L124.221 18H122.237ZM133.377 18.112C132.641 18.112 131.98 17.984 131.393 17.728C130.817 17.4613 130.364 17.0987 130.033 16.64C129.703 16.1707 129.532 15.632 129.521 15.024H131.073C131.127 15.5467 131.34 15.9893 131.713 16.352C132.097 16.704 132.652 16.88 133.377 16.88C134.071 16.88 134.615 16.7093 135.009 16.368C135.415 16.016 135.617 15.568 135.617 15.024C135.617 14.5973 135.5 14.2507 135.265 13.984C135.031 13.7173 134.737 13.5147 134.385 13.376C134.033 13.2373 133.559 13.088 132.961 12.928C132.225 12.736 131.633 12.544 131.185 12.352C130.748 12.16 130.369 11.8613 130.049 11.456C129.74 11.04 129.585 10.4853 129.585 9.792C129.585 9.184 129.74 8.64533 130.049 8.176C130.359 7.70667 130.791 7.344 131.345 7.088C131.911 6.832 132.556 6.704 133.281 6.704C134.327 6.704 135.18 6.96533 135.841 7.488C136.513 8.01067 136.892 8.704 136.977 9.568H135.377C135.324 9.14133 135.1 8.768 134.705 8.448C134.311 8.11733 133.788 7.952 133.137 7.952C132.529 7.952 132.033 8.112 131.649 8.432C131.265 8.74133 131.073 9.17867 131.073 9.744C131.073 10.1493 131.185 10.48 131.409 10.736C131.644 10.992 131.927 11.1893 132.257 11.328C132.599 11.456 133.073 11.6053 133.681 11.776C134.417 11.9787 135.009 12.1813 135.457 12.384C135.905 12.576 136.289 12.88 136.609 13.296C136.929 13.7013 137.089 14.256 137.089 14.96C137.089 15.504 136.945 16.016 136.657 16.496C136.369 16.976 135.943 17.3653 135.377 17.664C134.812 17.9627 134.145 18.112 133.377 18.112ZM139.984 7.808C139.707 7.808 139.472 7.712 139.28 7.52C139.088 7.328 138.992 7.09333 138.992 6.816C138.992 6.53867 139.088 6.304 139.28 6.112C139.472 5.92 139.707 5.824 139.984 5.824C140.251 5.824 140.475 5.92 140.656 6.112C140.848 6.304 140.944 6.53867 140.944 6.816C140.944 7.09333 140.848 7.328 140.656 7.52C140.475 7.712 140.251 7.808 139.984 7.808ZM140.688 9.232V18H139.232V9.232H140.688ZM142.626 13.584C142.626 12.688 142.807 11.904 143.17 11.232C143.532 10.5493 144.028 10.0213 144.658 9.648C145.298 9.27467 146.012 9.088 146.802 9.088C147.484 9.088 148.119 9.248 148.706 9.568C149.292 9.87733 149.74 10.288 150.05 10.8V6.16H151.522V18H150.05V16.352C149.762 16.8747 149.335 17.3067 148.77 17.648C148.204 17.9787 147.543 18.144 146.786 18.144C146.007 18.144 145.298 17.952 144.658 17.568C144.028 17.184 143.532 16.6453 143.17 15.952C142.807 15.2587 142.626 14.4693 142.626 13.584ZM150.05 13.6C150.05 12.9387 149.916 12.3627 149.65 11.872C149.383 11.3813 149.02 11.008 148.562 10.752C148.114 10.4853 147.618 10.352 147.074 10.352C146.53 10.352 146.034 10.48 145.586 10.736C145.138 10.992 144.78 11.3653 144.514 11.856C144.247 12.3467 144.114 12.9227 144.114 13.584C144.114 14.256 144.247 14.8427 144.514 15.344C144.78 15.8347 145.138 16.2133 145.586 16.48C146.034 16.736 146.53 16.864 147.074 16.864C147.618 16.864 148.114 16.736 148.562 16.48C149.02 16.2133 149.383 15.8347 149.65 15.344C149.916 14.8427 150.05 14.2613 150.05 13.6ZM161.982 13.28C161.982 13.5573 161.966 13.8507 161.934 14.16H154.926C154.979 15.024 155.273 15.7013 155.806 16.192C156.35 16.672 157.006 16.912 157.774 16.912C158.403 16.912 158.926 16.768 159.342 16.48C159.769 16.1813 160.067 15.7867 160.238 15.296H161.806C161.571 16.1387 161.102 16.8267 160.398 17.36C159.694 17.8827 158.819 18.144 157.774 18.144C156.942 18.144 156.195 17.9573 155.534 17.584C154.883 17.2107 154.371 16.6827 153.998 16C153.625 15.3067 153.438 14.5067 153.438 13.6C153.438 12.6933 153.619 11.8987 153.982 11.216C154.345 10.5333 154.851 10.0107 155.502 9.648C156.163 9.27467 156.921 9.088 157.774 9.088C158.606 9.088 159.342 9.26933 159.982 9.632C160.622 9.99467 161.113 10.496 161.454 11.136C161.806 11.7653 161.982 12.48 161.982 13.28ZM160.478 12.976C160.478 12.4213 160.355 11.9467 160.11 11.552C159.865 11.1467 159.529 10.8427 159.102 10.64C158.686 10.4267 158.222 10.32 157.71 10.32C156.974 10.32 156.345 10.5547 155.822 11.024C155.31 11.4933 155.017 12.144 154.942 12.976H160.478ZM165.36 10.864C165.659 10.3413 166.096 9.91467 166.672 9.584C167.248 9.25333 167.904 9.088 168.64 9.088C169.429 9.088 170.139 9.27467 170.768 9.648C171.397 10.0213 171.893 10.5493 172.256 11.232C172.619 11.904 172.8 12.688 172.8 13.584C172.8 14.4693 172.619 15.2587 172.256 15.952C171.893 16.6453 171.392 17.184 170.752 17.568C170.123 17.952 169.419 18.144 168.64 18.144C167.883 18.144 167.216 17.9787 166.64 17.648C166.075 17.3173 165.648 16.896 165.36 16.384V18H163.904V6.16H165.36V10.864ZM171.312 13.584C171.312 12.9227 171.179 12.3467 170.912 11.856C170.645 11.3653 170.283 10.992 169.824 10.736C169.376 10.48 168.88 10.352 168.336 10.352C167.803 10.352 167.307 10.4853 166.848 10.752C166.4 11.008 166.037 11.3867 165.76 11.888C165.493 12.3787 165.36 12.9493 165.36 13.6C165.36 14.2613 165.493 14.8427 165.76 15.344C166.037 15.8347 166.4 16.2133 166.848 16.48C167.307 16.736 167.803 16.864 168.336 16.864C168.88 16.864 169.376 16.736 169.824 16.48C170.283 16.2133 170.645 15.8347 170.912 15.344C171.179 14.8427 171.312 14.256 171.312 13.584ZM178.54 18.144C177.719 18.144 176.972 17.9573 176.3 17.584C175.639 17.2107 175.116 16.6827 174.732 16C174.359 15.3067 174.172 14.5067 174.172 13.6C174.172 12.704 174.364 11.9147 174.748 11.232C175.143 10.5387 175.676 10.0107 176.348 9.648C177.02 9.27467 177.772 9.088 178.604 9.088C179.436 9.088 180.188 9.27467 180.86 9.648C181.532 10.0107 182.06 10.5333 182.444 11.216C182.839 11.8987 183.036 12.6933 183.036 13.6C183.036 14.5067 182.834 15.3067 182.428 16C182.034 16.6827 181.495 17.2107 180.812 17.584C180.13 17.9573 179.372 18.144 178.54 18.144ZM178.54 16.864C179.063 16.864 179.554 16.7413 180.012 16.496C180.471 16.2507 180.839 15.8827 181.116 15.392C181.404 14.9013 181.548 14.304 181.548 13.6C181.548 12.896 181.41 12.2987 181.132 11.808C180.855 11.3173 180.492 10.9547 180.044 10.72C179.596 10.4747 179.111 10.352 178.588 10.352C178.055 10.352 177.564 10.4747 177.116 10.72C176.679 10.9547 176.327 11.3173 176.06 11.808C175.794 12.2987 175.66 12.896 175.66 13.6C175.66 14.3147 175.788 14.9173 176.044 15.408C176.311 15.8987 176.663 16.2667 177.1 16.512C177.538 16.7467 178.018 16.864 178.54 16.864ZM184.407 13.584C184.407 12.688 184.588 11.904 184.951 11.232C185.313 10.5493 185.809 10.0213 186.439 9.648C187.079 9.27467 187.788 9.088 188.567 9.088C189.335 9.088 190.001 9.25333 190.567 9.584C191.132 9.91467 191.553 10.3307 191.831 10.832V9.232H193.303V18H191.831V16.368C191.543 16.88 191.111 17.3067 190.535 17.648C189.969 17.9787 189.308 18.144 188.551 18.144C187.772 18.144 187.068 17.952 186.439 17.568C185.809 17.184 185.313 16.6453 184.951 15.952C184.588 15.2587 184.407 14.4693 184.407 13.584ZM191.831 13.6C191.831 12.9387 191.697 12.3627 191.431 11.872C191.164 11.3813 190.801 11.008 190.343 10.752C189.895 10.4853 189.399 10.352 188.855 10.352C188.311 10.352 187.815 10.48 187.367 10.736C186.919 10.992 186.561 11.3653 186.295 11.856C186.028 12.3467 185.895 12.9227 185.895 13.584C185.895 14.256 186.028 14.8427 186.295 15.344C186.561 15.8347 186.919 16.2133 187.367 16.48C187.815 16.736 188.311 16.864 188.855 16.864C189.399 16.864 189.895 16.736 190.343 16.48C190.801 16.2133 191.164 15.8347 191.431 15.344C191.697 14.8427 191.831 14.2613 191.831 13.6ZM197.219 10.656C197.475 10.1547 197.838 9.76533 198.307 9.488C198.787 9.21067 199.369 9.072 200.051 9.072V10.576H199.667C198.035 10.576 197.219 11.4613 197.219 13.232V18H195.763V9.232H197.219V10.656ZM201.188 13.584C201.188 12.688 201.369 11.904 201.732 11.232C202.095 10.5493 202.591 10.0213 203.22 9.648C203.86 9.27467 204.575 9.088 205.364 9.088C206.047 9.088 206.681 9.248 207.268 9.568C207.855 9.87733 208.303 10.288 208.612 10.8V6.16H210.084V18H208.612V16.352C208.324 16.8747 207.897 17.3067 207.332 17.648C206.767 17.9787 206.105 18.144 205.348 18.144C204.569 18.144 203.86 17.952 203.22 17.568C202.591 17.184 202.095 16.6453 201.732 15.952C201.369 15.2587 201.188 14.4693 201.188 13.584ZM208.612 13.6C208.612 12.9387 208.479 12.3627 208.212 11.872C207.945 11.3813 207.583 11.008 207.124 10.752C206.676 10.4853 206.18 10.352 205.636 10.352C205.092 10.352 204.596 10.48 204.148 10.736C203.7 10.992 203.343 11.3653 203.076 11.856C202.809 12.3467 202.676 12.9227 202.676 13.584C202.676 14.256 202.809 14.8427 203.076 15.344C203.343 15.8347 203.7 16.2133 204.148 16.48C204.596 16.736 205.092 16.864 205.636 16.864C206.18 16.864 206.676 16.736 207.124 16.48C207.583 16.2133 207.945 15.8347 208.212 15.344C208.479 14.8427 208.612 14.2613 208.612 13.6Z" fill="black"/>
<path d="M10.464 61L6.624 54.328H4.536V61H1.8V44.32H7.56C8.84 44.32 9.92 44.544 10.8 44.992C11.696 45.44 12.36 46.04 12.792 46.792C13.24 47.544 13.464 48.384 13.464 49.312C13.464 50.4 13.144 51.392 12.504 52.288C11.88 53.168 10.912 53.768 9.6 54.088L13.728 61H10.464ZM4.536 52.144H7.56C8.584 52.144 9.352 51.888 9.864 51.376C10.392 50.864 10.656 50.176 10.656 49.312C10.656 48.448 10.4 47.776 9.888 47.296C9.376 46.8 8.6 46.552 7.56 46.552H4.536V52.144ZM21.7641 61.216C20.7241 61.216 19.7881 61.032 18.9561 60.664C18.1401 60.28 17.4921 59.768 17.0121 59.128C16.5321 58.472 16.2761 57.744 16.2441 56.944H19.0761C19.1241 57.504 19.3881 57.976 19.8681 58.36C20.3641 58.728 20.9801 58.912 21.7161 58.912C22.4841 58.912 23.0761 58.768 23.4921 58.48C23.9241 58.176 24.1401 57.792 24.1401 57.328C24.1401 56.832 23.9001 56.464 23.4201 56.224C22.9561 55.984 22.2121 55.72 21.1881 55.432C20.1961 55.16 19.3881 54.896 18.7641 54.64C18.1401 54.384 17.5961 53.992 17.1321 53.464C16.6841 52.936 16.4601 52.24 16.4601 51.376C16.4601 50.672 16.6681 50.032 17.0841 49.456C17.5001 48.864 18.0921 48.4 18.8601 48.064C19.6441 47.728 20.5401 47.56 21.5481 47.56C23.0521 47.56 24.2601 47.944 25.1721 48.712C26.1001 49.464 26.5961 50.496 26.6601 51.808H23.9241C23.8761 51.216 23.6361 50.744 23.2041 50.392C22.7721 50.04 22.1881 49.864 21.4521 49.864C20.7321 49.864 20.1801 50 19.7961 50.272C19.4121 50.544 19.2201 50.904 19.2201 51.352C19.2201 51.704 19.3481 52 19.6041 52.24C19.8601 52.48 20.1721 52.672 20.5401 52.816C20.9081 52.944 21.4521 53.112 22.1721 53.32C23.1321 53.576 23.9161 53.84 24.5241 54.112C25.1481 54.368 25.6841 54.752 26.1321 55.264C26.5801 55.776 26.8121 56.456 26.8281 57.304C26.8281 58.056 26.6201 58.728 26.2041 59.32C25.7881 59.912 25.1961 60.376 24.4281 60.712C23.6761 61.048 22.7881 61.216 21.7641 61.216ZM30.8884 61.168C30.3924 61.168 29.9764 61 29.6404 60.664C29.3044 60.328 29.1364 59.912 29.1364 59.416C29.1364 58.92 29.3044 58.504 29.6404 58.168C29.9764 57.832 30.3924 57.664 30.8884 57.664C31.3684 57.664 31.7764 57.832 32.1124 58.168C32.4484 58.504 32.6164 58.92 32.6164 59.416C32.6164 59.912 32.4484 60.328 32.1124 60.664C31.7764 61 31.3684 61.168 30.8884 61.168ZM42.9598 57.28C44.4958 55.952 45.7038 54.864 46.5838 54.016C47.4798 53.152 48.2238 52.256 48.8158 51.328C49.4078 50.4 49.7038 49.472 49.7038 48.544C49.7038 47.584 49.4718 46.832 49.0078 46.288C48.5598 45.744 47.8478 45.472 46.8718 45.472C45.9278 45.472 45.1918 45.776 44.6638 46.384C44.1518 46.976 43.8798 47.776 43.8478 48.784H41.2078C41.2558 46.96 41.7998 45.568 42.8398 44.608C43.8958 43.632 45.2318 43.144 46.8478 43.144C48.5918 43.144 49.9518 43.624 50.9278 44.584C51.9198 45.544 52.4158 46.824 52.4158 48.424C52.4158 49.576 52.1198 50.688 51.5278 51.76C50.9518 52.816 50.2558 53.768 49.4398 54.616C48.6398 55.448 47.6158 56.416 46.3678 57.52L45.2878 58.48H52.8958V60.76H41.2318V58.768L42.9598 57.28ZM55.2994 52.024C55.2994 49.256 55.7634 47.096 56.6914 45.544C57.6354 43.976 59.2514 43.192 61.5394 43.192C63.8274 43.192 65.4354 43.976 66.3634 45.544C67.3074 47.096 67.7794 49.256 67.7794 52.024C67.7794 54.824 67.3074 57.016 66.3634 58.6C65.4354 60.168 63.8274 60.952 61.5394 60.952C59.2514 60.952 57.6354 60.168 56.6914 58.6C55.7634 57.016 55.2994 54.824 55.2994 52.024ZM65.0914 52.024C65.0914 50.728 65.0034 49.632 64.8274 48.736C64.6674 47.84 64.3314 47.112 63.8194 46.552C63.3074 45.976 62.5474 45.688 61.5394 45.688C60.5314 45.688 59.7714 45.976 59.2594 46.552C58.7474 47.112 58.4034 47.84 58.2274 48.736C58.0674 49.632 57.9874 50.728 57.9874 52.024C57.9874 53.368 58.0674 54.496 58.2274 55.408C58.3874 56.32 58.7234 57.056 59.2354 57.616C59.7634 58.176 60.5314 58.456 61.5394 58.456C62.5474 58.456 63.3074 58.176 63.8194 57.616C64.3474 57.056 64.6914 56.32 64.8514 55.408C65.0114 54.496 65.0914 53.368 65.0914 52.024ZM74.0344 57.712L71.1304 64.336H69.3544L71.0584 57.712H74.0344ZM76.065 52.024C76.065 49.256 76.529 47.096 77.457 45.544C78.401 43.976 80.017 43.192 82.305 43.192C84.593 43.192 86.201 43.976 87.129 45.544C88.073 47.096 88.545 49.256 88.545 52.024C88.545 54.824 88.073 57.016 87.129 58.6C86.201 60.168 84.593 60.952 82.305 60.952C80.017 60.952 78.401 60.168 77.457 58.6C76.529 57.016 76.065 54.824 76.065 52.024ZM85.857 52.024C85.857 50.728 85.769 49.632 85.593 48.736C85.433 47.84 85.097 47.112 84.585 46.552C84.073 45.976 83.313 45.688 82.305 45.688C81.297 45.688 80.537 45.976 80.025 46.552C79.513 47.112 79.169 47.84 78.993 48.736C78.833 49.632 78.753 50.728 78.753 52.024C78.753 53.368 78.833 54.496 78.993 55.408C79.153 56.32 79.489 57.056 80.001 57.616C80.529 58.176 81.297 58.456 82.305 58.456C83.313 58.456 84.073 58.176 84.585 57.616C85.113 57.056 85.457 56.32 85.617 55.408C85.777 54.496 85.857 53.368 85.857 52.024ZM91.44 52.024C91.44 49.256 91.904 47.096 92.832 45.544C93.776 43.976 95.392 43.192 97.68 43.192C99.968 43.192 101.576 43.976 102.504 45.544C103.448 47.096 103.92 49.256 103.92 52.024C103.92 54.824 103.448 57.016 102.504 58.6C101.576 60.168 99.968 60.952 97.68 60.952C95.392 60.952 93.776 60.168 92.832 58.6C91.904 57.016 91.44 54.824 91.44 52.024ZM101.232 52.024C101.232 50.728 101.144 49.632 100.968 48.736C100.808 47.84 100.472 47.112 99.96 46.552C99.448 45.976 98.688 45.688 97.68 45.688C96.672 45.688 95.912 45.976 95.4 46.552C94.888 47.112 94.544 47.84 94.368 48.736C94.208 49.632 94.128 50.728 94.128 52.024C94.128 53.368 94.208 54.496 94.368 55.408C94.528 56.32 94.864 57.056 95.376 57.616C95.904 58.176 96.672 58.456 97.68 58.456C98.688 58.456 99.448 58.176 99.96 57.616C100.488 57.056 100.832 56.32 100.992 55.408C101.152 54.496 101.232 53.368 101.232 52.024ZM106.815 52.024C106.815 49.256 107.279 47.096 108.207 45.544C109.151 43.976 110.767 43.192 113.055 43.192C115.343 43.192 116.951 43.976 117.879 45.544C118.823 47.096 119.295 49.256 119.295 52.024C119.295 54.824 118.823 57.016 117.879 58.6C116.951 60.168 115.343 60.952 113.055 60.952C110.767 60.952 109.151 60.168 108.207 58.6C107.279 57.016 106.815 54.824 106.815 52.024ZM116.607 52.024C116.607 50.728 116.519 49.632 116.343 48.736C116.183 47.84 115.847 47.112 115.335 46.552C114.823 45.976 114.063 45.688 113.055 45.688C112.047 45.688 111.287 45.976 110.775 46.552C110.263 47.112 109.919 47.84 109.743 48.736C109.583 49.632 109.503 50.728 109.503 52.024C109.503 53.368 109.583 54.496 109.743 55.408C109.903 56.32 110.239 57.056 110.751 57.616C111.279 58.176 112.047 58.456 113.055 58.456C114.063 58.456 114.823 58.176 115.335 57.616C115.863 57.056 116.207 56.32 116.367 55.408C116.527 54.496 116.607 53.368 116.607 52.024ZM123.654 61.168C123.158 61.168 122.742 61 122.406 60.664C122.07 60.328 121.902 59.912 121.902 59.416C121.902 58.92 122.07 58.504 122.406 58.168C122.742 57.832 123.158 57.664 123.654 57.664C124.134 57.664 124.542 57.832 124.878 58.168C125.214 58.504 125.382 58.92 125.382 59.416C125.382 59.912 125.214 60.328 124.878 60.664C124.542 61 124.134 61.168 123.654 61.168ZM127.979 52.024C127.979 49.256 128.443 47.096 129.371 45.544C130.315 43.976 131.931 43.192 134.219 43.192C136.507 43.192 138.115 43.976 139.043 45.544C139.987 47.096 140.459 49.256 140.459 52.024C140.459 54.824 139.987 57.016 139.043 58.6C138.115 60.168 136.507 60.952 134.219 60.952C131.931 60.952 130.315 60.168 129.371 58.6C128.443 57.016 127.979 54.824 127.979 52.024ZM137.771 52.024C137.771 50.728 137.683 49.632 137.507 48.736C137.347 47.84 137.011 47.112 136.499 46.552C135.987 45.976 135.227 45.688 134.219 45.688C133.211 45.688 132.451 45.976 131.939 46.552C131.427 47.112 131.083 47.84 130.907 48.736C130.747 49.632 130.667 50.728 130.667 52.024C130.667 53.368 130.747 54.496 130.907 55.408C131.067 56.32 131.403 57.056 131.915 57.616C132.443 58.176 133.211 58.456 134.219 58.456C135.227 58.456 135.987 58.176 136.499 57.616C137.027 57.056 137.371 56.32 137.531 55.408C137.691 54.496 137.771 53.368 137.771 52.024ZM143.354 52.024C143.354 49.256 143.818 47.096 144.746 45.544C145.69 43.976 147.306 43.192 149.594 43.192C151.882 43.192 153.49 43.976 154.418 45.544C155.362 47.096 155.834 49.256 155.834 52.024C155.834 54.824 155.362 57.016 154.418 58.6C153.49 60.168 151.882 60.952 149.594 60.952C147.306 60.952 145.69 60.168 144.746 58.6C143.818 57.016 143.354 54.824 143.354 52.024ZM153.146 52.024C153.146 50.728 153.058 49.632 152.882 48.736C152.722 47.84 152.386 47.112 151.874 46.552C151.362 45.976 150.602 45.688 149.594 45.688C148.586 45.688 147.826 45.976 147.314 46.552C146.802 47.112 146.458 47.84 146.282 48.736C146.122 49.632 146.042 50.728 146.042 52.024C146.042 53.368 146.122 54.496 146.282 55.408C146.442 56.32 146.778 57.056 147.29 57.616C147.818 58.176 148.586 58.456 149.594 58.456C150.602 58.456 151.362 58.176 151.874 57.616C152.402 57.056 152.746 56.32 152.906 55.408C153.066 54.496 153.146 53.368 153.146 52.024Z" fill="black"/>
</svg>
