<svg width="199" height="71" viewBox="0 0 199 71" fill="none" xmlns="http://www.w3.org/2000/svg">
<path d="M6.816 12.256C7.22133 12.32 7.58933 12.4853 7.92 12.752C8.26133 13.0187 8.528 13.3493 8.72 13.744C8.92267 14.1387 9.024 14.56 9.024 15.008C9.024 15.5733 8.88 16.0853 8.592 16.544C8.304 16.992 7.88267 17.3493 7.328 17.616C6.784 17.872 6.13867 18 5.392 18H1.232V6.848H5.232C5.98933 6.848 6.63467 6.976 7.168 7.232C7.70133 7.47733 8.10133 7.81333 8.368 8.24C8.63467 8.66667 8.768 9.14667 8.768 9.68C8.768 10.3413 8.58667 10.8907 8.224 11.328C7.872 11.7547 7.40267 12.064 6.816 12.256ZM2.688 11.664H5.136C5.81867 11.664 6.34667 11.504 6.72 11.184C7.09333 10.864 7.28 10.4213 7.28 9.856C7.28 9.29067 7.09333 8.848 6.72 8.528C6.34667 8.208 5.808 8.048 5.104 8.048H2.688V11.664ZM5.264 16.8C5.98933 16.8 6.55467 16.6293 6.96 16.288C7.36533 15.9467 7.568 15.472 7.568 14.864C7.568 14.2453 7.35467 13.76 6.928 13.408C6.50133 13.0453 5.93067 12.864 5.216 12.864H2.688V16.8H5.264ZM19.0445 13.28C19.0445 13.5573 19.0285 13.8507 18.9965 14.16H11.9885C12.0418 15.024 12.3352 15.7013 12.8685 16.192C13.4125 16.672 14.0685 16.912 14.8365 16.912C15.4658 16.912 15.9885 16.768 16.4045 16.48C16.8312 16.1813 17.1298 15.7867 17.3005 15.296H18.8685C18.6338 16.1387 18.1645 16.8267 17.4605 17.36C16.7565 17.8827 15.8818 18.144 14.8365 18.144C14.0045 18.144 13.2578 17.9573 12.5965 17.584C11.9458 17.2107 11.4338 16.6827 11.0605 16C10.6872 15.3067 10.5005 14.5067 10.5005 13.6C10.5005 12.6933 10.6818 11.8987 11.0445 11.216C11.4072 10.5333 11.9138 10.0107 12.5645 9.648C13.2258 9.27467 13.9832 9.088 14.8365 9.088C15.6685 9.088 16.4045 9.26933 17.0445 9.632C17.6845 9.99467 18.1752 10.496 18.5165 11.136C18.8685 11.7653 19.0445 12.48 19.0445 13.28ZM17.5405 12.976C17.5405 12.4213 17.4178 11.9467 17.1725 11.552C16.9272 11.1467 16.5912 10.8427 16.1645 10.64C15.7485 10.4267 15.2845 10.32 14.7725 10.32C14.0365 10.32 13.4072 10.5547 12.8845 11.024C12.3725 11.4933 12.0792 12.144 12.0045 12.976H17.5405ZM22.4224 6.16V18H20.9664V6.16H22.4224ZM26.3599 6.16V18H24.9039V6.16H26.3599ZM28.2974 13.584C28.2974 12.688 28.4787 11.904 28.8414 11.232C29.204 10.5493 29.7 10.0213 30.3294 9.648C30.9694 9.27467 31.6787 9.088 32.4574 9.088C33.2254 9.088 33.892 9.25333 34.4574 9.584C35.0227 9.91467 35.444 10.3307 35.7214 10.832V9.232H37.1934V18H35.7214V16.368C35.4334 16.88 35.0014 17.3067 34.4254 17.648C33.86 17.9787 33.1987 18.144 32.4414 18.144C31.6627 18.144 30.9587 17.952 30.3294 17.568C29.7 17.184 29.204 16.6453 28.8414 15.952C28.4787 15.2587 28.2974 14.4693 28.2974 13.584ZM35.7214 13.6C35.7214 12.9387 35.588 12.3627 35.3214 11.872C35.0547 11.3813 34.692 11.008 34.2334 10.752C33.7854 10.4853 33.2894 10.352 32.7454 10.352C32.2014 10.352 31.7054 10.48 31.2574 10.736C30.8094 10.992 30.452 11.3653 30.1854 11.856C29.9187 12.3467 29.7854 12.9227 29.7854 13.584C29.7854 14.256 29.9187 14.8427 30.1854 15.344C30.452 15.8347 30.8094 16.2133 31.2574 16.48C31.7054 16.736 32.2014 16.864 32.7454 16.864C33.2894 16.864 33.7854 16.736 34.2334 16.48C34.692 16.2133 35.0547 15.8347 35.3214 15.344C35.588 14.8427 35.7214 14.2613 35.7214 13.6ZM43.3755 13.6C43.3755 12.6933 43.5568 11.904 43.9195 11.232C44.2822 10.5493 44.7835 10.0213 45.4235 9.648C46.0742 9.27467 46.8155 9.088 47.6475 9.088C48.7248 9.088 49.6102 9.34933 50.3035 9.872C51.0075 10.3947 51.4715 11.12 51.6955 12.048H50.1275C49.9782 11.5147 49.6848 11.0933 49.2475 10.784C48.8208 10.4747 48.2875 10.32 47.6475 10.32C46.8155 10.32 46.1435 10.608 45.6315 11.184C45.1195 11.7493 44.8635 12.5547 44.8635 13.6C44.8635 14.656 45.1195 15.472 45.6315 16.048C46.1435 16.624 46.8155 16.912 47.6475 16.912C48.2875 16.912 48.8208 16.7627 49.2475 16.464C49.6742 16.1653 49.9675 15.7387 50.1275 15.184H51.6955C51.4608 16.08 50.9915 16.8 50.2875 17.344C49.5835 17.8773 48.7035 18.144 47.6475 18.144C46.8155 18.144 46.0742 17.9573 45.4235 17.584C44.7835 17.2107 44.2822 16.6827 43.9195 16C43.5568 15.3173 43.3755 14.5173 43.3755 13.6ZM57.9903 9.072C58.6516 9.072 59.2489 9.216 59.7823 9.504C60.3156 9.78133 60.7316 10.2027 61.0303 10.768C61.3396 11.3333 61.4943 12.0213 61.4943 12.832V18H60.0543V13.04C60.0543 12.1653 59.8356 11.4987 59.3983 11.04C58.9609 10.5707 58.3636 10.336 57.6063 10.336C56.8383 10.336 56.2249 10.576 55.7663 11.056C55.3183 11.536 55.0943 12.2347 55.0943 13.152V18H53.6383V6.16H55.0943V10.48C55.3823 10.032 55.7769 9.68533 56.2783 9.44C56.7903 9.19467 57.3609 9.072 57.9903 9.072ZM63.3286 13.584C63.3286 12.688 63.51 11.904 63.8726 11.232C64.2353 10.5493 64.7313 10.0213 65.3606 9.648C66.0006 9.27467 66.71 9.088 67.4886 9.088C68.2566 9.088 68.9233 9.25333 69.4886 9.584C70.054 9.91467 70.4753 10.3307 70.7526 10.832V9.232H72.2246V18H70.7526V16.368C70.4646 16.88 70.0326 17.3067 69.4566 17.648C68.8913 17.9787 68.23 18.144 67.4726 18.144C66.694 18.144 65.99 17.952 65.3606 17.568C64.7313 17.184 64.2353 16.6453 63.8726 15.952C63.51 15.2587 63.3286 14.4693 63.3286 13.584ZM70.7526 13.6C70.7526 12.9387 70.6193 12.3627 70.3526 11.872C70.086 11.3813 69.7233 11.008 69.2646 10.752C68.8166 10.4853 68.3206 10.352 67.7766 10.352C67.2326 10.352 66.7366 10.48 66.2886 10.736C65.8406 10.992 65.4833 11.3653 65.2166 11.856C64.95 12.3467 64.8166 12.9227 64.8166 13.584C64.8166 14.256 64.95 14.8427 65.2166 15.344C65.4833 15.8347 65.8406 16.2133 66.2886 16.48C66.7366 16.736 67.2326 16.864 67.7766 16.864C68.3206 16.864 68.8166 16.736 69.2646 16.48C69.7233 16.2133 70.086 15.8347 70.3526 15.344C70.6193 14.8427 70.7526 14.2613 70.7526 13.6ZM75.4371 7.808C75.1598 7.808 74.9251 7.712 74.7331 7.52C74.5411 7.328 74.4451 7.09333 74.4451 6.816C74.4451 6.53867 74.5411 6.304 74.7331 6.112C74.9251 5.92 75.1598 5.824 75.4371 5.824C75.7038 5.824 75.9278 5.92 76.1091 6.112C76.3011 6.304 76.3971 6.53867 76.3971 6.816C76.3971 7.09333 76.3011 7.328 76.1091 7.52C75.9278 7.712 75.7038 7.808 75.4371 7.808ZM76.1411 9.232V18H74.6851V9.232H76.1411ZM80.0786 10.656C80.3346 10.1547 80.6973 9.76533 81.1666 9.488C81.6466 9.21067 82.228 9.072 82.9106 9.072V10.576H82.5266C80.8946 10.576 80.0786 11.4613 80.0786 13.232V18H78.6226V9.232H80.0786V10.656ZM88.313 13.584C88.313 12.688 88.4943 11.904 88.857 11.232C89.2197 10.5493 89.7157 10.0213 90.345 9.648C90.985 9.27467 91.6943 9.088 92.473 9.088C93.241 9.088 93.9077 9.25333 94.473 9.584C95.0383 9.91467 95.4597 10.3307 95.737 10.832V9.232H97.209V18H95.737V16.368C95.449 16.88 95.017 17.3067 94.441 17.648C93.8757 17.9787 93.2143 18.144 92.457 18.144C91.6783 18.144 90.9743 17.952 90.345 17.568C89.7157 17.184 89.2197 16.6453 88.857 15.952C88.4943 15.2587 88.313 14.4693 88.313 13.584ZM95.737 13.6C95.737 12.9387 95.6037 12.3627 95.337 11.872C95.0703 11.3813 94.7077 11.008 94.249 10.752C93.801 10.4853 93.305 10.352 92.761 10.352C92.217 10.352 91.721 10.48 91.273 10.736C90.825 10.992 90.4677 11.3653 90.201 11.856C89.9343 12.3467 89.801 12.9227 89.801 13.584C89.801 14.256 89.9343 14.8427 90.201 15.344C90.4677 15.8347 90.825 16.2133 91.273 16.48C91.721 16.736 92.217 16.864 92.761 16.864C93.305 16.864 93.801 16.736 94.249 16.48C94.7077 16.2133 95.0703 15.8347 95.337 15.344C95.6037 14.8427 95.737 14.2613 95.737 13.6ZM103.942 9.072C105.008 9.072 105.872 9.39733 106.534 10.048C107.195 10.688 107.526 11.616 107.526 12.832V18H106.086V13.04C106.086 12.1653 105.867 11.4987 105.43 11.04C104.992 10.5707 104.395 10.336 103.638 10.336C102.87 10.336 102.256 10.576 101.798 11.056C101.35 11.536 101.126 12.2347 101.126 13.152V18H99.6695V9.232H101.126V10.48C101.414 10.032 101.803 9.68533 102.294 9.44C102.795 9.19467 103.344 9.072 103.942 9.072ZM109.36 13.584C109.36 12.688 109.541 11.904 109.904 11.232C110.267 10.5493 110.763 10.0213 111.392 9.648C112.032 9.27467 112.747 9.088 113.536 9.088C114.219 9.088 114.853 9.248 115.44 9.568C116.027 9.87733 116.475 10.288 116.784 10.8V6.16H118.256V18H116.784V16.352C116.496 16.8747 116.069 17.3067 115.504 17.648C114.939 17.9787 114.277 18.144 113.52 18.144C112.741 18.144 112.032 17.952 111.392 17.568C110.763 17.184 110.267 16.6453 109.904 15.952C109.541 15.2587 109.36 14.4693 109.36 13.584ZM116.784 13.6C116.784 12.9387 116.651 12.3627 116.384 11.872C116.117 11.3813 115.755 11.008 115.296 10.752C114.848 10.4853 114.352 10.352 113.808 10.352C113.264 10.352 112.768 10.48 112.32 10.736C111.872 10.992 111.515 11.3653 111.248 11.856C110.981 12.3467 110.848 12.9227 110.848 13.584C110.848 14.256 110.981 14.8427 111.248 15.344C111.515 15.8347 111.872 16.2133 112.32 16.48C112.768 16.736 113.264 16.864 113.808 16.864C114.352 16.864 114.848 16.736 115.296 16.48C115.755 16.2133 116.117 15.8347 116.384 15.344C116.651 14.8427 116.784 14.2613 116.784 13.6ZM126.758 10.432V15.6C126.758 16.0267 126.849 16.3307 127.03 16.512C127.211 16.6827 127.526 16.768 127.974 16.768H129.046V18H127.734C126.923 18 126.315 17.8133 125.91 17.44C125.505 17.0667 125.302 16.4533 125.302 15.6V10.432H124.166V9.232H125.302V7.024H126.758V9.232H129.046V10.432H126.758ZM130.266 13.584C130.266 12.688 130.447 11.904 130.81 11.232C131.173 10.5493 131.669 10.0213 132.298 9.648C132.938 9.27467 133.647 9.088 134.426 9.088C135.194 9.088 135.861 9.25333 136.426 9.584C136.991 9.91467 137.413 10.3307 137.69 10.832V9.232H139.162V18H137.69V16.368C137.402 16.88 136.97 17.3067 136.394 17.648C135.829 17.9787 135.167 18.144 134.41 18.144C133.631 18.144 132.927 17.952 132.298 17.568C131.669 17.184 131.173 16.6453 130.81 15.952C130.447 15.2587 130.266 14.4693 130.266 13.584ZM137.69 13.6C137.69 12.9387 137.557 12.3627 137.29 11.872C137.023 11.3813 136.661 11.008 136.202 10.752C135.754 10.4853 135.258 10.352 134.714 10.352C134.17 10.352 133.674 10.48 133.226 10.736C132.778 10.992 132.421 11.3653 132.154 11.856C131.887 12.3467 131.754 12.9227 131.754 13.584C131.754 14.256 131.887 14.8427 132.154 15.344C132.421 15.8347 132.778 16.2133 133.226 16.48C133.674 16.736 134.17 16.864 134.714 16.864C135.258 16.864 135.754 16.736 136.202 16.48C136.661 16.2133 137.023 15.8347 137.29 15.344C137.557 14.8427 137.69 14.2613 137.69 13.6ZM143.079 10.864C143.377 10.3413 143.815 9.91467 144.391 9.584C144.967 9.25333 145.623 9.088 146.359 9.088C147.148 9.088 147.857 9.27467 148.487 9.648C149.116 10.0213 149.612 10.5493 149.975 11.232C150.337 11.904 150.519 12.688 150.519 13.584C150.519 14.4693 150.337 15.2587 149.975 15.952C149.612 16.6453 149.111 17.184 148.471 17.568C147.841 17.952 147.137 18.144 146.359 18.144C145.601 18.144 144.935 17.9787 144.359 17.648C143.793 17.3173 143.367 16.896 143.079 16.384V18H141.623V6.16H143.079V10.864ZM149.031 13.584C149.031 12.9227 148.897 12.3467 148.631 11.856C148.364 11.3653 148.001 10.992 147.543 10.736C147.095 10.48 146.599 10.352 146.055 10.352C145.521 10.352 145.025 10.4853 144.567 10.752C144.119 11.008 143.756 11.3867 143.479 11.888C143.212 12.3787 143.079 12.9493 143.079 13.6C143.079 14.2613 143.212 14.8427 143.479 15.344C143.756 15.8347 144.119 16.2133 144.567 16.48C145.025 16.736 145.521 16.864 146.055 16.864C146.599 16.864 147.095 16.736 147.543 16.48C148.001 16.2133 148.364 15.8347 148.631 15.344C148.897 14.8427 149.031 14.256 149.031 13.584ZM153.891 6.16V18H152.435V6.16H153.891ZM164.373 13.28C164.373 13.5573 164.357 13.8507 164.325 14.16H157.317C157.37 15.024 157.663 15.7013 158.197 16.192C158.741 16.672 159.397 16.912 160.165 16.912C160.794 16.912 161.317 16.768 161.733 16.48C162.159 16.1813 162.458 15.7867 162.629 15.296H164.197C163.962 16.1387 163.493 16.8267 162.789 17.36C162.085 17.8827 161.21 18.144 160.165 18.144C159.333 18.144 158.586 17.9573 157.925 17.584C157.274 17.2107 156.762 16.6827 156.389 16C156.015 15.3067 155.829 14.5067 155.829 13.6C155.829 12.6933 156.01 11.8987 156.373 11.216C156.735 10.5333 157.242 10.0107 157.893 9.648C158.554 9.27467 159.311 9.088 160.165 9.088C160.997 9.088 161.733 9.26933 162.373 9.632C163.013 9.99467 163.503 10.496 163.845 11.136C164.197 11.7653 164.373 12.48 164.373 13.28ZM162.869 12.976C162.869 12.4213 162.746 11.9467 162.501 11.552C162.255 11.1467 161.919 10.8427 161.493 10.64C161.077 10.4267 160.613 10.32 160.101 10.32C159.365 10.32 158.735 10.5547 158.213 11.024C157.701 11.4933 157.407 12.144 157.333 12.976H162.869Z" fill="black"/>
<path d="M10.464 61L6.624 54.328H4.536V61H1.8V44.32H7.56C8.84 44.32 9.92 44.544 10.8 44.992C11.696 45.44 12.36 46.04 12.792 46.792C13.24 47.544 13.464 48.384 13.464 49.312C13.464 50.4 13.144 51.392 12.504 52.288C11.88 53.168 10.912 53.768 9.6 54.088L13.728 61H10.464ZM4.536 52.144H7.56C8.584 52.144 9.352 51.888 9.864 51.376C10.392 50.864 10.656 50.176 10.656 49.312C10.656 48.448 10.4 47.776 9.888 47.296C9.376 46.8 8.6 46.552 7.56 46.552H4.536V52.144ZM21.7641 61.216C20.7241 61.216 19.7881 61.032 18.9561 60.664C18.1401 60.28 17.4921 59.768 17.0121 59.128C16.5321 58.472 16.2761 57.744 16.2441 56.944H19.0761C19.1241 57.504 19.3881 57.976 19.8681 58.36C20.3641 58.728 20.9801 58.912 21.7161 58.912C22.4841 58.912 23.0761 58.768 23.4921 58.48C23.9241 58.176 24.1401 57.792 24.1401 57.328C24.1401 56.832 23.9001 56.464 23.4201 56.224C22.9561 55.984 22.2121 55.72 21.1881 55.432C20.1961 55.16 19.3881 54.896 18.7641 54.64C18.1401 54.384 17.5961 53.992 17.1321 53.464C16.6841 52.936 16.4601 52.24 16.4601 51.376C16.4601 50.672 16.6681 50.032 17.0841 49.456C17.5001 48.864 18.0921 48.4 18.8601 48.064C19.6441 47.728 20.5401 47.56 21.5481 47.56C23.0521 47.56 24.2601 47.944 25.1721 48.712C26.1001 49.464 26.5961 50.496 26.6601 51.808H23.9241C23.8761 51.216 23.6361 50.744 23.2041 50.392C22.7721 50.04 22.1881 49.864 21.4521 49.864C20.7321 49.864 20.1801 50 19.7961 50.272C19.4121 50.544 19.2201 50.904 19.2201 51.352C19.2201 51.704 19.3481 52 19.6041 52.24C19.8601 52.48 20.1721 52.672 20.5401 52.816C20.9081 52.944 21.4521 53.112 22.1721 53.32C23.1321 53.576 23.9161 53.84 24.5241 54.112C25.1481 54.368 25.6841 54.752 26.1321 55.264C26.5801 55.776 26.8121 56.456 26.8281 57.304C26.8281 58.056 26.6201 58.728 26.2041 59.32C25.7881 59.912 25.1961 60.376 24.4281 60.712C23.6761 61.048 22.7881 61.216 21.7641 61.216ZM30.8884 61.168C30.3924 61.168 29.9764 61 29.6404 60.664C29.3044 60.328 29.1364 59.912 29.1364 59.416C29.1364 58.92 29.3044 58.504 29.6404 58.168C29.9764 57.832 30.3924 57.664 30.8884 57.664C31.3684 57.664 31.7764 57.832 32.1124 58.168C32.4484 58.504 32.6164 58.92 32.6164 59.416C32.6164 59.912 32.4484 60.328 32.1124 60.664C31.7764 61 31.3684 61.168 30.8884 61.168ZM41.0878 46V43.504H46.0798V61H43.3198V46H41.0878ZM49.8384 52.024C49.8384 49.256 50.3024 47.096 51.2304 45.544C52.1744 43.976 53.7904 43.192 56.0784 43.192C58.3664 43.192 59.9744 43.976 60.9024 45.544C61.8464 47.096 62.3184 49.256 62.3184 52.024C62.3184 54.824 61.8464 57.016 60.9024 58.6C59.9744 60.168 58.3664 60.952 56.0784 60.952C53.7904 60.952 52.1744 60.168 51.2304 58.6C50.3024 57.016 49.8384 54.824 49.8384 52.024ZM59.6304 52.024C59.6304 50.728 59.5424 49.632 59.3664 48.736C59.2064 47.84 58.8704 47.112 58.3584 46.552C57.8464 45.976 57.0864 45.688 56.0784 45.688C55.0704 45.688 54.3104 45.976 53.7984 46.552C53.2864 47.112 52.9424 47.84 52.7664 48.736C52.6064 49.632 52.5264 50.728 52.5264 52.024C52.5264 53.368 52.6064 54.496 52.7664 55.408C52.9264 56.32 53.2624 57.056 53.7744 57.616C54.3024 58.176 55.0704 58.456 56.0784 58.456C57.0864 58.456 57.8464 58.176 58.3584 57.616C58.8864 57.056 59.2304 56.32 59.3904 55.408C59.5504 54.496 59.6304 53.368 59.6304 52.024ZM65.2134 52.024C65.2134 49.256 65.6774 47.096 66.6054 45.544C67.5494 43.976 69.1654 43.192 71.4534 43.192C73.7414 43.192 75.3494 43.976 76.2774 45.544C77.2214 47.096 77.6934 49.256 77.6934 52.024C77.6934 54.824 77.2214 57.016 76.2774 58.6C75.3494 60.168 73.7414 60.952 71.4534 60.952C69.1654 60.952 67.5494 60.168 66.6054 58.6C65.6774 57.016 65.2134 54.824 65.2134 52.024ZM75.0054 52.024C75.0054 50.728 74.9174 49.632 74.7414 48.736C74.5814 47.84 74.2454 47.112 73.7334 46.552C73.2214 45.976 72.4614 45.688 71.4534 45.688C70.4454 45.688 69.6854 45.976 69.1734 46.552C68.6614 47.112 68.3174 47.84 68.1414 48.736C67.9814 49.632 67.9014 50.728 67.9014 52.024C67.9014 53.368 67.9814 54.496 68.1414 55.408C68.3014 56.32 68.6374 57.056 69.1494 57.616C69.6774 58.176 70.4454 58.456 71.4534 58.456C72.4614 58.456 73.2214 58.176 73.7334 57.616C74.2614 57.056 74.6054 56.32 74.7654 55.408C74.9254 54.496 75.0054 53.368 75.0054 52.024ZM83.9484 57.712L81.0444 64.336H79.2684L80.9724 57.712H83.9484ZM85.9791 52.024C85.9791 49.256 86.4431 47.096 87.3711 45.544C88.3151 43.976 89.9311 43.192 92.2191 43.192C94.5071 43.192 96.1151 43.976 97.0431 45.544C97.9871 47.096 98.4591 49.256 98.4591 52.024C98.4591 54.824 97.9871 57.016 97.0431 58.6C96.1151 60.168 94.5071 60.952 92.2191 60.952C89.9311 60.952 88.3151 60.168 87.3711 58.6C86.4431 57.016 85.9791 54.824 85.9791 52.024ZM95.7711 52.024C95.7711 50.728 95.6831 49.632 95.5071 48.736C95.3471 47.84 95.0111 47.112 94.4991 46.552C93.9871 45.976 93.2271 45.688 92.2191 45.688C91.2111 45.688 90.4511 45.976 89.9391 46.552C89.4271 47.112 89.0831 47.84 88.9071 48.736C88.7471 49.632 88.6671 50.728 88.6671 52.024C88.6671 53.368 88.7471 54.496 88.9071 55.408C89.0671 56.32 89.4031 57.056 89.9151 57.616C90.4431 58.176 91.2111 58.456 92.2191 58.456C93.2271 58.456 93.9871 58.176 94.4991 57.616C95.0271 57.056 95.3711 56.32 95.5311 55.408C95.6911 54.496 95.7711 53.368 95.7711 52.024ZM101.354 52.024C101.354 49.256 101.818 47.096 102.746 45.544C103.69 43.976 105.306 43.192 107.594 43.192C109.882 43.192 111.49 43.976 112.418 45.544C113.362 47.096 113.834 49.256 113.834 52.024C113.834 54.824 113.362 57.016 112.418 58.6C111.49 60.168 109.882 60.952 107.594 60.952C105.306 60.952 103.69 60.168 102.746 58.6C101.818 57.016 101.354 54.824 101.354 52.024ZM111.146 52.024C111.146 50.728 111.058 49.632 110.882 48.736C110.722 47.84 110.386 47.112 109.874 46.552C109.362 45.976 108.602 45.688 107.594 45.688C106.586 45.688 105.826 45.976 105.314 46.552C104.802 47.112 104.458 47.84 104.282 48.736C104.122 49.632 104.042 50.728 104.042 52.024C104.042 53.368 104.122 54.496 104.282 55.408C104.442 56.32 104.778 57.056 105.29 57.616C105.818 58.176 106.586 58.456 107.594 58.456C108.602 58.456 109.362 58.176 109.874 57.616C110.402 57.056 110.746 56.32 110.906 55.408C111.066 54.496 111.146 53.368 111.146 52.024ZM116.729 52.024C116.729 49.256 117.193 47.096 118.121 45.544C119.065 43.976 120.681 43.192 122.969 43.192C125.257 43.192 126.865 43.976 127.793 45.544C128.737 47.096 129.209 49.256 129.209 52.024C129.209 54.824 128.737 57.016 127.793 58.6C126.865 60.168 125.257 60.952 122.969 60.952C120.681 60.952 119.065 60.168 118.121 58.6C117.193 57.016 116.729 54.824 116.729 52.024ZM126.521 52.024C126.521 50.728 126.433 49.632 126.257 48.736C126.097 47.84 125.761 47.112 125.249 46.552C124.737 45.976 123.977 45.688 122.969 45.688C121.961 45.688 121.201 45.976 120.689 46.552C120.177 47.112 119.833 47.84 119.657 48.736C119.497 49.632 119.417 50.728 119.417 52.024C119.417 53.368 119.497 54.496 119.657 55.408C119.817 56.32 120.153 57.056 120.665 57.616C121.193 58.176 121.961 58.456 122.969 58.456C123.977 58.456 124.737 58.176 125.249 57.616C125.777 57.056 126.121 56.32 126.281 55.408C126.441 54.496 126.521 53.368 126.521 52.024ZM133.568 61.168C133.072 61.168 132.656 61 132.32 60.664C131.984 60.328 131.816 59.912 131.816 59.416C131.816 58.92 131.984 58.504 132.32 58.168C132.656 57.832 133.072 57.664 133.568 57.664C134.048 57.664 134.456 57.832 134.792 58.168C135.128 58.504 135.296 58.92 135.296 59.416C135.296 59.912 135.128 60.328 134.792 60.664C134.456 61 134.048 61.168 133.568 61.168ZM137.893 52.024C137.893 49.256 138.357 47.096 139.285 45.544C140.229 43.976 141.845 43.192 144.133 43.192C146.421 43.192 148.029 43.976 148.957 45.544C149.901 47.096 150.373 49.256 150.373 52.024C150.373 54.824 149.901 57.016 148.957 58.6C148.029 60.168 146.421 60.952 144.133 60.952C141.845 60.952 140.229 60.168 139.285 58.6C138.357 57.016 137.893 54.824 137.893 52.024ZM147.685 52.024C147.685 50.728 147.597 49.632 147.421 48.736C147.261 47.84 146.925 47.112 146.413 46.552C145.901 45.976 145.141 45.688 144.133 45.688C143.125 45.688 142.365 45.976 141.853 46.552C141.341 47.112 140.997 47.84 140.821 48.736C140.661 49.632 140.581 50.728 140.581 52.024C140.581 53.368 140.661 54.496 140.821 55.408C140.981 56.32 141.317 57.056 141.829 57.616C142.357 58.176 143.125 58.456 144.133 58.456C145.141 58.456 145.901 58.176 146.413 57.616C146.941 57.056 147.285 56.32 147.445 55.408C147.605 54.496 147.685 53.368 147.685 52.024ZM153.268 52.024C153.268 49.256 153.732 47.096 154.66 45.544C155.604 43.976 157.22 43.192 159.508 43.192C161.796 43.192 163.404 43.976 164.332 45.544C165.276 47.096 165.748 49.256 165.748 52.024C165.748 54.824 165.276 57.016 164.332 58.6C163.404 60.168 161.796 60.952 159.508 60.952C157.22 60.952 155.604 60.168 154.66 58.6C153.732 57.016 153.268 54.824 153.268 52.024ZM163.06 52.024C163.06 50.728 162.972 49.632 162.796 48.736C162.636 47.84 162.3 47.112 161.788 46.552C161.276 45.976 160.516 45.688 159.508 45.688C158.5 45.688 157.74 45.976 157.228 46.552C156.716 47.112 156.372 47.84 156.196 48.736C156.036 49.632 155.956 50.728 155.956 52.024C155.956 53.368 156.036 54.496 156.196 55.408C156.356 56.32 156.692 57.056 157.204 57.616C157.732 58.176 158.5 58.456 159.508 58.456C160.516 58.456 161.276 58.176 161.788 57.616C162.316 57.056 162.66 56.32 162.82 55.408C162.98 54.496 163.06 53.368 163.06 52.024Z" fill="black"/>
</svg>
