<svg width="212" height="71" viewBox="0 0 212 71" fill="none" xmlns="http://www.w3.org/2000/svg">
<path d="M7.824 15.52H2.96L2.064 18H0.528L4.56 6.912H6.24L10.256 18H8.72L7.824 15.52ZM7.408 14.336L5.392 8.704L3.376 14.336H7.408ZM15.1173 18.144C14.4453 18.144 13.8426 18.032 13.3093 17.808C12.7759 17.5733 12.3546 17.2533 12.0453 16.848C11.7359 16.432 11.5653 15.9573 11.5333 15.424H13.0373C13.0799 15.8613 13.2826 16.2187 13.6453 16.496C14.0186 16.7733 14.5039 16.912 15.1013 16.912C15.6559 16.912 16.0933 16.7893 16.4133 16.544C16.7333 16.2987 16.8933 15.9893 16.8933 15.616C16.8933 15.232 16.7226 14.9493 16.3813 14.768C16.0399 14.576 15.5119 14.3893 14.7973 14.208C14.1466 14.0373 13.6133 13.8667 13.1973 13.696C12.7919 13.5147 12.4399 13.2533 12.1413 12.912C11.8533 12.56 11.7093 12.1013 11.7093 11.536C11.7093 11.088 11.8426 10.6773 12.1093 10.304C12.3759 9.93067 12.7546 9.63733 13.2453 9.424C13.7359 9.2 14.2959 9.088 14.9253 9.088C15.8959 9.088 16.6799 9.33333 17.2773 9.824C17.8746 10.3147 18.1946 10.9867 18.2373 11.84H16.7813C16.7493 11.3813 16.5626 11.0133 16.2213 10.736C15.8906 10.4587 15.4426 10.32 14.8773 10.32C14.3546 10.32 13.9386 10.432 13.6293 10.656C13.3199 10.88 13.1653 11.1733 13.1653 11.536C13.1653 11.824 13.2559 12.064 13.4373 12.256C13.6293 12.4373 13.8639 12.5867 14.1413 12.704C14.4293 12.8107 14.8239 12.9333 15.3253 13.072C15.9546 13.2427 16.4666 13.4133 16.8613 13.584C17.2559 13.744 17.5919 13.9893 17.8693 14.32C18.1573 14.6507 18.3066 15.0827 18.3173 15.616C18.3173 16.096 18.1839 16.528 17.9173 16.912C17.6506 17.296 17.2719 17.6 16.7813 17.824C16.3013 18.0373 15.7466 18.144 15.1173 18.144ZM23.9886 9.088C24.746 9.088 25.4073 9.25333 25.9726 9.584C26.5486 9.91467 26.9753 10.3307 27.2526 10.832V9.232H28.7246V18.192C28.7246 18.992 28.554 19.7013 28.2126 20.32C27.8713 20.9493 27.3806 21.44 26.7406 21.792C26.1113 22.144 25.3753 22.32 24.5326 22.32C23.3806 22.32 22.4206 22.048 21.6526 21.504C20.8846 20.96 20.4313 20.2187 20.2926 19.28H21.7326C21.8926 19.8133 22.2233 20.24 22.7246 20.56C23.226 20.8907 23.8286 21.056 24.5326 21.056C25.3326 21.056 25.9833 20.8053 26.4846 20.304C26.9966 19.8027 27.2526 19.0987 27.2526 18.192V16.352C26.9646 16.864 26.538 17.2907 25.9726 17.632C25.4073 17.9733 24.746 18.144 23.9886 18.144C23.21 18.144 22.5006 17.952 21.8606 17.568C21.2313 17.184 20.7353 16.6453 20.3726 15.952C20.01 15.2587 19.8286 14.4693 19.8286 13.584C19.8286 12.688 20.01 11.904 20.3726 11.232C20.7353 10.5493 21.2313 10.0213 21.8606 9.648C22.5006 9.27467 23.21 9.088 23.9886 9.088ZM27.2526 13.6C27.2526 12.9387 27.1193 12.3627 26.8526 11.872C26.586 11.3813 26.2233 11.008 25.7646 10.752C25.3166 10.4853 24.8206 10.352 24.2766 10.352C23.7326 10.352 23.2366 10.48 22.7886 10.736C22.3406 10.992 21.9833 11.3653 21.7166 11.856C21.45 12.3467 21.3166 12.9227 21.3166 13.584C21.3166 14.256 21.45 14.8427 21.7166 15.344C21.9833 15.8347 22.3406 16.2133 22.7886 16.48C23.2366 16.736 23.7326 16.864 24.2766 16.864C24.8206 16.864 25.3166 16.736 25.7646 16.48C26.2233 16.2133 26.586 15.8347 26.8526 15.344C27.1193 14.8427 27.2526 14.2613 27.2526 13.6ZM30.6411 13.584C30.6411 12.688 30.8225 11.904 31.1851 11.232C31.5478 10.5493 32.0438 10.0213 32.6731 9.648C33.3131 9.27467 34.0225 9.088 34.8011 9.088C35.5691 9.088 36.2358 9.25333 36.8011 9.584C37.3665 9.91467 37.7878 10.3307 38.0651 10.832V9.232H39.5371V18H38.0651V16.368C37.7771 16.88 37.3451 17.3067 36.7691 17.648C36.2038 17.9787 35.5425 18.144 34.7851 18.144C34.0065 18.144 33.3025 17.952 32.6731 17.568C32.0438 17.184 31.5478 16.6453 31.1851 15.952C30.8225 15.2587 30.6411 14.4693 30.6411 13.584ZM38.0651 13.6C38.0651 12.9387 37.9318 12.3627 37.6651 11.872C37.3985 11.3813 37.0358 11.008 36.5771 10.752C36.1291 10.4853 35.6331 10.352 35.0891 10.352C34.5451 10.352 34.0491 10.48 33.6011 10.736C33.1531 10.992 32.7958 11.3653 32.5291 11.856C32.2625 12.3467 32.1291 12.9227 32.1291 13.584C32.1291 14.256 32.2625 14.8427 32.5291 15.344C32.7958 15.8347 33.1531 16.2133 33.6011 16.48C34.0491 16.736 34.5451 16.864 35.0891 16.864C35.6331 16.864 36.1291 16.736 36.5771 16.48C37.0358 16.2133 37.3985 15.8347 37.6651 15.344C37.9318 14.8427 38.0651 14.2613 38.0651 13.6ZM41.4536 13.584C41.4536 12.688 41.635 11.904 41.9976 11.232C42.3603 10.5493 42.8563 10.0213 43.4856 9.648C44.1256 9.27467 44.835 9.088 45.6136 9.088C46.3816 9.088 47.0483 9.25333 47.6136 9.584C48.179 9.91467 48.6003 10.3307 48.8776 10.832V9.232H50.3496V18H48.8776V16.368C48.5896 16.88 48.1576 17.3067 47.5816 17.648C47.0163 17.9787 46.355 18.144 45.5976 18.144C44.819 18.144 44.115 17.952 43.4856 17.568C42.8563 17.184 42.3603 16.6453 41.9976 15.952C41.635 15.2587 41.4536 14.4693 41.4536 13.584ZM48.8776 13.6C48.8776 12.9387 48.7443 12.3627 48.4776 11.872C48.211 11.3813 47.8483 11.008 47.3896 10.752C46.9416 10.4853 46.4456 10.352 45.9016 10.352C45.3576 10.352 44.8616 10.48 44.4136 10.736C43.9656 10.992 43.6083 11.3653 43.3416 11.856C43.075 12.3467 42.9416 12.9227 42.9416 13.584C42.9416 14.256 43.075 14.8427 43.3416 15.344C43.6083 15.8347 43.9656 16.2133 44.4136 16.48C44.8616 16.736 45.3576 16.864 45.9016 16.864C46.4456 16.864 46.9416 16.736 47.3896 16.48C47.8483 16.2133 48.211 15.8347 48.4776 15.344C48.7443 14.8427 48.8776 14.2613 48.8776 13.6ZM54.2661 10.656C54.5221 10.1547 54.8848 9.76533 55.3541 9.488C55.8341 9.21067 56.4155 9.072 57.0981 9.072V10.576H56.7141C55.0821 10.576 54.2661 11.4613 54.2661 13.232V18H52.8101V9.232H54.2661V10.656ZM58.2349 13.584C58.2349 12.688 58.4162 11.904 58.7789 11.232C59.1415 10.5493 59.6375 10.0213 60.2669 9.648C60.9069 9.27467 61.6215 9.088 62.4109 9.088C63.0935 9.088 63.7282 9.248 64.3149 9.568C64.9015 9.87733 65.3495 10.288 65.6589 10.8V6.16H67.1309V18H65.6589V16.352C65.3709 16.8747 64.9442 17.3067 64.3789 17.648C63.8135 17.9787 63.1522 18.144 62.3949 18.144C61.6162 18.144 60.9069 17.952 60.2669 17.568C59.6375 17.184 59.1415 16.6453 58.7789 15.952C58.4162 15.2587 58.2349 14.4693 58.2349 13.584ZM65.6589 13.6C65.6589 12.9387 65.5255 12.3627 65.2589 11.872C64.9922 11.3813 64.6295 11.008 64.1709 10.752C63.7229 10.4853 63.2269 10.352 62.6829 10.352C62.1389 10.352 61.6429 10.48 61.1949 10.736C60.7469 10.992 60.3895 11.3653 60.1229 11.856C59.8562 12.3467 59.7229 12.9227 59.7229 13.584C59.7229 14.256 59.8562 14.8427 60.1229 15.344C60.3895 15.8347 60.7469 16.2133 61.1949 16.48C61.6429 16.736 62.1389 16.864 62.6829 16.864C63.2269 16.864 63.7229 16.736 64.1709 16.48C64.6295 16.2133 64.9922 15.8347 65.2589 15.344C65.5255 14.8427 65.6589 14.2613 65.6589 13.6ZM76.961 18.144C76.289 18.144 75.6863 18.032 75.153 17.808C74.6197 17.5733 74.1983 17.2533 73.889 16.848C73.5797 16.432 73.409 15.9573 73.377 15.424H74.881C74.9237 15.8613 75.1263 16.2187 75.489 16.496C75.8623 16.7733 76.3477 16.912 76.945 16.912C77.4997 16.912 77.937 16.7893 78.257 16.544C78.577 16.2987 78.737 15.9893 78.737 15.616C78.737 15.232 78.5663 14.9493 78.225 14.768C77.8837 14.576 77.3557 14.3893 76.641 14.208C75.9903 14.0373 75.457 13.8667 75.041 13.696C74.6357 13.5147 74.2837 13.2533 73.985 12.912C73.697 12.56 73.553 12.1013 73.553 11.536C73.553 11.088 73.6863 10.6773 73.953 10.304C74.2197 9.93067 74.5983 9.63733 75.089 9.424C75.5797 9.2 76.1397 9.088 76.769 9.088C77.7397 9.088 78.5237 9.33333 79.121 9.824C79.7183 10.3147 80.0383 10.9867 80.081 11.84H78.625C78.593 11.3813 78.4063 11.0133 78.065 10.736C77.7343 10.4587 77.2863 10.32 76.721 10.32C76.1983 10.32 75.7823 10.432 75.473 10.656C75.1637 10.88 75.009 11.1733 75.009 11.536C75.009 11.824 75.0997 12.064 75.281 12.256C75.473 12.4373 75.7077 12.5867 75.985 12.704C76.273 12.8107 76.6677 12.9333 77.169 13.072C77.7983 13.2427 78.3103 13.4133 78.705 13.584C79.0997 13.744 79.4357 13.9893 79.713 14.32C80.001 14.6507 80.1503 15.0827 80.161 15.616C80.161 16.096 80.0277 16.528 79.761 16.912C79.4943 17.296 79.1157 17.6 78.625 17.824C78.145 18.0373 77.5903 18.144 76.961 18.144ZM86.0404 18.144C85.219 18.144 84.4724 17.9573 83.8004 17.584C83.139 17.2107 82.6164 16.6827 82.2324 16C81.859 15.3067 81.6724 14.5067 81.6724 13.6C81.6724 12.704 81.8644 11.9147 82.2484 11.232C82.643 10.5387 83.1764 10.0107 83.8484 9.648C84.5204 9.27467 85.2724 9.088 86.1044 9.088C86.9364 9.088 87.6884 9.27467 88.3604 9.648C89.0324 10.0107 89.5604 10.5333 89.9444 11.216C90.339 11.8987 90.5364 12.6933 90.5364 13.6C90.5364 14.5067 90.3337 15.3067 89.9284 16C89.5337 16.6827 88.995 17.2107 88.3124 17.584C87.6297 17.9573 86.8724 18.144 86.0404 18.144ZM86.0404 16.864C86.563 16.864 87.0537 16.7413 87.5124 16.496C87.971 16.2507 88.339 15.8827 88.6164 15.392C88.9044 14.9013 89.0484 14.304 89.0484 13.6C89.0484 12.896 88.9097 12.2987 88.6324 11.808C88.355 11.3173 87.9924 10.9547 87.5444 10.72C87.0964 10.4747 86.611 10.352 86.0884 10.352C85.555 10.352 85.0644 10.4747 84.6164 10.72C84.179 10.9547 83.827 11.3173 83.5604 11.808C83.2937 12.2987 83.1604 12.896 83.1604 13.6C83.1604 14.3147 83.2884 14.9173 83.5444 15.408C83.811 15.8987 84.163 16.2667 84.6004 16.512C85.0377 16.7467 85.5177 16.864 86.0404 16.864ZM96.0188 10.432H94.1788V18H92.7228V10.432H91.5868V9.232H92.7228V8.608C92.7228 7.62667 92.9734 6.912 93.4748 6.464C93.9868 6.00533 94.8028 5.776 95.9227 5.776V6.992C95.2828 6.992 94.8294 7.12 94.5628 7.376C94.3068 7.62133 94.1788 8.032 94.1788 8.608V9.232H96.0188V10.432ZM97.1724 13.584C97.1724 12.688 97.3537 11.904 97.7164 11.232C98.079 10.5493 98.575 10.0213 99.2044 9.648C99.8444 9.27467 100.554 9.088 101.332 9.088C102.1 9.088 102.767 9.25333 103.332 9.584C103.898 9.91467 104.319 10.3307 104.596 10.832V9.232H106.068V18H104.596V16.368C104.308 16.88 103.876 17.3067 103.3 17.648C102.735 17.9787 102.074 18.144 101.316 18.144C100.538 18.144 99.8337 17.952 99.2044 17.568C98.575 17.184 98.079 16.6453 97.7164 15.952C97.3537 15.2587 97.1724 14.4693 97.1724 13.584ZM104.596 13.6C104.596 12.9387 104.463 12.3627 104.196 11.872C103.93 11.3813 103.567 11.008 103.108 10.752C102.66 10.4853 102.164 10.352 101.62 10.352C101.076 10.352 100.58 10.48 100.132 10.736C99.6844 10.992 99.327 11.3653 99.0604 11.856C98.7937 12.3467 98.6604 12.9227 98.6604 13.584C98.6604 14.256 98.7937 14.8427 99.0604 15.344C99.327 15.8347 99.6844 16.2133 100.132 16.48C100.58 16.736 101.076 16.864 101.62 16.864C102.164 16.864 102.66 16.736 103.108 16.48C103.567 16.2133 103.93 15.8347 104.196 15.344C104.463 14.8427 104.596 14.2613 104.596 13.6Z" fill="black"/>
<path d="M10.464 61L6.624 54.328H4.536V61H1.8V44.32H7.56C8.84 44.32 9.92 44.544 10.8 44.992C11.696 45.44 12.36 46.04 12.792 46.792C13.24 47.544 13.464 48.384 13.464 49.312C13.464 50.4 13.144 51.392 12.504 52.288C11.88 53.168 10.912 53.768 9.6 54.088L13.728 61H10.464ZM4.536 52.144H7.56C8.584 52.144 9.352 51.888 9.864 51.376C10.392 50.864 10.656 50.176 10.656 49.312C10.656 48.448 10.4 47.776 9.888 47.296C9.376 46.8 8.6 46.552 7.56 46.552H4.536V52.144ZM21.7641 61.216C20.7241 61.216 19.7881 61.032 18.9561 60.664C18.1401 60.28 17.4921 59.768 17.0121 59.128C16.5321 58.472 16.2761 57.744 16.2441 56.944H19.0761C19.1241 57.504 19.3881 57.976 19.8681 58.36C20.3641 58.728 20.9801 58.912 21.7161 58.912C22.4841 58.912 23.0761 58.768 23.4921 58.48C23.9241 58.176 24.1401 57.792 24.1401 57.328C24.1401 56.832 23.9001 56.464 23.4201 56.224C22.9561 55.984 22.2121 55.72 21.1881 55.432C20.1961 55.16 19.3881 54.896 18.7641 54.64C18.1401 54.384 17.5961 53.992 17.1321 53.464C16.6841 52.936 16.4601 52.24 16.4601 51.376C16.4601 50.672 16.6681 50.032 17.0841 49.456C17.5001 48.864 18.0921 48.4 18.8601 48.064C19.6441 47.728 20.5401 47.56 21.5481 47.56C23.0521 47.56 24.2601 47.944 25.1721 48.712C26.1001 49.464 26.5961 50.496 26.6601 51.808H23.9241C23.8761 51.216 23.6361 50.744 23.2041 50.392C22.7721 50.04 22.1881 49.864 21.4521 49.864C20.7321 49.864 20.1801 50 19.7961 50.272C19.4121 50.544 19.2201 50.904 19.2201 51.352C19.2201 51.704 19.3481 52 19.6041 52.24C19.8601 52.48 20.1721 52.672 20.5401 52.816C20.9081 52.944 21.4521 53.112 22.1721 53.32C23.1321 53.576 23.9161 53.84 24.5241 54.112C25.1481 54.368 25.6841 54.752 26.1321 55.264C26.5801 55.776 26.8121 56.456 26.8281 57.304C26.8281 58.056 26.6201 58.728 26.2041 59.32C25.7881 59.912 25.1961 60.376 24.4281 60.712C23.6761 61.048 22.7881 61.216 21.7641 61.216ZM30.8884 61.168C30.3924 61.168 29.9764 61 29.6404 60.664C29.3044 60.328 29.1364 59.912 29.1364 59.416C29.1364 58.92 29.3044 58.504 29.6404 58.168C29.9764 57.832 30.3924 57.664 30.8884 57.664C31.3684 57.664 31.7764 57.832 32.1124 58.168C32.4484 58.504 32.6164 58.92 32.6164 59.416C32.6164 59.912 32.4484 60.328 32.1124 60.664C31.7764 61 31.3684 61.168 30.8884 61.168ZM42.9598 57.28C44.4958 55.952 45.7038 54.864 46.5838 54.016C47.4798 53.152 48.2238 52.256 48.8158 51.328C49.4078 50.4 49.7038 49.472 49.7038 48.544C49.7038 47.584 49.4718 46.832 49.0078 46.288C48.5598 45.744 47.8478 45.472 46.8718 45.472C45.9278 45.472 45.1918 45.776 44.6638 46.384C44.1518 46.976 43.8798 47.776 43.8478 48.784H41.2078C41.2558 46.96 41.7998 45.568 42.8398 44.608C43.8958 43.632 45.2318 43.144 46.8478 43.144C48.5918 43.144 49.9518 43.624 50.9278 44.584C51.9198 45.544 52.4158 46.824 52.4158 48.424C52.4158 49.576 52.1198 50.688 51.5278 51.76C50.9518 52.816 50.2558 53.768 49.4398 54.616C48.6398 55.448 47.6158 56.416 46.3678 57.52L45.2878 58.48H52.8958V60.76H41.2318V58.768L42.9598 57.28ZM66.5794 45.856H58.5394V50.632C58.8754 50.184 59.3714 49.808 60.0274 49.504C60.6994 49.2 61.4114 49.048 62.1634 49.048C63.5074 49.048 64.5954 49.336 65.4274 49.912C66.2754 50.488 66.8754 51.216 67.2274 52.096C67.5954 52.976 67.7794 53.904 67.7794 54.88C67.7794 56.064 67.5474 57.12 67.0834 58.048C66.6354 58.96 65.9554 59.68 65.0434 60.208C64.1474 60.736 63.0434 61 61.7314 61C59.9874 61 58.5874 60.568 57.5314 59.704C56.4754 58.84 55.8434 57.696 55.6354 56.272H58.2994C58.4754 57.024 58.8674 57.624 59.4754 58.072C60.0834 58.504 60.8434 58.72 61.7554 58.72C62.8914 58.72 63.7394 58.376 64.2994 57.688C64.8754 57 65.1634 56.088 65.1634 54.952C65.1634 53.8 64.8754 52.92 64.2994 52.312C63.7234 51.688 62.8754 51.376 61.7554 51.376C60.9714 51.376 60.3074 51.576 59.7634 51.976C59.2354 52.36 58.8514 52.888 58.6114 53.56H56.0194V43.456H66.5794V45.856ZM70.6275 52.024C70.6275 49.256 71.0915 47.096 72.0195 45.544C72.9635 43.976 74.5795 43.192 76.8675 43.192C79.1555 43.192 80.7635 43.976 81.6915 45.544C82.6355 47.096 83.1075 49.256 83.1075 52.024C83.1075 54.824 82.6355 57.016 81.6915 58.6C80.7635 60.168 79.1555 60.952 76.8675 60.952C74.5795 60.952 72.9635 60.168 72.0195 58.6C71.0915 57.016 70.6275 54.824 70.6275 52.024ZM80.4195 52.024C80.4195 50.728 80.3315 49.632 80.1555 48.736C79.9955 47.84 79.6595 47.112 79.1475 46.552C78.6355 45.976 77.8755 45.688 76.8675 45.688C75.8595 45.688 75.0995 45.976 74.5875 46.552C74.0755 47.112 73.7315 47.84 73.5555 48.736C73.3955 49.632 73.3155 50.728 73.3155 52.024C73.3155 53.368 73.3955 54.496 73.5555 55.408C73.7155 56.32 74.0515 57.056 74.5635 57.616C75.0915 58.176 75.8595 58.456 76.8675 58.456C77.8755 58.456 78.6355 58.176 79.1475 57.616C79.6755 57.056 80.0195 56.32 80.1795 55.408C80.3395 54.496 80.4195 53.368 80.4195 52.024ZM89.3625 57.712L86.4585 64.336H84.6825L86.3865 57.712H89.3625ZM91.3931 52.024C91.3931 49.256 91.8571 47.096 92.7851 45.544C93.7291 43.976 95.3451 43.192 97.6331 43.192C99.9211 43.192 101.529 43.976 102.457 45.544C103.401 47.096 103.873 49.256 103.873 52.024C103.873 54.824 103.401 57.016 102.457 58.6C101.529 60.168 99.9211 60.952 97.6331 60.952C95.3451 60.952 93.7291 60.168 92.7851 58.6C91.8571 57.016 91.3931 54.824 91.3931 52.024ZM101.185 52.024C101.185 50.728 101.097 49.632 100.921 48.736C100.761 47.84 100.425 47.112 99.9131 46.552C99.4011 45.976 98.6411 45.688 97.6331 45.688C96.6251 45.688 95.8651 45.976 95.3531 46.552C94.8411 47.112 94.4971 47.84 94.3211 48.736C94.1611 49.632 94.0811 50.728 94.0811 52.024C94.0811 53.368 94.1611 54.496 94.3211 55.408C94.4811 56.32 94.8171 57.056 95.3291 57.616C95.8571 58.176 96.6251 58.456 97.6331 58.456C98.6411 58.456 99.4011 58.176 99.9131 57.616C100.441 57.056 100.785 56.32 100.945 55.408C101.105 54.496 101.185 53.368 101.185 52.024ZM106.768 52.024C106.768 49.256 107.232 47.096 108.16 45.544C109.104 43.976 110.72 43.192 113.008 43.192C115.296 43.192 116.904 43.976 117.832 45.544C118.776 47.096 119.248 49.256 119.248 52.024C119.248 54.824 118.776 57.016 117.832 58.6C116.904 60.168 115.296 60.952 113.008 60.952C110.72 60.952 109.104 60.168 108.16 58.6C107.232 57.016 106.768 54.824 106.768 52.024ZM116.56 52.024C116.56 50.728 116.472 49.632 116.296 48.736C116.136 47.84 115.8 47.112 115.288 46.552C114.776 45.976 114.016 45.688 113.008 45.688C112 45.688 111.24 45.976 110.728 46.552C110.216 47.112 109.872 47.84 109.696 48.736C109.536 49.632 109.456 50.728 109.456 52.024C109.456 53.368 109.536 54.496 109.696 55.408C109.856 56.32 110.192 57.056 110.704 57.616C111.232 58.176 112 58.456 113.008 58.456C114.016 58.456 114.776 58.176 115.288 57.616C115.816 57.056 116.16 56.32 116.32 55.408C116.48 54.496 116.56 53.368 116.56 52.024ZM122.143 52.024C122.143 49.256 122.607 47.096 123.535 45.544C124.479 43.976 126.095 43.192 128.383 43.192C130.671 43.192 132.279 43.976 133.207 45.544C134.151 47.096 134.623 49.256 134.623 52.024C134.623 54.824 134.151 57.016 133.207 58.6C132.279 60.168 130.671 60.952 128.383 60.952C126.095 60.952 124.479 60.168 123.535 58.6C122.607 57.016 122.143 54.824 122.143 52.024ZM131.935 52.024C131.935 50.728 131.847 49.632 131.671 48.736C131.511 47.84 131.175 47.112 130.663 46.552C130.151 45.976 129.391 45.688 128.383 45.688C127.375 45.688 126.615 45.976 126.103 46.552C125.591 47.112 125.247 47.84 125.071 48.736C124.911 49.632 124.831 50.728 124.831 52.024C124.831 53.368 124.911 54.496 125.071 55.408C125.231 56.32 125.567 57.056 126.079 57.616C126.607 58.176 127.375 58.456 128.383 58.456C129.391 58.456 130.151 58.176 130.663 57.616C131.191 57.056 131.535 56.32 131.695 55.408C131.855 54.496 131.935 53.368 131.935 52.024ZM138.982 61.168C138.486 61.168 138.07 61 137.734 60.664C137.398 60.328 137.23 59.912 137.23 59.416C137.23 58.92 137.398 58.504 137.734 58.168C138.07 57.832 138.486 57.664 138.982 57.664C139.462 57.664 139.87 57.832 140.206 58.168C140.542 58.504 140.71 58.92 140.71 59.416C140.71 59.912 140.542 60.328 140.206 60.664C139.87 61 139.462 61.168 138.982 61.168ZM143.307 52.024C143.307 49.256 143.771 47.096 144.699 45.544C145.643 43.976 147.259 43.192 149.547 43.192C151.835 43.192 153.443 43.976 154.371 45.544C155.315 47.096 155.787 49.256 155.787 52.024C155.787 54.824 155.315 57.016 154.371 58.6C153.443 60.168 151.835 60.952 149.547 60.952C147.259 60.952 145.643 60.168 144.699 58.6C143.771 57.016 143.307 54.824 143.307 52.024ZM153.099 52.024C153.099 50.728 153.011 49.632 152.835 48.736C152.675 47.84 152.339 47.112 151.827 46.552C151.315 45.976 150.555 45.688 149.547 45.688C148.539 45.688 147.779 45.976 147.267 46.552C146.755 47.112 146.411 47.84 146.235 48.736C146.075 49.632 145.995 50.728 145.995 52.024C145.995 53.368 146.075 54.496 146.235 55.408C146.395 56.32 146.731 57.056 147.243 57.616C147.771 58.176 148.539 58.456 149.547 58.456C150.555 58.456 151.315 58.176 151.827 57.616C152.355 57.056 152.699 56.32 152.859 55.408C153.019 54.496 153.099 53.368 153.099 52.024ZM158.682 52.024C158.682 49.256 159.146 47.096 160.074 45.544C161.018 43.976 162.634 43.192 164.922 43.192C167.21 43.192 168.818 43.976 169.746 45.544C170.69 47.096 171.162 49.256 171.162 52.024C171.162 54.824 170.69 57.016 169.746 58.6C168.818 60.168 167.21 60.952 164.922 60.952C162.634 60.952 161.018 60.168 160.074 58.6C159.146 57.016 158.682 54.824 158.682 52.024ZM168.474 52.024C168.474 50.728 168.386 49.632 168.21 48.736C168.05 47.84 167.714 47.112 167.202 46.552C166.69 45.976 165.93 45.688 164.922 45.688C163.914 45.688 163.154 45.976 162.642 46.552C162.13 47.112 161.786 47.84 161.61 48.736C161.45 49.632 161.37 50.728 161.37 52.024C161.37 53.368 161.45 54.496 161.61 55.408C161.77 56.32 162.106 57.056 162.618 57.616C163.146 58.176 163.914 58.456 164.922 58.456C165.93 58.456 166.69 58.176 167.202 57.616C167.73 57.056 168.074 56.32 168.234 55.408C168.394 54.496 168.474 53.368 168.474 52.024Z" fill="black"/>
</svg>
