<svg width="145" height="24" viewBox="0 0 145 24" fill="none" xmlns="http://www.w3.org/2000/svg">
<path d="M10.08 6.88V18H8.256V13.136H3.024V18H1.2V6.88H3.024V11.648H8.256V6.88H10.08ZM16.3053 18.144C15.4733 18.144 14.7213 17.9573 14.0493 17.584C13.3773 17.2 12.8493 16.6667 12.4653 15.984C12.0813 15.2907 11.8893 14.4907 11.8893 13.584C11.8893 12.688 12.0866 11.8933 12.4813 11.2C12.8759 10.5067 13.4146 9.97333 14.0973 9.6C14.7799 9.22667 15.5426 9.04 16.3853 9.04C17.2279 9.04 17.9906 9.22667 18.6733 9.6C19.3559 9.97333 19.8946 10.5067 20.2893 11.2C20.6839 11.8933 20.8813 12.688 20.8813 13.584C20.8813 14.48 20.6786 15.2747 20.2733 15.968C19.8679 16.6613 19.3133 17.2 18.6093 17.584C17.9159 17.9573 17.1479 18.144 16.3053 18.144ZM16.3053 16.56C16.7746 16.56 17.2119 16.448 17.6173 16.224C18.0333 16 18.3693 15.664 18.6253 15.216C18.8813 14.768 19.0093 14.224 19.0093 13.584C19.0093 12.944 18.8866 12.4053 18.6413 11.968C18.3959 11.52 18.0706 11.184 17.6653 10.96C17.2599 10.736 16.8226 10.624 16.3533 10.624C15.8839 10.624 15.4466 10.736 15.0413 10.96C14.6466 11.184 14.3319 11.52 14.0973 11.968C13.8626 12.4053 13.7453 12.944 13.7453 13.584C13.7453 14.5333 13.9853 15.2693 14.4653 15.792C14.9559 16.304 15.5693 16.56 16.3053 16.56ZM33.3564 9.04C34.0497 9.04 34.6684 9.184 35.2124 9.472C35.767 9.76 36.199 10.1867 36.5084 10.752C36.8284 11.3173 36.9884 12 36.9884 12.8V18H35.1804V13.072C35.1804 12.2827 34.983 11.68 34.5884 11.264C34.1937 10.8373 33.655 10.624 32.9724 10.624C32.2897 10.624 31.7457 10.8373 31.3404 11.264C30.9457 11.68 30.7484 12.2827 30.7484 13.072V18H28.9404V13.072C28.9404 12.2827 28.743 11.68 28.3484 11.264C27.9537 10.8373 27.415 10.624 26.7324 10.624C26.0497 10.624 25.5057 10.8373 25.1004 11.264C24.7057 11.68 24.5084 12.2827 24.5084 13.072V18H22.6844V9.184H24.5084V10.192C24.807 9.82933 25.1857 9.54667 25.6444 9.344C26.103 9.14133 26.5937 9.04 27.1164 9.04C27.8204 9.04 28.4497 9.18933 29.0044 9.488C29.559 9.78667 29.9857 10.2187 30.2844 10.784C30.551 10.2507 30.967 9.82933 31.5324 9.52C32.0977 9.2 32.7057 9.04 33.3564 9.04ZM47.3894 13.376C47.3894 13.7067 47.368 14.0053 47.3254 14.272H40.5894C40.6427 14.976 40.904 15.5413 41.3734 15.968C41.8427 16.3947 42.4187 16.608 43.1014 16.608C44.0827 16.608 44.776 16.1973 45.1814 15.376H47.1494C46.8827 16.1867 46.3974 16.8533 45.6934 17.376C45 17.888 44.136 18.144 43.1014 18.144C42.2587 18.144 41.5014 17.9573 40.8294 17.584C40.168 17.2 39.6454 16.6667 39.2614 15.984C38.888 15.2907 38.7014 14.4907 38.7014 13.584C38.7014 12.6773 38.8827 11.8827 39.2454 11.2C39.6187 10.5067 40.136 9.97333 40.7974 9.6C41.4694 9.22667 42.2374 9.04 43.1014 9.04C43.9334 9.04 44.6747 9.22133 45.3254 9.584C45.976 9.94667 46.4827 10.4587 46.8454 11.12C47.208 11.7707 47.3894 12.5227 47.3894 13.376ZM45.4854 12.8C45.4747 12.128 45.2347 11.5893 44.7654 11.184C44.296 10.7787 43.7147 10.576 43.0214 10.576C42.392 10.576 41.8534 10.7787 41.4054 11.184C40.9574 11.5787 40.6907 12.1173 40.6054 12.8H45.4854Z" fill="black"/>
<path d="M80.768 12.4C80.768 11.3013 81.008 10.32 81.488 9.456C81.968 8.58133 82.624 7.904 83.456 7.424C84.288 6.93333 85.216 6.688 86.24 6.688C87.488 6.688 88.5547 6.98667 89.44 7.584C90.336 8.17067 90.9867 9.00267 91.392 10.08H90.08C89.76 9.32267 89.2693 8.73067 88.608 8.304C87.9573 7.87733 87.168 7.664 86.24 7.664C85.4187 7.664 84.6773 7.856 84.016 8.24C83.3653 8.624 82.8533 9.17867 82.48 9.904C82.1067 10.6187 81.92 11.4507 81.92 12.4C81.92 13.3493 82.1067 14.1813 82.48 14.896C82.8533 15.6107 83.3653 16.16 84.016 16.544C84.6773 16.928 85.4187 17.12 86.24 17.12C87.168 17.12 87.9573 16.912 88.608 16.496C89.2693 16.0693 89.76 15.4827 90.08 14.736H91.392C90.9867 15.8027 90.336 16.6293 89.44 17.216C88.544 17.8027 87.4773 18.096 86.24 18.096C85.216 18.096 84.288 17.856 83.456 17.376C82.624 16.8853 81.968 16.208 81.488 15.344C81.008 14.48 80.768 13.4987 80.768 12.4ZM97.4478 18.128C96.6264 18.128 95.8851 17.9467 95.2238 17.584C94.5731 17.2107 94.0558 16.688 93.6718 16.016C93.2984 15.3333 93.1118 14.5387 93.1118 13.632C93.1118 12.7253 93.3038 11.936 93.6878 11.264C94.0718 10.5813 94.5944 10.0587 95.2558 9.696C95.9171 9.32267 96.6584 9.136 97.4798 9.136C98.3011 9.136 99.0424 9.32267 99.7038 9.696C100.376 10.0587 100.898 10.5813 101.272 11.264C101.656 11.936 101.848 12.7253 101.848 13.632C101.848 14.528 101.656 15.3173 101.272 16C100.888 16.6827 100.36 17.2107 99.6878 17.584C99.0158 17.9467 98.2691 18.128 97.4478 18.128ZM97.4478 17.152C98.0238 17.152 98.5571 17.024 99.0478 16.768C99.5384 16.5013 99.9331 16.1067 100.232 15.584C100.541 15.0507 100.696 14.4 100.696 13.632C100.696 12.864 100.546 12.2187 100.248 11.696C99.9491 11.1627 99.5544 10.768 99.0638 10.512C98.5731 10.2453 98.0398 10.112 97.4638 10.112C96.8878 10.112 96.3544 10.2453 95.8638 10.512C95.3731 10.768 94.9784 11.1627 94.6798 11.696C94.3918 12.2187 94.2478 12.864 94.2478 13.632C94.2478 14.4 94.3918 15.0507 94.6798 15.584C94.9784 16.1067 95.3678 16.5013 95.8478 16.768C96.3384 17.024 96.8718 17.152 97.4478 17.152ZM107.985 9.104C109.031 9.104 109.884 9.42933 110.545 10.08C111.207 10.72 111.537 11.6533 111.537 12.88V18H110.433V13.008C110.433 12.0587 110.193 11.3333 109.713 10.832C109.244 10.3307 108.599 10.08 107.777 10.08C106.935 10.08 106.263 10.3467 105.761 10.88C105.26 11.4133 105.009 12.1973 105.009 13.232V18H103.889V9.264H105.009V10.752C105.287 10.2187 105.687 9.81333 106.209 9.536C106.732 9.248 107.324 9.104 107.985 9.104ZM115.47 10.208V15.632C115.47 16.1653 115.572 16.5333 115.774 16.736C115.977 16.9387 116.334 17.04 116.846 17.04H117.87V18H116.67C115.881 18 115.294 17.8187 114.91 17.456C114.526 17.0827 114.334 16.4747 114.334 15.632V10.208H113.118V9.264H114.334V7.072H115.47V9.264H117.87V10.208H115.47ZM119.206 13.616C119.206 12.72 119.382 11.936 119.734 11.264C120.096 10.5813 120.592 10.0587 121.222 9.696C121.862 9.32267 122.582 9.136 123.382 9.136C124.214 9.136 124.928 9.328 125.526 9.712C126.134 10.096 126.571 10.5867 126.838 11.184V9.264H127.958V18H126.838V16.064C126.56 16.6613 126.118 17.1573 125.51 17.552C124.912 17.936 124.198 18.128 123.366 18.128C122.576 18.128 121.862 17.9413 121.222 17.568C120.592 17.1947 120.096 16.6667 119.734 15.984C119.382 15.3013 119.206 14.512 119.206 13.616ZM126.838 13.632C126.838 12.928 126.694 12.3093 126.406 11.776C126.118 11.2427 125.723 10.832 125.222 10.544C124.731 10.256 124.187 10.112 123.59 10.112C122.971 10.112 122.416 10.2507 121.926 10.528C121.435 10.8053 121.046 11.2107 120.758 11.744C120.48 12.2667 120.342 12.8907 120.342 13.616C120.342 14.3307 120.48 14.96 120.758 15.504C121.046 16.0373 121.435 16.448 121.926 16.736C122.416 17.0133 122.971 17.152 123.59 17.152C124.187 17.152 124.731 17.008 125.222 16.72C125.723 16.432 126.118 16.0213 126.406 15.488C126.694 14.9547 126.838 14.336 126.838 13.632ZM130.002 13.632C130.002 12.7253 130.184 11.936 130.546 11.264C130.909 10.5813 131.41 10.0587 132.05 9.696C132.69 9.32267 133.421 9.136 134.242 9.136C135.32 9.136 136.205 9.40267 136.898 9.936C137.602 10.4693 138.056 11.1947 138.258 12.112H137.058C136.909 11.4827 136.584 10.992 136.082 10.64C135.592 10.2773 134.978 10.096 134.242 10.096C133.656 10.096 133.128 10.2293 132.658 10.496C132.189 10.7627 131.816 11.1627 131.538 11.696C131.272 12.2187 131.138 12.864 131.138 13.632C131.138 14.4 131.272 15.0507 131.538 15.584C131.816 16.1173 132.189 16.5173 132.658 16.784C133.128 17.0507 133.656 17.184 134.242 17.184C134.978 17.184 135.592 17.008 136.082 16.656C136.584 16.2933 136.909 15.792 137.058 15.152H138.258C138.056 16.048 137.602 16.768 136.898 17.312C136.194 17.856 135.309 18.128 134.242 18.128C133.421 18.128 132.69 17.9467 132.05 17.584C131.41 17.2107 130.909 16.688 130.546 16.016C130.184 15.3333 130.002 14.5387 130.002 13.632ZM141.783 10.208V15.632C141.783 16.1653 141.884 16.5333 142.087 16.736C142.29 16.9387 142.647 17.04 143.159 17.04H144.183V18H142.983C142.194 18 141.607 17.8187 141.223 17.456C140.839 17.0827 140.647 16.4747 140.647 15.632V10.208H139.431V9.264H140.647V7.072H141.783V9.264H144.183V10.208H141.783Z" fill="black"/>
<path d="M60 17L65 12L60 7L61 5L68 12L61 19L60 17Z" fill="black"/>
</svg>
